%TF.GenerationSoftware,KiCad,Pcbnew,7.0.1*%
%TF.CreationDate,2023-04-19T22:29:49+02:00*%
%TF.ProjectId,OpenDTU_Breakout,4f70656e-4454-4555-9f42-7265616b6f75,rev?*%
%TF.SameCoordinates,Original*%
%TF.FileFunction,Legend,Top*%
%TF.FilePolarity,Positive*%
%FSLAX46Y46*%
G04 Gerber Fmt 4.6, Leading zero omitted, Abs format (unit mm)*
G04 Created by KiCad (PCBNEW 7.0.1) date 2023-04-19 22:29:49*
%MOMM*%
%LPD*%
G01*
G04 APERTURE LIST*
%ADD10C,0.150000*%
%ADD11C,0.120000*%
G04 APERTURE END LIST*
D10*
%TO.C,R3*%
X129962619Y-110166666D02*
X129486428Y-110499999D01*
X129962619Y-110738094D02*
X128962619Y-110738094D01*
X128962619Y-110738094D02*
X128962619Y-110357142D01*
X128962619Y-110357142D02*
X129010238Y-110261904D01*
X129010238Y-110261904D02*
X129057857Y-110214285D01*
X129057857Y-110214285D02*
X129153095Y-110166666D01*
X129153095Y-110166666D02*
X129295952Y-110166666D01*
X129295952Y-110166666D02*
X129391190Y-110214285D01*
X129391190Y-110214285D02*
X129438809Y-110261904D01*
X129438809Y-110261904D02*
X129486428Y-110357142D01*
X129486428Y-110357142D02*
X129486428Y-110738094D01*
X128962619Y-109833332D02*
X128962619Y-109214285D01*
X128962619Y-109214285D02*
X129343571Y-109547618D01*
X129343571Y-109547618D02*
X129343571Y-109404761D01*
X129343571Y-109404761D02*
X129391190Y-109309523D01*
X129391190Y-109309523D02*
X129438809Y-109261904D01*
X129438809Y-109261904D02*
X129534047Y-109214285D01*
X129534047Y-109214285D02*
X129772142Y-109214285D01*
X129772142Y-109214285D02*
X129867380Y-109261904D01*
X129867380Y-109261904D02*
X129915000Y-109309523D01*
X129915000Y-109309523D02*
X129962619Y-109404761D01*
X129962619Y-109404761D02*
X129962619Y-109690475D01*
X129962619Y-109690475D02*
X129915000Y-109785713D01*
X129915000Y-109785713D02*
X129867380Y-109833332D01*
%TO.C,R2*%
X133962619Y-110086666D02*
X133486428Y-110419999D01*
X133962619Y-110658094D02*
X132962619Y-110658094D01*
X132962619Y-110658094D02*
X132962619Y-110277142D01*
X132962619Y-110277142D02*
X133010238Y-110181904D01*
X133010238Y-110181904D02*
X133057857Y-110134285D01*
X133057857Y-110134285D02*
X133153095Y-110086666D01*
X133153095Y-110086666D02*
X133295952Y-110086666D01*
X133295952Y-110086666D02*
X133391190Y-110134285D01*
X133391190Y-110134285D02*
X133438809Y-110181904D01*
X133438809Y-110181904D02*
X133486428Y-110277142D01*
X133486428Y-110277142D02*
X133486428Y-110658094D01*
X133057857Y-109705713D02*
X133010238Y-109658094D01*
X133010238Y-109658094D02*
X132962619Y-109562856D01*
X132962619Y-109562856D02*
X132962619Y-109324761D01*
X132962619Y-109324761D02*
X133010238Y-109229523D01*
X133010238Y-109229523D02*
X133057857Y-109181904D01*
X133057857Y-109181904D02*
X133153095Y-109134285D01*
X133153095Y-109134285D02*
X133248333Y-109134285D01*
X133248333Y-109134285D02*
X133391190Y-109181904D01*
X133391190Y-109181904D02*
X133962619Y-109753332D01*
X133962619Y-109753332D02*
X133962619Y-109134285D01*
%TO.C,R1*%
X125712619Y-110166666D02*
X125236428Y-110499999D01*
X125712619Y-110738094D02*
X124712619Y-110738094D01*
X124712619Y-110738094D02*
X124712619Y-110357142D01*
X124712619Y-110357142D02*
X124760238Y-110261904D01*
X124760238Y-110261904D02*
X124807857Y-110214285D01*
X124807857Y-110214285D02*
X124903095Y-110166666D01*
X124903095Y-110166666D02*
X125045952Y-110166666D01*
X125045952Y-110166666D02*
X125141190Y-110214285D01*
X125141190Y-110214285D02*
X125188809Y-110261904D01*
X125188809Y-110261904D02*
X125236428Y-110357142D01*
X125236428Y-110357142D02*
X125236428Y-110738094D01*
X125712619Y-109214285D02*
X125712619Y-109785713D01*
X125712619Y-109499999D02*
X124712619Y-109499999D01*
X124712619Y-109499999D02*
X124855476Y-109595237D01*
X124855476Y-109595237D02*
X124950714Y-109690475D01*
X124950714Y-109690475D02*
X124998333Y-109785713D01*
%TO.C,C1*%
X138378221Y-110617380D02*
X138330602Y-110665000D01*
X138330602Y-110665000D02*
X138187745Y-110712619D01*
X138187745Y-110712619D02*
X138092507Y-110712619D01*
X138092507Y-110712619D02*
X137949650Y-110665000D01*
X137949650Y-110665000D02*
X137854412Y-110569761D01*
X137854412Y-110569761D02*
X137806793Y-110474523D01*
X137806793Y-110474523D02*
X137759174Y-110284047D01*
X137759174Y-110284047D02*
X137759174Y-110141190D01*
X137759174Y-110141190D02*
X137806793Y-109950714D01*
X137806793Y-109950714D02*
X137854412Y-109855476D01*
X137854412Y-109855476D02*
X137949650Y-109760238D01*
X137949650Y-109760238D02*
X138092507Y-109712619D01*
X138092507Y-109712619D02*
X138187745Y-109712619D01*
X138187745Y-109712619D02*
X138330602Y-109760238D01*
X138330602Y-109760238D02*
X138378221Y-109807857D01*
X139330602Y-110712619D02*
X138759174Y-110712619D01*
X139044888Y-110712619D02*
X139044888Y-109712619D01*
X139044888Y-109712619D02*
X138949650Y-109855476D01*
X138949650Y-109855476D02*
X138854412Y-109950714D01*
X138854412Y-109950714D02*
X138759174Y-109998333D01*
%TO.C,C2*%
X138333333Y-117867380D02*
X138285714Y-117915000D01*
X138285714Y-117915000D02*
X138142857Y-117962619D01*
X138142857Y-117962619D02*
X138047619Y-117962619D01*
X138047619Y-117962619D02*
X137904762Y-117915000D01*
X137904762Y-117915000D02*
X137809524Y-117819761D01*
X137809524Y-117819761D02*
X137761905Y-117724523D01*
X137761905Y-117724523D02*
X137714286Y-117534047D01*
X137714286Y-117534047D02*
X137714286Y-117391190D01*
X137714286Y-117391190D02*
X137761905Y-117200714D01*
X137761905Y-117200714D02*
X137809524Y-117105476D01*
X137809524Y-117105476D02*
X137904762Y-117010238D01*
X137904762Y-117010238D02*
X138047619Y-116962619D01*
X138047619Y-116962619D02*
X138142857Y-116962619D01*
X138142857Y-116962619D02*
X138285714Y-117010238D01*
X138285714Y-117010238D02*
X138333333Y-117057857D01*
X138714286Y-117057857D02*
X138761905Y-117010238D01*
X138761905Y-117010238D02*
X138857143Y-116962619D01*
X138857143Y-116962619D02*
X139095238Y-116962619D01*
X139095238Y-116962619D02*
X139190476Y-117010238D01*
X139190476Y-117010238D02*
X139238095Y-117057857D01*
X139238095Y-117057857D02*
X139285714Y-117153095D01*
X139285714Y-117153095D02*
X139285714Y-117248333D01*
X139285714Y-117248333D02*
X139238095Y-117391190D01*
X139238095Y-117391190D02*
X138666667Y-117962619D01*
X138666667Y-117962619D02*
X139285714Y-117962619D01*
D11*
%TO.C,R3*%
X129500000Y-105960000D02*
X129500000Y-106730000D01*
X130870000Y-106730000D02*
X128130000Y-106730000D01*
X128130000Y-106730000D02*
X128130000Y-113270000D01*
X130870000Y-113270000D02*
X130870000Y-106730000D01*
X128130000Y-113270000D02*
X130870000Y-113270000D01*
X129500000Y-114040000D02*
X129500000Y-113270000D01*
%TO.C,R2*%
X133500000Y-113960000D02*
X133500000Y-113190000D01*
X132130000Y-113190000D02*
X134870000Y-113190000D01*
X134870000Y-113190000D02*
X134870000Y-106650000D01*
X132130000Y-106650000D02*
X132130000Y-113190000D01*
X134870000Y-106650000D02*
X132130000Y-106650000D01*
X133500000Y-105880000D02*
X133500000Y-106650000D01*
%TO.C,R1*%
X125250000Y-114040000D02*
X125250000Y-113270000D01*
X123880000Y-113270000D02*
X126620000Y-113270000D01*
X126620000Y-113270000D02*
X126620000Y-106730000D01*
X123880000Y-106730000D02*
X123880000Y-113270000D01*
X126620000Y-106730000D02*
X123880000Y-106730000D01*
X125250000Y-105960000D02*
X125250000Y-106730000D01*
%TO.C,C1*%
X135740113Y-105025000D02*
X136240113Y-105025000D01*
X135990113Y-104775000D02*
X135990113Y-105275000D01*
X138544888Y-103920000D02*
X138544888Y-105460000D01*
X138544888Y-107540000D02*
X138544888Y-109080000D01*
X138584888Y-103920000D02*
X138584888Y-105460000D01*
X138584888Y-107540000D02*
X138584888Y-109080000D01*
X138624888Y-103921000D02*
X138624888Y-105460000D01*
X138624888Y-107540000D02*
X138624888Y-109079000D01*
X138664888Y-103922000D02*
X138664888Y-105460000D01*
X138664888Y-107540000D02*
X138664888Y-109078000D01*
X138704888Y-103924000D02*
X138704888Y-105460000D01*
X138704888Y-107540000D02*
X138704888Y-109076000D01*
X138744888Y-103927000D02*
X138744888Y-105460000D01*
X138744888Y-107540000D02*
X138744888Y-109073000D01*
X138784888Y-103931000D02*
X138784888Y-105460000D01*
X138784888Y-107540000D02*
X138784888Y-109069000D01*
X138824888Y-103935000D02*
X138824888Y-105460000D01*
X138824888Y-107540000D02*
X138824888Y-109065000D01*
X138864888Y-103939000D02*
X138864888Y-105460000D01*
X138864888Y-107540000D02*
X138864888Y-109061000D01*
X138904888Y-103944000D02*
X138904888Y-105460000D01*
X138904888Y-107540000D02*
X138904888Y-109056000D01*
X138944888Y-103950000D02*
X138944888Y-105460000D01*
X138944888Y-107540000D02*
X138944888Y-109050000D01*
X138984888Y-103957000D02*
X138984888Y-105460000D01*
X138984888Y-107540000D02*
X138984888Y-109043000D01*
X139024888Y-103964000D02*
X139024888Y-105460000D01*
X139024888Y-107540000D02*
X139024888Y-109036000D01*
X139064888Y-103972000D02*
X139064888Y-105460000D01*
X139064888Y-107540000D02*
X139064888Y-109028000D01*
X139104888Y-103980000D02*
X139104888Y-105460000D01*
X139104888Y-107540000D02*
X139104888Y-109020000D01*
X139144888Y-103989000D02*
X139144888Y-105460000D01*
X139144888Y-107540000D02*
X139144888Y-109011000D01*
X139184888Y-103999000D02*
X139184888Y-105460000D01*
X139184888Y-107540000D02*
X139184888Y-109001000D01*
X139224888Y-104009000D02*
X139224888Y-105460000D01*
X139224888Y-107540000D02*
X139224888Y-108991000D01*
X139265888Y-104020000D02*
X139265888Y-105460000D01*
X139265888Y-107540000D02*
X139265888Y-108980000D01*
X139305888Y-104032000D02*
X139305888Y-105460000D01*
X139305888Y-107540000D02*
X139305888Y-108968000D01*
X139345888Y-104045000D02*
X139345888Y-105460000D01*
X139345888Y-107540000D02*
X139345888Y-108955000D01*
X139385888Y-104058000D02*
X139385888Y-105460000D01*
X139385888Y-107540000D02*
X139385888Y-108942000D01*
X139425888Y-104072000D02*
X139425888Y-105460000D01*
X139425888Y-107540000D02*
X139425888Y-108928000D01*
X139465888Y-104086000D02*
X139465888Y-105460000D01*
X139465888Y-107540000D02*
X139465888Y-108914000D01*
X139505888Y-104102000D02*
X139505888Y-105460000D01*
X139505888Y-107540000D02*
X139505888Y-108898000D01*
X139545888Y-104118000D02*
X139545888Y-105460000D01*
X139545888Y-107540000D02*
X139545888Y-108882000D01*
X139585888Y-104135000D02*
X139585888Y-105460000D01*
X139585888Y-107540000D02*
X139585888Y-108865000D01*
X139625888Y-104152000D02*
X139625888Y-105460000D01*
X139625888Y-107540000D02*
X139625888Y-108848000D01*
X139665888Y-104171000D02*
X139665888Y-105460000D01*
X139665888Y-107540000D02*
X139665888Y-108829000D01*
X139705888Y-104190000D02*
X139705888Y-105460000D01*
X139705888Y-107540000D02*
X139705888Y-108810000D01*
X139745888Y-104210000D02*
X139745888Y-105460000D01*
X139745888Y-107540000D02*
X139745888Y-108790000D01*
X139785888Y-104232000D02*
X139785888Y-105460000D01*
X139785888Y-107540000D02*
X139785888Y-108768000D01*
X139825888Y-104253000D02*
X139825888Y-105460000D01*
X139825888Y-107540000D02*
X139825888Y-108747000D01*
X139865888Y-104276000D02*
X139865888Y-105460000D01*
X139865888Y-107540000D02*
X139865888Y-108724000D01*
X139905888Y-104300000D02*
X139905888Y-105460000D01*
X139905888Y-107540000D02*
X139905888Y-108700000D01*
X139945888Y-104325000D02*
X139945888Y-105460000D01*
X139945888Y-107540000D02*
X139945888Y-108675000D01*
X139985888Y-104351000D02*
X139985888Y-105460000D01*
X139985888Y-107540000D02*
X139985888Y-108649000D01*
X140025888Y-104378000D02*
X140025888Y-105460000D01*
X140025888Y-107540000D02*
X140025888Y-108622000D01*
X140065888Y-104405000D02*
X140065888Y-105460000D01*
X140065888Y-107540000D02*
X140065888Y-108595000D01*
X140105888Y-104435000D02*
X140105888Y-105460000D01*
X140105888Y-107540000D02*
X140105888Y-108565000D01*
X140145888Y-104465000D02*
X140145888Y-105460000D01*
X140145888Y-107540000D02*
X140145888Y-108535000D01*
X140185888Y-104496000D02*
X140185888Y-105460000D01*
X140185888Y-107540000D02*
X140185888Y-108504000D01*
X140225888Y-104529000D02*
X140225888Y-105460000D01*
X140225888Y-107540000D02*
X140225888Y-108471000D01*
X140265888Y-104563000D02*
X140265888Y-105460000D01*
X140265888Y-107540000D02*
X140265888Y-108437000D01*
X140305888Y-104599000D02*
X140305888Y-105460000D01*
X140305888Y-107540000D02*
X140305888Y-108401000D01*
X140345888Y-104636000D02*
X140345888Y-105460000D01*
X140345888Y-107540000D02*
X140345888Y-108364000D01*
X140385888Y-104674000D02*
X140385888Y-105460000D01*
X140385888Y-107540000D02*
X140385888Y-108326000D01*
X140425888Y-104715000D02*
X140425888Y-105460000D01*
X140425888Y-107540000D02*
X140425888Y-108285000D01*
X140465888Y-104757000D02*
X140465888Y-105460000D01*
X140465888Y-107540000D02*
X140465888Y-108243000D01*
X140505888Y-104801000D02*
X140505888Y-105460000D01*
X140505888Y-107540000D02*
X140505888Y-108199000D01*
X140545888Y-104847000D02*
X140545888Y-105460000D01*
X140545888Y-107540000D02*
X140545888Y-108153000D01*
X140585888Y-104895000D02*
X140585888Y-108105000D01*
X140625888Y-104946000D02*
X140625888Y-108054000D01*
X140665888Y-105000000D02*
X140665888Y-108000000D01*
X140705888Y-105057000D02*
X140705888Y-107943000D01*
X140745888Y-105117000D02*
X140745888Y-107883000D01*
X140785888Y-105181000D02*
X140785888Y-107819000D01*
X140825888Y-105249000D02*
X140825888Y-107751000D01*
X140865888Y-105322000D02*
X140865888Y-107678000D01*
X140905888Y-105402000D02*
X140905888Y-107598000D01*
X140945888Y-105489000D02*
X140945888Y-107511000D01*
X140985888Y-105585000D02*
X140985888Y-107415000D01*
X141025888Y-105695000D02*
X141025888Y-107305000D01*
X141065888Y-105823000D02*
X141065888Y-107177000D01*
X141105888Y-105982000D02*
X141105888Y-107018000D01*
X141145888Y-106216000D02*
X141145888Y-106784000D01*
X141164888Y-106500000D02*
G75*
G03*
X141164888Y-106500000I-2620000J0D01*
G01*
%TO.C,C2*%
X136230000Y-116430000D02*
X136230000Y-116445000D01*
X136230000Y-116430000D02*
X140770000Y-116430000D01*
X136230000Y-118555000D02*
X136230000Y-118570000D01*
X136230000Y-118570000D02*
X140770000Y-118570000D01*
X140770000Y-116430000D02*
X140770000Y-116445000D01*
X140770000Y-118555000D02*
X140770000Y-118570000D01*
%TO.C,U1*%
X119745000Y-87460000D02*
X119745000Y-133240000D01*
X119745000Y-87460000D02*
X122405000Y-87460000D01*
X119745000Y-133240000D02*
X122405000Y-133240000D01*
X121075000Y-84860000D02*
X122405000Y-84860000D01*
X122405000Y-84860000D02*
X122405000Y-86190000D01*
X122405000Y-87460000D02*
X122405000Y-133240000D01*
X145145000Y-87460000D02*
X145145000Y-133240000D01*
X145145000Y-87460000D02*
X147805000Y-87460000D01*
X145145000Y-133240000D02*
X147805000Y-133240000D01*
X146475000Y-84860000D02*
X147805000Y-84860000D01*
X147805000Y-84860000D02*
X147805000Y-86190000D01*
X147805000Y-87460000D02*
X147805000Y-133240000D01*
%TD*%
M02*
