%TF.GenerationSoftware,KiCad,Pcbnew,7.0.1*%
%TF.CreationDate,2023-04-19T22:29:49+02:00*%
%TF.ProjectId,OpenDTU_Breakout,4f70656e-4454-4555-9f42-7265616b6f75,rev?*%
%TF.SameCoordinates,Original*%
%TF.FileFunction,Soldermask,Top*%
%TF.FilePolarity,Negative*%
%FSLAX46Y46*%
G04 Gerber Fmt 4.6, Leading zero omitted, Abs format (unit mm)*
G04 Created by KiCad (PCBNEW 7.0.1) date 2023-04-19 22:29:49*
%MOMM*%
%LPD*%
G01*
G04 APERTURE LIST*
G04 Aperture macros list*
%AMRoundRect*
0 Rectangle with rounded corners*
0 $1 Rounding radius*
0 $2 $3 $4 $5 $6 $7 $8 $9 X,Y pos of 4 corners*
0 Add a 4 corners polygon primitive as box body*
4,1,4,$2,$3,$4,$5,$6,$7,$8,$9,$2,$3,0*
0 Add four circle primitives for the rounded corners*
1,1,$1+$1,$2,$3*
1,1,$1+$1,$4,$5*
1,1,$1+$1,$6,$7*
1,1,$1+$1,$8,$9*
0 Add four rect primitives between the rounded corners*
20,1,$1+$1,$2,$3,$4,$5,0*
20,1,$1+$1,$4,$5,$6,$7,0*
20,1,$1+$1,$6,$7,$8,$9,0*
20,1,$1+$1,$8,$9,$2,$3,0*%
G04 Aperture macros list end*
%ADD10C,0.125000*%
%ADD11C,0.150000*%
%ADD12C,1.600000*%
%ADD13O,1.600000X1.600000*%
%ADD14R,1.600000X1.600000*%
%ADD15R,1.700000X1.700000*%
%ADD16O,1.700000X1.700000*%
%ADD17R,1.800000X1.800000*%
%ADD18C,1.800000*%
%ADD19C,1.700000*%
%ADD20RoundRect,0.250000X0.600000X0.750000X-0.600000X0.750000X-0.600000X-0.750000X0.600000X-0.750000X0*%
%ADD21O,1.700000X2.000000*%
G04 APERTURE END LIST*
D10*
X119096964Y-118285714D02*
X118739821Y-118535714D01*
X119096964Y-118714285D02*
X118346964Y-118714285D01*
X118346964Y-118714285D02*
X118346964Y-118428571D01*
X118346964Y-118428571D02*
X118382678Y-118357142D01*
X118382678Y-118357142D02*
X118418392Y-118321428D01*
X118418392Y-118321428D02*
X118489821Y-118285714D01*
X118489821Y-118285714D02*
X118596964Y-118285714D01*
X118596964Y-118285714D02*
X118668392Y-118321428D01*
X118668392Y-118321428D02*
X118704107Y-118357142D01*
X118704107Y-118357142D02*
X118739821Y-118428571D01*
X118739821Y-118428571D02*
X118739821Y-118714285D01*
X118704107Y-117964285D02*
X118704107Y-117714285D01*
X119096964Y-117607142D02*
X119096964Y-117964285D01*
X119096964Y-117964285D02*
X118346964Y-117964285D01*
X118346964Y-117964285D02*
X118346964Y-117607142D01*
X118346964Y-117392857D02*
X119096964Y-117142857D01*
X119096964Y-117142857D02*
X118346964Y-116892857D01*
X118346964Y-116714286D02*
X118346964Y-116250000D01*
X118346964Y-116250000D02*
X118632678Y-116500000D01*
X118632678Y-116500000D02*
X118632678Y-116392857D01*
X118632678Y-116392857D02*
X118668392Y-116321429D01*
X118668392Y-116321429D02*
X118704107Y-116285714D01*
X118704107Y-116285714D02*
X118775535Y-116250000D01*
X118775535Y-116250000D02*
X118954107Y-116250000D01*
X118954107Y-116250000D02*
X119025535Y-116285714D01*
X119025535Y-116285714D02*
X119061250Y-116321429D01*
X119061250Y-116321429D02*
X119096964Y-116392857D01*
X119096964Y-116392857D02*
X119096964Y-116607143D01*
X119096964Y-116607143D02*
X119061250Y-116678571D01*
X119061250Y-116678571D02*
X119025535Y-116714286D01*
D11*
X118617380Y-96583333D02*
X118665000Y-96630952D01*
X118665000Y-96630952D02*
X118712619Y-96773809D01*
X118712619Y-96773809D02*
X118712619Y-96869047D01*
X118712619Y-96869047D02*
X118665000Y-97011904D01*
X118665000Y-97011904D02*
X118569761Y-97107142D01*
X118569761Y-97107142D02*
X118474523Y-97154761D01*
X118474523Y-97154761D02*
X118284047Y-97202380D01*
X118284047Y-97202380D02*
X118141190Y-97202380D01*
X118141190Y-97202380D02*
X117950714Y-97154761D01*
X117950714Y-97154761D02*
X117855476Y-97107142D01*
X117855476Y-97107142D02*
X117760238Y-97011904D01*
X117760238Y-97011904D02*
X117712619Y-96869047D01*
X117712619Y-96869047D02*
X117712619Y-96773809D01*
X117712619Y-96773809D02*
X117760238Y-96630952D01*
X117760238Y-96630952D02*
X117807857Y-96583333D01*
X118617380Y-95583333D02*
X118665000Y-95630952D01*
X118665000Y-95630952D02*
X118712619Y-95773809D01*
X118712619Y-95773809D02*
X118712619Y-95869047D01*
X118712619Y-95869047D02*
X118665000Y-96011904D01*
X118665000Y-96011904D02*
X118569761Y-96107142D01*
X118569761Y-96107142D02*
X118474523Y-96154761D01*
X118474523Y-96154761D02*
X118284047Y-96202380D01*
X118284047Y-96202380D02*
X118141190Y-96202380D01*
X118141190Y-96202380D02*
X117950714Y-96154761D01*
X117950714Y-96154761D02*
X117855476Y-96107142D01*
X117855476Y-96107142D02*
X117760238Y-96011904D01*
X117760238Y-96011904D02*
X117712619Y-95869047D01*
X117712619Y-95869047D02*
X117712619Y-95773809D01*
X117712619Y-95773809D02*
X117760238Y-95630952D01*
X117760238Y-95630952D02*
X117807857Y-95583333D01*
X118331666Y-95154761D02*
X118331666Y-94392857D01*
X118188809Y-93583333D02*
X118236428Y-93440476D01*
X118236428Y-93440476D02*
X118284047Y-93392857D01*
X118284047Y-93392857D02*
X118379285Y-93345238D01*
X118379285Y-93345238D02*
X118522142Y-93345238D01*
X118522142Y-93345238D02*
X118617380Y-93392857D01*
X118617380Y-93392857D02*
X118665000Y-93440476D01*
X118665000Y-93440476D02*
X118712619Y-93535714D01*
X118712619Y-93535714D02*
X118712619Y-93916666D01*
X118712619Y-93916666D02*
X117712619Y-93916666D01*
X117712619Y-93916666D02*
X117712619Y-93583333D01*
X117712619Y-93583333D02*
X117760238Y-93488095D01*
X117760238Y-93488095D02*
X117807857Y-93440476D01*
X117807857Y-93440476D02*
X117903095Y-93392857D01*
X117903095Y-93392857D02*
X117998333Y-93392857D01*
X117998333Y-93392857D02*
X118093571Y-93440476D01*
X118093571Y-93440476D02*
X118141190Y-93488095D01*
X118141190Y-93488095D02*
X118188809Y-93583333D01*
X118188809Y-93583333D02*
X118188809Y-93916666D01*
X118236428Y-92726190D02*
X118712619Y-92726190D01*
X117712619Y-93059523D02*
X118236428Y-92726190D01*
X118236428Y-92726190D02*
X117712619Y-92392857D01*
X118331666Y-92059523D02*
X118331666Y-91297619D01*
X118665000Y-90869047D02*
X118712619Y-90726190D01*
X118712619Y-90726190D02*
X118712619Y-90488095D01*
X118712619Y-90488095D02*
X118665000Y-90392857D01*
X118665000Y-90392857D02*
X118617380Y-90345238D01*
X118617380Y-90345238D02*
X118522142Y-90297619D01*
X118522142Y-90297619D02*
X118426904Y-90297619D01*
X118426904Y-90297619D02*
X118331666Y-90345238D01*
X118331666Y-90345238D02*
X118284047Y-90392857D01*
X118284047Y-90392857D02*
X118236428Y-90488095D01*
X118236428Y-90488095D02*
X118188809Y-90678571D01*
X118188809Y-90678571D02*
X118141190Y-90773809D01*
X118141190Y-90773809D02*
X118093571Y-90821428D01*
X118093571Y-90821428D02*
X117998333Y-90869047D01*
X117998333Y-90869047D02*
X117903095Y-90869047D01*
X117903095Y-90869047D02*
X117807857Y-90821428D01*
X117807857Y-90821428D02*
X117760238Y-90773809D01*
X117760238Y-90773809D02*
X117712619Y-90678571D01*
X117712619Y-90678571D02*
X117712619Y-90440476D01*
X117712619Y-90440476D02*
X117760238Y-90297619D01*
X118426904Y-89916666D02*
X118426904Y-89440476D01*
X118712619Y-90011904D02*
X117712619Y-89678571D01*
X117712619Y-89678571D02*
X118712619Y-89345238D01*
X118045952Y-87821428D02*
X118712619Y-87821428D01*
X117665000Y-88059523D02*
X118379285Y-88297618D01*
X118379285Y-88297618D02*
X118379285Y-87678571D01*
X118617380Y-87297618D02*
X118665000Y-87249999D01*
X118665000Y-87249999D02*
X118712619Y-87297618D01*
X118712619Y-87297618D02*
X118665000Y-87345237D01*
X118665000Y-87345237D02*
X118617380Y-87297618D01*
X118617380Y-87297618D02*
X118712619Y-87297618D01*
X117712619Y-86630952D02*
X117712619Y-86535714D01*
X117712619Y-86535714D02*
X117760238Y-86440476D01*
X117760238Y-86440476D02*
X117807857Y-86392857D01*
X117807857Y-86392857D02*
X117903095Y-86345238D01*
X117903095Y-86345238D02*
X118093571Y-86297619D01*
X118093571Y-86297619D02*
X118331666Y-86297619D01*
X118331666Y-86297619D02*
X118522142Y-86345238D01*
X118522142Y-86345238D02*
X118617380Y-86392857D01*
X118617380Y-86392857D02*
X118665000Y-86440476D01*
X118665000Y-86440476D02*
X118712619Y-86535714D01*
X118712619Y-86535714D02*
X118712619Y-86630952D01*
X118712619Y-86630952D02*
X118665000Y-86726190D01*
X118665000Y-86726190D02*
X118617380Y-86773809D01*
X118617380Y-86773809D02*
X118522142Y-86821428D01*
X118522142Y-86821428D02*
X118331666Y-86869047D01*
X118331666Y-86869047D02*
X118093571Y-86869047D01*
X118093571Y-86869047D02*
X117903095Y-86821428D01*
X117903095Y-86821428D02*
X117807857Y-86773809D01*
X117807857Y-86773809D02*
X117760238Y-86726190D01*
X117760238Y-86726190D02*
X117712619Y-86630952D01*
X118712619Y-111642857D02*
X117712619Y-111642857D01*
X118093571Y-111642857D02*
X118045952Y-111547619D01*
X118045952Y-111547619D02*
X118045952Y-111357143D01*
X118045952Y-111357143D02*
X118093571Y-111261905D01*
X118093571Y-111261905D02*
X118141190Y-111214286D01*
X118141190Y-111214286D02*
X118236428Y-111166667D01*
X118236428Y-111166667D02*
X118522142Y-111166667D01*
X118522142Y-111166667D02*
X118617380Y-111214286D01*
X118617380Y-111214286D02*
X118665000Y-111261905D01*
X118665000Y-111261905D02*
X118712619Y-111357143D01*
X118712619Y-111357143D02*
X118712619Y-111547619D01*
X118712619Y-111547619D02*
X118665000Y-111642857D01*
X118712619Y-110595238D02*
X118665000Y-110690476D01*
X118665000Y-110690476D02*
X118569761Y-110738095D01*
X118569761Y-110738095D02*
X117712619Y-110738095D01*
X118712619Y-110214285D02*
X118045952Y-110214285D01*
X117712619Y-110214285D02*
X117760238Y-110261904D01*
X117760238Y-110261904D02*
X117807857Y-110214285D01*
X117807857Y-110214285D02*
X117760238Y-110166666D01*
X117760238Y-110166666D02*
X117712619Y-110214285D01*
X117712619Y-110214285D02*
X117807857Y-110214285D01*
X118045952Y-109738095D02*
X118712619Y-109738095D01*
X118141190Y-109738095D02*
X118093571Y-109690476D01*
X118093571Y-109690476D02*
X118045952Y-109595238D01*
X118045952Y-109595238D02*
X118045952Y-109452381D01*
X118045952Y-109452381D02*
X118093571Y-109357143D01*
X118093571Y-109357143D02*
X118188809Y-109309524D01*
X118188809Y-109309524D02*
X118712619Y-109309524D01*
X118712619Y-108833333D02*
X117712619Y-108833333D01*
X118331666Y-108738095D02*
X118712619Y-108452381D01*
X118045952Y-108452381D02*
X118426904Y-108833333D01*
X118045952Y-108119047D02*
X118712619Y-107880952D01*
X118045952Y-107642857D02*
X118712619Y-107880952D01*
X118712619Y-107880952D02*
X118950714Y-107976190D01*
X118950714Y-107976190D02*
X118998333Y-108023809D01*
X118998333Y-108023809D02*
X119045952Y-108119047D01*
X118045952Y-107261904D02*
X119045952Y-107261904D01*
X118093571Y-107261904D02*
X118045952Y-107166666D01*
X118045952Y-107166666D02*
X118045952Y-106976190D01*
X118045952Y-106976190D02*
X118093571Y-106880952D01*
X118093571Y-106880952D02*
X118141190Y-106833333D01*
X118141190Y-106833333D02*
X118236428Y-106785714D01*
X118236428Y-106785714D02*
X118522142Y-106785714D01*
X118522142Y-106785714D02*
X118617380Y-106833333D01*
X118617380Y-106833333D02*
X118665000Y-106880952D01*
X118665000Y-106880952D02*
X118712619Y-106976190D01*
X118712619Y-106976190D02*
X118712619Y-107166666D01*
X118712619Y-107166666D02*
X118665000Y-107261904D01*
X118712619Y-105928571D02*
X118188809Y-105928571D01*
X118188809Y-105928571D02*
X118093571Y-105976190D01*
X118093571Y-105976190D02*
X118045952Y-106071428D01*
X118045952Y-106071428D02*
X118045952Y-106261904D01*
X118045952Y-106261904D02*
X118093571Y-106357142D01*
X118665000Y-105928571D02*
X118712619Y-106023809D01*
X118712619Y-106023809D02*
X118712619Y-106261904D01*
X118712619Y-106261904D02*
X118665000Y-106357142D01*
X118665000Y-106357142D02*
X118569761Y-106404761D01*
X118569761Y-106404761D02*
X118474523Y-106404761D01*
X118474523Y-106404761D02*
X118379285Y-106357142D01*
X118379285Y-106357142D02*
X118331666Y-106261904D01*
X118331666Y-106261904D02*
X118331666Y-106023809D01*
X118331666Y-106023809D02*
X118284047Y-105928571D01*
X118712619Y-105452380D02*
X118045952Y-105452380D01*
X118236428Y-105452380D02*
X118141190Y-105404761D01*
X118141190Y-105404761D02*
X118093571Y-105357142D01*
X118093571Y-105357142D02*
X118045952Y-105261904D01*
X118045952Y-105261904D02*
X118045952Y-105166666D01*
X118045952Y-104976189D02*
X118045952Y-104595237D01*
X117712619Y-104833332D02*
X118569761Y-104833332D01*
X118569761Y-104833332D02*
X118665000Y-104785713D01*
X118665000Y-104785713D02*
X118712619Y-104690475D01*
X118712619Y-104690475D02*
X118712619Y-104595237D01*
X118665000Y-104309522D02*
X118712619Y-104214284D01*
X118712619Y-104214284D02*
X118712619Y-104023808D01*
X118712619Y-104023808D02*
X118665000Y-103928570D01*
X118665000Y-103928570D02*
X118569761Y-103880951D01*
X118569761Y-103880951D02*
X118522142Y-103880951D01*
X118522142Y-103880951D02*
X118426904Y-103928570D01*
X118426904Y-103928570D02*
X118379285Y-104023808D01*
X118379285Y-104023808D02*
X118379285Y-104166665D01*
X118379285Y-104166665D02*
X118331666Y-104261903D01*
X118331666Y-104261903D02*
X118236428Y-104309522D01*
X118236428Y-104309522D02*
X118188809Y-104309522D01*
X118188809Y-104309522D02*
X118093571Y-104261903D01*
X118093571Y-104261903D02*
X118045952Y-104166665D01*
X118045952Y-104166665D02*
X118045952Y-104023808D01*
X118045952Y-104023808D02*
X118093571Y-103928570D01*
X118617380Y-103452379D02*
X118665000Y-103404760D01*
X118665000Y-103404760D02*
X118712619Y-103452379D01*
X118712619Y-103452379D02*
X118665000Y-103499998D01*
X118665000Y-103499998D02*
X118617380Y-103452379D01*
X118617380Y-103452379D02*
X118712619Y-103452379D01*
X118665000Y-102547618D02*
X118712619Y-102642856D01*
X118712619Y-102642856D02*
X118712619Y-102833332D01*
X118712619Y-102833332D02*
X118665000Y-102928570D01*
X118665000Y-102928570D02*
X118617380Y-102976189D01*
X118617380Y-102976189D02*
X118522142Y-103023808D01*
X118522142Y-103023808D02*
X118236428Y-103023808D01*
X118236428Y-103023808D02*
X118141190Y-102976189D01*
X118141190Y-102976189D02*
X118093571Y-102928570D01*
X118093571Y-102928570D02*
X118045952Y-102833332D01*
X118045952Y-102833332D02*
X118045952Y-102642856D01*
X118045952Y-102642856D02*
X118093571Y-102547618D01*
X118712619Y-101976189D02*
X118665000Y-102071427D01*
X118665000Y-102071427D02*
X118617380Y-102119046D01*
X118617380Y-102119046D02*
X118522142Y-102166665D01*
X118522142Y-102166665D02*
X118236428Y-102166665D01*
X118236428Y-102166665D02*
X118141190Y-102119046D01*
X118141190Y-102119046D02*
X118093571Y-102071427D01*
X118093571Y-102071427D02*
X118045952Y-101976189D01*
X118045952Y-101976189D02*
X118045952Y-101833332D01*
X118045952Y-101833332D02*
X118093571Y-101738094D01*
X118093571Y-101738094D02*
X118141190Y-101690475D01*
X118141190Y-101690475D02*
X118236428Y-101642856D01*
X118236428Y-101642856D02*
X118522142Y-101642856D01*
X118522142Y-101642856D02*
X118617380Y-101690475D01*
X118617380Y-101690475D02*
X118665000Y-101738094D01*
X118665000Y-101738094D02*
X118712619Y-101833332D01*
X118712619Y-101833332D02*
X118712619Y-101976189D01*
X118712619Y-101214284D02*
X118045952Y-101214284D01*
X118141190Y-101214284D02*
X118093571Y-101166665D01*
X118093571Y-101166665D02*
X118045952Y-101071427D01*
X118045952Y-101071427D02*
X118045952Y-100928570D01*
X118045952Y-100928570D02*
X118093571Y-100833332D01*
X118093571Y-100833332D02*
X118188809Y-100785713D01*
X118188809Y-100785713D02*
X118712619Y-100785713D01*
X118188809Y-100785713D02*
X118093571Y-100738094D01*
X118093571Y-100738094D02*
X118045952Y-100642856D01*
X118045952Y-100642856D02*
X118045952Y-100499999D01*
X118045952Y-100499999D02*
X118093571Y-100404760D01*
X118093571Y-100404760D02*
X118188809Y-100357141D01*
X118188809Y-100357141D02*
X118712619Y-100357141D01*
X117712619Y-132750000D02*
X117712619Y-132559524D01*
X117712619Y-132559524D02*
X117760238Y-132464286D01*
X117760238Y-132464286D02*
X117855476Y-132369048D01*
X117855476Y-132369048D02*
X118045952Y-132321429D01*
X118045952Y-132321429D02*
X118379285Y-132321429D01*
X118379285Y-132321429D02*
X118569761Y-132369048D01*
X118569761Y-132369048D02*
X118665000Y-132464286D01*
X118665000Y-132464286D02*
X118712619Y-132559524D01*
X118712619Y-132559524D02*
X118712619Y-132750000D01*
X118712619Y-132750000D02*
X118665000Y-132845238D01*
X118665000Y-132845238D02*
X118569761Y-132940476D01*
X118569761Y-132940476D02*
X118379285Y-132988095D01*
X118379285Y-132988095D02*
X118045952Y-132988095D01*
X118045952Y-132988095D02*
X117855476Y-132940476D01*
X117855476Y-132940476D02*
X117760238Y-132845238D01*
X117760238Y-132845238D02*
X117712619Y-132750000D01*
X118045952Y-131892857D02*
X119045952Y-131892857D01*
X118093571Y-131892857D02*
X118045952Y-131797619D01*
X118045952Y-131797619D02*
X118045952Y-131607143D01*
X118045952Y-131607143D02*
X118093571Y-131511905D01*
X118093571Y-131511905D02*
X118141190Y-131464286D01*
X118141190Y-131464286D02*
X118236428Y-131416667D01*
X118236428Y-131416667D02*
X118522142Y-131416667D01*
X118522142Y-131416667D02*
X118617380Y-131464286D01*
X118617380Y-131464286D02*
X118665000Y-131511905D01*
X118665000Y-131511905D02*
X118712619Y-131607143D01*
X118712619Y-131607143D02*
X118712619Y-131797619D01*
X118712619Y-131797619D02*
X118665000Y-131892857D01*
X118665000Y-130607143D02*
X118712619Y-130702381D01*
X118712619Y-130702381D02*
X118712619Y-130892857D01*
X118712619Y-130892857D02*
X118665000Y-130988095D01*
X118665000Y-130988095D02*
X118569761Y-131035714D01*
X118569761Y-131035714D02*
X118188809Y-131035714D01*
X118188809Y-131035714D02*
X118093571Y-130988095D01*
X118093571Y-130988095D02*
X118045952Y-130892857D01*
X118045952Y-130892857D02*
X118045952Y-130702381D01*
X118045952Y-130702381D02*
X118093571Y-130607143D01*
X118093571Y-130607143D02*
X118188809Y-130559524D01*
X118188809Y-130559524D02*
X118284047Y-130559524D01*
X118284047Y-130559524D02*
X118379285Y-131035714D01*
X118045952Y-130130952D02*
X118712619Y-130130952D01*
X118141190Y-130130952D02*
X118093571Y-130083333D01*
X118093571Y-130083333D02*
X118045952Y-129988095D01*
X118045952Y-129988095D02*
X118045952Y-129845238D01*
X118045952Y-129845238D02*
X118093571Y-129750000D01*
X118093571Y-129750000D02*
X118188809Y-129702381D01*
X118188809Y-129702381D02*
X118712619Y-129702381D01*
X118712619Y-129226190D02*
X117712619Y-129226190D01*
X117712619Y-129226190D02*
X117712619Y-128988095D01*
X117712619Y-128988095D02*
X117760238Y-128845238D01*
X117760238Y-128845238D02*
X117855476Y-128750000D01*
X117855476Y-128750000D02*
X117950714Y-128702381D01*
X117950714Y-128702381D02*
X118141190Y-128654762D01*
X118141190Y-128654762D02*
X118284047Y-128654762D01*
X118284047Y-128654762D02*
X118474523Y-128702381D01*
X118474523Y-128702381D02*
X118569761Y-128750000D01*
X118569761Y-128750000D02*
X118665000Y-128845238D01*
X118665000Y-128845238D02*
X118712619Y-128988095D01*
X118712619Y-128988095D02*
X118712619Y-129226190D01*
X117712619Y-128369047D02*
X117712619Y-127797619D01*
X118712619Y-128083333D02*
X117712619Y-128083333D01*
X117712619Y-127464285D02*
X118522142Y-127464285D01*
X118522142Y-127464285D02*
X118617380Y-127416666D01*
X118617380Y-127416666D02*
X118665000Y-127369047D01*
X118665000Y-127369047D02*
X118712619Y-127273809D01*
X118712619Y-127273809D02*
X118712619Y-127083333D01*
X118712619Y-127083333D02*
X118665000Y-126988095D01*
X118665000Y-126988095D02*
X118617380Y-126940476D01*
X118617380Y-126940476D02*
X118522142Y-126892857D01*
X118522142Y-126892857D02*
X117712619Y-126892857D01*
X118807857Y-126654762D02*
X118807857Y-125892857D01*
X118188809Y-125321428D02*
X118236428Y-125178571D01*
X118236428Y-125178571D02*
X118284047Y-125130952D01*
X118284047Y-125130952D02*
X118379285Y-125083333D01*
X118379285Y-125083333D02*
X118522142Y-125083333D01*
X118522142Y-125083333D02*
X118617380Y-125130952D01*
X118617380Y-125130952D02*
X118665000Y-125178571D01*
X118665000Y-125178571D02*
X118712619Y-125273809D01*
X118712619Y-125273809D02*
X118712619Y-125654761D01*
X118712619Y-125654761D02*
X117712619Y-125654761D01*
X117712619Y-125654761D02*
X117712619Y-125321428D01*
X117712619Y-125321428D02*
X117760238Y-125226190D01*
X117760238Y-125226190D02*
X117807857Y-125178571D01*
X117807857Y-125178571D02*
X117903095Y-125130952D01*
X117903095Y-125130952D02*
X117998333Y-125130952D01*
X117998333Y-125130952D02*
X118093571Y-125178571D01*
X118093571Y-125178571D02*
X118141190Y-125226190D01*
X118141190Y-125226190D02*
X118188809Y-125321428D01*
X118188809Y-125321428D02*
X118188809Y-125654761D01*
X118712619Y-124654761D02*
X118045952Y-124654761D01*
X118236428Y-124654761D02*
X118141190Y-124607142D01*
X118141190Y-124607142D02*
X118093571Y-124559523D01*
X118093571Y-124559523D02*
X118045952Y-124464285D01*
X118045952Y-124464285D02*
X118045952Y-124369047D01*
X118665000Y-123654761D02*
X118712619Y-123749999D01*
X118712619Y-123749999D02*
X118712619Y-123940475D01*
X118712619Y-123940475D02*
X118665000Y-124035713D01*
X118665000Y-124035713D02*
X118569761Y-124083332D01*
X118569761Y-124083332D02*
X118188809Y-124083332D01*
X118188809Y-124083332D02*
X118093571Y-124035713D01*
X118093571Y-124035713D02*
X118045952Y-123940475D01*
X118045952Y-123940475D02*
X118045952Y-123749999D01*
X118045952Y-123749999D02*
X118093571Y-123654761D01*
X118093571Y-123654761D02*
X118188809Y-123607142D01*
X118188809Y-123607142D02*
X118284047Y-123607142D01*
X118284047Y-123607142D02*
X118379285Y-124083332D01*
X118712619Y-122749999D02*
X118188809Y-122749999D01*
X118188809Y-122749999D02*
X118093571Y-122797618D01*
X118093571Y-122797618D02*
X118045952Y-122892856D01*
X118045952Y-122892856D02*
X118045952Y-123083332D01*
X118045952Y-123083332D02*
X118093571Y-123178570D01*
X118665000Y-122749999D02*
X118712619Y-122845237D01*
X118712619Y-122845237D02*
X118712619Y-123083332D01*
X118712619Y-123083332D02*
X118665000Y-123178570D01*
X118665000Y-123178570D02*
X118569761Y-123226189D01*
X118569761Y-123226189D02*
X118474523Y-123226189D01*
X118474523Y-123226189D02*
X118379285Y-123178570D01*
X118379285Y-123178570D02*
X118331666Y-123083332D01*
X118331666Y-123083332D02*
X118331666Y-122845237D01*
X118331666Y-122845237D02*
X118284047Y-122749999D01*
X118712619Y-122273808D02*
X117712619Y-122273808D01*
X118331666Y-122178570D02*
X118712619Y-121892856D01*
X118045952Y-121892856D02*
X118426904Y-122273808D01*
X118712619Y-121321427D02*
X118665000Y-121416665D01*
X118665000Y-121416665D02*
X118617380Y-121464284D01*
X118617380Y-121464284D02*
X118522142Y-121511903D01*
X118522142Y-121511903D02*
X118236428Y-121511903D01*
X118236428Y-121511903D02*
X118141190Y-121464284D01*
X118141190Y-121464284D02*
X118093571Y-121416665D01*
X118093571Y-121416665D02*
X118045952Y-121321427D01*
X118045952Y-121321427D02*
X118045952Y-121178570D01*
X118045952Y-121178570D02*
X118093571Y-121083332D01*
X118093571Y-121083332D02*
X118141190Y-121035713D01*
X118141190Y-121035713D02*
X118236428Y-120988094D01*
X118236428Y-120988094D02*
X118522142Y-120988094D01*
X118522142Y-120988094D02*
X118617380Y-121035713D01*
X118617380Y-121035713D02*
X118665000Y-121083332D01*
X118665000Y-121083332D02*
X118712619Y-121178570D01*
X118712619Y-121178570D02*
X118712619Y-121321427D01*
X118045952Y-120130951D02*
X118712619Y-120130951D01*
X118045952Y-120559522D02*
X118569761Y-120559522D01*
X118569761Y-120559522D02*
X118665000Y-120511903D01*
X118665000Y-120511903D02*
X118712619Y-120416665D01*
X118712619Y-120416665D02*
X118712619Y-120273808D01*
X118712619Y-120273808D02*
X118665000Y-120178570D01*
X118665000Y-120178570D02*
X118617380Y-120130951D01*
X118045952Y-119797617D02*
X118045952Y-119416665D01*
X117712619Y-119654760D02*
X118569761Y-119654760D01*
X118569761Y-119654760D02*
X118665000Y-119607141D01*
X118665000Y-119607141D02*
X118712619Y-119511903D01*
X118712619Y-119511903D02*
X118712619Y-119416665D01*
D12*
%TO.C,R3*%
X129500000Y-104920000D03*
D13*
X129500000Y-115080000D03*
%TD*%
D12*
%TO.C,R2*%
X133500000Y-115000000D03*
D13*
X133500000Y-104840000D03*
%TD*%
D12*
%TO.C,R1*%
X125250000Y-115080000D03*
D13*
X125250000Y-104920000D03*
%TD*%
D14*
%TO.C,C1*%
X137544888Y-106500000D03*
D12*
X139544888Y-106500000D03*
%TD*%
%TO.C,C2*%
X136000000Y-117500000D03*
X141000000Y-117500000D03*
%TD*%
D15*
%TO.C,U1*%
X121075000Y-86190000D03*
D16*
X121075000Y-88730000D03*
X121075000Y-91270000D03*
X121075000Y-93810000D03*
X121075000Y-96350000D03*
X121075000Y-98890000D03*
X121075000Y-101430000D03*
X121075000Y-103970000D03*
X121075000Y-106510000D03*
X121075000Y-109050000D03*
X121075000Y-111590000D03*
X121075000Y-114130000D03*
X121075000Y-116670000D03*
X121075000Y-119210000D03*
X121075000Y-121750000D03*
X121075000Y-124290000D03*
X121075000Y-126830000D03*
X121075000Y-129370000D03*
X121075000Y-131910000D03*
X146475000Y-131910000D03*
X146475000Y-129370000D03*
X146475000Y-126830000D03*
X146475000Y-124290000D03*
X146475000Y-121750000D03*
X146475000Y-119210000D03*
X146475000Y-116670000D03*
X146475000Y-114130000D03*
X146475000Y-111590000D03*
X146475000Y-109050000D03*
X146475000Y-106510000D03*
X146475000Y-103970000D03*
X146475000Y-101430000D03*
X146475000Y-98890000D03*
X146475000Y-96350000D03*
X146475000Y-93810000D03*
X146475000Y-91270000D03*
X146475000Y-88730000D03*
D15*
X146475000Y-86190000D03*
%TD*%
D17*
%TO.C,D2*%
X143275000Y-89500000D03*
D18*
X140735000Y-89500000D03*
%TD*%
D15*
%TO.C,U2*%
X129500000Y-95000000D03*
D19*
X129500000Y-97540000D03*
X132040000Y-95000000D03*
X132040000Y-97540000D03*
X134580000Y-95000000D03*
X134580000Y-97540000D03*
X137120000Y-95000000D03*
X137120000Y-97540000D03*
%TD*%
D15*
%TO.C,J1*%
X142300000Y-125125000D03*
D16*
X139760000Y-125125000D03*
X137220000Y-125125000D03*
X134680000Y-125125000D03*
%TD*%
D20*
%TO.C,J2*%
X135250000Y-90170000D03*
D21*
X132750000Y-90170000D03*
%TD*%
D15*
%TO.C,J3*%
X130525000Y-125125000D03*
D16*
X127985000Y-125125000D03*
X125445000Y-125125000D03*
%TD*%
D17*
%TO.C,D1*%
X126775000Y-89500000D03*
D18*
X124235000Y-89500000D03*
%TD*%
M02*
