%TF.GenerationSoftware,KiCad,Pcbnew,(6.0.11)*%
%TF.CreationDate,2023-02-26T16:40:05+01:00*%
%TF.ProjectId,OpenDTU_Breakout,4f70656e-4454-4555-9f42-7265616b6f75,rev?*%
%TF.SameCoordinates,Original*%
%TF.FileFunction,Soldermask,Bot*%
%TF.FilePolarity,Negative*%
%FSLAX46Y46*%
G04 Gerber Fmt 4.6, Leading zero omitted, Abs format (unit mm)*
G04 Created by KiCad (PCBNEW (6.0.11)) date 2023-02-26 16:40:05*
%MOMM*%
%LPD*%
G01*
G04 APERTURE LIST*
G04 Aperture macros list*
%AMRoundRect*
0 Rectangle with rounded corners*
0 $1 Rounding radius*
0 $2 $3 $4 $5 $6 $7 $8 $9 X,Y pos of 4 corners*
0 Add a 4 corners polygon primitive as box body*
4,1,4,$2,$3,$4,$5,$6,$7,$8,$9,$2,$3,0*
0 Add four circle primitives for the rounded corners*
1,1,$1+$1,$2,$3*
1,1,$1+$1,$4,$5*
1,1,$1+$1,$6,$7*
1,1,$1+$1,$8,$9*
0 Add four rect primitives between the rounded corners*
20,1,$1+$1,$2,$3,$4,$5,0*
20,1,$1+$1,$4,$5,$6,$7,0*
20,1,$1+$1,$6,$7,$8,$9,0*
20,1,$1+$1,$8,$9,$2,$3,0*%
G04 Aperture macros list end*
%ADD10C,1.600000*%
%ADD11O,1.600000X1.600000*%
%ADD12R,1.600000X1.600000*%
%ADD13R,1.700000X1.700000*%
%ADD14O,1.700000X1.700000*%
%ADD15R,1.800000X1.800000*%
%ADD16C,1.800000*%
%ADD17C,1.700000*%
%ADD18RoundRect,0.250000X0.600000X0.750000X-0.600000X0.750000X-0.600000X-0.750000X0.600000X-0.750000X0*%
%ADD19O,1.700000X2.000000*%
G04 APERTURE END LIST*
D10*
%TO.C,R3*%
X129500000Y-104920000D03*
D11*
X129500000Y-115080000D03*
%TD*%
D10*
%TO.C,R2*%
X133500000Y-115000000D03*
D11*
X133500000Y-104840000D03*
%TD*%
D10*
%TO.C,R1*%
X125250000Y-115080000D03*
D11*
X125250000Y-104920000D03*
%TD*%
D12*
%TO.C,C1*%
X137544888Y-106500000D03*
D10*
X139544888Y-106500000D03*
%TD*%
D13*
%TO.C,J1*%
X142300000Y-125125000D03*
D14*
X139760000Y-125125000D03*
X137220000Y-125125000D03*
X134680000Y-125125000D03*
%TD*%
D13*
%TO.C,J3*%
X130525000Y-125125000D03*
D14*
X127985000Y-125125000D03*
X125445000Y-125125000D03*
%TD*%
D10*
%TO.C,C2*%
X136000000Y-117500000D03*
X141000000Y-117500000D03*
%TD*%
D13*
%TO.C,U1*%
X121075000Y-86190000D03*
D14*
X121075000Y-88730000D03*
X121075000Y-91270000D03*
X121075000Y-93810000D03*
X121075000Y-96350000D03*
X121075000Y-98890000D03*
X121075000Y-101430000D03*
X121075000Y-103970000D03*
X121075000Y-106510000D03*
X121075000Y-109050000D03*
X121075000Y-111590000D03*
X121075000Y-114130000D03*
X121075000Y-116670000D03*
X121075000Y-119210000D03*
X121075000Y-121750000D03*
X121075000Y-124290000D03*
X121075000Y-126830000D03*
X121075000Y-129370000D03*
X121075000Y-131910000D03*
X146475000Y-131910000D03*
X146475000Y-129370000D03*
X146475000Y-126830000D03*
X146475000Y-124290000D03*
X146475000Y-121750000D03*
X146475000Y-119210000D03*
X146475000Y-116670000D03*
X146475000Y-114130000D03*
X146475000Y-111590000D03*
X146475000Y-109050000D03*
X146475000Y-106510000D03*
X146475000Y-103970000D03*
X146475000Y-101430000D03*
X146475000Y-98890000D03*
X146475000Y-96350000D03*
X146475000Y-93810000D03*
X146475000Y-91270000D03*
X146475000Y-88730000D03*
D13*
X146475000Y-86190000D03*
%TD*%
D15*
%TO.C,D2*%
X143275000Y-89500000D03*
D16*
X140735000Y-89500000D03*
%TD*%
D13*
%TO.C,U2*%
X129500000Y-95000000D03*
D17*
X129500000Y-97540000D03*
X132040000Y-95000000D03*
X132040000Y-97540000D03*
X134580000Y-95000000D03*
X134580000Y-97540000D03*
X137120000Y-95000000D03*
X137120000Y-97540000D03*
%TD*%
D18*
%TO.C,J2*%
X135250000Y-90170000D03*
D19*
X132750000Y-90170000D03*
%TD*%
D15*
%TO.C,D1*%
X126775000Y-89500000D03*
D16*
X124235000Y-89500000D03*
%TD*%
M02*
