%TF.GenerationSoftware,KiCad,Pcbnew,(6.0.11)*%
%TF.CreationDate,2023-02-26T16:40:04+01:00*%
%TF.ProjectId,OpenDTU_Breakout,4f70656e-4454-4555-9f42-7265616b6f75,rev?*%
%TF.SameCoordinates,Original*%
%TF.FileFunction,Copper,L1,Top*%
%TF.FilePolarity,Positive*%
%FSLAX46Y46*%
G04 Gerber Fmt 4.6, Leading zero omitted, Abs format (unit mm)*
G04 Created by KiCad (PCBNEW (6.0.11)) date 2023-02-26 16:40:04*
%MOMM*%
%LPD*%
G01*
G04 APERTURE LIST*
G04 Aperture macros list*
%AMRoundRect*
0 Rectangle with rounded corners*
0 $1 Rounding radius*
0 $2 $3 $4 $5 $6 $7 $8 $9 X,Y pos of 4 corners*
0 Add a 4 corners polygon primitive as box body*
4,1,4,$2,$3,$4,$5,$6,$7,$8,$9,$2,$3,0*
0 Add four circle primitives for the rounded corners*
1,1,$1+$1,$2,$3*
1,1,$1+$1,$4,$5*
1,1,$1+$1,$6,$7*
1,1,$1+$1,$8,$9*
0 Add four rect primitives between the rounded corners*
20,1,$1+$1,$2,$3,$4,$5,0*
20,1,$1+$1,$4,$5,$6,$7,0*
20,1,$1+$1,$6,$7,$8,$9,0*
20,1,$1+$1,$8,$9,$2,$3,0*%
G04 Aperture macros list end*
%TA.AperFunction,ComponentPad*%
%ADD10C,1.600000*%
%TD*%
%TA.AperFunction,ComponentPad*%
%ADD11O,1.600000X1.600000*%
%TD*%
%TA.AperFunction,ComponentPad*%
%ADD12R,1.600000X1.600000*%
%TD*%
%TA.AperFunction,ComponentPad*%
%ADD13R,1.700000X1.700000*%
%TD*%
%TA.AperFunction,ComponentPad*%
%ADD14O,1.700000X1.700000*%
%TD*%
%TA.AperFunction,ComponentPad*%
%ADD15R,1.800000X1.800000*%
%TD*%
%TA.AperFunction,ComponentPad*%
%ADD16C,1.800000*%
%TD*%
%TA.AperFunction,ComponentPad*%
%ADD17C,1.700000*%
%TD*%
%TA.AperFunction,ComponentPad*%
%ADD18RoundRect,0.250000X0.600000X0.750000X-0.600000X0.750000X-0.600000X-0.750000X0.600000X-0.750000X0*%
%TD*%
%TA.AperFunction,ComponentPad*%
%ADD19O,1.700000X2.000000*%
%TD*%
%TA.AperFunction,ViaPad*%
%ADD20C,0.800000*%
%TD*%
%TA.AperFunction,Conductor*%
%ADD21C,0.250000*%
%TD*%
G04 APERTURE END LIST*
D10*
%TO.P,R3,1*%
%TO.N,/LEDSTRIPE*%
X129500000Y-104920000D03*
D11*
%TO.P,R3,2*%
%TO.N,Net-(J3-Pad2)*%
X129500000Y-115080000D03*
%TD*%
D10*
%TO.P,R2,1*%
%TO.N,/LED2*%
X133500000Y-115000000D03*
D11*
%TO.P,R2,2*%
%TO.N,Net-(D2-Pad2)*%
X133500000Y-104840000D03*
%TD*%
D10*
%TO.P,R1,1*%
%TO.N,/LED1*%
X125250000Y-115080000D03*
D11*
%TO.P,R1,2*%
%TO.N,Net-(D1-Pad2)*%
X125250000Y-104920000D03*
%TD*%
D12*
%TO.P,C1,1*%
%TO.N,+3.3V*%
X137544888Y-106500000D03*
D10*
%TO.P,C1,2*%
%TO.N,GND*%
X139544888Y-106500000D03*
%TD*%
D13*
%TO.P,J1,1,Pin_1*%
%TO.N,+5V*%
X142300000Y-125125000D03*
D14*
%TO.P,J1,2,Pin_2*%
%TO.N,/SDA*%
X139760000Y-125125000D03*
%TO.P,J1,3,Pin_3*%
%TO.N,/SCL*%
X137220000Y-125125000D03*
%TO.P,J1,4,Pin_4*%
%TO.N,GND*%
X134680000Y-125125000D03*
%TD*%
D13*
%TO.P,J3,1,Pin_1*%
%TO.N,+5V*%
X130525000Y-125125000D03*
D14*
%TO.P,J3,2,Pin_2*%
%TO.N,Net-(J3-Pad2)*%
X127985000Y-125125000D03*
%TO.P,J3,3,Pin_3*%
%TO.N,GND*%
X125445000Y-125125000D03*
%TD*%
D10*
%TO.P,C2,1*%
%TO.N,+3.3V*%
X136000000Y-117500000D03*
%TO.P,C2,2*%
%TO.N,GND*%
X141000000Y-117500000D03*
%TD*%
D13*
%TO.P,U1,1,3V3*%
%TO.N,+3.3V*%
X121075000Y-86190000D03*
D14*
%TO.P,U1,2,EN*%
%TO.N,unconnected-(U1-Pad2)*%
X121075000Y-88730000D03*
%TO.P,U1,3,SP*%
%TO.N,unconnected-(U1-Pad3)*%
X121075000Y-91270000D03*
%TO.P,U1,4,SN*%
%TO.N,unconnected-(U1-Pad4)*%
X121075000Y-93810000D03*
%TO.P,U1,5,G34*%
%TO.N,unconnected-(U1-Pad5)*%
X121075000Y-96350000D03*
%TO.P,U1,6,G35*%
%TO.N,unconnected-(U1-Pad6)*%
X121075000Y-98890000D03*
%TO.P,U1,7,G32*%
%TO.N,/LEDSTRIPE*%
X121075000Y-101430000D03*
%TO.P,U1,8,G33*%
%TO.N,unconnected-(U1-Pad8)*%
X121075000Y-103970000D03*
%TO.P,U1,9,G25*%
%TO.N,/LED1*%
X121075000Y-106510000D03*
%TO.P,U1,10,G26*%
%TO.N,/LED2*%
X121075000Y-109050000D03*
%TO.P,U1,11,G27*%
%TO.N,unconnected-(U1-Pad11)*%
X121075000Y-111590000D03*
%TO.P,U1,12,G14*%
%TO.N,unconnected-(U1-Pad12)*%
X121075000Y-114130000D03*
%TO.P,U1,13,G12*%
%TO.N,unconnected-(U1-Pad13)*%
X121075000Y-116670000D03*
%TO.P,U1,14,GND*%
%TO.N,GND*%
X121075000Y-119210000D03*
%TO.P,U1,15,G13*%
%TO.N,unconnected-(U1-Pad15)*%
X121075000Y-121750000D03*
%TO.P,U1,16,SD2*%
%TO.N,unconnected-(U1-Pad16)*%
X121075000Y-124290000D03*
%TO.P,U1,17,SD3*%
%TO.N,unconnected-(U1-Pad17)*%
X121075000Y-126830000D03*
%TO.P,U1,18,CMD*%
%TO.N,unconnected-(U1-Pad18)*%
X121075000Y-129370000D03*
%TO.P,U1,19,5V*%
%TO.N,+5V*%
X121075000Y-131910000D03*
%TO.P,U1,20,CLK*%
%TO.N,unconnected-(U1-Pad20)*%
X146475000Y-131910000D03*
%TO.P,U1,21,SD0*%
%TO.N,unconnected-(U1-Pad21)*%
X146475000Y-129370000D03*
%TO.P,U1,22,SD1*%
%TO.N,unconnected-(U1-Pad22)*%
X146475000Y-126830000D03*
%TO.P,U1,23,G15*%
%TO.N,unconnected-(U1-Pad23)*%
X146475000Y-124290000D03*
%TO.P,U1,24,G2*%
%TO.N,unconnected-(U1-Pad24)*%
X146475000Y-121750000D03*
%TO.P,U1,25,G0*%
%TO.N,unconnected-(U1-Pad25)*%
X146475000Y-119210000D03*
%TO.P,U1,26,G4*%
%TO.N,/CE*%
X146475000Y-116670000D03*
%TO.P,U1,27,G16*%
%TO.N,/IRQ*%
X146475000Y-114130000D03*
%TO.P,U1,28,G17*%
%TO.N,unconnected-(U1-Pad28)*%
X146475000Y-111590000D03*
%TO.P,U1,29,G5*%
%TO.N,/~{CSN}*%
X146475000Y-109050000D03*
%TO.P,U1,30,G18*%
%TO.N,/SCK*%
X146475000Y-106510000D03*
%TO.P,U1,31,G19*%
%TO.N,/MISO*%
X146475000Y-103970000D03*
%TO.P,U1,32,GND*%
%TO.N,GND*%
X146475000Y-101430000D03*
%TO.P,U1,33,G21*%
%TO.N,/SDA*%
X146475000Y-98890000D03*
%TO.P,U1,34,RXD*%
%TO.N,unconnected-(U1-Pad34)*%
X146475000Y-96350000D03*
%TO.P,U1,35,TXD*%
%TO.N,unconnected-(U1-Pad35)*%
X146475000Y-93810000D03*
%TO.P,U1,36,G22*%
%TO.N,/SCL*%
X146475000Y-91270000D03*
%TO.P,U1,37,G23*%
%TO.N,/MOSI*%
X146475000Y-88730000D03*
D13*
%TO.P,U1,38,GND*%
%TO.N,GND*%
X146475000Y-86190000D03*
%TD*%
D15*
%TO.P,D2,1,K*%
%TO.N,GND*%
X143275000Y-89500000D03*
D16*
%TO.P,D2,2,A*%
%TO.N,Net-(D2-Pad2)*%
X140735000Y-89500000D03*
%TD*%
D13*
%TO.P,U2,1,GND*%
%TO.N,GND*%
X129500000Y-95000000D03*
D17*
%TO.P,U2,2,VCC*%
%TO.N,+3.3V*%
X129500000Y-97540000D03*
%TO.P,U2,3,CE*%
%TO.N,/CE*%
X132040000Y-95000000D03*
%TO.P,U2,4,~{CSN}*%
%TO.N,/~{CSN}*%
X132040000Y-97540000D03*
%TO.P,U2,5,SCK*%
%TO.N,/SCK*%
X134580000Y-95000000D03*
%TO.P,U2,6,MOSI*%
%TO.N,/MOSI*%
X134580000Y-97540000D03*
%TO.P,U2,7,MISO*%
%TO.N,/MISO*%
X137120000Y-95000000D03*
%TO.P,U2,8,IRQ*%
%TO.N,/IRQ*%
X137120000Y-97540000D03*
%TD*%
D18*
%TO.P,J2,1,Pin_1*%
%TO.N,+5V*%
X135250000Y-90170000D03*
D19*
%TO.P,J2,2,Pin_2*%
%TO.N,GND*%
X132750000Y-90170000D03*
%TD*%
D15*
%TO.P,D1,1,K*%
%TO.N,GND*%
X126775000Y-89500000D03*
D16*
%TO.P,D1,2,A*%
%TO.N,Net-(D1-Pad2)*%
X124235000Y-89500000D03*
%TD*%
D20*
%TO.N,/MOSI*%
X138173849Y-100463201D03*
%TO.N,/IRQ*%
X139363812Y-102533812D03*
X139363812Y-100463201D03*
%TD*%
D21*
%TO.N,/SDA*%
X143510000Y-121375000D02*
X139760000Y-125125000D01*
X143510000Y-101855000D02*
X143510000Y-121375000D01*
X146475000Y-98890000D02*
X143510000Y-101855000D01*
%TO.N,/SCL*%
X142696380Y-119648620D02*
X137220000Y-125125000D01*
X144780000Y-94658104D02*
X142696380Y-96741724D01*
X142696380Y-96741724D02*
X142696380Y-119648620D01*
X146475000Y-91270000D02*
X144780000Y-92965000D01*
X144780000Y-92965000D02*
X144780000Y-94658104D01*
%TO.N,+3.3V*%
X137544888Y-106500000D02*
X137544888Y-115955112D01*
X137544888Y-115955112D02*
X136000000Y-117500000D01*
%TO.N,Net-(D1-Pad2)*%
X125250000Y-100000000D02*
X124235000Y-98985000D01*
X124235000Y-98985000D02*
X124235000Y-89500000D01*
X125250000Y-104920000D02*
X125250000Y-100000000D01*
%TO.N,Net-(D2-Pad2)*%
X140735000Y-96765000D02*
X140735000Y-89500000D01*
X133500000Y-104000000D02*
X140735000Y-96765000D01*
X133500000Y-104840000D02*
X133500000Y-104000000D01*
%TO.N,/LEDSTRIPE*%
X122832174Y-106462174D02*
X122832174Y-103187174D01*
X129500000Y-104920000D02*
X126750000Y-107670000D01*
X124040000Y-107670000D02*
X122832174Y-106462174D01*
X122832174Y-103187174D02*
X121075000Y-101430000D01*
X126750000Y-107670000D02*
X124040000Y-107670000D01*
%TO.N,/MOSI*%
X138173849Y-100463201D02*
X144330000Y-94307050D01*
X144330000Y-94307050D02*
X144330000Y-90875000D01*
X144330000Y-90875000D02*
X146475000Y-88730000D01*
%TO.N,/IRQ*%
X139363812Y-102533812D02*
X139363812Y-100463201D01*
%TO.N,/LED1*%
X125250000Y-110685000D02*
X121075000Y-106510000D01*
X125250000Y-115080000D02*
X125250000Y-110685000D01*
%TD*%
%TA.AperFunction,Conductor*%
%TO.N,GND*%
G36*
X149970018Y-81510000D02*
G01*
X149984851Y-81512310D01*
X149984855Y-81512310D01*
X149993724Y-81513691D01*
X150006397Y-81512034D01*
X150033707Y-81511449D01*
X150161194Y-81522603D01*
X150182817Y-81526415D01*
X150328466Y-81565442D01*
X150349104Y-81572954D01*
X150485760Y-81636678D01*
X150504780Y-81647660D01*
X150628297Y-81734147D01*
X150645122Y-81748265D01*
X150751735Y-81854878D01*
X150765853Y-81871703D01*
X150852340Y-81995220D01*
X150863322Y-82014240D01*
X150927046Y-82150896D01*
X150934557Y-82171534D01*
X150973583Y-82317178D01*
X150977398Y-82338809D01*
X150987947Y-82459393D01*
X150987393Y-82475871D01*
X150987800Y-82475876D01*
X150987690Y-82484853D01*
X150986309Y-82493724D01*
X150987473Y-82502626D01*
X150987473Y-82502628D01*
X150990436Y-82525283D01*
X150991500Y-82541621D01*
X150991500Y-134450633D01*
X150990000Y-134470018D01*
X150987690Y-134484851D01*
X150987690Y-134484855D01*
X150986309Y-134493724D01*
X150987966Y-134506397D01*
X150988551Y-134533707D01*
X150977398Y-134661191D01*
X150973585Y-134682817D01*
X150952174Y-134762724D01*
X150934558Y-134828466D01*
X150927046Y-134849104D01*
X150863322Y-134985760D01*
X150852340Y-135004780D01*
X150765853Y-135128297D01*
X150751735Y-135145122D01*
X150645122Y-135251735D01*
X150628297Y-135265853D01*
X150504780Y-135352340D01*
X150485760Y-135363322D01*
X150349104Y-135427046D01*
X150328466Y-135434557D01*
X150182822Y-135473583D01*
X150161194Y-135477397D01*
X150104659Y-135482344D01*
X150040607Y-135487947D01*
X150024129Y-135487393D01*
X150024124Y-135487800D01*
X150015147Y-135487690D01*
X150006276Y-135486309D01*
X149997374Y-135487473D01*
X149997372Y-135487473D01*
X149983548Y-135489281D01*
X149974714Y-135490436D01*
X149958379Y-135491500D01*
X118049367Y-135491500D01*
X118029982Y-135490000D01*
X118015149Y-135487690D01*
X118015145Y-135487690D01*
X118006276Y-135486309D01*
X117993603Y-135487966D01*
X117966293Y-135488551D01*
X117838806Y-135477397D01*
X117817183Y-135473585D01*
X117671531Y-135434557D01*
X117650896Y-135427046D01*
X117514240Y-135363322D01*
X117495220Y-135352340D01*
X117371703Y-135265853D01*
X117354878Y-135251735D01*
X117248265Y-135145122D01*
X117234147Y-135128297D01*
X117147660Y-135004780D01*
X117136678Y-134985760D01*
X117072954Y-134849104D01*
X117065443Y-134828466D01*
X117026417Y-134682822D01*
X117022602Y-134661191D01*
X117012349Y-134543993D01*
X117012374Y-134521758D01*
X117012770Y-134517344D01*
X117013576Y-134512552D01*
X117013729Y-134500000D01*
X117009773Y-134472376D01*
X117008500Y-134454514D01*
X117008500Y-131876695D01*
X119712251Y-131876695D01*
X119712548Y-131881848D01*
X119712548Y-131881851D01*
X119718011Y-131976590D01*
X119725110Y-132099715D01*
X119726247Y-132104761D01*
X119726248Y-132104767D01*
X119746119Y-132192939D01*
X119774222Y-132317639D01*
X119858266Y-132524616D01*
X119974987Y-132715088D01*
X120121250Y-132883938D01*
X120293126Y-133026632D01*
X120486000Y-133139338D01*
X120694692Y-133219030D01*
X120699760Y-133220061D01*
X120699763Y-133220062D01*
X120807017Y-133241883D01*
X120913597Y-133263567D01*
X120918772Y-133263757D01*
X120918774Y-133263757D01*
X121131673Y-133271564D01*
X121131677Y-133271564D01*
X121136837Y-133271753D01*
X121141957Y-133271097D01*
X121141959Y-133271097D01*
X121353288Y-133244025D01*
X121353289Y-133244025D01*
X121358416Y-133243368D01*
X121363366Y-133241883D01*
X121567429Y-133180661D01*
X121567434Y-133180659D01*
X121572384Y-133179174D01*
X121772994Y-133080896D01*
X121954860Y-132951173D01*
X122113096Y-132793489D01*
X122172594Y-132710689D01*
X122240435Y-132616277D01*
X122243453Y-132612077D01*
X122342430Y-132411811D01*
X122407370Y-132198069D01*
X122436529Y-131976590D01*
X122438156Y-131910000D01*
X122435418Y-131876695D01*
X145112251Y-131876695D01*
X145112548Y-131881848D01*
X145112548Y-131881851D01*
X145118011Y-131976590D01*
X145125110Y-132099715D01*
X145126247Y-132104761D01*
X145126248Y-132104767D01*
X145146119Y-132192939D01*
X145174222Y-132317639D01*
X145258266Y-132524616D01*
X145374987Y-132715088D01*
X145521250Y-132883938D01*
X145693126Y-133026632D01*
X145886000Y-133139338D01*
X146094692Y-133219030D01*
X146099760Y-133220061D01*
X146099763Y-133220062D01*
X146207017Y-133241883D01*
X146313597Y-133263567D01*
X146318772Y-133263757D01*
X146318774Y-133263757D01*
X146531673Y-133271564D01*
X146531677Y-133271564D01*
X146536837Y-133271753D01*
X146541957Y-133271097D01*
X146541959Y-133271097D01*
X146753288Y-133244025D01*
X146753289Y-133244025D01*
X146758416Y-133243368D01*
X146763366Y-133241883D01*
X146967429Y-133180661D01*
X146967434Y-133180659D01*
X146972384Y-133179174D01*
X147172994Y-133080896D01*
X147354860Y-132951173D01*
X147513096Y-132793489D01*
X147572594Y-132710689D01*
X147640435Y-132616277D01*
X147643453Y-132612077D01*
X147742430Y-132411811D01*
X147807370Y-132198069D01*
X147836529Y-131976590D01*
X147838156Y-131910000D01*
X147819852Y-131687361D01*
X147765431Y-131470702D01*
X147676354Y-131265840D01*
X147555014Y-131078277D01*
X147404670Y-130913051D01*
X147400619Y-130909852D01*
X147400615Y-130909848D01*
X147233414Y-130777800D01*
X147233410Y-130777798D01*
X147229359Y-130774598D01*
X147188053Y-130751796D01*
X147138084Y-130701364D01*
X147123312Y-130631921D01*
X147148428Y-130565516D01*
X147175780Y-130538909D01*
X147219603Y-130507650D01*
X147354860Y-130411173D01*
X147513096Y-130253489D01*
X147572594Y-130170689D01*
X147640435Y-130076277D01*
X147643453Y-130072077D01*
X147742430Y-129871811D01*
X147807370Y-129658069D01*
X147836529Y-129436590D01*
X147838156Y-129370000D01*
X147819852Y-129147361D01*
X147765431Y-128930702D01*
X147676354Y-128725840D01*
X147555014Y-128538277D01*
X147404670Y-128373051D01*
X147400619Y-128369852D01*
X147400615Y-128369848D01*
X147233414Y-128237800D01*
X147233410Y-128237798D01*
X147229359Y-128234598D01*
X147188053Y-128211796D01*
X147138084Y-128161364D01*
X147123312Y-128091921D01*
X147148428Y-128025516D01*
X147175780Y-127998909D01*
X147219603Y-127967650D01*
X147354860Y-127871173D01*
X147513096Y-127713489D01*
X147572594Y-127630689D01*
X147640435Y-127536277D01*
X147643453Y-127532077D01*
X147742430Y-127331811D01*
X147807370Y-127118069D01*
X147836529Y-126896590D01*
X147838156Y-126830000D01*
X147819852Y-126607361D01*
X147765431Y-126390702D01*
X147676354Y-126185840D01*
X147575273Y-126029592D01*
X147557822Y-126002617D01*
X147557820Y-126002614D01*
X147555014Y-125998277D01*
X147404670Y-125833051D01*
X147400619Y-125829852D01*
X147400615Y-125829848D01*
X147233414Y-125697800D01*
X147233410Y-125697798D01*
X147229359Y-125694598D01*
X147188053Y-125671796D01*
X147138084Y-125621364D01*
X147123312Y-125551921D01*
X147148428Y-125485516D01*
X147175780Y-125458909D01*
X147219603Y-125427650D01*
X147354860Y-125331173D01*
X147513096Y-125173489D01*
X147572594Y-125090689D01*
X147640435Y-124996277D01*
X147643453Y-124992077D01*
X147704000Y-124869570D01*
X147740136Y-124796453D01*
X147740137Y-124796451D01*
X147742430Y-124791811D01*
X147807370Y-124578069D01*
X147836529Y-124356590D01*
X147836611Y-124353240D01*
X147838074Y-124293365D01*
X147838074Y-124293361D01*
X147838156Y-124290000D01*
X147819852Y-124067361D01*
X147765431Y-123850702D01*
X147676354Y-123645840D01*
X147555014Y-123458277D01*
X147404670Y-123293051D01*
X147400619Y-123289852D01*
X147400615Y-123289848D01*
X147233414Y-123157800D01*
X147233410Y-123157798D01*
X147229359Y-123154598D01*
X147188053Y-123131796D01*
X147138084Y-123081364D01*
X147123312Y-123011921D01*
X147148428Y-122945516D01*
X147175780Y-122918909D01*
X147219603Y-122887650D01*
X147354860Y-122791173D01*
X147513096Y-122633489D01*
X147572594Y-122550689D01*
X147640435Y-122456277D01*
X147643453Y-122452077D01*
X147742430Y-122251811D01*
X147807370Y-122038069D01*
X147836529Y-121816590D01*
X147838156Y-121750000D01*
X147819852Y-121527361D01*
X147765431Y-121310702D01*
X147676354Y-121105840D01*
X147555014Y-120918277D01*
X147404670Y-120753051D01*
X147400619Y-120749852D01*
X147400615Y-120749848D01*
X147233414Y-120617800D01*
X147233410Y-120617798D01*
X147229359Y-120614598D01*
X147188053Y-120591796D01*
X147138084Y-120541364D01*
X147123312Y-120471921D01*
X147148428Y-120405516D01*
X147175780Y-120378909D01*
X147219603Y-120347650D01*
X147354860Y-120251173D01*
X147513096Y-120093489D01*
X147572594Y-120010689D01*
X147640435Y-119916277D01*
X147643453Y-119912077D01*
X147742430Y-119711811D01*
X147807370Y-119498069D01*
X147836529Y-119276590D01*
X147838156Y-119210000D01*
X147819852Y-118987361D01*
X147765431Y-118770702D01*
X147676354Y-118565840D01*
X147616322Y-118473045D01*
X147557822Y-118382617D01*
X147557820Y-118382614D01*
X147555014Y-118378277D01*
X147404670Y-118213051D01*
X147400619Y-118209852D01*
X147400615Y-118209848D01*
X147233414Y-118077800D01*
X147233410Y-118077798D01*
X147229359Y-118074598D01*
X147188053Y-118051796D01*
X147138084Y-118001364D01*
X147123312Y-117931921D01*
X147148428Y-117865516D01*
X147175780Y-117838909D01*
X147219603Y-117807650D01*
X147354860Y-117711173D01*
X147513096Y-117553489D01*
X147558416Y-117490420D01*
X147640435Y-117376277D01*
X147643453Y-117372077D01*
X147690249Y-117277393D01*
X147740136Y-117176453D01*
X147740137Y-117176451D01*
X147742430Y-117171811D01*
X147807370Y-116958069D01*
X147836529Y-116736590D01*
X147838156Y-116670000D01*
X147819852Y-116447361D01*
X147765431Y-116230702D01*
X147676354Y-116025840D01*
X147561432Y-115848197D01*
X147557822Y-115842617D01*
X147557820Y-115842614D01*
X147555014Y-115838277D01*
X147404670Y-115673051D01*
X147400619Y-115669852D01*
X147400615Y-115669848D01*
X147233414Y-115537800D01*
X147233410Y-115537798D01*
X147229359Y-115534598D01*
X147188053Y-115511796D01*
X147138084Y-115461364D01*
X147123312Y-115391921D01*
X147148428Y-115325516D01*
X147175780Y-115298909D01*
X147219603Y-115267650D01*
X147354860Y-115171173D01*
X147513096Y-115013489D01*
X147572594Y-114930689D01*
X147640435Y-114836277D01*
X147643453Y-114832077D01*
X147670480Y-114777393D01*
X147740136Y-114636453D01*
X147740137Y-114636451D01*
X147742430Y-114631811D01*
X147774900Y-114524940D01*
X147805865Y-114423023D01*
X147805865Y-114423021D01*
X147807370Y-114418069D01*
X147836529Y-114196590D01*
X147838156Y-114130000D01*
X147819852Y-113907361D01*
X147765431Y-113690702D01*
X147676354Y-113485840D01*
X147555014Y-113298277D01*
X147404670Y-113133051D01*
X147400619Y-113129852D01*
X147400615Y-113129848D01*
X147233414Y-112997800D01*
X147233410Y-112997798D01*
X147229359Y-112994598D01*
X147188053Y-112971796D01*
X147138084Y-112921364D01*
X147123312Y-112851921D01*
X147148428Y-112785516D01*
X147175780Y-112758909D01*
X147219603Y-112727650D01*
X147354860Y-112631173D01*
X147513096Y-112473489D01*
X147572594Y-112390689D01*
X147640435Y-112296277D01*
X147643453Y-112292077D01*
X147742430Y-112091811D01*
X147807370Y-111878069D01*
X147836529Y-111656590D01*
X147838156Y-111590000D01*
X147819852Y-111367361D01*
X147765431Y-111150702D01*
X147676354Y-110945840D01*
X147636906Y-110884862D01*
X147557822Y-110762617D01*
X147557820Y-110762614D01*
X147555014Y-110758277D01*
X147404670Y-110593051D01*
X147400619Y-110589852D01*
X147400615Y-110589848D01*
X147233414Y-110457800D01*
X147233410Y-110457798D01*
X147229359Y-110454598D01*
X147188053Y-110431796D01*
X147138084Y-110381364D01*
X147123312Y-110311921D01*
X147148428Y-110245516D01*
X147175780Y-110218909D01*
X147219603Y-110187650D01*
X147354860Y-110091173D01*
X147513096Y-109933489D01*
X147572594Y-109850689D01*
X147640435Y-109756277D01*
X147643453Y-109752077D01*
X147742430Y-109551811D01*
X147807370Y-109338069D01*
X147836529Y-109116590D01*
X147838156Y-109050000D01*
X147819852Y-108827361D01*
X147765431Y-108610702D01*
X147676354Y-108405840D01*
X147609217Y-108302062D01*
X147557822Y-108222617D01*
X147557820Y-108222614D01*
X147555014Y-108218277D01*
X147404670Y-108053051D01*
X147400619Y-108049852D01*
X147400615Y-108049848D01*
X147233414Y-107917800D01*
X147233410Y-107917798D01*
X147229359Y-107914598D01*
X147188053Y-107891796D01*
X147138084Y-107841364D01*
X147123312Y-107771921D01*
X147148428Y-107705516D01*
X147175780Y-107678909D01*
X147242691Y-107631182D01*
X147354860Y-107551173D01*
X147513096Y-107393489D01*
X147572594Y-107310689D01*
X147640435Y-107216277D01*
X147643453Y-107212077D01*
X147673387Y-107151511D01*
X147740136Y-107016453D01*
X147740137Y-107016451D01*
X147742430Y-107011811D01*
X147807370Y-106798069D01*
X147836529Y-106576590D01*
X147838156Y-106510000D01*
X147819852Y-106287361D01*
X147765431Y-106070702D01*
X147676354Y-105865840D01*
X147561432Y-105688197D01*
X147557822Y-105682617D01*
X147557820Y-105682614D01*
X147555014Y-105678277D01*
X147404670Y-105513051D01*
X147400619Y-105509852D01*
X147400615Y-105509848D01*
X147233414Y-105377800D01*
X147233410Y-105377798D01*
X147229359Y-105374598D01*
X147188053Y-105351796D01*
X147138084Y-105301364D01*
X147123312Y-105231921D01*
X147148428Y-105165516D01*
X147175780Y-105138909D01*
X147219603Y-105107650D01*
X147354860Y-105011173D01*
X147417769Y-104948484D01*
X147509435Y-104857137D01*
X147513096Y-104853489D01*
X147572594Y-104770689D01*
X147640435Y-104676277D01*
X147643453Y-104672077D01*
X147670480Y-104617393D01*
X147740136Y-104476453D01*
X147740137Y-104476451D01*
X147742430Y-104471811D01*
X147774900Y-104364940D01*
X147805865Y-104263023D01*
X147805865Y-104263021D01*
X147807370Y-104258069D01*
X147836529Y-104036590D01*
X147838156Y-103970000D01*
X147819852Y-103747361D01*
X147765431Y-103530702D01*
X147676354Y-103325840D01*
X147580205Y-103177216D01*
X147557822Y-103142617D01*
X147557820Y-103142614D01*
X147555014Y-103138277D01*
X147404670Y-102973051D01*
X147400619Y-102969852D01*
X147400615Y-102969848D01*
X147233414Y-102837800D01*
X147233410Y-102837798D01*
X147229359Y-102834598D01*
X147187569Y-102811529D01*
X147137598Y-102761097D01*
X147122826Y-102691654D01*
X147147942Y-102625248D01*
X147175294Y-102598641D01*
X147350328Y-102473792D01*
X147358200Y-102467139D01*
X147509052Y-102316812D01*
X147515730Y-102308965D01*
X147640003Y-102136020D01*
X147645313Y-102127183D01*
X147739670Y-101936267D01*
X147743469Y-101926672D01*
X147805377Y-101722910D01*
X147807555Y-101712837D01*
X147808986Y-101701962D01*
X147806775Y-101687778D01*
X147793617Y-101684000D01*
X145158225Y-101684000D01*
X145144694Y-101687973D01*
X145143257Y-101697966D01*
X145173565Y-101832446D01*
X145176645Y-101842275D01*
X145256770Y-102039603D01*
X145261413Y-102048794D01*
X145372694Y-102230388D01*
X145378777Y-102238699D01*
X145518213Y-102399667D01*
X145525580Y-102406883D01*
X145689434Y-102542916D01*
X145697881Y-102548831D01*
X145766969Y-102589203D01*
X145815693Y-102640842D01*
X145828764Y-102710625D01*
X145802033Y-102776396D01*
X145761584Y-102809752D01*
X145748607Y-102816507D01*
X145744474Y-102819610D01*
X145744471Y-102819612D01*
X145574100Y-102947530D01*
X145569965Y-102950635D01*
X145415629Y-103112138D01*
X145289743Y-103296680D01*
X145195688Y-103499305D01*
X145135989Y-103714570D01*
X145112251Y-103936695D01*
X145112548Y-103941848D01*
X145112548Y-103941851D01*
X145118011Y-104036590D01*
X145125110Y-104159715D01*
X145126247Y-104164761D01*
X145126248Y-104164767D01*
X145129398Y-104178743D01*
X145174222Y-104377639D01*
X145258266Y-104584616D01*
X145374987Y-104775088D01*
X145521250Y-104943938D01*
X145693126Y-105086632D01*
X145763595Y-105127811D01*
X145766445Y-105129476D01*
X145815169Y-105181114D01*
X145828240Y-105250897D01*
X145801509Y-105316669D01*
X145761055Y-105350027D01*
X145748607Y-105356507D01*
X145744474Y-105359610D01*
X145744471Y-105359612D01*
X145574100Y-105487530D01*
X145569965Y-105490635D01*
X145566393Y-105494373D01*
X145483365Y-105581257D01*
X145415629Y-105652138D01*
X145412715Y-105656410D01*
X145412714Y-105656411D01*
X145391031Y-105688197D01*
X145289743Y-105836680D01*
X145274003Y-105870590D01*
X145225832Y-105974366D01*
X145195688Y-106039305D01*
X145135989Y-106254570D01*
X145112251Y-106476695D01*
X145112548Y-106481848D01*
X145112548Y-106481851D01*
X145118011Y-106576590D01*
X145125110Y-106699715D01*
X145126247Y-106704761D01*
X145126248Y-106704767D01*
X145146119Y-106792939D01*
X145174222Y-106917639D01*
X145258266Y-107124616D01*
X145374987Y-107315088D01*
X145521250Y-107483938D01*
X145693126Y-107626632D01*
X145705617Y-107633931D01*
X145766445Y-107669476D01*
X145815169Y-107721114D01*
X145828240Y-107790897D01*
X145801509Y-107856669D01*
X145761055Y-107890027D01*
X145748607Y-107896507D01*
X145744474Y-107899610D01*
X145744471Y-107899612D01*
X145574100Y-108027530D01*
X145569965Y-108030635D01*
X145566393Y-108034373D01*
X145420935Y-108186586D01*
X145415629Y-108192138D01*
X145412715Y-108196410D01*
X145412714Y-108196411D01*
X145347333Y-108292256D01*
X145289743Y-108376680D01*
X145195688Y-108579305D01*
X145135989Y-108794570D01*
X145112251Y-109016695D01*
X145112548Y-109021848D01*
X145112548Y-109021851D01*
X145118011Y-109116590D01*
X145125110Y-109239715D01*
X145126247Y-109244761D01*
X145126248Y-109244767D01*
X145146119Y-109332939D01*
X145174222Y-109457639D01*
X145258266Y-109664616D01*
X145374987Y-109855088D01*
X145521250Y-110023938D01*
X145693126Y-110166632D01*
X145763595Y-110207811D01*
X145766445Y-110209476D01*
X145815169Y-110261114D01*
X145828240Y-110330897D01*
X145801509Y-110396669D01*
X145761055Y-110430027D01*
X145748607Y-110436507D01*
X145744474Y-110439610D01*
X145744471Y-110439612D01*
X145574100Y-110567530D01*
X145569965Y-110570635D01*
X145415629Y-110732138D01*
X145289743Y-110916680D01*
X145195688Y-111119305D01*
X145135989Y-111334570D01*
X145112251Y-111556695D01*
X145112548Y-111561848D01*
X145112548Y-111561851D01*
X145118011Y-111656590D01*
X145125110Y-111779715D01*
X145126247Y-111784761D01*
X145126248Y-111784767D01*
X145146119Y-111872939D01*
X145174222Y-111997639D01*
X145258266Y-112204616D01*
X145374987Y-112395088D01*
X145521250Y-112563938D01*
X145693126Y-112706632D01*
X145763595Y-112747811D01*
X145766445Y-112749476D01*
X145815169Y-112801114D01*
X145828240Y-112870897D01*
X145801509Y-112936669D01*
X145761055Y-112970027D01*
X145748607Y-112976507D01*
X145744474Y-112979610D01*
X145744471Y-112979612D01*
X145720247Y-112997800D01*
X145569965Y-113110635D01*
X145415629Y-113272138D01*
X145289743Y-113456680D01*
X145195688Y-113659305D01*
X145135989Y-113874570D01*
X145112251Y-114096695D01*
X145112548Y-114101848D01*
X145112548Y-114101851D01*
X145118011Y-114196590D01*
X145125110Y-114319715D01*
X145126247Y-114324761D01*
X145126248Y-114324767D01*
X145129398Y-114338743D01*
X145174222Y-114537639D01*
X145258266Y-114744616D01*
X145374987Y-114935088D01*
X145521250Y-115103938D01*
X145693126Y-115246632D01*
X145763595Y-115287811D01*
X145766445Y-115289476D01*
X145815169Y-115341114D01*
X145828240Y-115410897D01*
X145801509Y-115476669D01*
X145761055Y-115510027D01*
X145748607Y-115516507D01*
X145744474Y-115519610D01*
X145744471Y-115519612D01*
X145574100Y-115647530D01*
X145569965Y-115650635D01*
X145566393Y-115654373D01*
X145483365Y-115741257D01*
X145415629Y-115812138D01*
X145412715Y-115816410D01*
X145412714Y-115816411D01*
X145391031Y-115848197D01*
X145289743Y-115996680D01*
X145275570Y-116027213D01*
X145199614Y-116190848D01*
X145195688Y-116199305D01*
X145135989Y-116414570D01*
X145112251Y-116636695D01*
X145112548Y-116641848D01*
X145112548Y-116641851D01*
X145120963Y-116787789D01*
X145125110Y-116859715D01*
X145126247Y-116864761D01*
X145126248Y-116864767D01*
X145146119Y-116952939D01*
X145174222Y-117077639D01*
X145258266Y-117284616D01*
X145374987Y-117475088D01*
X145521250Y-117643938D01*
X145693126Y-117786632D01*
X145763595Y-117827811D01*
X145766445Y-117829476D01*
X145815169Y-117881114D01*
X145828240Y-117950897D01*
X145801509Y-118016669D01*
X145761055Y-118050027D01*
X145748607Y-118056507D01*
X145744474Y-118059610D01*
X145744471Y-118059612D01*
X145574100Y-118187530D01*
X145569965Y-118190635D01*
X145415629Y-118352138D01*
X145412715Y-118356410D01*
X145412714Y-118356411D01*
X145400404Y-118374457D01*
X145289743Y-118536680D01*
X145268654Y-118582112D01*
X145198019Y-118734284D01*
X145195688Y-118739305D01*
X145135989Y-118954570D01*
X145112251Y-119176695D01*
X145112548Y-119181848D01*
X145112548Y-119181851D01*
X145118011Y-119276590D01*
X145125110Y-119399715D01*
X145126247Y-119404761D01*
X145126248Y-119404767D01*
X145139597Y-119464000D01*
X145174222Y-119617639D01*
X145258266Y-119824616D01*
X145374987Y-120015088D01*
X145521250Y-120183938D01*
X145693126Y-120326632D01*
X145757767Y-120364405D01*
X145766445Y-120369476D01*
X145815169Y-120421114D01*
X145828240Y-120490897D01*
X145801509Y-120556669D01*
X145761055Y-120590027D01*
X145748607Y-120596507D01*
X145744474Y-120599610D01*
X145744471Y-120599612D01*
X145574100Y-120727530D01*
X145569965Y-120730635D01*
X145415629Y-120892138D01*
X145289743Y-121076680D01*
X145195688Y-121279305D01*
X145135989Y-121494570D01*
X145112251Y-121716695D01*
X145112548Y-121721848D01*
X145112548Y-121721851D01*
X145121229Y-121872407D01*
X145125110Y-121939715D01*
X145126247Y-121944761D01*
X145126248Y-121944767D01*
X145146119Y-122032939D01*
X145174222Y-122157639D01*
X145258266Y-122364616D01*
X145374987Y-122555088D01*
X145521250Y-122723938D01*
X145693126Y-122866632D01*
X145763595Y-122907811D01*
X145766445Y-122909476D01*
X145815169Y-122961114D01*
X145828240Y-123030897D01*
X145801509Y-123096669D01*
X145761055Y-123130027D01*
X145748607Y-123136507D01*
X145744474Y-123139610D01*
X145744471Y-123139612D01*
X145720247Y-123157800D01*
X145569965Y-123270635D01*
X145415629Y-123432138D01*
X145289743Y-123616680D01*
X145274003Y-123650590D01*
X145200567Y-123808795D01*
X145195688Y-123819305D01*
X145135989Y-124034570D01*
X145112251Y-124256695D01*
X145112548Y-124261848D01*
X145112548Y-124261851D01*
X145123779Y-124456623D01*
X145125110Y-124479715D01*
X145126247Y-124484761D01*
X145126248Y-124484767D01*
X145146119Y-124572939D01*
X145174222Y-124697639D01*
X145212461Y-124791811D01*
X145242235Y-124865135D01*
X145258266Y-124904616D01*
X145374987Y-125095088D01*
X145521250Y-125263938D01*
X145693126Y-125406632D01*
X145763595Y-125447811D01*
X145766445Y-125449476D01*
X145815169Y-125501114D01*
X145828240Y-125570897D01*
X145801509Y-125636669D01*
X145761055Y-125670027D01*
X145748607Y-125676507D01*
X145744474Y-125679610D01*
X145744471Y-125679612D01*
X145583226Y-125800678D01*
X145569965Y-125810635D01*
X145415629Y-125972138D01*
X145412715Y-125976410D01*
X145412714Y-125976411D01*
X145356840Y-126058320D01*
X145289743Y-126156680D01*
X145259560Y-126221705D01*
X145197994Y-126354338D01*
X145195688Y-126359305D01*
X145135989Y-126574570D01*
X145112251Y-126796695D01*
X145112548Y-126801848D01*
X145112548Y-126801851D01*
X145118011Y-126896590D01*
X145125110Y-127019715D01*
X145126247Y-127024761D01*
X145126248Y-127024767D01*
X145146119Y-127112939D01*
X145174222Y-127237639D01*
X145258266Y-127444616D01*
X145374987Y-127635088D01*
X145521250Y-127803938D01*
X145693126Y-127946632D01*
X145763595Y-127987811D01*
X145766445Y-127989476D01*
X145815169Y-128041114D01*
X145828240Y-128110897D01*
X145801509Y-128176669D01*
X145761055Y-128210027D01*
X145748607Y-128216507D01*
X145744474Y-128219610D01*
X145744471Y-128219612D01*
X145720247Y-128237800D01*
X145569965Y-128350635D01*
X145415629Y-128512138D01*
X145289743Y-128696680D01*
X145195688Y-128899305D01*
X145135989Y-129114570D01*
X145112251Y-129336695D01*
X145112548Y-129341848D01*
X145112548Y-129341851D01*
X145118011Y-129436590D01*
X145125110Y-129559715D01*
X145126247Y-129564761D01*
X145126248Y-129564767D01*
X145146119Y-129652939D01*
X145174222Y-129777639D01*
X145258266Y-129984616D01*
X145374987Y-130175088D01*
X145521250Y-130343938D01*
X145693126Y-130486632D01*
X145763595Y-130527811D01*
X145766445Y-130529476D01*
X145815169Y-130581114D01*
X145828240Y-130650897D01*
X145801509Y-130716669D01*
X145761055Y-130750027D01*
X145748607Y-130756507D01*
X145744474Y-130759610D01*
X145744471Y-130759612D01*
X145720247Y-130777800D01*
X145569965Y-130890635D01*
X145415629Y-131052138D01*
X145289743Y-131236680D01*
X145195688Y-131439305D01*
X145135989Y-131654570D01*
X145112251Y-131876695D01*
X122435418Y-131876695D01*
X122419852Y-131687361D01*
X122365431Y-131470702D01*
X122276354Y-131265840D01*
X122155014Y-131078277D01*
X122004670Y-130913051D01*
X122000619Y-130909852D01*
X122000615Y-130909848D01*
X121833414Y-130777800D01*
X121833410Y-130777798D01*
X121829359Y-130774598D01*
X121788053Y-130751796D01*
X121738084Y-130701364D01*
X121723312Y-130631921D01*
X121748428Y-130565516D01*
X121775780Y-130538909D01*
X121819603Y-130507650D01*
X121954860Y-130411173D01*
X122113096Y-130253489D01*
X122172594Y-130170689D01*
X122240435Y-130076277D01*
X122243453Y-130072077D01*
X122342430Y-129871811D01*
X122407370Y-129658069D01*
X122436529Y-129436590D01*
X122438156Y-129370000D01*
X122419852Y-129147361D01*
X122365431Y-128930702D01*
X122276354Y-128725840D01*
X122155014Y-128538277D01*
X122004670Y-128373051D01*
X122000619Y-128369852D01*
X122000615Y-128369848D01*
X121833414Y-128237800D01*
X121833410Y-128237798D01*
X121829359Y-128234598D01*
X121788053Y-128211796D01*
X121738084Y-128161364D01*
X121723312Y-128091921D01*
X121748428Y-128025516D01*
X121775780Y-127998909D01*
X121819603Y-127967650D01*
X121954860Y-127871173D01*
X122113096Y-127713489D01*
X122172594Y-127630689D01*
X122240435Y-127536277D01*
X122243453Y-127532077D01*
X122342430Y-127331811D01*
X122407370Y-127118069D01*
X122436529Y-126896590D01*
X122438156Y-126830000D01*
X122419852Y-126607361D01*
X122365431Y-126390702D01*
X122276354Y-126185840D01*
X122175273Y-126029592D01*
X122157822Y-126002617D01*
X122157820Y-126002614D01*
X122155014Y-125998277D01*
X122004670Y-125833051D01*
X122000619Y-125829852D01*
X122000615Y-125829848D01*
X121833414Y-125697800D01*
X121833410Y-125697798D01*
X121829359Y-125694598D01*
X121788053Y-125671796D01*
X121738084Y-125621364D01*
X121723312Y-125551921D01*
X121748428Y-125485516D01*
X121775780Y-125458909D01*
X121819603Y-125427650D01*
X121868229Y-125392966D01*
X124113257Y-125392966D01*
X124143565Y-125527446D01*
X124146645Y-125537275D01*
X124226770Y-125734603D01*
X124231413Y-125743794D01*
X124342694Y-125925388D01*
X124348777Y-125933699D01*
X124488213Y-126094667D01*
X124495580Y-126101883D01*
X124659434Y-126237916D01*
X124667881Y-126243831D01*
X124851756Y-126351279D01*
X124861042Y-126355729D01*
X125060001Y-126431703D01*
X125069899Y-126434579D01*
X125173250Y-126455606D01*
X125187299Y-126454410D01*
X125191000Y-126444065D01*
X125191000Y-126443517D01*
X125699000Y-126443517D01*
X125703064Y-126457359D01*
X125716478Y-126459393D01*
X125723184Y-126458534D01*
X125733262Y-126456392D01*
X125937255Y-126395191D01*
X125946842Y-126391433D01*
X126138095Y-126297739D01*
X126146945Y-126292464D01*
X126320328Y-126168792D01*
X126328200Y-126162139D01*
X126479052Y-126011812D01*
X126485730Y-126003965D01*
X126613022Y-125826819D01*
X126614279Y-125827722D01*
X126661373Y-125784362D01*
X126731311Y-125772145D01*
X126796751Y-125799678D01*
X126824579Y-125831511D01*
X126884987Y-125930088D01*
X127031250Y-126098938D01*
X127203126Y-126241632D01*
X127396000Y-126354338D01*
X127604692Y-126434030D01*
X127609760Y-126435061D01*
X127609763Y-126435062D01*
X127704862Y-126454410D01*
X127823597Y-126478567D01*
X127828772Y-126478757D01*
X127828774Y-126478757D01*
X128041673Y-126486564D01*
X128041677Y-126486564D01*
X128046837Y-126486753D01*
X128051957Y-126486097D01*
X128051959Y-126486097D01*
X128263288Y-126459025D01*
X128263289Y-126459025D01*
X128268416Y-126458368D01*
X128273366Y-126456883D01*
X128477429Y-126395661D01*
X128477434Y-126395659D01*
X128482384Y-126394174D01*
X128682994Y-126295896D01*
X128864860Y-126166173D01*
X128973091Y-126058319D01*
X129035462Y-126024404D01*
X129106268Y-126029592D01*
X129163030Y-126072238D01*
X129180012Y-126103341D01*
X129224385Y-126221705D01*
X129311739Y-126338261D01*
X129428295Y-126425615D01*
X129564684Y-126476745D01*
X129626866Y-126483500D01*
X131423134Y-126483500D01*
X131485316Y-126476745D01*
X131621705Y-126425615D01*
X131738261Y-126338261D01*
X131825615Y-126221705D01*
X131876745Y-126085316D01*
X131883500Y-126023134D01*
X131883500Y-125392966D01*
X133348257Y-125392966D01*
X133378565Y-125527446D01*
X133381645Y-125537275D01*
X133461770Y-125734603D01*
X133466413Y-125743794D01*
X133577694Y-125925388D01*
X133583777Y-125933699D01*
X133723213Y-126094667D01*
X133730580Y-126101883D01*
X133894434Y-126237916D01*
X133902881Y-126243831D01*
X134086756Y-126351279D01*
X134096042Y-126355729D01*
X134295001Y-126431703D01*
X134304899Y-126434579D01*
X134408250Y-126455606D01*
X134422299Y-126454410D01*
X134426000Y-126444065D01*
X134426000Y-125397115D01*
X134421525Y-125381876D01*
X134420135Y-125380671D01*
X134412452Y-125379000D01*
X133363225Y-125379000D01*
X133349694Y-125382973D01*
X133348257Y-125392966D01*
X131883500Y-125392966D01*
X131883500Y-124859183D01*
X133344389Y-124859183D01*
X133345912Y-124867607D01*
X133358292Y-124871000D01*
X134407885Y-124871000D01*
X134423124Y-124866525D01*
X134424329Y-124865135D01*
X134426000Y-124857452D01*
X134426000Y-123808102D01*
X134422082Y-123794758D01*
X134407806Y-123792771D01*
X134369324Y-123798660D01*
X134359288Y-123801051D01*
X134156868Y-123867212D01*
X134147359Y-123871209D01*
X133958463Y-123969542D01*
X133949738Y-123975036D01*
X133779433Y-124102905D01*
X133771726Y-124109748D01*
X133624590Y-124263717D01*
X133618104Y-124271727D01*
X133498098Y-124447649D01*
X133493000Y-124456623D01*
X133403338Y-124649783D01*
X133399775Y-124659470D01*
X133344389Y-124859183D01*
X131883500Y-124859183D01*
X131883500Y-124226866D01*
X131876745Y-124164684D01*
X131825615Y-124028295D01*
X131738261Y-123911739D01*
X131621705Y-123824385D01*
X131485316Y-123773255D01*
X131423134Y-123766500D01*
X129626866Y-123766500D01*
X129564684Y-123773255D01*
X129428295Y-123824385D01*
X129311739Y-123911739D01*
X129224385Y-124028295D01*
X129221233Y-124036703D01*
X129179919Y-124146907D01*
X129137277Y-124203671D01*
X129070716Y-124228371D01*
X129001367Y-124213163D01*
X128968743Y-124187476D01*
X128918151Y-124131875D01*
X128918142Y-124131866D01*
X128914670Y-124128051D01*
X128910619Y-124124852D01*
X128910615Y-124124848D01*
X128743414Y-123992800D01*
X128743410Y-123992798D01*
X128739359Y-123989598D01*
X128703028Y-123969542D01*
X128687136Y-123960769D01*
X128543789Y-123881638D01*
X128538920Y-123879914D01*
X128538916Y-123879912D01*
X128338087Y-123808795D01*
X128338083Y-123808794D01*
X128333212Y-123807069D01*
X128328119Y-123806162D01*
X128328116Y-123806161D01*
X128118373Y-123768800D01*
X128118367Y-123768799D01*
X128113284Y-123767894D01*
X128039452Y-123766992D01*
X127895081Y-123765228D01*
X127895079Y-123765228D01*
X127889911Y-123765165D01*
X127669091Y-123798955D01*
X127456756Y-123868357D01*
X127258607Y-123971507D01*
X127254474Y-123974610D01*
X127254471Y-123974612D01*
X127130941Y-124067361D01*
X127079965Y-124105635D01*
X127054541Y-124132240D01*
X126935609Y-124256695D01*
X126925629Y-124267138D01*
X126922715Y-124271410D01*
X126922714Y-124271411D01*
X126817898Y-124425066D01*
X126762987Y-124470069D01*
X126692462Y-124478240D01*
X126628715Y-124446986D01*
X126608018Y-124422502D01*
X126527426Y-124297926D01*
X126521136Y-124289757D01*
X126377806Y-124132240D01*
X126370273Y-124125215D01*
X126203139Y-123993222D01*
X126194552Y-123987517D01*
X126008117Y-123884599D01*
X125998705Y-123880369D01*
X125797959Y-123809280D01*
X125787988Y-123806646D01*
X125716837Y-123793972D01*
X125703540Y-123795432D01*
X125699000Y-123809989D01*
X125699000Y-126443517D01*
X125191000Y-126443517D01*
X125191000Y-125397115D01*
X125186525Y-125381876D01*
X125185135Y-125380671D01*
X125177452Y-125379000D01*
X124128225Y-125379000D01*
X124114694Y-125382973D01*
X124113257Y-125392966D01*
X121868229Y-125392966D01*
X121954860Y-125331173D01*
X122113096Y-125173489D01*
X122172594Y-125090689D01*
X122240435Y-124996277D01*
X122243453Y-124992077D01*
X122304000Y-124869570D01*
X122309133Y-124859183D01*
X124109389Y-124859183D01*
X124110912Y-124867607D01*
X124123292Y-124871000D01*
X125172885Y-124871000D01*
X125188124Y-124866525D01*
X125189329Y-124865135D01*
X125191000Y-124857452D01*
X125191000Y-123808102D01*
X125187082Y-123794758D01*
X125172806Y-123792771D01*
X125134324Y-123798660D01*
X125124288Y-123801051D01*
X124921868Y-123867212D01*
X124912359Y-123871209D01*
X124723463Y-123969542D01*
X124714738Y-123975036D01*
X124544433Y-124102905D01*
X124536726Y-124109748D01*
X124389590Y-124263717D01*
X124383104Y-124271727D01*
X124263098Y-124447649D01*
X124258000Y-124456623D01*
X124168338Y-124649783D01*
X124164775Y-124659470D01*
X124109389Y-124859183D01*
X122309133Y-124859183D01*
X122340136Y-124796453D01*
X122340137Y-124796451D01*
X122342430Y-124791811D01*
X122407370Y-124578069D01*
X122436529Y-124356590D01*
X122436611Y-124353240D01*
X122438074Y-124293365D01*
X122438074Y-124293361D01*
X122438156Y-124290000D01*
X122419852Y-124067361D01*
X122365431Y-123850702D01*
X122276354Y-123645840D01*
X122155014Y-123458277D01*
X122004670Y-123293051D01*
X122000619Y-123289852D01*
X122000615Y-123289848D01*
X121833414Y-123157800D01*
X121833410Y-123157798D01*
X121829359Y-123154598D01*
X121788053Y-123131796D01*
X121738084Y-123081364D01*
X121723312Y-123011921D01*
X121748428Y-122945516D01*
X121775780Y-122918909D01*
X121819603Y-122887650D01*
X121954860Y-122791173D01*
X122113096Y-122633489D01*
X122172594Y-122550689D01*
X122240435Y-122456277D01*
X122243453Y-122452077D01*
X122342430Y-122251811D01*
X122407370Y-122038069D01*
X122436529Y-121816590D01*
X122438156Y-121750000D01*
X122419852Y-121527361D01*
X122365431Y-121310702D01*
X122276354Y-121105840D01*
X122155014Y-120918277D01*
X122004670Y-120753051D01*
X122000619Y-120749852D01*
X122000615Y-120749848D01*
X121833414Y-120617800D01*
X121833410Y-120617798D01*
X121829359Y-120614598D01*
X121787569Y-120591529D01*
X121737598Y-120541097D01*
X121722826Y-120471654D01*
X121747942Y-120405248D01*
X121775294Y-120378641D01*
X121950328Y-120253792D01*
X121958200Y-120247139D01*
X122109052Y-120096812D01*
X122115730Y-120088965D01*
X122240003Y-119916020D01*
X122245313Y-119907183D01*
X122339670Y-119716267D01*
X122343469Y-119706672D01*
X122405377Y-119502910D01*
X122407555Y-119492837D01*
X122408986Y-119481962D01*
X122406775Y-119467778D01*
X122393617Y-119464000D01*
X119758225Y-119464000D01*
X119744694Y-119467973D01*
X119743257Y-119477966D01*
X119773565Y-119612446D01*
X119776645Y-119622275D01*
X119856770Y-119819603D01*
X119861413Y-119828794D01*
X119972694Y-120010388D01*
X119978777Y-120018699D01*
X120118213Y-120179667D01*
X120125580Y-120186883D01*
X120289434Y-120322916D01*
X120297881Y-120328831D01*
X120366969Y-120369203D01*
X120415693Y-120420842D01*
X120428764Y-120490625D01*
X120402033Y-120556396D01*
X120361584Y-120589752D01*
X120348607Y-120596507D01*
X120344474Y-120599610D01*
X120344471Y-120599612D01*
X120174100Y-120727530D01*
X120169965Y-120730635D01*
X120015629Y-120892138D01*
X119889743Y-121076680D01*
X119795688Y-121279305D01*
X119735989Y-121494570D01*
X119712251Y-121716695D01*
X119712548Y-121721848D01*
X119712548Y-121721851D01*
X119721229Y-121872407D01*
X119725110Y-121939715D01*
X119726247Y-121944761D01*
X119726248Y-121944767D01*
X119746119Y-122032939D01*
X119774222Y-122157639D01*
X119858266Y-122364616D01*
X119974987Y-122555088D01*
X120121250Y-122723938D01*
X120293126Y-122866632D01*
X120363595Y-122907811D01*
X120366445Y-122909476D01*
X120415169Y-122961114D01*
X120428240Y-123030897D01*
X120401509Y-123096669D01*
X120361055Y-123130027D01*
X120348607Y-123136507D01*
X120344474Y-123139610D01*
X120344471Y-123139612D01*
X120320247Y-123157800D01*
X120169965Y-123270635D01*
X120015629Y-123432138D01*
X119889743Y-123616680D01*
X119874003Y-123650590D01*
X119800567Y-123808795D01*
X119795688Y-123819305D01*
X119735989Y-124034570D01*
X119712251Y-124256695D01*
X119712548Y-124261848D01*
X119712548Y-124261851D01*
X119723779Y-124456623D01*
X119725110Y-124479715D01*
X119726247Y-124484761D01*
X119726248Y-124484767D01*
X119746119Y-124572939D01*
X119774222Y-124697639D01*
X119812461Y-124791811D01*
X119842235Y-124865135D01*
X119858266Y-124904616D01*
X119974987Y-125095088D01*
X120121250Y-125263938D01*
X120293126Y-125406632D01*
X120363595Y-125447811D01*
X120366445Y-125449476D01*
X120415169Y-125501114D01*
X120428240Y-125570897D01*
X120401509Y-125636669D01*
X120361055Y-125670027D01*
X120348607Y-125676507D01*
X120344474Y-125679610D01*
X120344471Y-125679612D01*
X120183226Y-125800678D01*
X120169965Y-125810635D01*
X120015629Y-125972138D01*
X120012715Y-125976410D01*
X120012714Y-125976411D01*
X119956840Y-126058320D01*
X119889743Y-126156680D01*
X119859560Y-126221705D01*
X119797994Y-126354338D01*
X119795688Y-126359305D01*
X119735989Y-126574570D01*
X119712251Y-126796695D01*
X119712548Y-126801848D01*
X119712548Y-126801851D01*
X119718011Y-126896590D01*
X119725110Y-127019715D01*
X119726247Y-127024761D01*
X119726248Y-127024767D01*
X119746119Y-127112939D01*
X119774222Y-127237639D01*
X119858266Y-127444616D01*
X119974987Y-127635088D01*
X120121250Y-127803938D01*
X120293126Y-127946632D01*
X120363595Y-127987811D01*
X120366445Y-127989476D01*
X120415169Y-128041114D01*
X120428240Y-128110897D01*
X120401509Y-128176669D01*
X120361055Y-128210027D01*
X120348607Y-128216507D01*
X120344474Y-128219610D01*
X120344471Y-128219612D01*
X120320247Y-128237800D01*
X120169965Y-128350635D01*
X120015629Y-128512138D01*
X119889743Y-128696680D01*
X119795688Y-128899305D01*
X119735989Y-129114570D01*
X119712251Y-129336695D01*
X119712548Y-129341848D01*
X119712548Y-129341851D01*
X119718011Y-129436590D01*
X119725110Y-129559715D01*
X119726247Y-129564761D01*
X119726248Y-129564767D01*
X119746119Y-129652939D01*
X119774222Y-129777639D01*
X119858266Y-129984616D01*
X119974987Y-130175088D01*
X120121250Y-130343938D01*
X120293126Y-130486632D01*
X120363595Y-130527811D01*
X120366445Y-130529476D01*
X120415169Y-130581114D01*
X120428240Y-130650897D01*
X120401509Y-130716669D01*
X120361055Y-130750027D01*
X120348607Y-130756507D01*
X120344474Y-130759610D01*
X120344471Y-130759612D01*
X120320247Y-130777800D01*
X120169965Y-130890635D01*
X120015629Y-131052138D01*
X119889743Y-131236680D01*
X119795688Y-131439305D01*
X119735989Y-131654570D01*
X119712251Y-131876695D01*
X117008500Y-131876695D01*
X117008500Y-116636695D01*
X119712251Y-116636695D01*
X119712548Y-116641848D01*
X119712548Y-116641851D01*
X119720963Y-116787789D01*
X119725110Y-116859715D01*
X119726247Y-116864761D01*
X119726248Y-116864767D01*
X119746119Y-116952939D01*
X119774222Y-117077639D01*
X119858266Y-117284616D01*
X119974987Y-117475088D01*
X120121250Y-117643938D01*
X120293126Y-117786632D01*
X120366445Y-117829476D01*
X120366955Y-117829774D01*
X120415679Y-117881412D01*
X120428750Y-117951195D01*
X120402019Y-118016967D01*
X120361562Y-118050327D01*
X120353457Y-118054546D01*
X120344738Y-118060036D01*
X120174433Y-118187905D01*
X120166726Y-118194748D01*
X120019590Y-118348717D01*
X120013104Y-118356727D01*
X119893098Y-118532649D01*
X119888000Y-118541623D01*
X119798338Y-118734783D01*
X119794775Y-118744470D01*
X119739389Y-118944183D01*
X119740912Y-118952607D01*
X119753292Y-118956000D01*
X122393344Y-118956000D01*
X122406875Y-118952027D01*
X122408180Y-118942947D01*
X122366214Y-118775875D01*
X122362894Y-118766124D01*
X122277972Y-118570814D01*
X122273105Y-118561739D01*
X122157426Y-118382926D01*
X122151136Y-118374757D01*
X122007806Y-118217240D01*
X122000273Y-118210215D01*
X121833139Y-118078222D01*
X121824556Y-118072520D01*
X121787602Y-118052120D01*
X121737631Y-118001687D01*
X121722859Y-117932245D01*
X121747975Y-117865839D01*
X121775327Y-117839232D01*
X121798797Y-117822491D01*
X121954860Y-117711173D01*
X122113096Y-117553489D01*
X122151532Y-117500000D01*
X134686502Y-117500000D01*
X134706457Y-117728087D01*
X134707881Y-117733400D01*
X134707881Y-117733402D01*
X134761075Y-117931921D01*
X134765716Y-117949243D01*
X134768039Y-117954224D01*
X134768039Y-117954225D01*
X134860151Y-118151762D01*
X134860154Y-118151767D01*
X134862477Y-118156749D01*
X134993802Y-118344300D01*
X135155700Y-118506198D01*
X135160208Y-118509355D01*
X135160211Y-118509357D01*
X135205938Y-118541375D01*
X135343251Y-118637523D01*
X135348233Y-118639846D01*
X135348238Y-118639849D01*
X135544765Y-118731490D01*
X135550757Y-118734284D01*
X135556065Y-118735706D01*
X135556067Y-118735707D01*
X135766598Y-118792119D01*
X135766600Y-118792119D01*
X135771913Y-118793543D01*
X136000000Y-118813498D01*
X136228087Y-118793543D01*
X136233400Y-118792119D01*
X136233402Y-118792119D01*
X136443933Y-118735707D01*
X136443935Y-118735706D01*
X136449243Y-118734284D01*
X136455235Y-118731490D01*
X136651762Y-118639849D01*
X136651767Y-118639846D01*
X136656749Y-118637523D01*
X136794062Y-118541375D01*
X136839789Y-118509357D01*
X136839792Y-118509355D01*
X136844300Y-118506198D01*
X137006198Y-118344300D01*
X137137523Y-118156749D01*
X137139846Y-118151767D01*
X137139849Y-118151762D01*
X137231961Y-117954225D01*
X137231961Y-117954224D01*
X137234284Y-117949243D01*
X137238926Y-117931921D01*
X137292119Y-117733402D01*
X137292119Y-117733400D01*
X137293543Y-117728087D01*
X137313019Y-117505475D01*
X139687483Y-117505475D01*
X139706472Y-117722519D01*
X139708375Y-117733312D01*
X139764764Y-117943761D01*
X139768510Y-117954053D01*
X139860586Y-118151511D01*
X139866069Y-118161006D01*
X139902509Y-118213048D01*
X139912988Y-118221424D01*
X139926434Y-118214356D01*
X140627978Y-117512812D01*
X140635592Y-117498868D01*
X140635461Y-117497035D01*
X140631210Y-117490420D01*
X139925713Y-116784923D01*
X139913938Y-116778493D01*
X139901923Y-116787789D01*
X139866069Y-116838994D01*
X139860586Y-116848489D01*
X139768510Y-117045947D01*
X139764764Y-117056239D01*
X139708375Y-117266688D01*
X139706472Y-117277481D01*
X139687483Y-117494525D01*
X139687483Y-117505475D01*
X137313019Y-117505475D01*
X137313498Y-117500000D01*
X137293543Y-117271913D01*
X137292119Y-117266598D01*
X137292118Y-117266591D01*
X137276541Y-117208459D01*
X137278230Y-117137483D01*
X137309152Y-117086752D01*
X137937135Y-116458769D01*
X137945425Y-116451225D01*
X137951906Y-116447112D01*
X137998547Y-116397444D01*
X138001301Y-116394603D01*
X138021023Y-116374881D01*
X138023500Y-116371688D01*
X138031205Y-116362667D01*
X138056047Y-116336212D01*
X138061474Y-116330433D01*
X138065295Y-116323483D01*
X138071234Y-116312680D01*
X138082090Y-116296153D01*
X138089645Y-116286414D01*
X138089646Y-116286412D01*
X138094502Y-116280152D01*
X138112062Y-116239572D01*
X138117279Y-116228924D01*
X138134763Y-116197121D01*
X138134764Y-116197119D01*
X138138583Y-116190172D01*
X138143621Y-116170549D01*
X138150025Y-116151846D01*
X138154921Y-116140532D01*
X138154921Y-116140531D01*
X138158069Y-116133257D01*
X138159308Y-116125434D01*
X138159311Y-116125424D01*
X138164987Y-116089588D01*
X138167393Y-116077968D01*
X138176416Y-116042823D01*
X138176416Y-116042822D01*
X138178388Y-116035142D01*
X138178388Y-116014888D01*
X138179939Y-115995177D01*
X138181868Y-115982998D01*
X138183108Y-115975169D01*
X138178947Y-115931150D01*
X138178388Y-115919293D01*
X138178388Y-107934500D01*
X138198390Y-107866379D01*
X138252046Y-107819886D01*
X138304388Y-107808500D01*
X138393022Y-107808500D01*
X138455204Y-107801745D01*
X138591593Y-107750615D01*
X138637390Y-107716292D01*
X138700966Y-107668645D01*
X138700969Y-107668642D01*
X138708149Y-107663261D01*
X138713530Y-107656081D01*
X138719881Y-107649730D01*
X138722023Y-107651872D01*
X138766734Y-107618436D01*
X138837552Y-107613406D01*
X138878923Y-107631523D01*
X138879120Y-107631182D01*
X138882186Y-107632952D01*
X138882978Y-107633299D01*
X138883877Y-107633929D01*
X138893377Y-107639414D01*
X139090835Y-107731490D01*
X139101127Y-107735236D01*
X139311576Y-107791625D01*
X139322369Y-107793528D01*
X139539413Y-107812517D01*
X139550363Y-107812517D01*
X139767407Y-107793528D01*
X139778200Y-107791625D01*
X139988649Y-107735236D01*
X139998941Y-107731490D01*
X140196399Y-107639414D01*
X140205894Y-107633931D01*
X140257936Y-107597491D01*
X140266312Y-107587012D01*
X140259244Y-107573566D01*
X139274773Y-106589095D01*
X139240747Y-106526783D01*
X139242582Y-106501132D01*
X139909296Y-106501132D01*
X139909427Y-106502965D01*
X139913678Y-106509580D01*
X140619175Y-107215077D01*
X140630950Y-107221507D01*
X140642965Y-107212211D01*
X140678819Y-107161006D01*
X140684302Y-107151511D01*
X140776378Y-106954053D01*
X140780124Y-106943761D01*
X140836513Y-106733312D01*
X140838416Y-106722519D01*
X140857405Y-106505475D01*
X140857405Y-106494525D01*
X140838416Y-106277481D01*
X140836513Y-106266688D01*
X140780124Y-106056239D01*
X140776378Y-106045947D01*
X140684302Y-105848489D01*
X140678819Y-105838994D01*
X140642379Y-105786952D01*
X140631900Y-105778576D01*
X140618454Y-105785644D01*
X139916910Y-106487188D01*
X139909296Y-106501132D01*
X139242582Y-106501132D01*
X139245812Y-106455968D01*
X139274773Y-106410905D01*
X140259965Y-105425713D01*
X140266395Y-105413938D01*
X140257099Y-105401923D01*
X140205894Y-105366069D01*
X140196399Y-105360586D01*
X139998941Y-105268510D01*
X139988649Y-105264764D01*
X139778200Y-105208375D01*
X139767407Y-105206472D01*
X139550363Y-105187483D01*
X139539413Y-105187483D01*
X139322369Y-105206472D01*
X139311576Y-105208375D01*
X139101127Y-105264764D01*
X139090835Y-105268510D01*
X138893377Y-105360586D01*
X138883877Y-105366071D01*
X138882978Y-105366701D01*
X138882518Y-105366856D01*
X138879120Y-105368818D01*
X138878726Y-105368135D01*
X138815704Y-105389388D01*
X138746844Y-105372102D01*
X138721085Y-105349066D01*
X138719881Y-105350270D01*
X138713530Y-105343919D01*
X138708149Y-105336739D01*
X138700969Y-105331358D01*
X138700966Y-105331355D01*
X138635802Y-105282518D01*
X138591593Y-105249385D01*
X138455204Y-105198255D01*
X138393022Y-105191500D01*
X136696754Y-105191500D01*
X136634572Y-105198255D01*
X136498183Y-105249385D01*
X136381627Y-105336739D01*
X136294273Y-105453295D01*
X136243143Y-105589684D01*
X136236388Y-105651866D01*
X136236388Y-107348134D01*
X136243143Y-107410316D01*
X136294273Y-107546705D01*
X136381627Y-107663261D01*
X136498183Y-107750615D01*
X136634572Y-107801745D01*
X136696754Y-107808500D01*
X136785388Y-107808500D01*
X136853509Y-107828502D01*
X136900002Y-107882158D01*
X136911388Y-107934500D01*
X136911388Y-115640518D01*
X136891386Y-115708639D01*
X136874483Y-115729613D01*
X136413248Y-116190848D01*
X136350936Y-116224874D01*
X136291541Y-116223459D01*
X136233409Y-116207882D01*
X136233398Y-116207880D01*
X136228087Y-116206457D01*
X136000000Y-116186502D01*
X135771913Y-116206457D01*
X135766600Y-116207881D01*
X135766598Y-116207881D01*
X135556067Y-116264293D01*
X135556065Y-116264294D01*
X135550757Y-116265716D01*
X135545776Y-116268039D01*
X135545775Y-116268039D01*
X135348238Y-116360151D01*
X135348233Y-116360154D01*
X135343251Y-116362477D01*
X135295351Y-116396017D01*
X135160211Y-116490643D01*
X135160208Y-116490645D01*
X135155700Y-116493802D01*
X134993802Y-116655700D01*
X134990645Y-116660208D01*
X134990643Y-116660211D01*
X134983789Y-116670000D01*
X134862477Y-116843251D01*
X134860154Y-116848233D01*
X134860151Y-116848238D01*
X134768039Y-117045775D01*
X134765716Y-117050757D01*
X134764294Y-117056065D01*
X134764293Y-117056067D01*
X134707883Y-117266591D01*
X134706457Y-117271913D01*
X134686502Y-117500000D01*
X122151532Y-117500000D01*
X122158416Y-117490420D01*
X122240435Y-117376277D01*
X122243453Y-117372077D01*
X122290249Y-117277393D01*
X122340136Y-117176453D01*
X122340137Y-117176451D01*
X122342430Y-117171811D01*
X122407370Y-116958069D01*
X122436529Y-116736590D01*
X122438156Y-116670000D01*
X122419852Y-116447361D01*
X122365431Y-116230702D01*
X122276354Y-116025840D01*
X122161432Y-115848197D01*
X122157822Y-115842617D01*
X122157820Y-115842614D01*
X122155014Y-115838277D01*
X122004670Y-115673051D01*
X122000619Y-115669852D01*
X122000615Y-115669848D01*
X121833414Y-115537800D01*
X121833410Y-115537798D01*
X121829359Y-115534598D01*
X121788053Y-115511796D01*
X121738084Y-115461364D01*
X121723312Y-115391921D01*
X121748428Y-115325516D01*
X121775780Y-115298909D01*
X121819603Y-115267650D01*
X121954860Y-115171173D01*
X122113096Y-115013489D01*
X122172594Y-114930689D01*
X122240435Y-114836277D01*
X122243453Y-114832077D01*
X122270480Y-114777393D01*
X122340136Y-114636453D01*
X122340137Y-114636451D01*
X122342430Y-114631811D01*
X122374900Y-114524940D01*
X122405865Y-114423023D01*
X122405865Y-114423021D01*
X122407370Y-114418069D01*
X122436529Y-114196590D01*
X122438156Y-114130000D01*
X122419852Y-113907361D01*
X122365431Y-113690702D01*
X122276354Y-113485840D01*
X122155014Y-113298277D01*
X122004670Y-113133051D01*
X122000619Y-113129852D01*
X122000615Y-113129848D01*
X121833414Y-112997800D01*
X121833410Y-112997798D01*
X121829359Y-112994598D01*
X121788053Y-112971796D01*
X121738084Y-112921364D01*
X121723312Y-112851921D01*
X121748428Y-112785516D01*
X121775780Y-112758909D01*
X121819603Y-112727650D01*
X121954860Y-112631173D01*
X122113096Y-112473489D01*
X122172594Y-112390689D01*
X122240435Y-112296277D01*
X122243453Y-112292077D01*
X122342430Y-112091811D01*
X122407370Y-111878069D01*
X122436529Y-111656590D01*
X122438156Y-111590000D01*
X122419852Y-111367361D01*
X122365431Y-111150702D01*
X122276354Y-110945840D01*
X122236906Y-110884862D01*
X122157822Y-110762617D01*
X122157820Y-110762614D01*
X122155014Y-110758277D01*
X122004670Y-110593051D01*
X122000619Y-110589852D01*
X122000615Y-110589848D01*
X121833414Y-110457800D01*
X121833410Y-110457798D01*
X121829359Y-110454598D01*
X121788053Y-110431796D01*
X121738084Y-110381364D01*
X121723312Y-110311921D01*
X121748428Y-110245516D01*
X121775780Y-110218909D01*
X121819603Y-110187650D01*
X121954860Y-110091173D01*
X122113096Y-109933489D01*
X122172594Y-109850689D01*
X122240435Y-109756277D01*
X122243453Y-109752077D01*
X122342430Y-109551811D01*
X122407370Y-109338069D01*
X122436529Y-109116590D01*
X122437676Y-109069654D01*
X122459336Y-109002042D01*
X122514111Y-108956874D01*
X122584611Y-108948490D01*
X122652733Y-108983637D01*
X124579595Y-110910499D01*
X124613621Y-110972811D01*
X124616500Y-110999594D01*
X124616500Y-113860606D01*
X124596498Y-113928727D01*
X124562771Y-113963819D01*
X124410211Y-114070643D01*
X124410208Y-114070645D01*
X124405700Y-114073802D01*
X124243802Y-114235700D01*
X124112477Y-114423251D01*
X124110154Y-114428233D01*
X124110151Y-114428238D01*
X124055343Y-114545775D01*
X124015716Y-114630757D01*
X123956457Y-114851913D01*
X123936502Y-115080000D01*
X123956457Y-115308087D01*
X123957881Y-115313400D01*
X123957881Y-115313402D01*
X123965307Y-115341114D01*
X124015716Y-115529243D01*
X124018039Y-115534224D01*
X124018039Y-115534225D01*
X124110151Y-115731762D01*
X124110154Y-115731767D01*
X124112477Y-115736749D01*
X124243802Y-115924300D01*
X124405700Y-116086198D01*
X124410208Y-116089355D01*
X124410211Y-116089357D01*
X124410541Y-116089588D01*
X124593251Y-116217523D01*
X124598233Y-116219846D01*
X124598238Y-116219849D01*
X124778683Y-116303991D01*
X124800757Y-116314284D01*
X124806065Y-116315706D01*
X124806067Y-116315707D01*
X125016598Y-116372119D01*
X125016600Y-116372119D01*
X125021913Y-116373543D01*
X125250000Y-116393498D01*
X125478087Y-116373543D01*
X125483400Y-116372119D01*
X125483402Y-116372119D01*
X125693933Y-116315707D01*
X125693935Y-116315706D01*
X125699243Y-116314284D01*
X125721317Y-116303991D01*
X125901762Y-116219849D01*
X125901767Y-116219846D01*
X125906749Y-116217523D01*
X126089459Y-116089588D01*
X126089789Y-116089357D01*
X126089792Y-116089355D01*
X126094300Y-116086198D01*
X126256198Y-115924300D01*
X126387523Y-115736749D01*
X126389846Y-115731767D01*
X126389849Y-115731762D01*
X126481961Y-115534225D01*
X126481961Y-115534224D01*
X126484284Y-115529243D01*
X126534694Y-115341114D01*
X126542119Y-115313402D01*
X126542119Y-115313400D01*
X126543543Y-115308087D01*
X126563498Y-115080000D01*
X128186502Y-115080000D01*
X128206457Y-115308087D01*
X128207881Y-115313400D01*
X128207881Y-115313402D01*
X128215307Y-115341114D01*
X128265716Y-115529243D01*
X128268039Y-115534224D01*
X128268039Y-115534225D01*
X128360151Y-115731762D01*
X128360154Y-115731767D01*
X128362477Y-115736749D01*
X128493802Y-115924300D01*
X128655700Y-116086198D01*
X128660208Y-116089355D01*
X128660211Y-116089357D01*
X128660541Y-116089588D01*
X128843251Y-116217523D01*
X128848233Y-116219846D01*
X128848238Y-116219849D01*
X129028683Y-116303991D01*
X129050757Y-116314284D01*
X129056065Y-116315706D01*
X129056067Y-116315707D01*
X129266598Y-116372119D01*
X129266600Y-116372119D01*
X129271913Y-116373543D01*
X129500000Y-116393498D01*
X129728087Y-116373543D01*
X129733400Y-116372119D01*
X129733402Y-116372119D01*
X129943933Y-116315707D01*
X129943935Y-116315706D01*
X129949243Y-116314284D01*
X129971317Y-116303991D01*
X130151762Y-116219849D01*
X130151767Y-116219846D01*
X130156749Y-116217523D01*
X130339459Y-116089588D01*
X130339789Y-116089357D01*
X130339792Y-116089355D01*
X130344300Y-116086198D01*
X130506198Y-115924300D01*
X130637523Y-115736749D01*
X130639846Y-115731767D01*
X130639849Y-115731762D01*
X130731961Y-115534225D01*
X130731961Y-115534224D01*
X130734284Y-115529243D01*
X130784694Y-115341114D01*
X130792119Y-115313402D01*
X130792119Y-115313400D01*
X130793543Y-115308087D01*
X130813498Y-115080000D01*
X130806499Y-115000000D01*
X132186502Y-115000000D01*
X132206457Y-115228087D01*
X132207881Y-115233400D01*
X132207881Y-115233402D01*
X132250357Y-115391921D01*
X132265716Y-115449243D01*
X132268039Y-115454224D01*
X132268039Y-115454225D01*
X132360151Y-115651762D01*
X132360154Y-115651767D01*
X132362477Y-115656749D01*
X132365634Y-115661257D01*
X132489585Y-115838277D01*
X132493802Y-115844300D01*
X132655700Y-116006198D01*
X132660208Y-116009355D01*
X132660211Y-116009357D01*
X132685712Y-116027213D01*
X132843251Y-116137523D01*
X132848233Y-116139846D01*
X132848238Y-116139849D01*
X133030577Y-116224874D01*
X133050757Y-116234284D01*
X133056065Y-116235706D01*
X133056067Y-116235707D01*
X133266598Y-116292119D01*
X133266600Y-116292119D01*
X133271913Y-116293543D01*
X133500000Y-116313498D01*
X133728087Y-116293543D01*
X133733400Y-116292119D01*
X133733402Y-116292119D01*
X133943933Y-116235707D01*
X133943935Y-116235706D01*
X133949243Y-116234284D01*
X133969423Y-116224874D01*
X134151762Y-116139849D01*
X134151767Y-116139846D01*
X134156749Y-116137523D01*
X134314288Y-116027213D01*
X134339789Y-116009357D01*
X134339792Y-116009355D01*
X134344300Y-116006198D01*
X134506198Y-115844300D01*
X134510416Y-115838277D01*
X134634366Y-115661257D01*
X134637523Y-115656749D01*
X134639846Y-115651767D01*
X134639849Y-115651762D01*
X134731961Y-115454225D01*
X134731961Y-115454224D01*
X134734284Y-115449243D01*
X134749644Y-115391921D01*
X134792119Y-115233402D01*
X134792119Y-115233400D01*
X134793543Y-115228087D01*
X134813498Y-115000000D01*
X134793543Y-114771913D01*
X134784946Y-114739829D01*
X134735707Y-114556067D01*
X134735706Y-114556065D01*
X134734284Y-114550757D01*
X134728167Y-114537639D01*
X134639849Y-114348238D01*
X134639846Y-114348233D01*
X134637523Y-114343251D01*
X134506198Y-114155700D01*
X134344300Y-113993802D01*
X134339792Y-113990645D01*
X134339789Y-113990643D01*
X134255518Y-113931636D01*
X134156749Y-113862477D01*
X134151767Y-113860154D01*
X134151762Y-113860151D01*
X133954225Y-113768039D01*
X133954224Y-113768039D01*
X133949243Y-113765716D01*
X133943935Y-113764294D01*
X133943933Y-113764293D01*
X133733402Y-113707881D01*
X133733400Y-113707881D01*
X133728087Y-113706457D01*
X133500000Y-113686502D01*
X133271913Y-113706457D01*
X133266600Y-113707881D01*
X133266598Y-113707881D01*
X133056067Y-113764293D01*
X133056065Y-113764294D01*
X133050757Y-113765716D01*
X133045776Y-113768039D01*
X133045775Y-113768039D01*
X132848238Y-113860151D01*
X132848233Y-113860154D01*
X132843251Y-113862477D01*
X132744482Y-113931636D01*
X132660211Y-113990643D01*
X132660208Y-113990645D01*
X132655700Y-113993802D01*
X132493802Y-114155700D01*
X132362477Y-114343251D01*
X132360154Y-114348233D01*
X132360151Y-114348238D01*
X132271833Y-114537639D01*
X132265716Y-114550757D01*
X132264294Y-114556065D01*
X132264293Y-114556067D01*
X132215054Y-114739829D01*
X132206457Y-114771913D01*
X132186502Y-115000000D01*
X130806499Y-115000000D01*
X130793543Y-114851913D01*
X130734284Y-114630757D01*
X130694657Y-114545775D01*
X130639849Y-114428238D01*
X130639846Y-114428233D01*
X130637523Y-114423251D01*
X130506198Y-114235700D01*
X130344300Y-114073802D01*
X130339792Y-114070645D01*
X130339789Y-114070643D01*
X130187228Y-113963819D01*
X130156749Y-113942477D01*
X130151767Y-113940154D01*
X130151762Y-113940151D01*
X129954225Y-113848039D01*
X129954224Y-113848039D01*
X129949243Y-113845716D01*
X129943935Y-113844294D01*
X129943933Y-113844293D01*
X129733402Y-113787881D01*
X129733400Y-113787881D01*
X129728087Y-113786457D01*
X129500000Y-113766502D01*
X129271913Y-113786457D01*
X129266600Y-113787881D01*
X129266598Y-113787881D01*
X129056067Y-113844293D01*
X129056065Y-113844294D01*
X129050757Y-113845716D01*
X129045776Y-113848039D01*
X129045775Y-113848039D01*
X128848238Y-113940151D01*
X128848233Y-113940154D01*
X128843251Y-113942477D01*
X128812772Y-113963819D01*
X128660211Y-114070643D01*
X128660208Y-114070645D01*
X128655700Y-114073802D01*
X128493802Y-114235700D01*
X128362477Y-114423251D01*
X128360154Y-114428233D01*
X128360151Y-114428238D01*
X128305343Y-114545775D01*
X128265716Y-114630757D01*
X128206457Y-114851913D01*
X128186502Y-115080000D01*
X126563498Y-115080000D01*
X126543543Y-114851913D01*
X126484284Y-114630757D01*
X126444657Y-114545775D01*
X126389849Y-114428238D01*
X126389846Y-114428233D01*
X126387523Y-114423251D01*
X126256198Y-114235700D01*
X126094300Y-114073802D01*
X126089792Y-114070645D01*
X126089789Y-114070643D01*
X125937229Y-113963819D01*
X125892901Y-113908362D01*
X125883500Y-113860606D01*
X125883500Y-110763768D01*
X125884027Y-110752585D01*
X125885702Y-110745092D01*
X125885178Y-110728401D01*
X125883562Y-110677002D01*
X125883500Y-110673044D01*
X125883500Y-110645144D01*
X125882996Y-110641153D01*
X125882063Y-110629311D01*
X125881044Y-110596870D01*
X125880674Y-110585111D01*
X125878461Y-110577493D01*
X125875021Y-110565652D01*
X125871012Y-110546293D01*
X125870846Y-110544983D01*
X125868474Y-110526203D01*
X125865558Y-110518837D01*
X125865556Y-110518831D01*
X125852200Y-110485098D01*
X125848355Y-110473868D01*
X125838230Y-110439017D01*
X125838230Y-110439016D01*
X125836019Y-110431407D01*
X125825705Y-110413966D01*
X125817008Y-110396213D01*
X125812472Y-110384758D01*
X125809552Y-110377383D01*
X125791746Y-110352875D01*
X125783563Y-110341612D01*
X125777047Y-110331692D01*
X125769626Y-110319144D01*
X125754542Y-110293638D01*
X125740221Y-110279317D01*
X125727380Y-110264283D01*
X125715472Y-110247893D01*
X125681395Y-110219702D01*
X125672616Y-110211712D01*
X123980122Y-108519218D01*
X123946097Y-108456907D01*
X123951162Y-108386092D01*
X123993709Y-108329256D01*
X124057360Y-108304683D01*
X124063961Y-108304059D01*
X124075819Y-108303500D01*
X126671233Y-108303500D01*
X126682416Y-108304027D01*
X126689909Y-108305702D01*
X126697835Y-108305453D01*
X126697836Y-108305453D01*
X126757986Y-108303562D01*
X126761945Y-108303500D01*
X126789856Y-108303500D01*
X126793791Y-108303003D01*
X126793856Y-108302995D01*
X126805693Y-108302062D01*
X126837951Y-108301048D01*
X126841970Y-108300922D01*
X126849889Y-108300673D01*
X126869343Y-108295021D01*
X126888700Y-108291013D01*
X126900930Y-108289468D01*
X126900931Y-108289468D01*
X126908797Y-108288474D01*
X126916168Y-108285555D01*
X126916170Y-108285555D01*
X126949912Y-108272196D01*
X126961142Y-108268351D01*
X126995983Y-108258229D01*
X126995984Y-108258229D01*
X127003593Y-108256018D01*
X127010412Y-108251985D01*
X127010417Y-108251983D01*
X127021028Y-108245707D01*
X127038776Y-108237012D01*
X127057617Y-108229552D01*
X127067163Y-108222617D01*
X127093387Y-108203564D01*
X127103307Y-108197048D01*
X127134535Y-108178580D01*
X127134538Y-108178578D01*
X127141362Y-108174542D01*
X127155683Y-108160221D01*
X127170717Y-108147380D01*
X127180694Y-108140131D01*
X127187107Y-108135472D01*
X127215298Y-108101395D01*
X127223288Y-108092616D01*
X129086752Y-106229152D01*
X129149064Y-106195126D01*
X129208459Y-106196541D01*
X129266591Y-106212118D01*
X129266602Y-106212120D01*
X129271913Y-106213543D01*
X129500000Y-106233498D01*
X129728087Y-106213543D01*
X129733400Y-106212119D01*
X129733402Y-106212119D01*
X129943933Y-106155707D01*
X129943935Y-106155706D01*
X129949243Y-106154284D01*
X129963624Y-106147578D01*
X130151762Y-106059849D01*
X130151767Y-106059846D01*
X130156749Y-106057523D01*
X130275509Y-105974366D01*
X130339789Y-105929357D01*
X130339792Y-105929355D01*
X130344300Y-105926198D01*
X130506198Y-105764300D01*
X130519177Y-105745765D01*
X130587304Y-105648469D01*
X130637523Y-105576749D01*
X130639846Y-105571767D01*
X130639849Y-105571762D01*
X130731961Y-105374225D01*
X130731961Y-105374224D01*
X130734284Y-105369243D01*
X130739691Y-105349066D01*
X130792119Y-105153402D01*
X130792120Y-105153398D01*
X130793543Y-105148087D01*
X130813498Y-104920000D01*
X130793543Y-104691913D01*
X130734284Y-104470757D01*
X130694657Y-104385775D01*
X130639849Y-104268238D01*
X130639846Y-104268233D01*
X130637523Y-104263251D01*
X130506198Y-104075700D01*
X130344300Y-103913802D01*
X130339792Y-103910645D01*
X130339789Y-103910643D01*
X130187228Y-103803819D01*
X130156749Y-103782477D01*
X130151767Y-103780154D01*
X130151762Y-103780151D01*
X129954225Y-103688039D01*
X129954224Y-103688039D01*
X129949243Y-103685716D01*
X129943935Y-103684294D01*
X129943933Y-103684293D01*
X129733402Y-103627881D01*
X129733400Y-103627881D01*
X129728087Y-103626457D01*
X129500000Y-103606502D01*
X129271913Y-103626457D01*
X129266600Y-103627881D01*
X129266598Y-103627881D01*
X129056067Y-103684293D01*
X129056065Y-103684294D01*
X129050757Y-103685716D01*
X129045776Y-103688039D01*
X129045775Y-103688039D01*
X128848238Y-103780151D01*
X128848233Y-103780154D01*
X128843251Y-103782477D01*
X128812772Y-103803819D01*
X128660211Y-103910643D01*
X128660208Y-103910645D01*
X128655700Y-103913802D01*
X128493802Y-104075700D01*
X128362477Y-104263251D01*
X128360154Y-104268233D01*
X128360151Y-104268238D01*
X128305343Y-104385775D01*
X128265716Y-104470757D01*
X128206457Y-104691913D01*
X128186502Y-104920000D01*
X128206457Y-105148087D01*
X128223460Y-105211541D01*
X128221770Y-105282518D01*
X128190848Y-105333247D01*
X126524500Y-106999595D01*
X126462188Y-107033621D01*
X126435405Y-107036500D01*
X124354595Y-107036500D01*
X124286474Y-107016498D01*
X124265499Y-106999595D01*
X123502578Y-106236673D01*
X123468553Y-106174361D01*
X123465674Y-106147578D01*
X123465674Y-103265941D01*
X123466201Y-103254758D01*
X123467876Y-103247265D01*
X123465736Y-103179188D01*
X123465674Y-103175229D01*
X123465674Y-103147318D01*
X123465169Y-103143318D01*
X123464236Y-103131475D01*
X123463096Y-103095203D01*
X123462847Y-103087284D01*
X123457196Y-103067832D01*
X123453188Y-103048480D01*
X123451641Y-103036237D01*
X123450648Y-103028377D01*
X123447730Y-103021006D01*
X123434374Y-102987271D01*
X123430529Y-102976044D01*
X123428729Y-102969848D01*
X123418192Y-102933581D01*
X123414158Y-102926759D01*
X123414155Y-102926753D01*
X123407880Y-102916142D01*
X123399184Y-102898392D01*
X123394646Y-102886930D01*
X123394643Y-102886925D01*
X123391726Y-102879557D01*
X123365747Y-102843799D01*
X123359231Y-102833881D01*
X123347543Y-102814118D01*
X123336716Y-102795811D01*
X123322392Y-102781487D01*
X123309550Y-102766452D01*
X123297646Y-102750067D01*
X123263580Y-102721885D01*
X123254801Y-102713896D01*
X122426218Y-101885313D01*
X122392192Y-101823001D01*
X122394755Y-101759589D01*
X122405865Y-101723022D01*
X122407370Y-101718069D01*
X122436529Y-101496590D01*
X122438156Y-101430000D01*
X122419852Y-101207361D01*
X122365431Y-100990702D01*
X122276354Y-100785840D01*
X122194561Y-100659407D01*
X122157822Y-100602617D01*
X122157820Y-100602614D01*
X122155014Y-100598277D01*
X122004670Y-100433051D01*
X122000619Y-100429852D01*
X122000615Y-100429848D01*
X121833414Y-100297800D01*
X121833410Y-100297798D01*
X121829359Y-100294598D01*
X121788053Y-100271796D01*
X121738084Y-100221364D01*
X121723312Y-100151921D01*
X121748428Y-100085516D01*
X121775780Y-100058909D01*
X121819603Y-100027650D01*
X121954860Y-99931173D01*
X121964719Y-99921349D01*
X122102212Y-99784335D01*
X122113096Y-99773489D01*
X122127085Y-99754022D01*
X122240435Y-99596277D01*
X122243453Y-99592077D01*
X122245813Y-99587303D01*
X122340136Y-99396453D01*
X122340137Y-99396451D01*
X122342430Y-99391811D01*
X122388981Y-99238593D01*
X122405865Y-99183023D01*
X122405865Y-99183021D01*
X122407370Y-99178069D01*
X122436529Y-98956590D01*
X122436611Y-98953240D01*
X122438074Y-98893365D01*
X122438074Y-98893361D01*
X122438156Y-98890000D01*
X122419852Y-98667361D01*
X122365431Y-98450702D01*
X122276354Y-98245840D01*
X122155014Y-98058277D01*
X122004670Y-97893051D01*
X122000619Y-97889852D01*
X122000615Y-97889848D01*
X121833414Y-97757800D01*
X121833410Y-97757798D01*
X121829359Y-97754598D01*
X121788053Y-97731796D01*
X121738084Y-97681364D01*
X121723312Y-97611921D01*
X121748428Y-97545516D01*
X121775780Y-97518909D01*
X121844244Y-97470074D01*
X121954860Y-97391173D01*
X122113096Y-97233489D01*
X122172594Y-97150689D01*
X122240435Y-97056277D01*
X122243453Y-97052077D01*
X122275025Y-96988197D01*
X122340136Y-96856453D01*
X122340137Y-96856451D01*
X122342430Y-96851811D01*
X122407370Y-96638069D01*
X122436529Y-96416590D01*
X122436611Y-96413240D01*
X122438074Y-96353365D01*
X122438074Y-96353361D01*
X122438156Y-96350000D01*
X122419852Y-96127361D01*
X122365431Y-95910702D01*
X122276354Y-95705840D01*
X122155014Y-95518277D01*
X122004670Y-95353051D01*
X122000619Y-95349852D01*
X122000615Y-95349848D01*
X121833414Y-95217800D01*
X121833410Y-95217798D01*
X121829359Y-95214598D01*
X121788053Y-95191796D01*
X121738084Y-95141364D01*
X121723312Y-95071921D01*
X121748428Y-95005516D01*
X121775780Y-94978909D01*
X121841662Y-94931916D01*
X121954860Y-94851173D01*
X121977035Y-94829076D01*
X122068295Y-94738134D01*
X122113096Y-94693489D01*
X122172594Y-94610689D01*
X122240435Y-94516277D01*
X122243453Y-94512077D01*
X122326215Y-94344621D01*
X122340136Y-94316453D01*
X122340137Y-94316451D01*
X122342430Y-94311811D01*
X122407370Y-94098069D01*
X122436529Y-93876590D01*
X122437264Y-93846507D01*
X122438074Y-93813365D01*
X122438074Y-93813361D01*
X122438156Y-93810000D01*
X122419852Y-93587361D01*
X122365431Y-93370702D01*
X122276354Y-93165840D01*
X122155014Y-92978277D01*
X122004670Y-92813051D01*
X122000619Y-92809852D01*
X122000615Y-92809848D01*
X121833414Y-92677800D01*
X121833410Y-92677798D01*
X121829359Y-92674598D01*
X121788053Y-92651796D01*
X121738084Y-92601364D01*
X121723312Y-92531921D01*
X121748428Y-92465516D01*
X121775780Y-92438909D01*
X121819603Y-92407650D01*
X121954860Y-92311173D01*
X122113096Y-92153489D01*
X122172594Y-92070689D01*
X122240435Y-91976277D01*
X122243453Y-91972077D01*
X122342430Y-91771811D01*
X122407370Y-91558069D01*
X122436529Y-91336590D01*
X122438156Y-91270000D01*
X122419852Y-91047361D01*
X122365431Y-90830702D01*
X122276354Y-90625840D01*
X122201274Y-90509784D01*
X122157822Y-90442617D01*
X122157820Y-90442614D01*
X122155014Y-90438277D01*
X122004670Y-90273051D01*
X122000619Y-90269852D01*
X122000615Y-90269848D01*
X121833414Y-90137800D01*
X121833410Y-90137798D01*
X121829359Y-90134598D01*
X121788053Y-90111796D01*
X121738084Y-90061364D01*
X121723312Y-89991921D01*
X121748428Y-89925516D01*
X121775780Y-89898909D01*
X121819603Y-89867650D01*
X121954860Y-89771173D01*
X121967603Y-89758475D01*
X122109435Y-89617137D01*
X122113096Y-89613489D01*
X122172594Y-89530689D01*
X122219459Y-89465469D01*
X122822095Y-89465469D01*
X122835427Y-89696697D01*
X122836564Y-89701743D01*
X122836565Y-89701749D01*
X122858408Y-89798671D01*
X122886346Y-89922642D01*
X122888288Y-89927424D01*
X122888289Y-89927428D01*
X122928574Y-90026638D01*
X122973484Y-90137237D01*
X123094501Y-90334719D01*
X123246147Y-90509784D01*
X123424349Y-90657730D01*
X123537073Y-90723600D01*
X123539070Y-90724767D01*
X123587794Y-90776405D01*
X123601500Y-90833555D01*
X123601500Y-98906233D01*
X123600973Y-98917416D01*
X123599298Y-98924909D01*
X123599547Y-98932835D01*
X123599547Y-98932836D01*
X123601438Y-98992986D01*
X123601500Y-98996945D01*
X123601500Y-99024856D01*
X123601997Y-99028790D01*
X123601997Y-99028791D01*
X123602005Y-99028856D01*
X123602938Y-99040693D01*
X123604327Y-99084889D01*
X123609978Y-99104339D01*
X123613987Y-99123700D01*
X123616526Y-99143797D01*
X123619445Y-99151168D01*
X123619445Y-99151170D01*
X123632804Y-99184912D01*
X123636649Y-99196142D01*
X123648982Y-99238593D01*
X123653015Y-99245412D01*
X123653017Y-99245417D01*
X123659293Y-99256028D01*
X123667988Y-99273776D01*
X123675448Y-99292617D01*
X123680110Y-99299033D01*
X123680110Y-99299034D01*
X123701436Y-99328387D01*
X123707952Y-99338307D01*
X123730458Y-99376362D01*
X123744779Y-99390683D01*
X123757619Y-99405716D01*
X123769528Y-99422107D01*
X123775632Y-99427157D01*
X123775637Y-99427162D01*
X123803598Y-99450293D01*
X123812379Y-99458283D01*
X124579596Y-100225501D01*
X124613621Y-100287813D01*
X124616500Y-100314596D01*
X124616500Y-103700606D01*
X124596498Y-103768727D01*
X124562771Y-103803819D01*
X124410211Y-103910643D01*
X124410208Y-103910645D01*
X124405700Y-103913802D01*
X124243802Y-104075700D01*
X124112477Y-104263251D01*
X124110154Y-104268233D01*
X124110151Y-104268238D01*
X124055343Y-104385775D01*
X124015716Y-104470757D01*
X123956457Y-104691913D01*
X123936502Y-104920000D01*
X123956457Y-105148087D01*
X123957880Y-105153398D01*
X123957881Y-105153402D01*
X124010310Y-105349066D01*
X124015716Y-105369243D01*
X124018039Y-105374224D01*
X124018039Y-105374225D01*
X124110151Y-105571762D01*
X124110154Y-105571767D01*
X124112477Y-105576749D01*
X124162696Y-105648469D01*
X124230824Y-105745765D01*
X124243802Y-105764300D01*
X124405700Y-105926198D01*
X124410208Y-105929355D01*
X124410211Y-105929357D01*
X124474491Y-105974366D01*
X124593251Y-106057523D01*
X124598233Y-106059846D01*
X124598238Y-106059849D01*
X124786376Y-106147578D01*
X124800757Y-106154284D01*
X124806065Y-106155706D01*
X124806067Y-106155707D01*
X125016598Y-106212119D01*
X125016600Y-106212119D01*
X125021913Y-106213543D01*
X125250000Y-106233498D01*
X125478087Y-106213543D01*
X125483400Y-106212119D01*
X125483402Y-106212119D01*
X125693933Y-106155707D01*
X125693935Y-106155706D01*
X125699243Y-106154284D01*
X125713624Y-106147578D01*
X125901762Y-106059849D01*
X125901767Y-106059846D01*
X125906749Y-106057523D01*
X126025509Y-105974366D01*
X126089789Y-105929357D01*
X126089792Y-105929355D01*
X126094300Y-105926198D01*
X126256198Y-105764300D01*
X126269177Y-105745765D01*
X126337304Y-105648469D01*
X126387523Y-105576749D01*
X126389846Y-105571767D01*
X126389849Y-105571762D01*
X126481961Y-105374225D01*
X126481961Y-105374224D01*
X126484284Y-105369243D01*
X126489691Y-105349066D01*
X126542119Y-105153402D01*
X126542120Y-105153398D01*
X126543543Y-105148087D01*
X126563498Y-104920000D01*
X126543543Y-104691913D01*
X126484284Y-104470757D01*
X126444657Y-104385775D01*
X126389849Y-104268238D01*
X126389846Y-104268233D01*
X126387523Y-104263251D01*
X126256198Y-104075700D01*
X126094300Y-103913802D01*
X126089792Y-103910645D01*
X126089789Y-103910643D01*
X125937229Y-103803819D01*
X125892901Y-103748362D01*
X125883500Y-103700606D01*
X125883500Y-100078768D01*
X125884027Y-100067585D01*
X125885702Y-100060092D01*
X125883562Y-99992001D01*
X125883500Y-99988044D01*
X125883500Y-99960144D01*
X125882996Y-99956153D01*
X125882063Y-99944311D01*
X125881745Y-99934171D01*
X125880674Y-99900111D01*
X125878462Y-99892497D01*
X125878461Y-99892492D01*
X125875023Y-99880659D01*
X125871012Y-99861295D01*
X125869467Y-99849064D01*
X125868474Y-99841203D01*
X125865557Y-99833836D01*
X125865556Y-99833831D01*
X125852198Y-99800092D01*
X125848354Y-99788865D01*
X125838230Y-99754022D01*
X125836018Y-99746407D01*
X125825707Y-99728972D01*
X125817012Y-99711224D01*
X125809552Y-99692383D01*
X125783564Y-99656613D01*
X125777048Y-99646693D01*
X125758580Y-99615465D01*
X125758578Y-99615462D01*
X125754542Y-99608638D01*
X125740221Y-99594317D01*
X125727380Y-99579283D01*
X125720131Y-99569306D01*
X125715472Y-99562893D01*
X125709368Y-99557843D01*
X125709363Y-99557838D01*
X125681402Y-99534707D01*
X125672621Y-99526717D01*
X124905404Y-98759499D01*
X124871379Y-98697187D01*
X124868500Y-98670404D01*
X124868500Y-97506695D01*
X128137251Y-97506695D01*
X128137548Y-97511848D01*
X128137548Y-97511851D01*
X128148205Y-97696669D01*
X128150110Y-97729715D01*
X128151247Y-97734761D01*
X128151248Y-97734767D01*
X128171119Y-97822937D01*
X128199222Y-97947639D01*
X128283266Y-98154616D01*
X128321299Y-98216680D01*
X128397291Y-98340688D01*
X128399987Y-98345088D01*
X128546250Y-98513938D01*
X128718126Y-98656632D01*
X128911000Y-98769338D01*
X129119692Y-98849030D01*
X129124760Y-98850061D01*
X129124763Y-98850062D01*
X129232017Y-98871883D01*
X129338597Y-98893567D01*
X129343772Y-98893757D01*
X129343774Y-98893757D01*
X129556673Y-98901564D01*
X129556677Y-98901564D01*
X129561837Y-98901753D01*
X129566957Y-98901097D01*
X129566959Y-98901097D01*
X129778288Y-98874025D01*
X129778289Y-98874025D01*
X129783416Y-98873368D01*
X129856099Y-98851562D01*
X129992429Y-98810661D01*
X129992434Y-98810659D01*
X129997384Y-98809174D01*
X130197994Y-98710896D01*
X130379860Y-98581173D01*
X130538096Y-98423489D01*
X130597594Y-98340689D01*
X130668453Y-98242077D01*
X130669776Y-98243028D01*
X130716645Y-98199857D01*
X130786580Y-98187625D01*
X130852026Y-98215144D01*
X130879875Y-98246994D01*
X130939987Y-98345088D01*
X131086250Y-98513938D01*
X131258126Y-98656632D01*
X131451000Y-98769338D01*
X131659692Y-98849030D01*
X131664760Y-98850061D01*
X131664763Y-98850062D01*
X131772017Y-98871883D01*
X131878597Y-98893567D01*
X131883772Y-98893757D01*
X131883774Y-98893757D01*
X132096673Y-98901564D01*
X132096677Y-98901564D01*
X132101837Y-98901753D01*
X132106957Y-98901097D01*
X132106959Y-98901097D01*
X132318288Y-98874025D01*
X132318289Y-98874025D01*
X132323416Y-98873368D01*
X132396099Y-98851562D01*
X132532429Y-98810661D01*
X132532434Y-98810659D01*
X132537384Y-98809174D01*
X132737994Y-98710896D01*
X132919860Y-98581173D01*
X133078096Y-98423489D01*
X133137594Y-98340689D01*
X133208453Y-98242077D01*
X133209776Y-98243028D01*
X133256645Y-98199857D01*
X133326580Y-98187625D01*
X133392026Y-98215144D01*
X133419875Y-98246994D01*
X133479987Y-98345088D01*
X133626250Y-98513938D01*
X133798126Y-98656632D01*
X133991000Y-98769338D01*
X134199692Y-98849030D01*
X134204760Y-98850061D01*
X134204763Y-98850062D01*
X134312017Y-98871883D01*
X134418597Y-98893567D01*
X134423772Y-98893757D01*
X134423774Y-98893757D01*
X134636673Y-98901564D01*
X134636677Y-98901564D01*
X134641837Y-98901753D01*
X134646957Y-98901097D01*
X134646959Y-98901097D01*
X134858288Y-98874025D01*
X134858289Y-98874025D01*
X134863416Y-98873368D01*
X134936099Y-98851562D01*
X135072429Y-98810661D01*
X135072434Y-98810659D01*
X135077384Y-98809174D01*
X135277994Y-98710896D01*
X135459860Y-98581173D01*
X135618096Y-98423489D01*
X135677594Y-98340689D01*
X135748453Y-98242077D01*
X135749776Y-98243028D01*
X135796645Y-98199857D01*
X135866580Y-98187625D01*
X135932026Y-98215144D01*
X135959875Y-98246994D01*
X136019987Y-98345088D01*
X136166250Y-98513938D01*
X136338126Y-98656632D01*
X136531000Y-98769338D01*
X136739692Y-98849030D01*
X136744760Y-98850061D01*
X136744763Y-98850062D01*
X136852017Y-98871883D01*
X136958597Y-98893567D01*
X136963772Y-98893757D01*
X136963774Y-98893757D01*
X137176673Y-98901564D01*
X137176677Y-98901564D01*
X137181837Y-98901753D01*
X137186957Y-98901097D01*
X137186959Y-98901097D01*
X137364853Y-98878308D01*
X137403416Y-98873368D01*
X137404675Y-98872990D01*
X137474351Y-98878308D01*
X137530982Y-98921127D01*
X137555475Y-98987765D01*
X137540051Y-99057066D01*
X137518850Y-99085246D01*
X135294581Y-101309514D01*
X133107747Y-103496348D01*
X133099461Y-103503888D01*
X133092982Y-103508000D01*
X133087557Y-103513777D01*
X133046357Y-103557651D01*
X133043602Y-103560493D01*
X133023865Y-103580230D01*
X133021385Y-103583427D01*
X133013682Y-103592447D01*
X132983414Y-103624679D01*
X132982074Y-103623421D01*
X132942071Y-103656396D01*
X132848238Y-103700151D01*
X132848233Y-103700154D01*
X132843251Y-103702477D01*
X132744482Y-103771636D01*
X132660211Y-103830643D01*
X132660208Y-103830645D01*
X132655700Y-103833802D01*
X132493802Y-103995700D01*
X132362477Y-104183251D01*
X132360154Y-104188233D01*
X132360151Y-104188238D01*
X132271833Y-104377639D01*
X132265716Y-104390757D01*
X132264294Y-104396065D01*
X132264293Y-104396067D01*
X132215054Y-104579829D01*
X132206457Y-104611913D01*
X132186502Y-104840000D01*
X132206457Y-105068087D01*
X132207881Y-105073400D01*
X132207881Y-105073402D01*
X132263724Y-105281807D01*
X132265716Y-105289243D01*
X132268039Y-105294224D01*
X132268039Y-105294225D01*
X132360151Y-105491762D01*
X132360154Y-105491767D01*
X132362477Y-105496749D01*
X132371649Y-105509848D01*
X132489585Y-105678277D01*
X132493802Y-105684300D01*
X132655700Y-105846198D01*
X132660208Y-105849355D01*
X132660211Y-105849357D01*
X132690535Y-105870590D01*
X132843251Y-105977523D01*
X132848233Y-105979846D01*
X132848238Y-105979849D01*
X133032893Y-106065954D01*
X133050757Y-106074284D01*
X133056065Y-106075706D01*
X133056067Y-106075707D01*
X133266598Y-106132119D01*
X133266600Y-106132119D01*
X133271913Y-106133543D01*
X133500000Y-106153498D01*
X133728087Y-106133543D01*
X133733400Y-106132119D01*
X133733402Y-106132119D01*
X133943933Y-106075707D01*
X133943935Y-106075706D01*
X133949243Y-106074284D01*
X133967107Y-106065954D01*
X134151762Y-105979849D01*
X134151767Y-105979846D01*
X134156749Y-105977523D01*
X134309465Y-105870590D01*
X134339789Y-105849357D01*
X134339792Y-105849355D01*
X134344300Y-105846198D01*
X134506198Y-105684300D01*
X134510416Y-105678277D01*
X134628351Y-105509848D01*
X134637523Y-105496749D01*
X134639846Y-105491767D01*
X134639849Y-105491762D01*
X134731961Y-105294225D01*
X134731961Y-105294224D01*
X134734284Y-105289243D01*
X134736277Y-105281807D01*
X134792119Y-105073402D01*
X134792119Y-105073400D01*
X134793543Y-105068087D01*
X134813498Y-104840000D01*
X134793543Y-104611913D01*
X134784946Y-104579829D01*
X134735707Y-104396067D01*
X134735706Y-104396065D01*
X134734284Y-104390757D01*
X134728167Y-104377639D01*
X134639849Y-104188238D01*
X134639846Y-104188233D01*
X134637523Y-104183251D01*
X134523188Y-104019964D01*
X134500500Y-103952690D01*
X134517785Y-103883829D01*
X134537306Y-103858598D01*
X137322421Y-101073484D01*
X137384733Y-101039458D01*
X137455549Y-101044523D01*
X137505152Y-101078269D01*
X137562596Y-101142067D01*
X137717097Y-101254319D01*
X137723125Y-101257003D01*
X137723127Y-101257004D01*
X137885530Y-101329310D01*
X137891561Y-101331995D01*
X137984961Y-101351848D01*
X138071905Y-101370329D01*
X138071910Y-101370329D01*
X138078362Y-101371701D01*
X138269336Y-101371701D01*
X138275788Y-101370329D01*
X138275793Y-101370329D01*
X138362737Y-101351848D01*
X138456137Y-101331995D01*
X138506631Y-101309514D01*
X138553063Y-101288841D01*
X138623430Y-101279407D01*
X138687727Y-101309514D01*
X138725541Y-101369602D01*
X138730312Y-101403948D01*
X138730312Y-101831288D01*
X138710310Y-101899409D01*
X138697954Y-101915591D01*
X138624772Y-101996868D01*
X138529285Y-102162256D01*
X138470270Y-102343884D01*
X138469580Y-102350445D01*
X138469580Y-102350447D01*
X138456616Y-102473792D01*
X138450308Y-102533812D01*
X138450998Y-102540377D01*
X138468892Y-102710625D01*
X138470270Y-102723740D01*
X138529285Y-102905368D01*
X138624772Y-103070756D01*
X138629190Y-103075663D01*
X138629191Y-103075664D01*
X138748137Y-103207767D01*
X138752559Y-103212678D01*
X138907060Y-103324930D01*
X138913088Y-103327614D01*
X138913090Y-103327615D01*
X139075493Y-103399921D01*
X139081524Y-103402606D01*
X139174924Y-103422459D01*
X139261868Y-103440940D01*
X139261873Y-103440940D01*
X139268325Y-103442312D01*
X139459299Y-103442312D01*
X139465751Y-103440940D01*
X139465756Y-103440940D01*
X139552699Y-103422459D01*
X139646100Y-103402606D01*
X139652131Y-103399921D01*
X139814534Y-103327615D01*
X139814536Y-103327614D01*
X139820564Y-103324930D01*
X139975065Y-103212678D01*
X139979487Y-103207767D01*
X140098433Y-103075664D01*
X140098434Y-103075663D01*
X140102852Y-103070756D01*
X140198339Y-102905368D01*
X140257354Y-102723740D01*
X140258733Y-102710625D01*
X140276626Y-102540377D01*
X140277316Y-102533812D01*
X140271008Y-102473792D01*
X140258044Y-102350447D01*
X140258044Y-102350445D01*
X140257354Y-102343884D01*
X140198339Y-102162256D01*
X140102852Y-101996868D01*
X140029675Y-101915597D01*
X139998959Y-101851591D01*
X139997312Y-101831288D01*
X139997312Y-101165725D01*
X140017314Y-101097604D01*
X140029670Y-101081422D01*
X140102852Y-101000145D01*
X140161126Y-100899211D01*
X140195035Y-100840480D01*
X140195036Y-100840479D01*
X140198339Y-100834757D01*
X140257354Y-100653129D01*
X140262631Y-100602926D01*
X140276626Y-100469766D01*
X140277316Y-100463201D01*
X140259932Y-100297800D01*
X140258044Y-100279836D01*
X140258044Y-100279834D01*
X140257354Y-100273273D01*
X140198339Y-100091645D01*
X140194801Y-100085516D01*
X140161126Y-100027191D01*
X140102852Y-99926257D01*
X140061796Y-99880659D01*
X139979487Y-99789246D01*
X139979486Y-99789245D01*
X139975065Y-99784335D01*
X139963263Y-99775760D01*
X139919908Y-99719542D01*
X139913829Y-99648806D01*
X139948226Y-99584728D01*
X141847785Y-97685169D01*
X141910097Y-97651143D01*
X141980912Y-97656208D01*
X142037748Y-97698755D01*
X142062559Y-97765275D01*
X142062880Y-97774264D01*
X142062880Y-116408899D01*
X142042878Y-116477020D01*
X141989222Y-116523513D01*
X141918948Y-116533617D01*
X141854368Y-116504123D01*
X141847943Y-116498141D01*
X141839467Y-116491028D01*
X141661007Y-116366069D01*
X141651511Y-116360586D01*
X141454053Y-116268510D01*
X141443761Y-116264764D01*
X141233312Y-116208375D01*
X141222519Y-116206472D01*
X141005475Y-116187483D01*
X140994525Y-116187483D01*
X140777481Y-116206472D01*
X140766688Y-116208375D01*
X140556239Y-116264764D01*
X140545947Y-116268510D01*
X140348489Y-116360586D01*
X140338994Y-116366069D01*
X140286952Y-116402509D01*
X140278576Y-116412988D01*
X140285644Y-116426434D01*
X141270115Y-117410905D01*
X141304141Y-117473217D01*
X141299076Y-117544032D01*
X141270115Y-117589095D01*
X140284923Y-118574287D01*
X140278493Y-118586062D01*
X140287789Y-118598077D01*
X140338994Y-118633931D01*
X140348489Y-118639414D01*
X140545947Y-118731490D01*
X140556239Y-118735236D01*
X140766688Y-118791625D01*
X140777481Y-118793528D01*
X140994525Y-118812517D01*
X141005475Y-118812517D01*
X141222519Y-118793528D01*
X141233312Y-118791625D01*
X141443761Y-118735236D01*
X141454053Y-118731490D01*
X141651511Y-118639414D01*
X141661007Y-118633931D01*
X141839467Y-118508972D01*
X141852078Y-118498389D01*
X141852810Y-118499262D01*
X141910097Y-118467980D01*
X141980912Y-118473045D01*
X142037748Y-118515592D01*
X142062559Y-118582112D01*
X142062880Y-118591101D01*
X142062880Y-119334026D01*
X142042878Y-119402147D01*
X142025975Y-119423121D01*
X137677345Y-123771750D01*
X137615033Y-123805776D01*
X137566154Y-123806702D01*
X137353373Y-123768800D01*
X137353367Y-123768799D01*
X137348284Y-123767894D01*
X137274452Y-123766992D01*
X137130081Y-123765228D01*
X137130079Y-123765228D01*
X137124911Y-123765165D01*
X136904091Y-123798955D01*
X136691756Y-123868357D01*
X136493607Y-123971507D01*
X136489474Y-123974610D01*
X136489471Y-123974612D01*
X136365941Y-124067361D01*
X136314965Y-124105635D01*
X136289541Y-124132240D01*
X136170609Y-124256695D01*
X136160629Y-124267138D01*
X136157715Y-124271410D01*
X136157714Y-124271411D01*
X136052898Y-124425066D01*
X135997987Y-124470069D01*
X135927462Y-124478240D01*
X135863715Y-124446986D01*
X135843018Y-124422502D01*
X135762426Y-124297926D01*
X135756136Y-124289757D01*
X135612806Y-124132240D01*
X135605273Y-124125215D01*
X135438139Y-123993222D01*
X135429552Y-123987517D01*
X135243117Y-123884599D01*
X135233705Y-123880369D01*
X135032959Y-123809280D01*
X135022988Y-123806646D01*
X134951837Y-123793972D01*
X134938540Y-123795432D01*
X134934000Y-123809989D01*
X134934000Y-126443517D01*
X134938064Y-126457359D01*
X134951478Y-126459393D01*
X134958184Y-126458534D01*
X134968262Y-126456392D01*
X135172255Y-126395191D01*
X135181842Y-126391433D01*
X135373095Y-126297739D01*
X135381945Y-126292464D01*
X135555328Y-126168792D01*
X135563200Y-126162139D01*
X135714052Y-126011812D01*
X135720730Y-126003965D01*
X135848022Y-125826819D01*
X135849279Y-125827722D01*
X135896373Y-125784362D01*
X135966311Y-125772145D01*
X136031751Y-125799678D01*
X136059579Y-125831511D01*
X136119987Y-125930088D01*
X136266250Y-126098938D01*
X136438126Y-126241632D01*
X136631000Y-126354338D01*
X136839692Y-126434030D01*
X136844760Y-126435061D01*
X136844763Y-126435062D01*
X136939862Y-126454410D01*
X137058597Y-126478567D01*
X137063772Y-126478757D01*
X137063774Y-126478757D01*
X137276673Y-126486564D01*
X137276677Y-126486564D01*
X137281837Y-126486753D01*
X137286957Y-126486097D01*
X137286959Y-126486097D01*
X137498288Y-126459025D01*
X137498289Y-126459025D01*
X137503416Y-126458368D01*
X137508366Y-126456883D01*
X137712429Y-126395661D01*
X137712434Y-126395659D01*
X137717384Y-126394174D01*
X137917994Y-126295896D01*
X138099860Y-126166173D01*
X138258096Y-126008489D01*
X138262316Y-126002617D01*
X138388453Y-125827077D01*
X138389776Y-125828028D01*
X138436645Y-125784857D01*
X138506580Y-125772625D01*
X138572026Y-125800144D01*
X138599875Y-125831994D01*
X138659987Y-125930088D01*
X138806250Y-126098938D01*
X138978126Y-126241632D01*
X139171000Y-126354338D01*
X139379692Y-126434030D01*
X139384760Y-126435061D01*
X139384763Y-126435062D01*
X139479862Y-126454410D01*
X139598597Y-126478567D01*
X139603772Y-126478757D01*
X139603774Y-126478757D01*
X139816673Y-126486564D01*
X139816677Y-126486564D01*
X139821837Y-126486753D01*
X139826957Y-126486097D01*
X139826959Y-126486097D01*
X140038288Y-126459025D01*
X140038289Y-126459025D01*
X140043416Y-126458368D01*
X140048366Y-126456883D01*
X140252429Y-126395661D01*
X140252434Y-126395659D01*
X140257384Y-126394174D01*
X140457994Y-126295896D01*
X140639860Y-126166173D01*
X140748091Y-126058319D01*
X140810462Y-126024404D01*
X140881268Y-126029592D01*
X140938030Y-126072238D01*
X140955012Y-126103341D01*
X140999385Y-126221705D01*
X141086739Y-126338261D01*
X141203295Y-126425615D01*
X141339684Y-126476745D01*
X141401866Y-126483500D01*
X143198134Y-126483500D01*
X143260316Y-126476745D01*
X143396705Y-126425615D01*
X143513261Y-126338261D01*
X143600615Y-126221705D01*
X143651745Y-126085316D01*
X143658500Y-126023134D01*
X143658500Y-124226866D01*
X143651745Y-124164684D01*
X143600615Y-124028295D01*
X143513261Y-123911739D01*
X143396705Y-123824385D01*
X143260316Y-123773255D01*
X143198134Y-123766500D01*
X142318594Y-123766500D01*
X142250473Y-123746498D01*
X142203980Y-123692842D01*
X142193876Y-123622568D01*
X142223370Y-123557988D01*
X142229499Y-123551405D01*
X142986734Y-122794171D01*
X143902253Y-121878652D01*
X143910539Y-121871112D01*
X143917018Y-121867000D01*
X143963644Y-121817348D01*
X143966398Y-121814507D01*
X143986135Y-121794770D01*
X143988615Y-121791573D01*
X143996320Y-121782551D01*
X144021159Y-121756100D01*
X144026586Y-121750321D01*
X144030405Y-121743375D01*
X144030407Y-121743372D01*
X144036348Y-121732566D01*
X144047199Y-121716047D01*
X144054758Y-121706301D01*
X144059614Y-121700041D01*
X144062759Y-121692772D01*
X144062762Y-121692768D01*
X144077174Y-121659463D01*
X144082391Y-121648813D01*
X144103695Y-121610060D01*
X144108733Y-121590437D01*
X144115137Y-121571734D01*
X144120033Y-121560420D01*
X144120033Y-121560419D01*
X144123181Y-121553145D01*
X144124420Y-121545322D01*
X144124423Y-121545312D01*
X144130099Y-121509476D01*
X144132505Y-121497856D01*
X144141528Y-121462711D01*
X144141528Y-121462710D01*
X144143500Y-121455030D01*
X144143500Y-121434776D01*
X144145051Y-121415065D01*
X144146980Y-121402886D01*
X144148220Y-121395057D01*
X144144059Y-121351038D01*
X144143500Y-121339181D01*
X144143500Y-102169594D01*
X144163502Y-102101473D01*
X144180405Y-102080499D01*
X145047999Y-101212905D01*
X145110311Y-101178879D01*
X145137094Y-101176000D01*
X147793344Y-101176000D01*
X147806875Y-101172027D01*
X147808180Y-101162947D01*
X147766214Y-100995875D01*
X147762894Y-100986124D01*
X147677972Y-100790814D01*
X147673105Y-100781739D01*
X147557426Y-100602926D01*
X147551136Y-100594757D01*
X147407806Y-100437240D01*
X147400273Y-100430215D01*
X147233139Y-100298222D01*
X147224556Y-100292520D01*
X147187602Y-100272120D01*
X147137631Y-100221687D01*
X147122859Y-100152245D01*
X147147975Y-100085839D01*
X147175327Y-100059232D01*
X147198797Y-100042491D01*
X147354860Y-99931173D01*
X147364719Y-99921349D01*
X147502212Y-99784335D01*
X147513096Y-99773489D01*
X147527085Y-99754022D01*
X147640435Y-99596277D01*
X147643453Y-99592077D01*
X147645813Y-99587303D01*
X147740136Y-99396453D01*
X147740137Y-99396451D01*
X147742430Y-99391811D01*
X147788981Y-99238593D01*
X147805865Y-99183023D01*
X147805865Y-99183021D01*
X147807370Y-99178069D01*
X147836529Y-98956590D01*
X147836611Y-98953240D01*
X147838074Y-98893365D01*
X147838074Y-98893361D01*
X147838156Y-98890000D01*
X147819852Y-98667361D01*
X147765431Y-98450702D01*
X147676354Y-98245840D01*
X147555014Y-98058277D01*
X147404670Y-97893051D01*
X147400619Y-97889852D01*
X147400615Y-97889848D01*
X147233414Y-97757800D01*
X147233410Y-97757798D01*
X147229359Y-97754598D01*
X147188053Y-97731796D01*
X147138084Y-97681364D01*
X147123312Y-97611921D01*
X147148428Y-97545516D01*
X147175780Y-97518909D01*
X147244244Y-97470074D01*
X147354860Y-97391173D01*
X147513096Y-97233489D01*
X147572594Y-97150689D01*
X147640435Y-97056277D01*
X147643453Y-97052077D01*
X147675025Y-96988197D01*
X147740136Y-96856453D01*
X147740137Y-96856451D01*
X147742430Y-96851811D01*
X147807370Y-96638069D01*
X147836529Y-96416590D01*
X147836611Y-96413240D01*
X147838074Y-96353365D01*
X147838074Y-96353361D01*
X147838156Y-96350000D01*
X147819852Y-96127361D01*
X147765431Y-95910702D01*
X147676354Y-95705840D01*
X147555014Y-95518277D01*
X147404670Y-95353051D01*
X147400619Y-95349852D01*
X147400615Y-95349848D01*
X147233414Y-95217800D01*
X147233410Y-95217798D01*
X147229359Y-95214598D01*
X147188053Y-95191796D01*
X147138084Y-95141364D01*
X147123312Y-95071921D01*
X147148428Y-95005516D01*
X147175780Y-94978909D01*
X147241662Y-94931916D01*
X147354860Y-94851173D01*
X147377035Y-94829076D01*
X147468295Y-94738134D01*
X147513096Y-94693489D01*
X147572594Y-94610689D01*
X147640435Y-94516277D01*
X147643453Y-94512077D01*
X147726215Y-94344621D01*
X147740136Y-94316453D01*
X147740137Y-94316451D01*
X147742430Y-94311811D01*
X147807370Y-94098069D01*
X147836529Y-93876590D01*
X147837264Y-93846507D01*
X147838074Y-93813365D01*
X147838074Y-93813361D01*
X147838156Y-93810000D01*
X147819852Y-93587361D01*
X147765431Y-93370702D01*
X147676354Y-93165840D01*
X147555014Y-92978277D01*
X147404670Y-92813051D01*
X147400619Y-92809852D01*
X147400615Y-92809848D01*
X147233414Y-92677800D01*
X147233410Y-92677798D01*
X147229359Y-92674598D01*
X147188053Y-92651796D01*
X147138084Y-92601364D01*
X147123312Y-92531921D01*
X147148428Y-92465516D01*
X147175780Y-92438909D01*
X147219603Y-92407650D01*
X147354860Y-92311173D01*
X147513096Y-92153489D01*
X147572594Y-92070689D01*
X147640435Y-91976277D01*
X147643453Y-91972077D01*
X147742430Y-91771811D01*
X147807370Y-91558069D01*
X147836529Y-91336590D01*
X147838156Y-91270000D01*
X147819852Y-91047361D01*
X147765431Y-90830702D01*
X147676354Y-90625840D01*
X147601274Y-90509784D01*
X147557822Y-90442617D01*
X147557820Y-90442614D01*
X147555014Y-90438277D01*
X147404670Y-90273051D01*
X147400619Y-90269852D01*
X147400615Y-90269848D01*
X147233414Y-90137800D01*
X147233410Y-90137798D01*
X147229359Y-90134598D01*
X147188053Y-90111796D01*
X147138084Y-90061364D01*
X147123312Y-89991921D01*
X147148428Y-89925516D01*
X147175780Y-89898909D01*
X147219603Y-89867650D01*
X147354860Y-89771173D01*
X147367603Y-89758475D01*
X147509435Y-89617137D01*
X147513096Y-89613489D01*
X147572594Y-89530689D01*
X147640435Y-89436277D01*
X147643453Y-89432077D01*
X147660585Y-89397414D01*
X147740136Y-89236453D01*
X147740137Y-89236451D01*
X147742430Y-89231811D01*
X147807370Y-89018069D01*
X147836529Y-88796590D01*
X147837432Y-88759643D01*
X147838074Y-88733365D01*
X147838074Y-88733361D01*
X147838156Y-88730000D01*
X147819852Y-88507361D01*
X147765431Y-88290702D01*
X147676354Y-88085840D01*
X147555014Y-87898277D01*
X147551540Y-87894459D01*
X147551533Y-87894450D01*
X147407435Y-87736088D01*
X147376383Y-87672242D01*
X147384779Y-87601744D01*
X147429956Y-87546976D01*
X147456400Y-87533307D01*
X147563052Y-87493325D01*
X147578649Y-87484786D01*
X147680724Y-87408285D01*
X147693285Y-87395724D01*
X147769786Y-87293649D01*
X147778324Y-87278054D01*
X147823478Y-87157606D01*
X147827105Y-87142351D01*
X147832631Y-87091486D01*
X147833000Y-87084672D01*
X147833000Y-86462115D01*
X147828525Y-86446876D01*
X147827135Y-86445671D01*
X147819452Y-86444000D01*
X145135116Y-86444000D01*
X145119877Y-86448475D01*
X145118672Y-86449865D01*
X145117001Y-86457548D01*
X145117001Y-87084669D01*
X145117371Y-87091490D01*
X145122895Y-87142352D01*
X145126521Y-87157604D01*
X145171676Y-87278054D01*
X145180214Y-87293649D01*
X145256715Y-87395724D01*
X145269276Y-87408285D01*
X145371351Y-87484786D01*
X145386946Y-87493324D01*
X145495827Y-87534142D01*
X145552591Y-87576784D01*
X145577291Y-87643345D01*
X145562083Y-87712694D01*
X145542691Y-87739175D01*
X145419200Y-87868401D01*
X145415629Y-87872138D01*
X145289743Y-88056680D01*
X145195688Y-88259305D01*
X145135989Y-88474570D01*
X145112251Y-88696695D01*
X145112548Y-88701848D01*
X145112548Y-88701851D01*
X145118070Y-88797623D01*
X145125110Y-88919715D01*
X145126247Y-88924761D01*
X145126248Y-88924767D01*
X145158453Y-89067668D01*
X145153917Y-89138520D01*
X145124631Y-89184464D01*
X144898095Y-89411000D01*
X144835783Y-89445026D01*
X144764968Y-89439961D01*
X144708132Y-89397414D01*
X144683321Y-89330894D01*
X144683000Y-89321905D01*
X144682999Y-88555331D01*
X144682629Y-88548510D01*
X144677105Y-88497648D01*
X144673479Y-88482396D01*
X144628324Y-88361946D01*
X144619786Y-88346351D01*
X144543285Y-88244276D01*
X144530724Y-88231715D01*
X144428649Y-88155214D01*
X144413054Y-88146676D01*
X144292606Y-88101522D01*
X144277351Y-88097895D01*
X144226486Y-88092369D01*
X144219672Y-88092000D01*
X143547115Y-88092000D01*
X143531876Y-88096475D01*
X143530671Y-88097865D01*
X143529000Y-88105548D01*
X143529000Y-90889884D01*
X143533475Y-90905123D01*
X143534865Y-90906328D01*
X143542548Y-90907999D01*
X143570500Y-90907999D01*
X143638621Y-90928001D01*
X143685114Y-90981657D01*
X143696500Y-91033999D01*
X143696500Y-93992455D01*
X143676498Y-94060576D01*
X143659595Y-94081550D01*
X141583595Y-96157550D01*
X141521283Y-96191576D01*
X141450468Y-96186511D01*
X141393632Y-96143964D01*
X141368821Y-96077444D01*
X141368500Y-96068455D01*
X141368500Y-90836752D01*
X141388502Y-90768631D01*
X141439068Y-90723601D01*
X141446316Y-90720050D01*
X141454043Y-90716265D01*
X141454047Y-90716263D01*
X141458684Y-90713991D01*
X141462888Y-90710993D01*
X141462892Y-90710990D01*
X141562500Y-90639940D01*
X141647243Y-90579494D01*
X141650898Y-90575852D01*
X141650906Y-90575845D01*
X141692697Y-90534199D01*
X141755068Y-90500282D01*
X141825875Y-90505470D01*
X141882637Y-90548116D01*
X141899619Y-90579218D01*
X141921677Y-90638056D01*
X141930214Y-90653649D01*
X142006715Y-90755724D01*
X142019276Y-90768285D01*
X142121351Y-90844786D01*
X142136946Y-90853324D01*
X142257394Y-90898478D01*
X142272649Y-90902105D01*
X142323514Y-90907631D01*
X142330328Y-90908000D01*
X143002885Y-90908000D01*
X143018124Y-90903525D01*
X143019329Y-90902135D01*
X143021000Y-90894452D01*
X143021000Y-88110116D01*
X143016525Y-88094877D01*
X143015135Y-88093672D01*
X143007452Y-88092001D01*
X142330331Y-88092001D01*
X142323510Y-88092371D01*
X142272648Y-88097895D01*
X142257396Y-88101521D01*
X142136946Y-88146676D01*
X142121351Y-88155214D01*
X142019276Y-88231715D01*
X142006715Y-88244276D01*
X141930214Y-88346351D01*
X141921675Y-88361948D01*
X141900934Y-88417275D01*
X141858293Y-88474040D01*
X141791731Y-88498740D01*
X141722383Y-88483533D01*
X141699388Y-88466909D01*
X141698887Y-88466358D01*
X141636737Y-88417275D01*
X141521177Y-88326011D01*
X141521172Y-88326008D01*
X141517123Y-88322810D01*
X141512607Y-88320317D01*
X141512604Y-88320315D01*
X141318879Y-88213373D01*
X141318875Y-88213371D01*
X141314355Y-88210876D01*
X141309486Y-88209152D01*
X141309482Y-88209150D01*
X141100903Y-88135288D01*
X141100899Y-88135287D01*
X141096028Y-88133562D01*
X141090935Y-88132655D01*
X141090932Y-88132654D01*
X140873095Y-88093851D01*
X140873089Y-88093850D01*
X140868006Y-88092945D01*
X140790644Y-88092000D01*
X140641581Y-88090179D01*
X140641579Y-88090179D01*
X140636411Y-88090116D01*
X140407464Y-88125150D01*
X140187314Y-88197106D01*
X140182726Y-88199494D01*
X140182722Y-88199496D01*
X139986461Y-88301663D01*
X139981872Y-88304052D01*
X139977739Y-88307155D01*
X139977736Y-88307157D01*
X139831073Y-88417275D01*
X139796655Y-88443117D01*
X139636639Y-88610564D01*
X139633725Y-88614836D01*
X139633724Y-88614837D01*
X139581386Y-88691562D01*
X139506119Y-88801899D01*
X139408602Y-89011981D01*
X139346707Y-89235169D01*
X139322095Y-89465469D01*
X139335427Y-89696697D01*
X139336564Y-89701743D01*
X139336565Y-89701749D01*
X139358408Y-89798671D01*
X139386346Y-89922642D01*
X139388288Y-89927424D01*
X139388289Y-89927428D01*
X139428574Y-90026638D01*
X139473484Y-90137237D01*
X139594501Y-90334719D01*
X139746147Y-90509784D01*
X139924349Y-90657730D01*
X140037073Y-90723600D01*
X140039070Y-90724767D01*
X140087794Y-90776405D01*
X140101500Y-90833555D01*
X140101500Y-96450406D01*
X140081498Y-96518527D01*
X140064595Y-96539501D01*
X138665256Y-97938839D01*
X138602944Y-97972865D01*
X138532128Y-97967800D01*
X138475293Y-97925253D01*
X138450482Y-97858733D01*
X138452655Y-97828107D01*
X138452370Y-97828069D01*
X138452994Y-97823332D01*
X138452994Y-97823326D01*
X138461622Y-97757800D01*
X138471934Y-97679471D01*
X138481529Y-97606590D01*
X138483156Y-97540000D01*
X138464852Y-97317361D01*
X138410431Y-97100702D01*
X138321354Y-96895840D01*
X138200014Y-96708277D01*
X138049670Y-96543051D01*
X138045619Y-96539852D01*
X138045615Y-96539848D01*
X137878414Y-96407800D01*
X137878410Y-96407798D01*
X137874359Y-96404598D01*
X137833053Y-96381796D01*
X137783084Y-96331364D01*
X137768312Y-96261921D01*
X137793428Y-96195516D01*
X137820780Y-96168909D01*
X137879028Y-96127361D01*
X137999860Y-96041173D01*
X138158096Y-95883489D01*
X138288453Y-95702077D01*
X138309320Y-95659857D01*
X138385136Y-95506453D01*
X138385137Y-95506451D01*
X138387430Y-95501811D01*
X138438302Y-95334373D01*
X138450865Y-95293023D01*
X138450865Y-95293021D01*
X138452370Y-95288069D01*
X138481529Y-95066590D01*
X138482198Y-95039204D01*
X138483074Y-95003365D01*
X138483074Y-95003361D01*
X138483156Y-95000000D01*
X138464852Y-94777361D01*
X138410431Y-94560702D01*
X138321354Y-94355840D01*
X138200014Y-94168277D01*
X138049670Y-94003051D01*
X138045619Y-93999852D01*
X138045615Y-93999848D01*
X137878414Y-93867800D01*
X137878410Y-93867798D01*
X137874359Y-93864598D01*
X137678789Y-93756638D01*
X137673920Y-93754914D01*
X137673916Y-93754912D01*
X137473087Y-93683795D01*
X137473083Y-93683794D01*
X137468212Y-93682069D01*
X137463119Y-93681162D01*
X137463116Y-93681161D01*
X137253373Y-93643800D01*
X137253367Y-93643799D01*
X137248284Y-93642894D01*
X137174452Y-93641992D01*
X137030081Y-93640228D01*
X137030079Y-93640228D01*
X137024911Y-93640165D01*
X136804091Y-93673955D01*
X136591756Y-93743357D01*
X136393607Y-93846507D01*
X136389474Y-93849610D01*
X136389471Y-93849612D01*
X136306450Y-93911946D01*
X136214965Y-93980635D01*
X136060629Y-94142138D01*
X135953201Y-94299621D01*
X135898293Y-94344621D01*
X135827768Y-94352792D01*
X135764021Y-94321538D01*
X135743324Y-94297054D01*
X135662822Y-94172617D01*
X135662820Y-94172614D01*
X135660014Y-94168277D01*
X135509670Y-94003051D01*
X135505619Y-93999852D01*
X135505615Y-93999848D01*
X135338414Y-93867800D01*
X135338410Y-93867798D01*
X135334359Y-93864598D01*
X135138789Y-93756638D01*
X135133920Y-93754914D01*
X135133916Y-93754912D01*
X134933087Y-93683795D01*
X134933083Y-93683794D01*
X134928212Y-93682069D01*
X134923119Y-93681162D01*
X134923116Y-93681161D01*
X134713373Y-93643800D01*
X134713367Y-93643799D01*
X134708284Y-93642894D01*
X134634452Y-93641992D01*
X134490081Y-93640228D01*
X134490079Y-93640228D01*
X134484911Y-93640165D01*
X134264091Y-93673955D01*
X134051756Y-93743357D01*
X133853607Y-93846507D01*
X133849474Y-93849610D01*
X133849471Y-93849612D01*
X133766450Y-93911946D01*
X133674965Y-93980635D01*
X133520629Y-94142138D01*
X133413201Y-94299621D01*
X133358293Y-94344621D01*
X133287768Y-94352792D01*
X133224021Y-94321538D01*
X133203324Y-94297054D01*
X133122822Y-94172617D01*
X133122820Y-94172614D01*
X133120014Y-94168277D01*
X132969670Y-94003051D01*
X132965619Y-93999852D01*
X132965615Y-93999848D01*
X132798414Y-93867800D01*
X132798410Y-93867798D01*
X132794359Y-93864598D01*
X132598789Y-93756638D01*
X132593920Y-93754914D01*
X132593916Y-93754912D01*
X132393087Y-93683795D01*
X132393083Y-93683794D01*
X132388212Y-93682069D01*
X132383119Y-93681162D01*
X132383116Y-93681161D01*
X132173373Y-93643800D01*
X132173367Y-93643799D01*
X132168284Y-93642894D01*
X132094452Y-93641992D01*
X131950081Y-93640228D01*
X131950079Y-93640228D01*
X131944911Y-93640165D01*
X131724091Y-93673955D01*
X131511756Y-93743357D01*
X131313607Y-93846507D01*
X131309474Y-93849610D01*
X131309471Y-93849612D01*
X131226450Y-93911946D01*
X131134965Y-93980635D01*
X131131393Y-93984373D01*
X131053898Y-94065466D01*
X130992374Y-94100895D01*
X130921462Y-94097438D01*
X130863676Y-94056192D01*
X130844823Y-94022644D01*
X130803324Y-93911946D01*
X130794786Y-93896351D01*
X130718285Y-93794276D01*
X130705724Y-93781715D01*
X130603649Y-93705214D01*
X130588054Y-93696676D01*
X130467606Y-93651522D01*
X130452351Y-93647895D01*
X130401486Y-93642369D01*
X130394672Y-93642000D01*
X129772115Y-93642000D01*
X129756876Y-93646475D01*
X129755671Y-93647865D01*
X129754000Y-93655548D01*
X129754000Y-95128000D01*
X129733998Y-95196121D01*
X129680342Y-95242614D01*
X129628000Y-95254000D01*
X128160116Y-95254000D01*
X128144877Y-95258475D01*
X128143672Y-95259865D01*
X128142001Y-95267548D01*
X128142001Y-95894669D01*
X128142371Y-95901490D01*
X128147895Y-95952352D01*
X128151521Y-95967604D01*
X128196676Y-96088054D01*
X128205214Y-96103649D01*
X128281715Y-96205724D01*
X128294276Y-96218285D01*
X128396351Y-96294786D01*
X128411946Y-96303324D01*
X128520827Y-96344142D01*
X128577591Y-96386784D01*
X128602291Y-96453345D01*
X128587083Y-96522694D01*
X128567691Y-96549175D01*
X128482742Y-96638069D01*
X128440629Y-96682138D01*
X128314743Y-96866680D01*
X128220688Y-97069305D01*
X128160989Y-97284570D01*
X128137251Y-97506695D01*
X124868500Y-97506695D01*
X124868500Y-94727885D01*
X128142000Y-94727885D01*
X128146475Y-94743124D01*
X128147865Y-94744329D01*
X128155548Y-94746000D01*
X129227885Y-94746000D01*
X129243124Y-94741525D01*
X129244329Y-94740135D01*
X129246000Y-94732452D01*
X129246000Y-93660116D01*
X129241525Y-93644877D01*
X129240135Y-93643672D01*
X129232452Y-93642001D01*
X128605331Y-93642001D01*
X128598510Y-93642371D01*
X128547648Y-93647895D01*
X128532396Y-93651521D01*
X128411946Y-93696676D01*
X128396351Y-93705214D01*
X128294276Y-93781715D01*
X128281715Y-93794276D01*
X128205214Y-93896351D01*
X128196676Y-93911946D01*
X128151522Y-94032394D01*
X128147895Y-94047649D01*
X128142369Y-94098514D01*
X128142000Y-94105328D01*
X128142000Y-94727885D01*
X124868500Y-94727885D01*
X124868500Y-90836752D01*
X124888502Y-90768631D01*
X124939068Y-90723601D01*
X124946316Y-90720050D01*
X124954043Y-90716265D01*
X124954047Y-90716263D01*
X124958684Y-90713991D01*
X124962888Y-90710993D01*
X124962892Y-90710990D01*
X125062500Y-90639940D01*
X125147243Y-90579494D01*
X125150898Y-90575852D01*
X125150906Y-90575845D01*
X125192697Y-90534199D01*
X125255068Y-90500282D01*
X125325875Y-90505470D01*
X125382637Y-90548116D01*
X125399619Y-90579218D01*
X125421677Y-90638056D01*
X125430214Y-90653649D01*
X125506715Y-90755724D01*
X125519276Y-90768285D01*
X125621351Y-90844786D01*
X125636946Y-90853324D01*
X125757394Y-90898478D01*
X125772649Y-90902105D01*
X125823514Y-90907631D01*
X125830328Y-90908000D01*
X126502885Y-90908000D01*
X126518124Y-90903525D01*
X126519329Y-90902135D01*
X126521000Y-90894452D01*
X126521000Y-90889884D01*
X127029000Y-90889884D01*
X127033475Y-90905123D01*
X127034865Y-90906328D01*
X127042548Y-90907999D01*
X127719669Y-90907999D01*
X127726490Y-90907629D01*
X127777352Y-90902105D01*
X127792604Y-90898479D01*
X127913054Y-90853324D01*
X127928649Y-90844786D01*
X128030724Y-90768285D01*
X128043285Y-90755724D01*
X128119786Y-90653649D01*
X128128324Y-90638054D01*
X128173478Y-90517606D01*
X128177105Y-90502351D01*
X128182631Y-90451486D01*
X128183000Y-90444672D01*
X128183000Y-90440193D01*
X131397289Y-90440193D01*
X131406124Y-90544325D01*
X131407914Y-90554797D01*
X131463130Y-90767535D01*
X131466665Y-90777575D01*
X131556937Y-90977970D01*
X131562106Y-90987256D01*
X131684850Y-91169575D01*
X131691519Y-91177870D01*
X131843228Y-91336900D01*
X131851186Y-91343941D01*
X132027525Y-91475141D01*
X132036562Y-91480745D01*
X132232484Y-91580357D01*
X132242335Y-91584357D01*
X132452240Y-91649534D01*
X132462624Y-91651817D01*
X132478043Y-91653861D01*
X132492207Y-91651665D01*
X132496000Y-91638478D01*
X132496000Y-91636192D01*
X133004000Y-91636192D01*
X133007973Y-91649723D01*
X133018580Y-91651248D01*
X133136421Y-91626523D01*
X133146617Y-91623463D01*
X133351029Y-91542737D01*
X133360561Y-91538006D01*
X133548462Y-91423984D01*
X133557052Y-91417720D01*
X133723052Y-91273673D01*
X133730470Y-91266044D01*
X133756391Y-91234431D01*
X133815051Y-91194436D01*
X133886021Y-91192504D01*
X133946770Y-91229248D01*
X133960969Y-91248017D01*
X134051522Y-91394348D01*
X134176697Y-91519305D01*
X134182927Y-91523145D01*
X134182928Y-91523146D01*
X134320090Y-91607694D01*
X134327262Y-91612115D01*
X134370701Y-91626523D01*
X134488611Y-91665632D01*
X134488613Y-91665632D01*
X134495139Y-91667797D01*
X134501975Y-91668497D01*
X134501978Y-91668498D01*
X134541977Y-91672596D01*
X134599600Y-91678500D01*
X135900400Y-91678500D01*
X135903646Y-91678163D01*
X135903650Y-91678163D01*
X135999308Y-91668238D01*
X135999312Y-91668237D01*
X136006166Y-91667526D01*
X136012702Y-91665345D01*
X136012704Y-91665345D01*
X136144806Y-91621272D01*
X136173946Y-91611550D01*
X136324348Y-91518478D01*
X136449305Y-91393303D01*
X136482218Y-91339908D01*
X136538275Y-91248968D01*
X136538276Y-91248966D01*
X136542115Y-91242738D01*
X136597797Y-91074861D01*
X136608500Y-90970400D01*
X136608500Y-89369600D01*
X136604484Y-89330894D01*
X136598238Y-89270692D01*
X136598237Y-89270688D01*
X136597526Y-89263834D01*
X136589620Y-89240135D01*
X136543868Y-89103002D01*
X136541550Y-89096054D01*
X136448478Y-88945652D01*
X136323303Y-88820695D01*
X136292965Y-88801994D01*
X136178968Y-88731725D01*
X136178966Y-88731724D01*
X136172738Y-88727885D01*
X136053498Y-88688335D01*
X136011389Y-88674368D01*
X136011387Y-88674368D01*
X136004861Y-88672203D01*
X135998025Y-88671503D01*
X135998022Y-88671502D01*
X135954969Y-88667091D01*
X135900400Y-88661500D01*
X134599600Y-88661500D01*
X134596354Y-88661837D01*
X134596350Y-88661837D01*
X134500692Y-88671762D01*
X134500688Y-88671763D01*
X134493834Y-88672474D01*
X134487298Y-88674655D01*
X134487296Y-88674655D01*
X134355194Y-88718728D01*
X134326054Y-88728450D01*
X134175652Y-88821522D01*
X134050695Y-88946697D01*
X134006701Y-89018069D01*
X133960648Y-89092780D01*
X133907876Y-89140273D01*
X133837804Y-89151697D01*
X133772680Y-89123423D01*
X133762218Y-89113636D01*
X133656766Y-89003094D01*
X133648814Y-88996059D01*
X133472475Y-88864859D01*
X133463438Y-88859255D01*
X133267516Y-88759643D01*
X133257665Y-88755643D01*
X133047760Y-88690466D01*
X133037376Y-88688183D01*
X133021957Y-88686139D01*
X133007793Y-88688335D01*
X133004000Y-88701522D01*
X133004000Y-91636192D01*
X132496000Y-91636192D01*
X132496000Y-90442115D01*
X132491525Y-90426876D01*
X132490135Y-90425671D01*
X132482452Y-90424000D01*
X131414030Y-90424000D01*
X131399352Y-90428310D01*
X131397289Y-90440193D01*
X128183000Y-90440193D01*
X128183000Y-89900376D01*
X131392732Y-89900376D01*
X131396475Y-89913124D01*
X131397865Y-89914329D01*
X131405548Y-89916000D01*
X132477885Y-89916000D01*
X132493124Y-89911525D01*
X132494329Y-89910135D01*
X132496000Y-89902452D01*
X132496000Y-88703808D01*
X132492027Y-88690277D01*
X132481420Y-88688752D01*
X132363579Y-88713477D01*
X132353383Y-88716537D01*
X132148971Y-88797263D01*
X132139439Y-88801994D01*
X131951538Y-88916016D01*
X131942948Y-88922280D01*
X131776948Y-89066327D01*
X131769528Y-89073958D01*
X131630174Y-89243911D01*
X131624150Y-89252678D01*
X131515424Y-89443682D01*
X131510959Y-89453346D01*
X131435969Y-89659941D01*
X131433198Y-89670208D01*
X131393877Y-89887655D01*
X131392944Y-89895884D01*
X131392732Y-89900376D01*
X128183000Y-89900376D01*
X128183000Y-89772115D01*
X128178525Y-89756876D01*
X128177135Y-89755671D01*
X128169452Y-89754000D01*
X127047115Y-89754000D01*
X127031876Y-89758475D01*
X127030671Y-89759865D01*
X127029000Y-89767548D01*
X127029000Y-90889884D01*
X126521000Y-90889884D01*
X126521000Y-89227885D01*
X127029000Y-89227885D01*
X127033475Y-89243124D01*
X127034865Y-89244329D01*
X127042548Y-89246000D01*
X128164884Y-89246000D01*
X128180123Y-89241525D01*
X128181328Y-89240135D01*
X128182999Y-89232452D01*
X128182999Y-88555331D01*
X128182629Y-88548510D01*
X128177105Y-88497648D01*
X128173479Y-88482396D01*
X128128324Y-88361946D01*
X128119786Y-88346351D01*
X128043285Y-88244276D01*
X128030724Y-88231715D01*
X127928649Y-88155214D01*
X127913054Y-88146676D01*
X127792606Y-88101522D01*
X127777351Y-88097895D01*
X127726486Y-88092369D01*
X127719672Y-88092000D01*
X127047115Y-88092000D01*
X127031876Y-88096475D01*
X127030671Y-88097865D01*
X127029000Y-88105548D01*
X127029000Y-89227885D01*
X126521000Y-89227885D01*
X126521000Y-88110116D01*
X126516525Y-88094877D01*
X126515135Y-88093672D01*
X126507452Y-88092001D01*
X125830331Y-88092001D01*
X125823510Y-88092371D01*
X125772648Y-88097895D01*
X125757396Y-88101521D01*
X125636946Y-88146676D01*
X125621351Y-88155214D01*
X125519276Y-88231715D01*
X125506715Y-88244276D01*
X125430214Y-88346351D01*
X125421675Y-88361948D01*
X125400934Y-88417275D01*
X125358293Y-88474040D01*
X125291731Y-88498740D01*
X125222383Y-88483533D01*
X125199388Y-88466909D01*
X125198887Y-88466358D01*
X125136737Y-88417275D01*
X125021177Y-88326011D01*
X125021172Y-88326008D01*
X125017123Y-88322810D01*
X125012607Y-88320317D01*
X125012604Y-88320315D01*
X124818879Y-88213373D01*
X124818875Y-88213371D01*
X124814355Y-88210876D01*
X124809486Y-88209152D01*
X124809482Y-88209150D01*
X124600903Y-88135288D01*
X124600899Y-88135287D01*
X124596028Y-88133562D01*
X124590935Y-88132655D01*
X124590932Y-88132654D01*
X124373095Y-88093851D01*
X124373089Y-88093850D01*
X124368006Y-88092945D01*
X124290644Y-88092000D01*
X124141581Y-88090179D01*
X124141579Y-88090179D01*
X124136411Y-88090116D01*
X123907464Y-88125150D01*
X123687314Y-88197106D01*
X123682726Y-88199494D01*
X123682722Y-88199496D01*
X123486461Y-88301663D01*
X123481872Y-88304052D01*
X123477739Y-88307155D01*
X123477736Y-88307157D01*
X123331073Y-88417275D01*
X123296655Y-88443117D01*
X123136639Y-88610564D01*
X123133725Y-88614836D01*
X123133724Y-88614837D01*
X123081386Y-88691562D01*
X123006119Y-88801899D01*
X122908602Y-89011981D01*
X122846707Y-89235169D01*
X122822095Y-89465469D01*
X122219459Y-89465469D01*
X122240435Y-89436277D01*
X122243453Y-89432077D01*
X122260585Y-89397414D01*
X122340136Y-89236453D01*
X122340137Y-89236451D01*
X122342430Y-89231811D01*
X122407370Y-89018069D01*
X122436529Y-88796590D01*
X122437432Y-88759643D01*
X122438074Y-88733365D01*
X122438074Y-88733361D01*
X122438156Y-88730000D01*
X122419852Y-88507361D01*
X122365431Y-88290702D01*
X122276354Y-88085840D01*
X122155014Y-87898277D01*
X122151532Y-87894450D01*
X122007798Y-87736488D01*
X121976746Y-87672642D01*
X121985141Y-87602143D01*
X122030317Y-87547375D01*
X122056761Y-87533706D01*
X122163297Y-87493767D01*
X122171705Y-87490615D01*
X122288261Y-87403261D01*
X122375615Y-87286705D01*
X122426745Y-87150316D01*
X122433500Y-87088134D01*
X122433500Y-85917885D01*
X145117000Y-85917885D01*
X145121475Y-85933124D01*
X145122865Y-85934329D01*
X145130548Y-85936000D01*
X146202885Y-85936000D01*
X146218124Y-85931525D01*
X146219329Y-85930135D01*
X146221000Y-85922452D01*
X146221000Y-85917885D01*
X146729000Y-85917885D01*
X146733475Y-85933124D01*
X146734865Y-85934329D01*
X146742548Y-85936000D01*
X147814884Y-85936000D01*
X147830123Y-85931525D01*
X147831328Y-85930135D01*
X147832999Y-85922452D01*
X147832999Y-85295331D01*
X147832629Y-85288510D01*
X147827105Y-85237648D01*
X147823479Y-85222396D01*
X147778324Y-85101946D01*
X147769786Y-85086351D01*
X147693285Y-84984276D01*
X147680724Y-84971715D01*
X147578649Y-84895214D01*
X147563054Y-84886676D01*
X147442606Y-84841522D01*
X147427351Y-84837895D01*
X147376486Y-84832369D01*
X147369672Y-84832000D01*
X146747115Y-84832000D01*
X146731876Y-84836475D01*
X146730671Y-84837865D01*
X146729000Y-84845548D01*
X146729000Y-85917885D01*
X146221000Y-85917885D01*
X146221000Y-84850116D01*
X146216525Y-84834877D01*
X146215135Y-84833672D01*
X146207452Y-84832001D01*
X145580331Y-84832001D01*
X145573510Y-84832371D01*
X145522648Y-84837895D01*
X145507396Y-84841521D01*
X145386946Y-84886676D01*
X145371351Y-84895214D01*
X145269276Y-84971715D01*
X145256715Y-84984276D01*
X145180214Y-85086351D01*
X145171676Y-85101946D01*
X145126522Y-85222394D01*
X145122895Y-85237649D01*
X145117369Y-85288514D01*
X145117000Y-85295328D01*
X145117000Y-85917885D01*
X122433500Y-85917885D01*
X122433500Y-85291866D01*
X122426745Y-85229684D01*
X122375615Y-85093295D01*
X122288261Y-84976739D01*
X122171705Y-84889385D01*
X122035316Y-84838255D01*
X121973134Y-84831500D01*
X120176866Y-84831500D01*
X120114684Y-84838255D01*
X119978295Y-84889385D01*
X119861739Y-84976739D01*
X119774385Y-85093295D01*
X119723255Y-85229684D01*
X119716500Y-85291866D01*
X119716500Y-87088134D01*
X119723255Y-87150316D01*
X119774385Y-87286705D01*
X119861739Y-87403261D01*
X119978295Y-87490615D01*
X119986704Y-87493767D01*
X119986705Y-87493768D01*
X120095451Y-87534535D01*
X120152216Y-87577176D01*
X120176916Y-87643738D01*
X120161709Y-87713087D01*
X120142316Y-87739568D01*
X120015629Y-87872138D01*
X119889743Y-88056680D01*
X119795688Y-88259305D01*
X119735989Y-88474570D01*
X119712251Y-88696695D01*
X119712548Y-88701848D01*
X119712548Y-88701851D01*
X119718070Y-88797623D01*
X119725110Y-88919715D01*
X119726247Y-88924761D01*
X119726248Y-88924767D01*
X119744849Y-89007301D01*
X119774222Y-89137639D01*
X119858266Y-89344616D01*
X119860965Y-89349020D01*
X119932325Y-89465469D01*
X119974987Y-89535088D01*
X120121250Y-89703938D01*
X120293126Y-89846632D01*
X120363329Y-89887655D01*
X120366445Y-89889476D01*
X120415169Y-89941114D01*
X120428240Y-90010897D01*
X120401509Y-90076669D01*
X120361055Y-90110027D01*
X120348607Y-90116507D01*
X120344474Y-90119610D01*
X120344471Y-90119612D01*
X120174100Y-90247530D01*
X120169965Y-90250635D01*
X120015629Y-90412138D01*
X119889743Y-90596680D01*
X119863299Y-90653649D01*
X119805775Y-90777575D01*
X119795688Y-90799305D01*
X119735989Y-91014570D01*
X119712251Y-91236695D01*
X119712548Y-91241848D01*
X119712548Y-91241851D01*
X119720982Y-91388120D01*
X119725110Y-91459715D01*
X119726247Y-91464761D01*
X119726248Y-91464767D01*
X119739405Y-91523146D01*
X119774222Y-91677639D01*
X119858266Y-91884616D01*
X119974987Y-92075088D01*
X120121250Y-92243938D01*
X120293126Y-92386632D01*
X120363595Y-92427811D01*
X120366445Y-92429476D01*
X120415169Y-92481114D01*
X120428240Y-92550897D01*
X120401509Y-92616669D01*
X120361055Y-92650027D01*
X120348607Y-92656507D01*
X120344474Y-92659610D01*
X120344471Y-92659612D01*
X120320247Y-92677800D01*
X120169965Y-92790635D01*
X120015629Y-92952138D01*
X119889743Y-93136680D01*
X119795688Y-93339305D01*
X119735989Y-93554570D01*
X119712251Y-93776695D01*
X119712548Y-93781848D01*
X119712548Y-93781851D01*
X119718011Y-93876590D01*
X119725110Y-93999715D01*
X119726247Y-94004761D01*
X119726248Y-94004767D01*
X119746119Y-94092939D01*
X119774222Y-94217639D01*
X119858266Y-94424616D01*
X119974987Y-94615088D01*
X120121250Y-94783938D01*
X120293126Y-94926632D01*
X120302169Y-94931916D01*
X120366445Y-94969476D01*
X120415169Y-95021114D01*
X120428240Y-95090897D01*
X120401509Y-95156669D01*
X120361055Y-95190027D01*
X120348607Y-95196507D01*
X120344474Y-95199610D01*
X120344471Y-95199612D01*
X120174100Y-95327530D01*
X120169965Y-95330635D01*
X120015629Y-95492138D01*
X120012715Y-95496410D01*
X120012714Y-95496411D01*
X120005864Y-95506453D01*
X119889743Y-95676680D01*
X119795688Y-95879305D01*
X119735989Y-96094570D01*
X119712251Y-96316695D01*
X119712548Y-96321848D01*
X119712548Y-96321851D01*
X119720130Y-96453345D01*
X119725110Y-96539715D01*
X119726247Y-96544761D01*
X119726248Y-96544767D01*
X119746119Y-96632939D01*
X119774222Y-96757639D01*
X119858266Y-96964616D01*
X119974987Y-97155088D01*
X120121250Y-97323938D01*
X120293126Y-97466632D01*
X120352902Y-97501562D01*
X120366445Y-97509476D01*
X120415169Y-97561114D01*
X120428240Y-97630897D01*
X120401509Y-97696669D01*
X120361055Y-97730027D01*
X120348607Y-97736507D01*
X120344474Y-97739610D01*
X120344471Y-97739612D01*
X120226607Y-97828107D01*
X120169965Y-97870635D01*
X120015629Y-98032138D01*
X120012715Y-98036410D01*
X120012714Y-98036411D01*
X120000404Y-98054457D01*
X119889743Y-98216680D01*
X119795688Y-98419305D01*
X119735989Y-98634570D01*
X119712251Y-98856695D01*
X119712548Y-98861848D01*
X119712548Y-98861851D01*
X119722518Y-99034760D01*
X119725110Y-99079715D01*
X119726247Y-99084761D01*
X119726248Y-99084767D01*
X119750061Y-99190431D01*
X119774222Y-99297639D01*
X119858266Y-99504616D01*
X119874387Y-99530923D01*
X119951410Y-99656613D01*
X119974987Y-99695088D01*
X120121250Y-99863938D01*
X120293126Y-100006632D01*
X120363595Y-100047811D01*
X120366445Y-100049476D01*
X120415169Y-100101114D01*
X120428240Y-100170897D01*
X120401509Y-100236669D01*
X120361055Y-100270027D01*
X120348607Y-100276507D01*
X120344474Y-100279610D01*
X120344471Y-100279612D01*
X120320247Y-100297800D01*
X120169965Y-100410635D01*
X120015629Y-100572138D01*
X119889743Y-100756680D01*
X119849204Y-100844014D01*
X119818327Y-100910534D01*
X119795688Y-100959305D01*
X119735989Y-101174570D01*
X119712251Y-101396695D01*
X119712548Y-101401848D01*
X119712548Y-101401851D01*
X119718011Y-101496590D01*
X119725110Y-101619715D01*
X119726247Y-101624761D01*
X119726248Y-101624767D01*
X119739597Y-101684000D01*
X119774222Y-101837639D01*
X119835673Y-101988976D01*
X119841200Y-102002586D01*
X119858266Y-102044616D01*
X119974987Y-102235088D01*
X120121250Y-102403938D01*
X120293126Y-102546632D01*
X120363595Y-102587811D01*
X120366445Y-102589476D01*
X120415169Y-102641114D01*
X120428240Y-102710897D01*
X120401509Y-102776669D01*
X120361055Y-102810027D01*
X120348607Y-102816507D01*
X120344474Y-102819610D01*
X120344471Y-102819612D01*
X120174100Y-102947530D01*
X120169965Y-102950635D01*
X120015629Y-103112138D01*
X119889743Y-103296680D01*
X119795688Y-103499305D01*
X119735989Y-103714570D01*
X119712251Y-103936695D01*
X119712548Y-103941848D01*
X119712548Y-103941851D01*
X119718011Y-104036590D01*
X119725110Y-104159715D01*
X119726247Y-104164761D01*
X119726248Y-104164767D01*
X119729398Y-104178743D01*
X119774222Y-104377639D01*
X119858266Y-104584616D01*
X119974987Y-104775088D01*
X120121250Y-104943938D01*
X120293126Y-105086632D01*
X120363595Y-105127811D01*
X120366445Y-105129476D01*
X120415169Y-105181114D01*
X120428240Y-105250897D01*
X120401509Y-105316669D01*
X120361055Y-105350027D01*
X120348607Y-105356507D01*
X120344474Y-105359610D01*
X120344471Y-105359612D01*
X120174100Y-105487530D01*
X120169965Y-105490635D01*
X120166393Y-105494373D01*
X120083365Y-105581257D01*
X120015629Y-105652138D01*
X120012715Y-105656410D01*
X120012714Y-105656411D01*
X119991031Y-105688197D01*
X119889743Y-105836680D01*
X119874003Y-105870590D01*
X119825832Y-105974366D01*
X119795688Y-106039305D01*
X119735989Y-106254570D01*
X119712251Y-106476695D01*
X119712548Y-106481848D01*
X119712548Y-106481851D01*
X119718011Y-106576590D01*
X119725110Y-106699715D01*
X119726247Y-106704761D01*
X119726248Y-106704767D01*
X119746119Y-106792939D01*
X119774222Y-106917639D01*
X119858266Y-107124616D01*
X119974987Y-107315088D01*
X120121250Y-107483938D01*
X120293126Y-107626632D01*
X120305617Y-107633931D01*
X120366445Y-107669476D01*
X120415169Y-107721114D01*
X120428240Y-107790897D01*
X120401509Y-107856669D01*
X120361055Y-107890027D01*
X120348607Y-107896507D01*
X120344474Y-107899610D01*
X120344471Y-107899612D01*
X120174100Y-108027530D01*
X120169965Y-108030635D01*
X120166393Y-108034373D01*
X120020935Y-108186586D01*
X120015629Y-108192138D01*
X120012715Y-108196410D01*
X120012714Y-108196411D01*
X119947333Y-108292256D01*
X119889743Y-108376680D01*
X119795688Y-108579305D01*
X119735989Y-108794570D01*
X119712251Y-109016695D01*
X119712548Y-109021848D01*
X119712548Y-109021851D01*
X119718011Y-109116590D01*
X119725110Y-109239715D01*
X119726247Y-109244761D01*
X119726248Y-109244767D01*
X119746119Y-109332939D01*
X119774222Y-109457639D01*
X119858266Y-109664616D01*
X119974987Y-109855088D01*
X120121250Y-110023938D01*
X120293126Y-110166632D01*
X120363595Y-110207811D01*
X120366445Y-110209476D01*
X120415169Y-110261114D01*
X120428240Y-110330897D01*
X120401509Y-110396669D01*
X120361055Y-110430027D01*
X120348607Y-110436507D01*
X120344474Y-110439610D01*
X120344471Y-110439612D01*
X120174100Y-110567530D01*
X120169965Y-110570635D01*
X120015629Y-110732138D01*
X119889743Y-110916680D01*
X119795688Y-111119305D01*
X119735989Y-111334570D01*
X119712251Y-111556695D01*
X119712548Y-111561848D01*
X119712548Y-111561851D01*
X119718011Y-111656590D01*
X119725110Y-111779715D01*
X119726247Y-111784761D01*
X119726248Y-111784767D01*
X119746119Y-111872939D01*
X119774222Y-111997639D01*
X119858266Y-112204616D01*
X119974987Y-112395088D01*
X120121250Y-112563938D01*
X120293126Y-112706632D01*
X120363595Y-112747811D01*
X120366445Y-112749476D01*
X120415169Y-112801114D01*
X120428240Y-112870897D01*
X120401509Y-112936669D01*
X120361055Y-112970027D01*
X120348607Y-112976507D01*
X120344474Y-112979610D01*
X120344471Y-112979612D01*
X120320247Y-112997800D01*
X120169965Y-113110635D01*
X120015629Y-113272138D01*
X119889743Y-113456680D01*
X119795688Y-113659305D01*
X119735989Y-113874570D01*
X119712251Y-114096695D01*
X119712548Y-114101848D01*
X119712548Y-114101851D01*
X119718011Y-114196590D01*
X119725110Y-114319715D01*
X119726247Y-114324761D01*
X119726248Y-114324767D01*
X119729398Y-114338743D01*
X119774222Y-114537639D01*
X119858266Y-114744616D01*
X119974987Y-114935088D01*
X120121250Y-115103938D01*
X120293126Y-115246632D01*
X120363595Y-115287811D01*
X120366445Y-115289476D01*
X120415169Y-115341114D01*
X120428240Y-115410897D01*
X120401509Y-115476669D01*
X120361055Y-115510027D01*
X120348607Y-115516507D01*
X120344474Y-115519610D01*
X120344471Y-115519612D01*
X120174100Y-115647530D01*
X120169965Y-115650635D01*
X120166393Y-115654373D01*
X120083365Y-115741257D01*
X120015629Y-115812138D01*
X120012715Y-115816410D01*
X120012714Y-115816411D01*
X119991031Y-115848197D01*
X119889743Y-115996680D01*
X119875570Y-116027213D01*
X119799614Y-116190848D01*
X119795688Y-116199305D01*
X119735989Y-116414570D01*
X119712251Y-116636695D01*
X117008500Y-116636695D01*
X117008500Y-82553250D01*
X117010246Y-82532345D01*
X117012770Y-82517344D01*
X117012770Y-82517341D01*
X117013576Y-82512552D01*
X117013729Y-82500000D01*
X117012542Y-82491709D01*
X117011748Y-82462870D01*
X117012053Y-82459393D01*
X117022603Y-82338804D01*
X117026417Y-82317178D01*
X117065443Y-82171534D01*
X117072954Y-82150896D01*
X117136678Y-82014240D01*
X117147660Y-81995220D01*
X117234147Y-81871703D01*
X117248265Y-81854878D01*
X117354878Y-81748265D01*
X117371703Y-81734147D01*
X117495220Y-81647660D01*
X117514240Y-81636678D01*
X117650896Y-81572954D01*
X117671534Y-81565443D01*
X117817178Y-81526417D01*
X117838806Y-81522603D01*
X117895341Y-81517656D01*
X117959393Y-81512053D01*
X117975871Y-81512607D01*
X117975876Y-81512200D01*
X117984853Y-81512310D01*
X117993724Y-81513691D01*
X118002626Y-81512527D01*
X118002628Y-81512527D01*
X118020023Y-81510252D01*
X118025286Y-81509564D01*
X118041621Y-81508500D01*
X149950633Y-81508500D01*
X149970018Y-81510000D01*
G37*
%TD.AperFunction*%
%TD*%
M02*
