M48
; DRILL file {KiCad 7.0.1} date Wed 19 Apr 2023 22:29:46 CEST
; FORMAT={-:-/ absolute / inch / decimal}
; #@! TF.CreationDate,2023-04-19T22:29:46+02:00
; #@! TF.GenerationSoftware,Kicad,Pcbnew,7.0.1
; #@! TF.FileFunction,Plated,1,2,PTH
FMAT,2
INCH
; #@! TA.AperFunction,Plated,PTH,ViaDrill
T1C0.0157
; #@! TA.AperFunction,Plated,PTH,ComponentDrill
T2C0.0315
; #@! TA.AperFunction,Plated,PTH,ComponentDrill
T3C0.0354
; #@! TA.AperFunction,Plated,PTH,ComponentDrill
T4C0.0394
%
G90
G05
T1
X5.4399Y-3.9552
X5.4868Y-3.9552
X5.4868Y-4.0368
T2
X4.9311Y-4.1307
X4.9311Y-4.5307
X5.0984Y-4.1307
X5.0984Y-4.5307
X5.2559Y-4.1276
X5.2559Y-4.5276
X5.3543Y-4.626
X5.4152Y-4.1929
X5.4939Y-4.1929
X5.5512Y-4.626
T3
X4.8911Y-3.5236
X4.9911Y-3.5236
X5.5407Y-3.5236
X5.6407Y-3.5236
T4
X4.7667Y-3.3933
X4.7667Y-3.4933
X4.7667Y-3.5933
X4.7667Y-3.6933
X4.7667Y-3.7933
X4.7667Y-3.8933
X4.7667Y-3.9933
X4.7667Y-4.0933
X4.7667Y-4.1933
X4.7667Y-4.2933
X4.7667Y-4.3933
X4.7667Y-4.4933
X4.7667Y-4.5933
X4.7667Y-4.6933
X4.7667Y-4.7933
X4.7667Y-4.8933
X4.7667Y-4.9933
X4.7667Y-5.0933
X4.7667Y-5.1933
X4.9388Y-4.9262
X5.0388Y-4.9262
X5.0984Y-3.7402
X5.0984Y-3.8402
X5.1388Y-4.9262
X5.1984Y-3.7402
X5.1984Y-3.8402
X5.2264Y-3.55
X5.2984Y-3.7402
X5.2984Y-3.8402
X5.3024Y-4.9262
X5.3248Y-3.55
X5.3984Y-3.7402
X5.3984Y-3.8402
X5.4024Y-4.9262
X5.5024Y-4.9262
X5.6024Y-4.9262
X5.7667Y-3.3933
X5.7667Y-3.4933
X5.7667Y-3.5933
X5.7667Y-3.6933
X5.7667Y-3.7933
X5.7667Y-3.8933
X5.7667Y-3.9933
X5.7667Y-4.0933
X5.7667Y-4.1933
X5.7667Y-4.2933
X5.7667Y-4.3933
X5.7667Y-4.4933
X5.7667Y-4.5933
X5.7667Y-4.6933
X5.7667Y-4.7933
X5.7667Y-4.8933
X5.7667Y-4.9933
X5.7667Y-5.0933
X5.7667Y-5.1933
T0
M30
