%TF.GenerationSoftware,KiCad,Pcbnew,(6.0.11)*%
%TF.CreationDate,2023-02-26T16:40:05+01:00*%
%TF.ProjectId,OpenDTU_Breakout,4f70656e-4454-4555-9f42-7265616b6f75,rev?*%
%TF.SameCoordinates,Original*%
%TF.FileFunction,Legend,Bot*%
%TF.FilePolarity,Positive*%
%FSLAX46Y46*%
G04 Gerber Fmt 4.6, Leading zero omitted, Abs format (unit mm)*
G04 Created by KiCad (PCBNEW (6.0.11)) date 2023-02-26 16:40:05*
%MOMM*%
%LPD*%
G01*
G04 APERTURE LIST*
%ADD10C,0.150000*%
%ADD11C,0.120000*%
G04 APERTURE END LIST*
D10*
%TO.C,D2*%
X142743095Y-86992380D02*
X142743095Y-85992380D01*
X142505000Y-85992380D01*
X142362142Y-86040000D01*
X142266904Y-86135238D01*
X142219285Y-86230476D01*
X142171666Y-86420952D01*
X142171666Y-86563809D01*
X142219285Y-86754285D01*
X142266904Y-86849523D01*
X142362142Y-86944761D01*
X142505000Y-86992380D01*
X142743095Y-86992380D01*
X141790714Y-86087619D02*
X141743095Y-86040000D01*
X141647857Y-85992380D01*
X141409761Y-85992380D01*
X141314523Y-86040000D01*
X141266904Y-86087619D01*
X141219285Y-86182857D01*
X141219285Y-86278095D01*
X141266904Y-86420952D01*
X141838333Y-86992380D01*
X141219285Y-86992380D01*
%TO.C,U2*%
X133761904Y-99702380D02*
X133761904Y-100511904D01*
X133714285Y-100607142D01*
X133666666Y-100654761D01*
X133571428Y-100702380D01*
X133380952Y-100702380D01*
X133285714Y-100654761D01*
X133238095Y-100607142D01*
X133190476Y-100511904D01*
X133190476Y-99702380D01*
X132761904Y-99797619D02*
X132714285Y-99750000D01*
X132619047Y-99702380D01*
X132380952Y-99702380D01*
X132285714Y-99750000D01*
X132238095Y-99797619D01*
X132190476Y-99892857D01*
X132190476Y-99988095D01*
X132238095Y-100130952D01*
X132809523Y-100702380D01*
X132190476Y-100702380D01*
%TO.C,J2*%
X134333333Y-82089880D02*
X134333333Y-82804166D01*
X134380952Y-82947023D01*
X134476190Y-83042261D01*
X134619047Y-83089880D01*
X134714285Y-83089880D01*
X133904761Y-82185119D02*
X133857142Y-82137500D01*
X133761904Y-82089880D01*
X133523809Y-82089880D01*
X133428571Y-82137500D01*
X133380952Y-82185119D01*
X133333333Y-82280357D01*
X133333333Y-82375595D01*
X133380952Y-82518452D01*
X133952380Y-83089880D01*
X133333333Y-83089880D01*
%TO.C,D1*%
X126243095Y-86992380D02*
X126243095Y-85992380D01*
X126005000Y-85992380D01*
X125862142Y-86040000D01*
X125766904Y-86135238D01*
X125719285Y-86230476D01*
X125671666Y-86420952D01*
X125671666Y-86563809D01*
X125719285Y-86754285D01*
X125766904Y-86849523D01*
X125862142Y-86944761D01*
X126005000Y-86992380D01*
X126243095Y-86992380D01*
X124719285Y-86992380D02*
X125290714Y-86992380D01*
X125005000Y-86992380D02*
X125005000Y-85992380D01*
X125100238Y-86135238D01*
X125195476Y-86230476D01*
X125290714Y-86278095D01*
D11*
%TO.C,D2*%
X143565000Y-88264000D02*
X143565000Y-88420000D01*
X143565000Y-90580000D02*
X143565000Y-90736000D01*
X143045961Y-88420000D02*
G75*
G03*
X140963870Y-88420163I-1040961J-1080000D01*
G01*
X143565000Y-88264484D02*
G75*
G03*
X140332665Y-88421392I-1560000J-1235516D01*
G01*
X140332665Y-90578608D02*
G75*
G03*
X143565000Y-90735516I1672335J1078608D01*
G01*
X140963870Y-90579837D02*
G75*
G03*
X143045961Y-90580000I1041130J1079837D01*
G01*
%TO.C,U2*%
X130770000Y-96270000D02*
X130770000Y-93984000D01*
X138644000Y-99064000D02*
X138644000Y-93730000D01*
X138644000Y-93730000D02*
X127976000Y-93730000D01*
X128484000Y-96270000D02*
X130770000Y-96270000D01*
X130770000Y-93984000D02*
X130770000Y-93984000D01*
X127976000Y-93730000D02*
X127976000Y-99064000D01*
X138644000Y-93730000D02*
X138644000Y-93730000D01*
X127976000Y-93730000D02*
X127976000Y-93730000D01*
X127976000Y-99064000D02*
X138644000Y-99064000D01*
X125900000Y-93222000D02*
X141200000Y-93222000D01*
X141200000Y-93222000D02*
X141200000Y-134022000D01*
X141200000Y-134022000D02*
X125900000Y-134022000D01*
X125900000Y-134022000D02*
X125900000Y-93222000D01*
%TO.C,J2*%
X136640000Y-89580000D02*
X137860000Y-89580000D01*
X132750000Y-88580000D02*
X133070000Y-88580000D01*
X135250000Y-91670000D02*
X135550000Y-92270000D01*
X134930000Y-88580000D02*
X135250000Y-88580000D01*
X135550000Y-92270000D02*
X134950000Y-92270000D01*
X137860000Y-83360000D02*
X130140000Y-83360000D01*
X136640000Y-88580000D02*
X131360000Y-88580000D01*
X133070000Y-85160000D02*
X132750000Y-85080000D01*
X132430000Y-85160000D02*
X132430000Y-88580000D01*
X131360000Y-89580000D02*
X130140000Y-89580000D01*
X134080000Y-89580000D02*
X133920000Y-89580000D01*
X136640000Y-91780000D02*
X137860000Y-91780000D01*
X134950000Y-92270000D02*
X135250000Y-91670000D01*
X131360000Y-84580000D02*
X131360000Y-89580000D01*
X135570000Y-85160000D02*
X135250000Y-85080000D01*
X136640000Y-89580000D02*
X136640000Y-91780000D01*
X132430000Y-88580000D02*
X132750000Y-88580000D01*
X130140000Y-83360000D02*
X130140000Y-91780000D01*
X135250000Y-85080000D02*
X134930000Y-85160000D01*
X134930000Y-85160000D02*
X134930000Y-88580000D01*
X136640000Y-84580000D02*
X136640000Y-89580000D01*
X137860000Y-84580000D02*
X136640000Y-84580000D01*
X130140000Y-91780000D02*
X131360000Y-91780000D01*
X135250000Y-88580000D02*
X135570000Y-88580000D01*
X137860000Y-91780000D02*
X137860000Y-83360000D01*
X132750000Y-85080000D02*
X132430000Y-85160000D01*
X130140000Y-84580000D02*
X131360000Y-84580000D01*
X131360000Y-91780000D02*
X131360000Y-89580000D01*
X135570000Y-88580000D02*
X135570000Y-85160000D01*
X133070000Y-88580000D02*
X133070000Y-85160000D01*
%TO.C,D1*%
X127065000Y-90580000D02*
X127065000Y-90736000D01*
X127065000Y-88264000D02*
X127065000Y-88420000D01*
X126545961Y-88420000D02*
G75*
G03*
X124463870Y-88420163I-1040961J-1080000D01*
G01*
X127065000Y-88264484D02*
G75*
G03*
X123832665Y-88421392I-1560000J-1235516D01*
G01*
X124463870Y-90579837D02*
G75*
G03*
X126545961Y-90580000I1041130J1079837D01*
G01*
X123832665Y-90578608D02*
G75*
G03*
X127065000Y-90735516I1672335J1078608D01*
G01*
%TD*%
M02*
