%TF.GenerationSoftware,KiCad,Pcbnew,(6.0.11)*%
%TF.CreationDate,2023-02-26T16:40:04+01:00*%
%TF.ProjectId,OpenDTU_Breakout,4f70656e-4454-4555-9f42-7265616b6f75,rev?*%
%TF.SameCoordinates,Original*%
%TF.FileFunction,Copper,L2,Bot*%
%TF.FilePolarity,Positive*%
%FSLAX46Y46*%
G04 Gerber Fmt 4.6, Leading zero omitted, Abs format (unit mm)*
G04 Created by KiCad (PCBNEW (6.0.11)) date 2023-02-26 16:40:04*
%MOMM*%
%LPD*%
G01*
G04 APERTURE LIST*
G04 Aperture macros list*
%AMRoundRect*
0 Rectangle with rounded corners*
0 $1 Rounding radius*
0 $2 $3 $4 $5 $6 $7 $8 $9 X,Y pos of 4 corners*
0 Add a 4 corners polygon primitive as box body*
4,1,4,$2,$3,$4,$5,$6,$7,$8,$9,$2,$3,0*
0 Add four circle primitives for the rounded corners*
1,1,$1+$1,$2,$3*
1,1,$1+$1,$4,$5*
1,1,$1+$1,$6,$7*
1,1,$1+$1,$8,$9*
0 Add four rect primitives between the rounded corners*
20,1,$1+$1,$2,$3,$4,$5,0*
20,1,$1+$1,$4,$5,$6,$7,0*
20,1,$1+$1,$6,$7,$8,$9,0*
20,1,$1+$1,$8,$9,$2,$3,0*%
G04 Aperture macros list end*
%TA.AperFunction,ComponentPad*%
%ADD10C,1.600000*%
%TD*%
%TA.AperFunction,ComponentPad*%
%ADD11O,1.600000X1.600000*%
%TD*%
%TA.AperFunction,ComponentPad*%
%ADD12R,1.600000X1.600000*%
%TD*%
%TA.AperFunction,ComponentPad*%
%ADD13R,1.700000X1.700000*%
%TD*%
%TA.AperFunction,ComponentPad*%
%ADD14O,1.700000X1.700000*%
%TD*%
%TA.AperFunction,ComponentPad*%
%ADD15R,1.800000X1.800000*%
%TD*%
%TA.AperFunction,ComponentPad*%
%ADD16C,1.800000*%
%TD*%
%TA.AperFunction,ComponentPad*%
%ADD17C,1.700000*%
%TD*%
%TA.AperFunction,ComponentPad*%
%ADD18RoundRect,0.250000X0.600000X0.750000X-0.600000X0.750000X-0.600000X-0.750000X0.600000X-0.750000X0*%
%TD*%
%TA.AperFunction,ComponentPad*%
%ADD19O,1.700000X2.000000*%
%TD*%
%TA.AperFunction,ViaPad*%
%ADD20C,0.800000*%
%TD*%
%TA.AperFunction,Conductor*%
%ADD21C,0.250000*%
%TD*%
G04 APERTURE END LIST*
D10*
%TO.P,R3,1*%
%TO.N,/LEDSTRIPE*%
X129500000Y-104920000D03*
D11*
%TO.P,R3,2*%
%TO.N,Net-(J3-Pad2)*%
X129500000Y-115080000D03*
%TD*%
D10*
%TO.P,R2,1*%
%TO.N,/LED2*%
X133500000Y-115000000D03*
D11*
%TO.P,R2,2*%
%TO.N,Net-(D2-Pad2)*%
X133500000Y-104840000D03*
%TD*%
D10*
%TO.P,R1,1*%
%TO.N,/LED1*%
X125250000Y-115080000D03*
D11*
%TO.P,R1,2*%
%TO.N,Net-(D1-Pad2)*%
X125250000Y-104920000D03*
%TD*%
D12*
%TO.P,C1,1*%
%TO.N,+3.3V*%
X137544888Y-106500000D03*
D10*
%TO.P,C1,2*%
%TO.N,GND*%
X139544888Y-106500000D03*
%TD*%
D13*
%TO.P,J1,1,Pin_1*%
%TO.N,+5V*%
X142300000Y-125125000D03*
D14*
%TO.P,J1,2,Pin_2*%
%TO.N,/SDA*%
X139760000Y-125125000D03*
%TO.P,J1,3,Pin_3*%
%TO.N,/SCL*%
X137220000Y-125125000D03*
%TO.P,J1,4,Pin_4*%
%TO.N,GND*%
X134680000Y-125125000D03*
%TD*%
D13*
%TO.P,J3,1,Pin_1*%
%TO.N,+5V*%
X130525000Y-125125000D03*
D14*
%TO.P,J3,2,Pin_2*%
%TO.N,Net-(J3-Pad2)*%
X127985000Y-125125000D03*
%TO.P,J3,3,Pin_3*%
%TO.N,GND*%
X125445000Y-125125000D03*
%TD*%
D10*
%TO.P,C2,1*%
%TO.N,+3.3V*%
X136000000Y-117500000D03*
%TO.P,C2,2*%
%TO.N,GND*%
X141000000Y-117500000D03*
%TD*%
D13*
%TO.P,U1,1,3V3*%
%TO.N,+3.3V*%
X121075000Y-86190000D03*
D14*
%TO.P,U1,2,EN*%
%TO.N,unconnected-(U1-Pad2)*%
X121075000Y-88730000D03*
%TO.P,U1,3,SP*%
%TO.N,unconnected-(U1-Pad3)*%
X121075000Y-91270000D03*
%TO.P,U1,4,SN*%
%TO.N,unconnected-(U1-Pad4)*%
X121075000Y-93810000D03*
%TO.P,U1,5,G34*%
%TO.N,unconnected-(U1-Pad5)*%
X121075000Y-96350000D03*
%TO.P,U1,6,G35*%
%TO.N,unconnected-(U1-Pad6)*%
X121075000Y-98890000D03*
%TO.P,U1,7,G32*%
%TO.N,/LEDSTRIPE*%
X121075000Y-101430000D03*
%TO.P,U1,8,G33*%
%TO.N,unconnected-(U1-Pad8)*%
X121075000Y-103970000D03*
%TO.P,U1,9,G25*%
%TO.N,/LED1*%
X121075000Y-106510000D03*
%TO.P,U1,10,G26*%
%TO.N,/LED2*%
X121075000Y-109050000D03*
%TO.P,U1,11,G27*%
%TO.N,unconnected-(U1-Pad11)*%
X121075000Y-111590000D03*
%TO.P,U1,12,G14*%
%TO.N,unconnected-(U1-Pad12)*%
X121075000Y-114130000D03*
%TO.P,U1,13,G12*%
%TO.N,unconnected-(U1-Pad13)*%
X121075000Y-116670000D03*
%TO.P,U1,14,GND*%
%TO.N,GND*%
X121075000Y-119210000D03*
%TO.P,U1,15,G13*%
%TO.N,unconnected-(U1-Pad15)*%
X121075000Y-121750000D03*
%TO.P,U1,16,SD2*%
%TO.N,unconnected-(U1-Pad16)*%
X121075000Y-124290000D03*
%TO.P,U1,17,SD3*%
%TO.N,unconnected-(U1-Pad17)*%
X121075000Y-126830000D03*
%TO.P,U1,18,CMD*%
%TO.N,unconnected-(U1-Pad18)*%
X121075000Y-129370000D03*
%TO.P,U1,19,5V*%
%TO.N,+5V*%
X121075000Y-131910000D03*
%TO.P,U1,20,CLK*%
%TO.N,unconnected-(U1-Pad20)*%
X146475000Y-131910000D03*
%TO.P,U1,21,SD0*%
%TO.N,unconnected-(U1-Pad21)*%
X146475000Y-129370000D03*
%TO.P,U1,22,SD1*%
%TO.N,unconnected-(U1-Pad22)*%
X146475000Y-126830000D03*
%TO.P,U1,23,G15*%
%TO.N,unconnected-(U1-Pad23)*%
X146475000Y-124290000D03*
%TO.P,U1,24,G2*%
%TO.N,unconnected-(U1-Pad24)*%
X146475000Y-121750000D03*
%TO.P,U1,25,G0*%
%TO.N,unconnected-(U1-Pad25)*%
X146475000Y-119210000D03*
%TO.P,U1,26,G4*%
%TO.N,/CE*%
X146475000Y-116670000D03*
%TO.P,U1,27,G16*%
%TO.N,/IRQ*%
X146475000Y-114130000D03*
%TO.P,U1,28,G17*%
%TO.N,unconnected-(U1-Pad28)*%
X146475000Y-111590000D03*
%TO.P,U1,29,G5*%
%TO.N,/~{CSN}*%
X146475000Y-109050000D03*
%TO.P,U1,30,G18*%
%TO.N,/SCK*%
X146475000Y-106510000D03*
%TO.P,U1,31,G19*%
%TO.N,/MISO*%
X146475000Y-103970000D03*
%TO.P,U1,32,GND*%
%TO.N,GND*%
X146475000Y-101430000D03*
%TO.P,U1,33,G21*%
%TO.N,/SDA*%
X146475000Y-98890000D03*
%TO.P,U1,34,RXD*%
%TO.N,unconnected-(U1-Pad34)*%
X146475000Y-96350000D03*
%TO.P,U1,35,TXD*%
%TO.N,unconnected-(U1-Pad35)*%
X146475000Y-93810000D03*
%TO.P,U1,36,G22*%
%TO.N,/SCL*%
X146475000Y-91270000D03*
%TO.P,U1,37,G23*%
%TO.N,/MOSI*%
X146475000Y-88730000D03*
D13*
%TO.P,U1,38,GND*%
%TO.N,GND*%
X146475000Y-86190000D03*
%TD*%
D15*
%TO.P,D2,1,K*%
%TO.N,GND*%
X143275000Y-89500000D03*
D16*
%TO.P,D2,2,A*%
%TO.N,Net-(D2-Pad2)*%
X140735000Y-89500000D03*
%TD*%
D13*
%TO.P,U2,1,GND*%
%TO.N,GND*%
X129500000Y-95000000D03*
D17*
%TO.P,U2,2,VCC*%
%TO.N,+3.3V*%
X129500000Y-97540000D03*
%TO.P,U2,3,CE*%
%TO.N,/CE*%
X132040000Y-95000000D03*
%TO.P,U2,4,~{CSN}*%
%TO.N,/~{CSN}*%
X132040000Y-97540000D03*
%TO.P,U2,5,SCK*%
%TO.N,/SCK*%
X134580000Y-95000000D03*
%TO.P,U2,6,MOSI*%
%TO.N,/MOSI*%
X134580000Y-97540000D03*
%TO.P,U2,7,MISO*%
%TO.N,/MISO*%
X137120000Y-95000000D03*
%TO.P,U2,8,IRQ*%
%TO.N,/IRQ*%
X137120000Y-97540000D03*
%TD*%
D18*
%TO.P,J2,1,Pin_1*%
%TO.N,+5V*%
X135250000Y-90170000D03*
D19*
%TO.P,J2,2,Pin_2*%
%TO.N,GND*%
X132750000Y-90170000D03*
%TD*%
D15*
%TO.P,D1,1,K*%
%TO.N,GND*%
X126775000Y-89500000D03*
D16*
%TO.P,D1,2,A*%
%TO.N,Net-(D1-Pad2)*%
X124235000Y-89500000D03*
%TD*%
D20*
%TO.N,/MOSI*%
X138173849Y-100463201D03*
%TO.N,/IRQ*%
X139363812Y-102533812D03*
X139363812Y-100463201D03*
%TD*%
D21*
%TO.N,+3.3V*%
X129500000Y-98280000D02*
X129500000Y-97540000D01*
X122639772Y-90679772D02*
X122639772Y-87754772D01*
X129500000Y-97540000D02*
X122639772Y-90679772D01*
X137544888Y-106324888D02*
X129500000Y-98280000D01*
X122639772Y-87754772D02*
X121075000Y-86190000D01*
X137544888Y-106500000D02*
X137544888Y-106324888D01*
%TO.N,/MOSI*%
X138173849Y-100463201D02*
X137503201Y-100463201D01*
X137503201Y-100463201D02*
X134580000Y-97540000D01*
%TO.N,/MISO*%
X138180000Y-95000000D02*
X143510000Y-100330000D01*
X143510000Y-102086250D02*
X145393750Y-103970000D01*
X145393750Y-103970000D02*
X146475000Y-103970000D01*
X143510000Y-100330000D02*
X143510000Y-102086250D01*
X137120000Y-95000000D02*
X138180000Y-95000000D01*
%TO.N,/SCK*%
X143060000Y-101150000D02*
X138275000Y-96365000D01*
X138275000Y-96365000D02*
X135945000Y-96365000D01*
X143060000Y-103095000D02*
X143060000Y-101150000D01*
X146475000Y-106510000D02*
X143060000Y-103095000D01*
X135945000Y-96365000D02*
X134580000Y-95000000D01*
%TO.N,/~{CSN}*%
X143928172Y-106503172D02*
X143928172Y-105783400D01*
X146475000Y-109050000D02*
X143928172Y-106503172D01*
X143928172Y-105783400D02*
X139332473Y-101187701D01*
X135687701Y-101187701D02*
X132040000Y-97540000D01*
X139332473Y-101187701D02*
X135687701Y-101187701D01*
%TO.N,/IRQ*%
X143091827Y-110746827D02*
X146475000Y-114130000D01*
X139363812Y-100463201D02*
X139363812Y-100113812D01*
X137120000Y-97870000D02*
X137120000Y-97540000D01*
X143091827Y-106261827D02*
X143091827Y-110746827D01*
X139363812Y-102533812D02*
X143091827Y-106261827D01*
X139363812Y-100113812D02*
X137120000Y-97870000D01*
%TO.N,/CE*%
X142277490Y-112472490D02*
X142277490Y-106717490D01*
X130778158Y-98104744D02*
X130778158Y-96261842D01*
X130778158Y-96261842D02*
X132040000Y-95000000D01*
X142277490Y-106717490D02*
X137535828Y-101975828D01*
X134649242Y-101975828D02*
X130778158Y-98104744D01*
X146475000Y-116670000D02*
X142277490Y-112472490D01*
X137535828Y-101975828D02*
X134649242Y-101975828D01*
%TO.N,/LED2*%
X121075000Y-109050000D02*
X125055000Y-113030000D01*
X131530000Y-113030000D02*
X133500000Y-115000000D01*
X125055000Y-113030000D02*
X131530000Y-113030000D01*
%TO.N,Net-(J3-Pad2)*%
X127985000Y-125125000D02*
X127985000Y-116595000D01*
X127985000Y-116595000D02*
X129500000Y-115080000D01*
%TD*%
%TA.AperFunction,Conductor*%
%TO.N,+5V*%
G36*
X149970018Y-81510000D02*
G01*
X149984851Y-81512310D01*
X149984855Y-81512310D01*
X149993724Y-81513691D01*
X150006397Y-81512034D01*
X150033707Y-81511449D01*
X150161194Y-81522603D01*
X150182817Y-81526415D01*
X150328466Y-81565442D01*
X150349104Y-81572954D01*
X150485760Y-81636678D01*
X150504780Y-81647660D01*
X150628297Y-81734147D01*
X150645122Y-81748265D01*
X150751735Y-81854878D01*
X150765853Y-81871703D01*
X150852340Y-81995220D01*
X150863322Y-82014240D01*
X150927046Y-82150896D01*
X150934557Y-82171534D01*
X150973583Y-82317178D01*
X150977398Y-82338809D01*
X150987947Y-82459393D01*
X150987393Y-82475871D01*
X150987800Y-82475876D01*
X150987690Y-82484853D01*
X150986309Y-82493724D01*
X150987473Y-82502626D01*
X150987473Y-82502628D01*
X150990436Y-82525283D01*
X150991500Y-82541621D01*
X150991500Y-134450633D01*
X150990000Y-134470018D01*
X150987690Y-134484851D01*
X150987690Y-134484855D01*
X150986309Y-134493724D01*
X150987966Y-134506397D01*
X150988551Y-134533707D01*
X150977398Y-134661191D01*
X150973585Y-134682817D01*
X150952174Y-134762724D01*
X150934558Y-134828466D01*
X150927046Y-134849104D01*
X150863322Y-134985760D01*
X150852340Y-135004780D01*
X150765853Y-135128297D01*
X150751735Y-135145122D01*
X150645122Y-135251735D01*
X150628297Y-135265853D01*
X150504780Y-135352340D01*
X150485760Y-135363322D01*
X150349104Y-135427046D01*
X150328466Y-135434557D01*
X150182822Y-135473583D01*
X150161194Y-135477397D01*
X150104659Y-135482344D01*
X150040607Y-135487947D01*
X150024129Y-135487393D01*
X150024124Y-135487800D01*
X150015147Y-135487690D01*
X150006276Y-135486309D01*
X149997374Y-135487473D01*
X149997372Y-135487473D01*
X149983548Y-135489281D01*
X149974714Y-135490436D01*
X149958379Y-135491500D01*
X118049367Y-135491500D01*
X118029982Y-135490000D01*
X118015149Y-135487690D01*
X118015145Y-135487690D01*
X118006276Y-135486309D01*
X117993603Y-135487966D01*
X117966293Y-135488551D01*
X117838806Y-135477397D01*
X117817183Y-135473585D01*
X117671531Y-135434557D01*
X117650896Y-135427046D01*
X117514240Y-135363322D01*
X117495220Y-135352340D01*
X117371703Y-135265853D01*
X117354878Y-135251735D01*
X117248265Y-135145122D01*
X117234147Y-135128297D01*
X117147660Y-135004780D01*
X117136678Y-134985760D01*
X117072954Y-134849104D01*
X117065443Y-134828466D01*
X117026417Y-134682822D01*
X117022602Y-134661191D01*
X117012349Y-134543993D01*
X117012374Y-134521758D01*
X117012770Y-134517344D01*
X117013576Y-134512552D01*
X117013729Y-134500000D01*
X117009773Y-134472376D01*
X117008500Y-134454514D01*
X117008500Y-132177966D01*
X119743257Y-132177966D01*
X119773565Y-132312446D01*
X119776645Y-132322275D01*
X119856770Y-132519603D01*
X119861413Y-132528794D01*
X119972694Y-132710388D01*
X119978777Y-132718699D01*
X120118213Y-132879667D01*
X120125580Y-132886883D01*
X120289434Y-133022916D01*
X120297881Y-133028831D01*
X120481756Y-133136279D01*
X120491042Y-133140729D01*
X120690001Y-133216703D01*
X120699899Y-133219579D01*
X120803250Y-133240606D01*
X120817299Y-133239410D01*
X120821000Y-133229065D01*
X120821000Y-133228517D01*
X121329000Y-133228517D01*
X121333064Y-133242359D01*
X121346478Y-133244393D01*
X121353184Y-133243534D01*
X121363262Y-133241392D01*
X121567255Y-133180191D01*
X121576842Y-133176433D01*
X121768095Y-133082739D01*
X121776945Y-133077464D01*
X121950328Y-132953792D01*
X121958200Y-132947139D01*
X122109052Y-132796812D01*
X122115730Y-132788965D01*
X122240003Y-132616020D01*
X122245313Y-132607183D01*
X122339670Y-132416267D01*
X122343469Y-132406672D01*
X122405377Y-132202910D01*
X122407555Y-132192837D01*
X122408986Y-132181962D01*
X122406775Y-132167778D01*
X122393617Y-132164000D01*
X121347115Y-132164000D01*
X121331876Y-132168475D01*
X121330671Y-132169865D01*
X121329000Y-132177548D01*
X121329000Y-133228517D01*
X120821000Y-133228517D01*
X120821000Y-132182115D01*
X120816525Y-132166876D01*
X120815135Y-132165671D01*
X120807452Y-132164000D01*
X119758225Y-132164000D01*
X119744694Y-132167973D01*
X119743257Y-132177966D01*
X117008500Y-132177966D01*
X117008500Y-129336695D01*
X119712251Y-129336695D01*
X119712548Y-129341848D01*
X119712548Y-129341851D01*
X119718011Y-129436590D01*
X119725110Y-129559715D01*
X119726247Y-129564761D01*
X119726248Y-129564767D01*
X119746119Y-129652939D01*
X119774222Y-129777639D01*
X119858266Y-129984616D01*
X119974987Y-130175088D01*
X120121250Y-130343938D01*
X120293126Y-130486632D01*
X120366445Y-130529476D01*
X120366955Y-130529774D01*
X120415679Y-130581412D01*
X120428750Y-130651195D01*
X120402019Y-130716967D01*
X120361562Y-130750327D01*
X120353457Y-130754546D01*
X120344738Y-130760036D01*
X120174433Y-130887905D01*
X120166726Y-130894748D01*
X120019590Y-131048717D01*
X120013104Y-131056727D01*
X119893098Y-131232649D01*
X119888000Y-131241623D01*
X119798338Y-131434783D01*
X119794775Y-131444470D01*
X119739389Y-131644183D01*
X119740912Y-131652607D01*
X119753292Y-131656000D01*
X122393344Y-131656000D01*
X122406875Y-131652027D01*
X122408180Y-131642947D01*
X122366214Y-131475875D01*
X122362894Y-131466124D01*
X122277972Y-131270814D01*
X122273105Y-131261739D01*
X122157426Y-131082926D01*
X122151136Y-131074757D01*
X122007806Y-130917240D01*
X122000273Y-130910215D01*
X121833139Y-130778222D01*
X121824556Y-130772520D01*
X121787602Y-130752120D01*
X121737631Y-130701687D01*
X121722859Y-130632245D01*
X121747975Y-130565839D01*
X121775327Y-130539232D01*
X121798797Y-130522491D01*
X121954860Y-130411173D01*
X122113096Y-130253489D01*
X122172594Y-130170689D01*
X122240435Y-130076277D01*
X122243453Y-130072077D01*
X122342430Y-129871811D01*
X122407370Y-129658069D01*
X122436529Y-129436590D01*
X122438156Y-129370000D01*
X122419852Y-129147361D01*
X122365431Y-128930702D01*
X122276354Y-128725840D01*
X122155014Y-128538277D01*
X122004670Y-128373051D01*
X122000619Y-128369852D01*
X122000615Y-128369848D01*
X121833414Y-128237800D01*
X121833410Y-128237798D01*
X121829359Y-128234598D01*
X121788053Y-128211796D01*
X121738084Y-128161364D01*
X121723312Y-128091921D01*
X121748428Y-128025516D01*
X121775780Y-127998909D01*
X121819603Y-127967650D01*
X121954860Y-127871173D01*
X122113096Y-127713489D01*
X122172594Y-127630689D01*
X122240435Y-127536277D01*
X122243453Y-127532077D01*
X122342430Y-127331811D01*
X122407370Y-127118069D01*
X122436529Y-126896590D01*
X122438156Y-126830000D01*
X122419852Y-126607361D01*
X122365431Y-126390702D01*
X122276354Y-126185840D01*
X122168855Y-126019672D01*
X122157822Y-126002617D01*
X122157820Y-126002614D01*
X122155014Y-125998277D01*
X122004670Y-125833051D01*
X122000619Y-125829852D01*
X122000615Y-125829848D01*
X121833414Y-125697800D01*
X121833410Y-125697798D01*
X121829359Y-125694598D01*
X121788053Y-125671796D01*
X121738084Y-125621364D01*
X121723312Y-125551921D01*
X121748428Y-125485516D01*
X121775780Y-125458909D01*
X121840045Y-125413069D01*
X121954860Y-125331173D01*
X122113096Y-125173489D01*
X122172594Y-125090689D01*
X122240435Y-124996277D01*
X122243453Y-124992077D01*
X122304000Y-124869570D01*
X122340136Y-124796453D01*
X122340137Y-124796451D01*
X122342430Y-124791811D01*
X122407370Y-124578069D01*
X122436529Y-124356590D01*
X122438156Y-124290000D01*
X122419852Y-124067361D01*
X122365431Y-123850702D01*
X122276354Y-123645840D01*
X122155014Y-123458277D01*
X122004670Y-123293051D01*
X122000619Y-123289852D01*
X122000615Y-123289848D01*
X121833414Y-123157800D01*
X121833410Y-123157798D01*
X121829359Y-123154598D01*
X121788053Y-123131796D01*
X121738084Y-123081364D01*
X121723312Y-123011921D01*
X121748428Y-122945516D01*
X121775780Y-122918909D01*
X121819603Y-122887650D01*
X121954860Y-122791173D01*
X122113096Y-122633489D01*
X122172594Y-122550689D01*
X122240435Y-122456277D01*
X122243453Y-122452077D01*
X122342430Y-122251811D01*
X122407370Y-122038069D01*
X122436529Y-121816590D01*
X122438156Y-121750000D01*
X122419852Y-121527361D01*
X122365431Y-121310702D01*
X122276354Y-121105840D01*
X122155014Y-120918277D01*
X122004670Y-120753051D01*
X122000619Y-120749852D01*
X122000615Y-120749848D01*
X121833414Y-120617800D01*
X121833410Y-120617798D01*
X121829359Y-120614598D01*
X121788053Y-120591796D01*
X121738084Y-120541364D01*
X121723312Y-120471921D01*
X121748428Y-120405516D01*
X121775780Y-120378909D01*
X121819603Y-120347650D01*
X121954860Y-120251173D01*
X122113096Y-120093489D01*
X122172594Y-120010689D01*
X122240435Y-119916277D01*
X122243453Y-119912077D01*
X122342430Y-119711811D01*
X122407370Y-119498069D01*
X122436529Y-119276590D01*
X122438156Y-119210000D01*
X122419852Y-118987361D01*
X122365431Y-118770702D01*
X122276354Y-118565840D01*
X122155014Y-118378277D01*
X122004670Y-118213051D01*
X122000619Y-118209852D01*
X122000615Y-118209848D01*
X121833414Y-118077800D01*
X121833410Y-118077798D01*
X121829359Y-118074598D01*
X121788053Y-118051796D01*
X121738084Y-118001364D01*
X121723312Y-117931921D01*
X121748428Y-117865516D01*
X121775780Y-117838909D01*
X121819603Y-117807650D01*
X121954860Y-117711173D01*
X122113096Y-117553489D01*
X122172594Y-117470689D01*
X122240435Y-117376277D01*
X122243453Y-117372077D01*
X122290249Y-117277393D01*
X122340136Y-117176453D01*
X122340137Y-117176451D01*
X122342430Y-117171811D01*
X122407370Y-116958069D01*
X122436529Y-116736590D01*
X122438156Y-116670000D01*
X122419852Y-116447361D01*
X122365431Y-116230702D01*
X122276354Y-116025840D01*
X122161432Y-115848197D01*
X122157822Y-115842617D01*
X122157820Y-115842614D01*
X122155014Y-115838277D01*
X122004670Y-115673051D01*
X122000619Y-115669852D01*
X122000615Y-115669848D01*
X121833414Y-115537800D01*
X121833410Y-115537798D01*
X121829359Y-115534598D01*
X121788053Y-115511796D01*
X121738084Y-115461364D01*
X121723312Y-115391921D01*
X121748428Y-115325516D01*
X121775780Y-115298909D01*
X121819603Y-115267650D01*
X121954860Y-115171173D01*
X122113096Y-115013489D01*
X122172594Y-114930689D01*
X122240435Y-114836277D01*
X122243453Y-114832077D01*
X122270480Y-114777393D01*
X122340136Y-114636453D01*
X122340137Y-114636451D01*
X122342430Y-114631811D01*
X122374900Y-114524940D01*
X122405865Y-114423023D01*
X122405865Y-114423021D01*
X122407370Y-114418069D01*
X122436529Y-114196590D01*
X122438156Y-114130000D01*
X122419852Y-113907361D01*
X122365431Y-113690702D01*
X122276354Y-113485840D01*
X122155014Y-113298277D01*
X122004670Y-113133051D01*
X122000619Y-113129852D01*
X122000615Y-113129848D01*
X121833414Y-112997800D01*
X121833410Y-112997798D01*
X121829359Y-112994598D01*
X121788053Y-112971796D01*
X121738084Y-112921364D01*
X121723312Y-112851921D01*
X121748428Y-112785516D01*
X121775780Y-112758909D01*
X121832469Y-112718473D01*
X121954860Y-112631173D01*
X121984787Y-112601351D01*
X122042659Y-112543680D01*
X122113096Y-112473489D01*
X122124511Y-112457604D01*
X122240435Y-112296277D01*
X122243453Y-112292077D01*
X122265737Y-112246990D01*
X122340136Y-112096453D01*
X122340137Y-112096451D01*
X122342430Y-112091811D01*
X122374900Y-111984940D01*
X122405865Y-111883023D01*
X122405865Y-111883021D01*
X122407370Y-111878069D01*
X122436529Y-111656590D01*
X122437676Y-111609654D01*
X122459336Y-111542042D01*
X122514111Y-111496874D01*
X122584611Y-111488490D01*
X122652733Y-111523637D01*
X123602584Y-112473489D01*
X124551348Y-113422253D01*
X124558888Y-113430539D01*
X124563000Y-113437018D01*
X124568777Y-113442443D01*
X124612651Y-113483643D01*
X124615493Y-113486398D01*
X124635230Y-113506135D01*
X124638427Y-113508615D01*
X124647447Y-113516318D01*
X124679679Y-113546586D01*
X124686625Y-113550405D01*
X124686628Y-113550407D01*
X124697434Y-113556348D01*
X124713953Y-113567199D01*
X124729959Y-113579614D01*
X124737228Y-113582759D01*
X124737232Y-113582762D01*
X124770537Y-113597174D01*
X124781187Y-113602391D01*
X124812435Y-113619569D01*
X124862492Y-113669913D01*
X124877386Y-113739330D01*
X124852385Y-113805779D01*
X124800160Y-113844436D01*
X124800757Y-113845716D01*
X124598238Y-113940151D01*
X124598233Y-113940154D01*
X124593251Y-113942477D01*
X124524463Y-113990643D01*
X124410211Y-114070643D01*
X124410208Y-114070645D01*
X124405700Y-114073802D01*
X124243802Y-114235700D01*
X124112477Y-114423251D01*
X124110154Y-114428233D01*
X124110151Y-114428238D01*
X124055343Y-114545775D01*
X124015716Y-114630757D01*
X124014294Y-114636065D01*
X124014293Y-114636067D01*
X123986490Y-114739829D01*
X123956457Y-114851913D01*
X123936502Y-115080000D01*
X123956457Y-115308087D01*
X123957881Y-115313400D01*
X123957881Y-115313402D01*
X123965307Y-115341114D01*
X124015716Y-115529243D01*
X124018039Y-115534224D01*
X124018039Y-115534225D01*
X124110151Y-115731762D01*
X124110154Y-115731767D01*
X124112477Y-115736749D01*
X124243802Y-115924300D01*
X124405700Y-116086198D01*
X124410208Y-116089355D01*
X124410211Y-116089357D01*
X124474491Y-116134366D01*
X124593251Y-116217523D01*
X124598233Y-116219846D01*
X124598238Y-116219849D01*
X124792721Y-116310537D01*
X124800757Y-116314284D01*
X124806065Y-116315706D01*
X124806067Y-116315707D01*
X125016598Y-116372119D01*
X125016600Y-116372119D01*
X125021913Y-116373543D01*
X125250000Y-116393498D01*
X125478087Y-116373543D01*
X125483400Y-116372119D01*
X125483402Y-116372119D01*
X125693933Y-116315707D01*
X125693935Y-116315706D01*
X125699243Y-116314284D01*
X125707279Y-116310537D01*
X125901762Y-116219849D01*
X125901767Y-116219846D01*
X125906749Y-116217523D01*
X126025509Y-116134366D01*
X126089789Y-116089357D01*
X126089792Y-116089355D01*
X126094300Y-116086198D01*
X126256198Y-115924300D01*
X126387523Y-115736749D01*
X126389846Y-115731767D01*
X126389849Y-115731762D01*
X126481961Y-115534225D01*
X126481961Y-115534224D01*
X126484284Y-115529243D01*
X126534694Y-115341114D01*
X126542119Y-115313402D01*
X126542119Y-115313400D01*
X126543543Y-115308087D01*
X126563498Y-115080000D01*
X126543543Y-114851913D01*
X126513510Y-114739829D01*
X126485707Y-114636067D01*
X126485706Y-114636065D01*
X126484284Y-114630757D01*
X126444657Y-114545775D01*
X126389849Y-114428238D01*
X126389846Y-114428233D01*
X126387523Y-114423251D01*
X126256198Y-114235700D01*
X126094300Y-114073802D01*
X126089792Y-114070645D01*
X126089789Y-114070643D01*
X125975537Y-113990643D01*
X125906749Y-113942477D01*
X125823580Y-113903695D01*
X125770295Y-113856778D01*
X125750834Y-113788501D01*
X125771376Y-113720541D01*
X125825398Y-113674475D01*
X125876830Y-113663500D01*
X128873170Y-113663500D01*
X128941291Y-113683502D01*
X128987784Y-113737158D01*
X128997888Y-113807432D01*
X128968394Y-113872012D01*
X128926420Y-113903695D01*
X128843251Y-113942477D01*
X128774463Y-113990643D01*
X128660211Y-114070643D01*
X128660208Y-114070645D01*
X128655700Y-114073802D01*
X128493802Y-114235700D01*
X128362477Y-114423251D01*
X128360154Y-114428233D01*
X128360151Y-114428238D01*
X128305343Y-114545775D01*
X128265716Y-114630757D01*
X128264294Y-114636065D01*
X128264293Y-114636067D01*
X128236490Y-114739829D01*
X128206457Y-114851913D01*
X128186502Y-115080000D01*
X128206457Y-115308087D01*
X128207879Y-115313392D01*
X128207881Y-115313406D01*
X128223459Y-115371539D01*
X128221771Y-115442516D01*
X128190848Y-115493248D01*
X127592742Y-116091353D01*
X127584463Y-116098887D01*
X127577982Y-116103000D01*
X127548528Y-116134366D01*
X127531357Y-116152651D01*
X127528602Y-116155493D01*
X127508865Y-116175230D01*
X127506385Y-116178427D01*
X127498682Y-116187447D01*
X127468414Y-116219679D01*
X127464595Y-116226625D01*
X127464593Y-116226628D01*
X127458652Y-116237434D01*
X127447801Y-116253953D01*
X127435386Y-116269959D01*
X127432241Y-116277228D01*
X127432238Y-116277232D01*
X127417826Y-116310537D01*
X127412609Y-116321187D01*
X127391305Y-116359940D01*
X127389334Y-116367615D01*
X127389334Y-116367616D01*
X127386267Y-116379562D01*
X127379863Y-116398266D01*
X127371819Y-116416855D01*
X127370580Y-116424678D01*
X127370577Y-116424688D01*
X127364901Y-116460524D01*
X127362495Y-116472144D01*
X127351500Y-116514970D01*
X127351500Y-116535224D01*
X127349949Y-116554934D01*
X127346780Y-116574943D01*
X127347526Y-116582835D01*
X127350941Y-116618961D01*
X127351500Y-116630819D01*
X127351500Y-123846692D01*
X127331498Y-123914813D01*
X127283683Y-123958453D01*
X127258607Y-123971507D01*
X127254474Y-123974610D01*
X127254471Y-123974612D01*
X127130941Y-124067361D01*
X127079965Y-124105635D01*
X127040128Y-124147322D01*
X126935609Y-124256695D01*
X126925629Y-124267138D01*
X126818201Y-124424621D01*
X126763293Y-124469621D01*
X126692768Y-124477792D01*
X126629021Y-124446538D01*
X126608324Y-124422054D01*
X126527822Y-124297617D01*
X126527820Y-124297614D01*
X126525014Y-124293277D01*
X126374670Y-124128051D01*
X126370619Y-124124852D01*
X126370615Y-124124848D01*
X126203414Y-123992800D01*
X126203410Y-123992798D01*
X126199359Y-123989598D01*
X126194831Y-123987098D01*
X126078988Y-123923150D01*
X126003789Y-123881638D01*
X125998920Y-123879914D01*
X125998916Y-123879912D01*
X125798087Y-123808795D01*
X125798083Y-123808794D01*
X125793212Y-123807069D01*
X125788119Y-123806162D01*
X125788116Y-123806161D01*
X125578373Y-123768800D01*
X125578367Y-123768799D01*
X125573284Y-123767894D01*
X125499452Y-123766992D01*
X125355081Y-123765228D01*
X125355079Y-123765228D01*
X125349911Y-123765165D01*
X125129091Y-123798955D01*
X124916756Y-123868357D01*
X124886443Y-123884137D01*
X124742975Y-123958822D01*
X124718607Y-123971507D01*
X124714474Y-123974610D01*
X124714471Y-123974612D01*
X124590941Y-124067361D01*
X124539965Y-124105635D01*
X124500128Y-124147322D01*
X124395609Y-124256695D01*
X124385629Y-124267138D01*
X124382720Y-124271403D01*
X124382714Y-124271411D01*
X124367798Y-124293277D01*
X124259743Y-124451680D01*
X124165688Y-124654305D01*
X124105989Y-124869570D01*
X124082251Y-125091695D01*
X124082548Y-125096848D01*
X124082548Y-125096851D01*
X124084171Y-125125000D01*
X124095110Y-125314715D01*
X124096247Y-125319761D01*
X124096248Y-125319767D01*
X124110606Y-125383475D01*
X124144222Y-125532639D01*
X124154997Y-125559174D01*
X124208974Y-125692104D01*
X124228266Y-125739616D01*
X124269884Y-125807530D01*
X124342291Y-125925688D01*
X124344987Y-125930088D01*
X124491250Y-126098938D01*
X124663126Y-126241632D01*
X124856000Y-126354338D01*
X125064692Y-126434030D01*
X125069760Y-126435061D01*
X125069763Y-126435062D01*
X125177017Y-126456883D01*
X125283597Y-126478567D01*
X125288772Y-126478757D01*
X125288774Y-126478757D01*
X125501673Y-126486564D01*
X125501677Y-126486564D01*
X125506837Y-126486753D01*
X125511957Y-126486097D01*
X125511959Y-126486097D01*
X125723288Y-126459025D01*
X125723289Y-126459025D01*
X125728416Y-126458368D01*
X125733366Y-126456883D01*
X125937429Y-126395661D01*
X125937434Y-126395659D01*
X125942384Y-126394174D01*
X126142994Y-126295896D01*
X126324860Y-126166173D01*
X126483096Y-126008489D01*
X126487316Y-126002617D01*
X126613453Y-125827077D01*
X126614776Y-125828028D01*
X126661645Y-125784857D01*
X126731580Y-125772625D01*
X126797026Y-125800144D01*
X126824875Y-125831994D01*
X126884987Y-125930088D01*
X127031250Y-126098938D01*
X127203126Y-126241632D01*
X127396000Y-126354338D01*
X127604692Y-126434030D01*
X127609760Y-126435061D01*
X127609763Y-126435062D01*
X127717017Y-126456883D01*
X127823597Y-126478567D01*
X127828772Y-126478757D01*
X127828774Y-126478757D01*
X128041673Y-126486564D01*
X128041677Y-126486564D01*
X128046837Y-126486753D01*
X128051957Y-126486097D01*
X128051959Y-126486097D01*
X128263288Y-126459025D01*
X128263289Y-126459025D01*
X128268416Y-126458368D01*
X128273366Y-126456883D01*
X128477429Y-126395661D01*
X128477434Y-126395659D01*
X128482384Y-126394174D01*
X128682994Y-126295896D01*
X128864860Y-126166173D01*
X128932331Y-126098938D01*
X128973479Y-126057933D01*
X129035851Y-126024017D01*
X129106658Y-126029205D01*
X129163419Y-126071851D01*
X129180401Y-126102954D01*
X129221676Y-126213054D01*
X129230214Y-126228649D01*
X129306715Y-126330724D01*
X129319276Y-126343285D01*
X129421351Y-126419786D01*
X129436946Y-126428324D01*
X129557394Y-126473478D01*
X129572649Y-126477105D01*
X129623514Y-126482631D01*
X129630328Y-126483000D01*
X130252885Y-126483000D01*
X130268124Y-126478525D01*
X130269329Y-126477135D01*
X130271000Y-126469452D01*
X130271000Y-126464884D01*
X130779000Y-126464884D01*
X130783475Y-126480123D01*
X130784865Y-126481328D01*
X130792548Y-126482999D01*
X131419669Y-126482999D01*
X131426490Y-126482629D01*
X131477352Y-126477105D01*
X131492604Y-126473479D01*
X131613054Y-126428324D01*
X131628649Y-126419786D01*
X131730724Y-126343285D01*
X131743285Y-126330724D01*
X131819786Y-126228649D01*
X131828324Y-126213054D01*
X131873478Y-126092606D01*
X131877105Y-126077351D01*
X131882631Y-126026486D01*
X131883000Y-126019672D01*
X131883000Y-125397115D01*
X131878525Y-125381876D01*
X131877135Y-125380671D01*
X131869452Y-125379000D01*
X130797115Y-125379000D01*
X130781876Y-125383475D01*
X130780671Y-125384865D01*
X130779000Y-125392548D01*
X130779000Y-126464884D01*
X130271000Y-126464884D01*
X130271000Y-125091695D01*
X133317251Y-125091695D01*
X133317548Y-125096848D01*
X133317548Y-125096851D01*
X133319171Y-125125000D01*
X133330110Y-125314715D01*
X133331247Y-125319761D01*
X133331248Y-125319767D01*
X133345606Y-125383475D01*
X133379222Y-125532639D01*
X133389997Y-125559174D01*
X133443974Y-125692104D01*
X133463266Y-125739616D01*
X133504884Y-125807530D01*
X133577291Y-125925688D01*
X133579987Y-125930088D01*
X133726250Y-126098938D01*
X133898126Y-126241632D01*
X134091000Y-126354338D01*
X134299692Y-126434030D01*
X134304760Y-126435061D01*
X134304763Y-126435062D01*
X134412017Y-126456883D01*
X134518597Y-126478567D01*
X134523772Y-126478757D01*
X134523774Y-126478757D01*
X134736673Y-126486564D01*
X134736677Y-126486564D01*
X134741837Y-126486753D01*
X134746957Y-126486097D01*
X134746959Y-126486097D01*
X134958288Y-126459025D01*
X134958289Y-126459025D01*
X134963416Y-126458368D01*
X134968366Y-126456883D01*
X135172429Y-126395661D01*
X135172434Y-126395659D01*
X135177384Y-126394174D01*
X135377994Y-126295896D01*
X135559860Y-126166173D01*
X135718096Y-126008489D01*
X135722316Y-126002617D01*
X135848453Y-125827077D01*
X135849776Y-125828028D01*
X135896645Y-125784857D01*
X135966580Y-125772625D01*
X136032026Y-125800144D01*
X136059875Y-125831994D01*
X136119987Y-125930088D01*
X136266250Y-126098938D01*
X136438126Y-126241632D01*
X136631000Y-126354338D01*
X136839692Y-126434030D01*
X136844760Y-126435061D01*
X136844763Y-126435062D01*
X136952017Y-126456883D01*
X137058597Y-126478567D01*
X137063772Y-126478757D01*
X137063774Y-126478757D01*
X137276673Y-126486564D01*
X137276677Y-126486564D01*
X137281837Y-126486753D01*
X137286957Y-126486097D01*
X137286959Y-126486097D01*
X137498288Y-126459025D01*
X137498289Y-126459025D01*
X137503416Y-126458368D01*
X137508366Y-126456883D01*
X137712429Y-126395661D01*
X137712434Y-126395659D01*
X137717384Y-126394174D01*
X137917994Y-126295896D01*
X138099860Y-126166173D01*
X138258096Y-126008489D01*
X138262316Y-126002617D01*
X138388453Y-125827077D01*
X138389776Y-125828028D01*
X138436645Y-125784857D01*
X138506580Y-125772625D01*
X138572026Y-125800144D01*
X138599875Y-125831994D01*
X138659987Y-125930088D01*
X138806250Y-126098938D01*
X138978126Y-126241632D01*
X139171000Y-126354338D01*
X139379692Y-126434030D01*
X139384760Y-126435061D01*
X139384763Y-126435062D01*
X139492017Y-126456883D01*
X139598597Y-126478567D01*
X139603772Y-126478757D01*
X139603774Y-126478757D01*
X139816673Y-126486564D01*
X139816677Y-126486564D01*
X139821837Y-126486753D01*
X139826957Y-126486097D01*
X139826959Y-126486097D01*
X140038288Y-126459025D01*
X140038289Y-126459025D01*
X140043416Y-126458368D01*
X140048366Y-126456883D01*
X140252429Y-126395661D01*
X140252434Y-126395659D01*
X140257384Y-126394174D01*
X140457994Y-126295896D01*
X140639860Y-126166173D01*
X140707331Y-126098938D01*
X140748479Y-126057933D01*
X140810851Y-126024017D01*
X140881658Y-126029205D01*
X140938419Y-126071851D01*
X140955401Y-126102954D01*
X140996676Y-126213054D01*
X141005214Y-126228649D01*
X141081715Y-126330724D01*
X141094276Y-126343285D01*
X141196351Y-126419786D01*
X141211946Y-126428324D01*
X141332394Y-126473478D01*
X141347649Y-126477105D01*
X141398514Y-126482631D01*
X141405328Y-126483000D01*
X142027885Y-126483000D01*
X142043124Y-126478525D01*
X142044329Y-126477135D01*
X142046000Y-126469452D01*
X142046000Y-126464884D01*
X142554000Y-126464884D01*
X142558475Y-126480123D01*
X142559865Y-126481328D01*
X142567548Y-126482999D01*
X143194669Y-126482999D01*
X143201490Y-126482629D01*
X143252352Y-126477105D01*
X143267604Y-126473479D01*
X143388054Y-126428324D01*
X143403649Y-126419786D01*
X143505724Y-126343285D01*
X143518285Y-126330724D01*
X143594786Y-126228649D01*
X143603324Y-126213054D01*
X143648478Y-126092606D01*
X143652105Y-126077351D01*
X143657631Y-126026486D01*
X143658000Y-126019672D01*
X143658000Y-125397115D01*
X143653525Y-125381876D01*
X143652135Y-125380671D01*
X143644452Y-125379000D01*
X142572115Y-125379000D01*
X142556876Y-125383475D01*
X142555671Y-125384865D01*
X142554000Y-125392548D01*
X142554000Y-126464884D01*
X142046000Y-126464884D01*
X142046000Y-124852885D01*
X142554000Y-124852885D01*
X142558475Y-124868124D01*
X142559865Y-124869329D01*
X142567548Y-124871000D01*
X143639884Y-124871000D01*
X143655123Y-124866525D01*
X143656328Y-124865135D01*
X143657999Y-124857452D01*
X143657999Y-124230331D01*
X143657629Y-124223510D01*
X143652105Y-124172648D01*
X143648479Y-124157396D01*
X143603324Y-124036946D01*
X143594786Y-124021351D01*
X143518285Y-123919276D01*
X143505724Y-123906715D01*
X143403649Y-123830214D01*
X143388054Y-123821676D01*
X143267606Y-123776522D01*
X143252351Y-123772895D01*
X143201486Y-123767369D01*
X143194672Y-123767000D01*
X142572115Y-123767000D01*
X142556876Y-123771475D01*
X142555671Y-123772865D01*
X142554000Y-123780548D01*
X142554000Y-124852885D01*
X142046000Y-124852885D01*
X142046000Y-123785116D01*
X142041525Y-123769877D01*
X142040135Y-123768672D01*
X142032452Y-123767001D01*
X141405331Y-123767001D01*
X141398510Y-123767371D01*
X141347648Y-123772895D01*
X141332396Y-123776521D01*
X141211946Y-123821676D01*
X141196351Y-123830214D01*
X141094276Y-123906715D01*
X141081715Y-123919276D01*
X141005214Y-124021351D01*
X140996676Y-124036946D01*
X140955297Y-124147322D01*
X140912655Y-124204087D01*
X140846093Y-124228786D01*
X140776744Y-124213578D01*
X140744121Y-124187891D01*
X140693151Y-124131876D01*
X140693145Y-124131870D01*
X140689670Y-124128051D01*
X140685619Y-124124852D01*
X140685615Y-124124848D01*
X140518414Y-123992800D01*
X140518410Y-123992798D01*
X140514359Y-123989598D01*
X140509831Y-123987098D01*
X140393988Y-123923150D01*
X140318789Y-123881638D01*
X140313920Y-123879914D01*
X140313916Y-123879912D01*
X140113087Y-123808795D01*
X140113083Y-123808794D01*
X140108212Y-123807069D01*
X140103119Y-123806162D01*
X140103116Y-123806161D01*
X139893373Y-123768800D01*
X139893367Y-123768799D01*
X139888284Y-123767894D01*
X139814452Y-123766992D01*
X139670081Y-123765228D01*
X139670079Y-123765228D01*
X139664911Y-123765165D01*
X139444091Y-123798955D01*
X139231756Y-123868357D01*
X139201443Y-123884137D01*
X139057975Y-123958822D01*
X139033607Y-123971507D01*
X139029474Y-123974610D01*
X139029471Y-123974612D01*
X138905941Y-124067361D01*
X138854965Y-124105635D01*
X138815128Y-124147322D01*
X138710609Y-124256695D01*
X138700629Y-124267138D01*
X138593201Y-124424621D01*
X138538293Y-124469621D01*
X138467768Y-124477792D01*
X138404021Y-124446538D01*
X138383324Y-124422054D01*
X138302822Y-124297617D01*
X138302820Y-124297614D01*
X138300014Y-124293277D01*
X138149670Y-124128051D01*
X138145619Y-124124852D01*
X138145615Y-124124848D01*
X137978414Y-123992800D01*
X137978410Y-123992798D01*
X137974359Y-123989598D01*
X137969831Y-123987098D01*
X137853988Y-123923150D01*
X137778789Y-123881638D01*
X137773920Y-123879914D01*
X137773916Y-123879912D01*
X137573087Y-123808795D01*
X137573083Y-123808794D01*
X137568212Y-123807069D01*
X137563119Y-123806162D01*
X137563116Y-123806161D01*
X137353373Y-123768800D01*
X137353367Y-123768799D01*
X137348284Y-123767894D01*
X137274452Y-123766992D01*
X137130081Y-123765228D01*
X137130079Y-123765228D01*
X137124911Y-123765165D01*
X136904091Y-123798955D01*
X136691756Y-123868357D01*
X136661443Y-123884137D01*
X136517975Y-123958822D01*
X136493607Y-123971507D01*
X136489474Y-123974610D01*
X136489471Y-123974612D01*
X136365941Y-124067361D01*
X136314965Y-124105635D01*
X136275128Y-124147322D01*
X136170609Y-124256695D01*
X136160629Y-124267138D01*
X136053201Y-124424621D01*
X135998293Y-124469621D01*
X135927768Y-124477792D01*
X135864021Y-124446538D01*
X135843324Y-124422054D01*
X135762822Y-124297617D01*
X135762820Y-124297614D01*
X135760014Y-124293277D01*
X135609670Y-124128051D01*
X135605619Y-124124852D01*
X135605615Y-124124848D01*
X135438414Y-123992800D01*
X135438410Y-123992798D01*
X135434359Y-123989598D01*
X135429831Y-123987098D01*
X135313988Y-123923150D01*
X135238789Y-123881638D01*
X135233920Y-123879914D01*
X135233916Y-123879912D01*
X135033087Y-123808795D01*
X135033083Y-123808794D01*
X135028212Y-123807069D01*
X135023119Y-123806162D01*
X135023116Y-123806161D01*
X134813373Y-123768800D01*
X134813367Y-123768799D01*
X134808284Y-123767894D01*
X134734452Y-123766992D01*
X134590081Y-123765228D01*
X134590079Y-123765228D01*
X134584911Y-123765165D01*
X134364091Y-123798955D01*
X134151756Y-123868357D01*
X134121443Y-123884137D01*
X133977975Y-123958822D01*
X133953607Y-123971507D01*
X133949474Y-123974610D01*
X133949471Y-123974612D01*
X133825941Y-124067361D01*
X133774965Y-124105635D01*
X133735128Y-124147322D01*
X133630609Y-124256695D01*
X133620629Y-124267138D01*
X133617720Y-124271403D01*
X133617714Y-124271411D01*
X133602798Y-124293277D01*
X133494743Y-124451680D01*
X133400688Y-124654305D01*
X133340989Y-124869570D01*
X133317251Y-125091695D01*
X130271000Y-125091695D01*
X130271000Y-124852885D01*
X130779000Y-124852885D01*
X130783475Y-124868124D01*
X130784865Y-124869329D01*
X130792548Y-124871000D01*
X131864884Y-124871000D01*
X131880123Y-124866525D01*
X131881328Y-124865135D01*
X131882999Y-124857452D01*
X131882999Y-124230331D01*
X131882629Y-124223510D01*
X131877105Y-124172648D01*
X131873479Y-124157396D01*
X131828324Y-124036946D01*
X131819786Y-124021351D01*
X131743285Y-123919276D01*
X131730724Y-123906715D01*
X131628649Y-123830214D01*
X131613054Y-123821676D01*
X131492606Y-123776522D01*
X131477351Y-123772895D01*
X131426486Y-123767369D01*
X131419672Y-123767000D01*
X130797115Y-123767000D01*
X130781876Y-123771475D01*
X130780671Y-123772865D01*
X130779000Y-123780548D01*
X130779000Y-124852885D01*
X130271000Y-124852885D01*
X130271000Y-123785116D01*
X130266525Y-123769877D01*
X130265135Y-123768672D01*
X130257452Y-123767001D01*
X129630331Y-123767001D01*
X129623510Y-123767371D01*
X129572648Y-123772895D01*
X129557396Y-123776521D01*
X129436946Y-123821676D01*
X129421351Y-123830214D01*
X129319276Y-123906715D01*
X129306715Y-123919276D01*
X129230214Y-124021351D01*
X129221676Y-124036946D01*
X129180297Y-124147322D01*
X129137655Y-124204087D01*
X129071093Y-124228786D01*
X129001744Y-124213578D01*
X128969121Y-124187891D01*
X128918151Y-124131876D01*
X128918145Y-124131870D01*
X128914670Y-124128051D01*
X128910619Y-124124852D01*
X128910615Y-124124848D01*
X128743414Y-123992800D01*
X128743410Y-123992798D01*
X128739359Y-123989598D01*
X128734835Y-123987101D01*
X128734831Y-123987098D01*
X128683608Y-123958822D01*
X128633636Y-123908390D01*
X128618500Y-123848513D01*
X128618500Y-117500000D01*
X134686502Y-117500000D01*
X134706457Y-117728087D01*
X134707881Y-117733400D01*
X134707881Y-117733402D01*
X134761075Y-117931921D01*
X134765716Y-117949243D01*
X134768039Y-117954224D01*
X134768039Y-117954225D01*
X134860151Y-118151762D01*
X134860154Y-118151767D01*
X134862477Y-118156749D01*
X134993802Y-118344300D01*
X135155700Y-118506198D01*
X135160208Y-118509355D01*
X135160211Y-118509357D01*
X135205938Y-118541375D01*
X135343251Y-118637523D01*
X135348233Y-118639846D01*
X135348238Y-118639849D01*
X135545775Y-118731961D01*
X135550757Y-118734284D01*
X135556065Y-118735706D01*
X135556067Y-118735707D01*
X135766598Y-118792119D01*
X135766600Y-118792119D01*
X135771913Y-118793543D01*
X136000000Y-118813498D01*
X136228087Y-118793543D01*
X136233400Y-118792119D01*
X136233402Y-118792119D01*
X136443933Y-118735707D01*
X136443935Y-118735706D01*
X136449243Y-118734284D01*
X136454225Y-118731961D01*
X136651762Y-118639849D01*
X136651767Y-118639846D01*
X136656749Y-118637523D01*
X136794062Y-118541375D01*
X136839789Y-118509357D01*
X136839792Y-118509355D01*
X136844300Y-118506198D01*
X137006198Y-118344300D01*
X137137523Y-118156749D01*
X137139846Y-118151767D01*
X137139849Y-118151762D01*
X137231961Y-117954225D01*
X137231961Y-117954224D01*
X137234284Y-117949243D01*
X137238926Y-117931921D01*
X137292119Y-117733402D01*
X137292119Y-117733400D01*
X137293543Y-117728087D01*
X137313498Y-117500000D01*
X139686502Y-117500000D01*
X139706457Y-117728087D01*
X139707881Y-117733400D01*
X139707881Y-117733402D01*
X139761075Y-117931921D01*
X139765716Y-117949243D01*
X139768039Y-117954224D01*
X139768039Y-117954225D01*
X139860151Y-118151762D01*
X139860154Y-118151767D01*
X139862477Y-118156749D01*
X139993802Y-118344300D01*
X140155700Y-118506198D01*
X140160208Y-118509355D01*
X140160211Y-118509357D01*
X140205938Y-118541375D01*
X140343251Y-118637523D01*
X140348233Y-118639846D01*
X140348238Y-118639849D01*
X140545775Y-118731961D01*
X140550757Y-118734284D01*
X140556065Y-118735706D01*
X140556067Y-118735707D01*
X140766598Y-118792119D01*
X140766600Y-118792119D01*
X140771913Y-118793543D01*
X141000000Y-118813498D01*
X141228087Y-118793543D01*
X141233400Y-118792119D01*
X141233402Y-118792119D01*
X141443933Y-118735707D01*
X141443935Y-118735706D01*
X141449243Y-118734284D01*
X141454225Y-118731961D01*
X141651762Y-118639849D01*
X141651767Y-118639846D01*
X141656749Y-118637523D01*
X141794062Y-118541375D01*
X141839789Y-118509357D01*
X141839792Y-118509355D01*
X141844300Y-118506198D01*
X142006198Y-118344300D01*
X142137523Y-118156749D01*
X142139846Y-118151767D01*
X142139849Y-118151762D01*
X142231961Y-117954225D01*
X142231961Y-117954224D01*
X142234284Y-117949243D01*
X142238926Y-117931921D01*
X142292119Y-117733402D01*
X142292119Y-117733400D01*
X142293543Y-117728087D01*
X142313498Y-117500000D01*
X142293543Y-117271913D01*
X142292119Y-117266598D01*
X142235707Y-117056067D01*
X142235706Y-117056065D01*
X142234284Y-117050757D01*
X142231961Y-117045775D01*
X142139849Y-116848238D01*
X142139846Y-116848233D01*
X142137523Y-116843251D01*
X142016211Y-116670000D01*
X142009357Y-116660211D01*
X142009355Y-116660208D01*
X142006198Y-116655700D01*
X141844300Y-116493802D01*
X141839792Y-116490645D01*
X141839789Y-116490643D01*
X141738477Y-116419704D01*
X141656749Y-116362477D01*
X141651767Y-116360154D01*
X141651762Y-116360151D01*
X141454225Y-116268039D01*
X141454224Y-116268039D01*
X141449243Y-116265716D01*
X141443935Y-116264294D01*
X141443933Y-116264293D01*
X141233402Y-116207881D01*
X141233400Y-116207881D01*
X141228087Y-116206457D01*
X141000000Y-116186502D01*
X140771913Y-116206457D01*
X140766600Y-116207881D01*
X140766598Y-116207881D01*
X140556067Y-116264293D01*
X140556065Y-116264294D01*
X140550757Y-116265716D01*
X140545776Y-116268039D01*
X140545775Y-116268039D01*
X140348238Y-116360151D01*
X140348233Y-116360154D01*
X140343251Y-116362477D01*
X140261523Y-116419704D01*
X140160211Y-116490643D01*
X140160208Y-116490645D01*
X140155700Y-116493802D01*
X139993802Y-116655700D01*
X139990645Y-116660208D01*
X139990643Y-116660211D01*
X139983789Y-116670000D01*
X139862477Y-116843251D01*
X139860154Y-116848233D01*
X139860151Y-116848238D01*
X139768039Y-117045775D01*
X139765716Y-117050757D01*
X139764294Y-117056065D01*
X139764293Y-117056067D01*
X139707881Y-117266598D01*
X139706457Y-117271913D01*
X139686502Y-117500000D01*
X137313498Y-117500000D01*
X137293543Y-117271913D01*
X137292119Y-117266598D01*
X137235707Y-117056067D01*
X137235706Y-117056065D01*
X137234284Y-117050757D01*
X137231961Y-117045775D01*
X137139849Y-116848238D01*
X137139846Y-116848233D01*
X137137523Y-116843251D01*
X137016211Y-116670000D01*
X137009357Y-116660211D01*
X137009355Y-116660208D01*
X137006198Y-116655700D01*
X136844300Y-116493802D01*
X136839792Y-116490645D01*
X136839789Y-116490643D01*
X136738477Y-116419704D01*
X136656749Y-116362477D01*
X136651767Y-116360154D01*
X136651762Y-116360151D01*
X136454225Y-116268039D01*
X136454224Y-116268039D01*
X136449243Y-116265716D01*
X136443935Y-116264294D01*
X136443933Y-116264293D01*
X136233402Y-116207881D01*
X136233400Y-116207881D01*
X136228087Y-116206457D01*
X136000000Y-116186502D01*
X135771913Y-116206457D01*
X135766600Y-116207881D01*
X135766598Y-116207881D01*
X135556067Y-116264293D01*
X135556065Y-116264294D01*
X135550757Y-116265716D01*
X135545776Y-116268039D01*
X135545775Y-116268039D01*
X135348238Y-116360151D01*
X135348233Y-116360154D01*
X135343251Y-116362477D01*
X135261523Y-116419704D01*
X135160211Y-116490643D01*
X135160208Y-116490645D01*
X135155700Y-116493802D01*
X134993802Y-116655700D01*
X134990645Y-116660208D01*
X134990643Y-116660211D01*
X134983789Y-116670000D01*
X134862477Y-116843251D01*
X134860154Y-116848233D01*
X134860151Y-116848238D01*
X134768039Y-117045775D01*
X134765716Y-117050757D01*
X134764294Y-117056065D01*
X134764293Y-117056067D01*
X134707881Y-117266598D01*
X134706457Y-117271913D01*
X134686502Y-117500000D01*
X128618500Y-117500000D01*
X128618500Y-116909594D01*
X128638502Y-116841473D01*
X128655405Y-116820499D01*
X129086752Y-116389152D01*
X129149064Y-116355126D01*
X129208459Y-116356541D01*
X129266591Y-116372118D01*
X129266602Y-116372120D01*
X129271913Y-116373543D01*
X129500000Y-116393498D01*
X129728087Y-116373543D01*
X129733400Y-116372119D01*
X129733402Y-116372119D01*
X129943933Y-116315707D01*
X129943935Y-116315706D01*
X129949243Y-116314284D01*
X129957279Y-116310537D01*
X130151762Y-116219849D01*
X130151767Y-116219846D01*
X130156749Y-116217523D01*
X130275509Y-116134366D01*
X130339789Y-116089357D01*
X130339792Y-116089355D01*
X130344300Y-116086198D01*
X130506198Y-115924300D01*
X130637523Y-115736749D01*
X130639846Y-115731767D01*
X130639849Y-115731762D01*
X130731961Y-115534225D01*
X130731961Y-115534224D01*
X130734284Y-115529243D01*
X130784694Y-115341114D01*
X130792119Y-115313402D01*
X130792119Y-115313400D01*
X130793543Y-115308087D01*
X130813498Y-115080000D01*
X130793543Y-114851913D01*
X130763510Y-114739829D01*
X130735707Y-114636067D01*
X130735706Y-114636065D01*
X130734284Y-114630757D01*
X130694657Y-114545775D01*
X130639849Y-114428238D01*
X130639846Y-114428233D01*
X130637523Y-114423251D01*
X130506198Y-114235700D01*
X130344300Y-114073802D01*
X130339792Y-114070645D01*
X130339789Y-114070643D01*
X130225537Y-113990643D01*
X130156749Y-113942477D01*
X130073580Y-113903695D01*
X130020295Y-113856778D01*
X130000834Y-113788501D01*
X130021376Y-113720541D01*
X130075398Y-113674475D01*
X130126830Y-113663500D01*
X131215406Y-113663500D01*
X131283527Y-113683502D01*
X131304501Y-113700405D01*
X132190848Y-114586752D01*
X132224874Y-114649064D01*
X132223459Y-114708459D01*
X132207882Y-114766591D01*
X132207881Y-114766598D01*
X132206457Y-114771913D01*
X132186502Y-115000000D01*
X132206457Y-115228087D01*
X132207881Y-115233400D01*
X132207881Y-115233402D01*
X132250357Y-115391921D01*
X132265716Y-115449243D01*
X132268039Y-115454224D01*
X132268039Y-115454225D01*
X132360151Y-115651762D01*
X132360154Y-115651767D01*
X132362477Y-115656749D01*
X132365634Y-115661257D01*
X132489585Y-115838277D01*
X132493802Y-115844300D01*
X132655700Y-116006198D01*
X132660208Y-116009355D01*
X132660211Y-116009357D01*
X132690535Y-116030590D01*
X132843251Y-116137523D01*
X132848233Y-116139846D01*
X132848238Y-116139849D01*
X133043075Y-116230702D01*
X133050757Y-116234284D01*
X133056065Y-116235706D01*
X133056067Y-116235707D01*
X133266598Y-116292119D01*
X133266600Y-116292119D01*
X133271913Y-116293543D01*
X133500000Y-116313498D01*
X133728087Y-116293543D01*
X133733400Y-116292119D01*
X133733402Y-116292119D01*
X133943933Y-116235707D01*
X133943935Y-116235706D01*
X133949243Y-116234284D01*
X133956925Y-116230702D01*
X134151762Y-116139849D01*
X134151767Y-116139846D01*
X134156749Y-116137523D01*
X134309465Y-116030590D01*
X134339789Y-116009357D01*
X134339792Y-116009355D01*
X134344300Y-116006198D01*
X134506198Y-115844300D01*
X134510416Y-115838277D01*
X134634366Y-115661257D01*
X134637523Y-115656749D01*
X134639846Y-115651767D01*
X134639849Y-115651762D01*
X134731961Y-115454225D01*
X134731961Y-115454224D01*
X134734284Y-115449243D01*
X134749644Y-115391921D01*
X134792119Y-115233402D01*
X134792119Y-115233400D01*
X134793543Y-115228087D01*
X134813498Y-115000000D01*
X134793543Y-114771913D01*
X134784946Y-114739829D01*
X134735707Y-114556067D01*
X134735706Y-114556065D01*
X134734284Y-114550757D01*
X134728167Y-114537639D01*
X134639849Y-114348238D01*
X134639846Y-114348233D01*
X134637523Y-114343251D01*
X134532484Y-114193240D01*
X134509357Y-114160211D01*
X134509355Y-114160208D01*
X134506198Y-114155700D01*
X134344300Y-113993802D01*
X134339792Y-113990645D01*
X134339789Y-113990643D01*
X134213682Y-113902342D01*
X134156749Y-113862477D01*
X134151767Y-113860154D01*
X134151762Y-113860151D01*
X133954225Y-113768039D01*
X133954224Y-113768039D01*
X133949243Y-113765716D01*
X133943935Y-113764294D01*
X133943933Y-113764293D01*
X133733402Y-113707881D01*
X133733400Y-113707881D01*
X133728087Y-113706457D01*
X133500000Y-113686502D01*
X133271913Y-113706457D01*
X133266602Y-113707880D01*
X133266591Y-113707882D01*
X133208459Y-113723459D01*
X133137483Y-113721770D01*
X133086752Y-113690848D01*
X132033652Y-112637747D01*
X132026112Y-112629461D01*
X132022000Y-112622982D01*
X131972348Y-112576356D01*
X131969507Y-112573602D01*
X131949770Y-112553865D01*
X131946573Y-112551385D01*
X131937551Y-112543680D01*
X131911100Y-112518841D01*
X131905321Y-112513414D01*
X131898375Y-112509595D01*
X131898372Y-112509593D01*
X131887566Y-112503652D01*
X131871047Y-112492801D01*
X131870583Y-112492441D01*
X131855041Y-112480386D01*
X131847772Y-112477241D01*
X131847768Y-112477238D01*
X131814463Y-112462826D01*
X131803813Y-112457609D01*
X131765060Y-112436305D01*
X131745437Y-112431267D01*
X131726734Y-112424863D01*
X131715420Y-112419967D01*
X131715419Y-112419967D01*
X131708145Y-112416819D01*
X131700322Y-112415580D01*
X131700312Y-112415577D01*
X131664476Y-112409901D01*
X131652856Y-112407495D01*
X131617711Y-112398472D01*
X131617710Y-112398472D01*
X131610030Y-112396500D01*
X131589776Y-112396500D01*
X131570065Y-112394949D01*
X131562325Y-112393723D01*
X131550057Y-112391780D01*
X131515063Y-112395088D01*
X131506039Y-112395941D01*
X131494181Y-112396500D01*
X125369594Y-112396500D01*
X125301473Y-112376498D01*
X125280499Y-112359595D01*
X122426218Y-109505313D01*
X122392192Y-109443001D01*
X122394755Y-109379589D01*
X122405865Y-109343022D01*
X122407370Y-109338069D01*
X122436529Y-109116590D01*
X122438156Y-109050000D01*
X122419852Y-108827361D01*
X122365431Y-108610702D01*
X122276354Y-108405840D01*
X122155014Y-108218277D01*
X122004670Y-108053051D01*
X122000619Y-108049852D01*
X122000615Y-108049848D01*
X121833414Y-107917800D01*
X121833410Y-107917798D01*
X121829359Y-107914598D01*
X121788053Y-107891796D01*
X121738084Y-107841364D01*
X121723312Y-107771921D01*
X121748428Y-107705516D01*
X121775780Y-107678909D01*
X121839667Y-107633339D01*
X121954860Y-107551173D01*
X121996823Y-107509357D01*
X122088785Y-107417715D01*
X122113096Y-107393489D01*
X122125877Y-107375703D01*
X122240435Y-107216277D01*
X122243453Y-107212077D01*
X122273263Y-107151762D01*
X122340136Y-107016453D01*
X122340137Y-107016451D01*
X122342430Y-107011811D01*
X122407370Y-106798069D01*
X122436529Y-106576590D01*
X122436611Y-106573240D01*
X122438074Y-106513365D01*
X122438074Y-106513361D01*
X122438156Y-106510000D01*
X122419852Y-106287361D01*
X122365431Y-106070702D01*
X122276354Y-105865840D01*
X122197237Y-105743544D01*
X122157822Y-105682617D01*
X122157820Y-105682614D01*
X122155014Y-105678277D01*
X122004670Y-105513051D01*
X122000619Y-105509852D01*
X122000615Y-105509848D01*
X121833414Y-105377800D01*
X121833410Y-105377798D01*
X121829359Y-105374598D01*
X121788053Y-105351796D01*
X121738084Y-105301364D01*
X121723312Y-105231921D01*
X121748428Y-105165516D01*
X121775780Y-105138909D01*
X121823300Y-105105013D01*
X121954860Y-105011173D01*
X122046352Y-104920000D01*
X123936502Y-104920000D01*
X123956457Y-105148087D01*
X123957881Y-105153400D01*
X123957881Y-105153402D01*
X124009567Y-105346293D01*
X124015716Y-105369243D01*
X124018039Y-105374224D01*
X124018039Y-105374225D01*
X124110151Y-105571762D01*
X124110154Y-105571767D01*
X124112477Y-105576749D01*
X124243802Y-105764300D01*
X124405700Y-105926198D01*
X124410208Y-105929355D01*
X124410211Y-105929357D01*
X124422125Y-105937699D01*
X124593251Y-106057523D01*
X124598233Y-106059846D01*
X124598238Y-106059849D01*
X124767163Y-106138619D01*
X124800757Y-106154284D01*
X124806065Y-106155706D01*
X124806067Y-106155707D01*
X125016598Y-106212119D01*
X125016600Y-106212119D01*
X125021913Y-106213543D01*
X125250000Y-106233498D01*
X125478087Y-106213543D01*
X125483400Y-106212119D01*
X125483402Y-106212119D01*
X125693933Y-106155707D01*
X125693935Y-106155706D01*
X125699243Y-106154284D01*
X125732837Y-106138619D01*
X125901762Y-106059849D01*
X125901767Y-106059846D01*
X125906749Y-106057523D01*
X126077875Y-105937699D01*
X126089789Y-105929357D01*
X126089792Y-105929355D01*
X126094300Y-105926198D01*
X126256198Y-105764300D01*
X126387523Y-105576749D01*
X126389846Y-105571767D01*
X126389849Y-105571762D01*
X126481961Y-105374225D01*
X126481961Y-105374224D01*
X126484284Y-105369243D01*
X126490434Y-105346293D01*
X126542119Y-105153402D01*
X126542119Y-105153400D01*
X126543543Y-105148087D01*
X126563498Y-104920000D01*
X128186502Y-104920000D01*
X128206457Y-105148087D01*
X128207881Y-105153400D01*
X128207881Y-105153402D01*
X128259567Y-105346293D01*
X128265716Y-105369243D01*
X128268039Y-105374224D01*
X128268039Y-105374225D01*
X128360151Y-105571762D01*
X128360154Y-105571767D01*
X128362477Y-105576749D01*
X128493802Y-105764300D01*
X128655700Y-105926198D01*
X128660208Y-105929355D01*
X128660211Y-105929357D01*
X128672125Y-105937699D01*
X128843251Y-106057523D01*
X128848233Y-106059846D01*
X128848238Y-106059849D01*
X129017163Y-106138619D01*
X129050757Y-106154284D01*
X129056065Y-106155706D01*
X129056067Y-106155707D01*
X129266598Y-106212119D01*
X129266600Y-106212119D01*
X129271913Y-106213543D01*
X129500000Y-106233498D01*
X129728087Y-106213543D01*
X129733400Y-106212119D01*
X129733402Y-106212119D01*
X129943933Y-106155707D01*
X129943935Y-106155706D01*
X129949243Y-106154284D01*
X129982837Y-106138619D01*
X130151762Y-106059849D01*
X130151767Y-106059846D01*
X130156749Y-106057523D01*
X130327875Y-105937699D01*
X130339789Y-105929357D01*
X130339792Y-105929355D01*
X130344300Y-105926198D01*
X130506198Y-105764300D01*
X130637523Y-105576749D01*
X130639846Y-105571767D01*
X130639849Y-105571762D01*
X130731961Y-105374225D01*
X130731961Y-105374224D01*
X130734284Y-105369243D01*
X130740434Y-105346293D01*
X130792119Y-105153402D01*
X130792119Y-105153400D01*
X130793543Y-105148087D01*
X130813498Y-104920000D01*
X130793543Y-104691913D01*
X130734284Y-104470757D01*
X130694657Y-104385775D01*
X130639849Y-104268238D01*
X130639846Y-104268233D01*
X130637523Y-104263251D01*
X130506198Y-104075700D01*
X130344300Y-103913802D01*
X130339792Y-103910645D01*
X130339789Y-103910643D01*
X130225537Y-103830643D01*
X130156749Y-103782477D01*
X130151767Y-103780154D01*
X130151762Y-103780151D01*
X129954225Y-103688039D01*
X129954224Y-103688039D01*
X129949243Y-103685716D01*
X129943935Y-103684294D01*
X129943933Y-103684293D01*
X129733402Y-103627881D01*
X129733400Y-103627881D01*
X129728087Y-103626457D01*
X129500000Y-103606502D01*
X129271913Y-103626457D01*
X129266600Y-103627881D01*
X129266598Y-103627881D01*
X129056067Y-103684293D01*
X129056065Y-103684294D01*
X129050757Y-103685716D01*
X129045776Y-103688039D01*
X129045775Y-103688039D01*
X128848238Y-103780151D01*
X128848233Y-103780154D01*
X128843251Y-103782477D01*
X128774463Y-103830643D01*
X128660211Y-103910643D01*
X128660208Y-103910645D01*
X128655700Y-103913802D01*
X128493802Y-104075700D01*
X128362477Y-104263251D01*
X128360154Y-104268233D01*
X128360151Y-104268238D01*
X128305343Y-104385775D01*
X128265716Y-104470757D01*
X128206457Y-104691913D01*
X128186502Y-104920000D01*
X126563498Y-104920000D01*
X126543543Y-104691913D01*
X126484284Y-104470757D01*
X126444657Y-104385775D01*
X126389849Y-104268238D01*
X126389846Y-104268233D01*
X126387523Y-104263251D01*
X126256198Y-104075700D01*
X126094300Y-103913802D01*
X126089792Y-103910645D01*
X126089789Y-103910643D01*
X125975537Y-103830643D01*
X125906749Y-103782477D01*
X125901767Y-103780154D01*
X125901762Y-103780151D01*
X125704225Y-103688039D01*
X125704224Y-103688039D01*
X125699243Y-103685716D01*
X125693935Y-103684294D01*
X125693933Y-103684293D01*
X125483402Y-103627881D01*
X125483400Y-103627881D01*
X125478087Y-103626457D01*
X125250000Y-103606502D01*
X125021913Y-103626457D01*
X125016600Y-103627881D01*
X125016598Y-103627881D01*
X124806067Y-103684293D01*
X124806065Y-103684294D01*
X124800757Y-103685716D01*
X124795776Y-103688039D01*
X124795775Y-103688039D01*
X124598238Y-103780151D01*
X124598233Y-103780154D01*
X124593251Y-103782477D01*
X124524463Y-103830643D01*
X124410211Y-103910643D01*
X124410208Y-103910645D01*
X124405700Y-103913802D01*
X124243802Y-104075700D01*
X124112477Y-104263251D01*
X124110154Y-104268233D01*
X124110151Y-104268238D01*
X124055343Y-104385775D01*
X124015716Y-104470757D01*
X123956457Y-104691913D01*
X123936502Y-104920000D01*
X122046352Y-104920000D01*
X122113096Y-104853489D01*
X122172594Y-104770689D01*
X122240435Y-104676277D01*
X122243453Y-104672077D01*
X122270480Y-104617393D01*
X122340136Y-104476453D01*
X122340137Y-104476451D01*
X122342430Y-104471811D01*
X122374900Y-104364940D01*
X122405865Y-104263023D01*
X122405865Y-104263021D01*
X122407370Y-104258069D01*
X122436529Y-104036590D01*
X122438156Y-103970000D01*
X122419852Y-103747361D01*
X122365431Y-103530702D01*
X122276354Y-103325840D01*
X122181089Y-103178583D01*
X122157822Y-103142617D01*
X122157820Y-103142614D01*
X122155014Y-103138277D01*
X122004670Y-102973051D01*
X122000619Y-102969852D01*
X122000615Y-102969848D01*
X121833414Y-102837800D01*
X121833410Y-102837798D01*
X121829359Y-102834598D01*
X121788053Y-102811796D01*
X121738084Y-102761364D01*
X121723312Y-102691921D01*
X121748428Y-102625516D01*
X121775780Y-102598909D01*
X121819603Y-102567650D01*
X121954860Y-102471173D01*
X122113096Y-102313489D01*
X122172594Y-102230689D01*
X122240435Y-102136277D01*
X122243453Y-102132077D01*
X122342430Y-101931811D01*
X122407370Y-101718069D01*
X122436529Y-101496590D01*
X122438156Y-101430000D01*
X122419852Y-101207361D01*
X122365431Y-100990702D01*
X122276354Y-100785840D01*
X122194561Y-100659407D01*
X122157822Y-100602617D01*
X122157820Y-100602614D01*
X122155014Y-100598277D01*
X122004670Y-100433051D01*
X122000619Y-100429852D01*
X122000615Y-100429848D01*
X121833414Y-100297800D01*
X121833410Y-100297798D01*
X121829359Y-100294598D01*
X121788053Y-100271796D01*
X121738084Y-100221364D01*
X121723312Y-100151921D01*
X121748428Y-100085516D01*
X121775780Y-100058909D01*
X121819603Y-100027650D01*
X121954860Y-99931173D01*
X121964719Y-99921349D01*
X122102212Y-99784335D01*
X122113096Y-99773489D01*
X122172594Y-99690689D01*
X122240435Y-99596277D01*
X122243453Y-99592077D01*
X122249246Y-99580357D01*
X122340136Y-99396453D01*
X122340137Y-99396451D01*
X122342430Y-99391811D01*
X122407370Y-99178069D01*
X122436529Y-98956590D01*
X122436611Y-98953240D01*
X122438074Y-98893365D01*
X122438074Y-98893348D01*
X122438156Y-98890000D01*
X122419852Y-98667361D01*
X122365431Y-98450702D01*
X122276354Y-98245840D01*
X122155014Y-98058277D01*
X122004670Y-97893051D01*
X122000619Y-97889852D01*
X122000615Y-97889848D01*
X121833414Y-97757800D01*
X121833410Y-97757798D01*
X121829359Y-97754598D01*
X121788053Y-97731796D01*
X121738084Y-97681364D01*
X121723312Y-97611921D01*
X121748428Y-97545516D01*
X121775780Y-97518909D01*
X121819603Y-97487650D01*
X121954860Y-97391173D01*
X122113096Y-97233489D01*
X122172594Y-97150689D01*
X122240435Y-97056277D01*
X122243453Y-97052077D01*
X122326215Y-96884621D01*
X122340136Y-96856453D01*
X122340137Y-96856451D01*
X122342430Y-96851811D01*
X122407370Y-96638069D01*
X122436529Y-96416590D01*
X122437264Y-96386507D01*
X122438074Y-96353365D01*
X122438074Y-96353361D01*
X122438156Y-96350000D01*
X122419852Y-96127361D01*
X122365431Y-95910702D01*
X122276354Y-95705840D01*
X122155014Y-95518277D01*
X122004670Y-95353051D01*
X122000619Y-95349852D01*
X122000615Y-95349848D01*
X121833414Y-95217800D01*
X121833410Y-95217798D01*
X121829359Y-95214598D01*
X121788053Y-95191796D01*
X121738084Y-95141364D01*
X121723312Y-95071921D01*
X121748428Y-95005516D01*
X121775780Y-94978909D01*
X121819603Y-94947650D01*
X121954860Y-94851173D01*
X122113096Y-94693489D01*
X122172594Y-94610689D01*
X122240435Y-94516277D01*
X122243453Y-94512077D01*
X122259508Y-94479593D01*
X122340136Y-94316453D01*
X122340137Y-94316451D01*
X122342430Y-94311811D01*
X122407370Y-94098069D01*
X122436529Y-93876590D01*
X122437264Y-93846507D01*
X122438074Y-93813365D01*
X122438074Y-93813361D01*
X122438156Y-93810000D01*
X122419852Y-93587361D01*
X122365431Y-93370702D01*
X122276354Y-93165840D01*
X122155014Y-92978277D01*
X122004670Y-92813051D01*
X122000619Y-92809852D01*
X122000615Y-92809848D01*
X121833414Y-92677800D01*
X121833410Y-92677798D01*
X121829359Y-92674598D01*
X121788053Y-92651796D01*
X121738084Y-92601364D01*
X121723312Y-92531921D01*
X121748428Y-92465516D01*
X121775780Y-92438909D01*
X121819603Y-92407650D01*
X121954860Y-92311173D01*
X122113096Y-92153489D01*
X122172594Y-92070689D01*
X122240435Y-91976277D01*
X122243453Y-91972077D01*
X122342430Y-91771811D01*
X122396343Y-91594363D01*
X122435282Y-91535001D01*
X122500136Y-91506114D01*
X122570313Y-91516875D01*
X122605995Y-91541899D01*
X128149778Y-97085682D01*
X128183804Y-97147994D01*
X128182100Y-97208448D01*
X128160989Y-97284570D01*
X128137251Y-97506695D01*
X128137548Y-97511848D01*
X128137548Y-97511851D01*
X128144412Y-97630897D01*
X128150110Y-97729715D01*
X128151247Y-97734761D01*
X128151248Y-97734767D01*
X128156439Y-97757800D01*
X128199222Y-97947639D01*
X128283266Y-98154616D01*
X128285965Y-98159020D01*
X128336504Y-98241492D01*
X128399987Y-98345088D01*
X128546250Y-98513938D01*
X128718126Y-98656632D01*
X128911000Y-98769338D01*
X129119692Y-98849030D01*
X129124753Y-98850060D01*
X129124768Y-98850064D01*
X129149616Y-98855119D01*
X129213590Y-98889494D01*
X133639424Y-103315328D01*
X133673450Y-103377640D01*
X133668385Y-103448455D01*
X133625838Y-103505291D01*
X133559318Y-103530102D01*
X133539349Y-103529944D01*
X133505478Y-103526981D01*
X133505475Y-103526981D01*
X133500000Y-103526502D01*
X133271913Y-103546457D01*
X133266600Y-103547881D01*
X133266598Y-103547881D01*
X133056067Y-103604293D01*
X133056065Y-103604294D01*
X133050757Y-103605716D01*
X133045776Y-103608039D01*
X133045775Y-103608039D01*
X132848238Y-103700151D01*
X132848233Y-103700154D01*
X132843251Y-103702477D01*
X132786318Y-103742342D01*
X132660211Y-103830643D01*
X132660208Y-103830645D01*
X132655700Y-103833802D01*
X132493802Y-103995700D01*
X132362477Y-104183251D01*
X132360154Y-104188233D01*
X132360151Y-104188238D01*
X132271833Y-104377639D01*
X132265716Y-104390757D01*
X132264294Y-104396065D01*
X132264293Y-104396067D01*
X132215054Y-104579829D01*
X132206457Y-104611913D01*
X132186502Y-104840000D01*
X132206457Y-105068087D01*
X132207881Y-105073400D01*
X132207881Y-105073402D01*
X132259031Y-105264293D01*
X132265716Y-105289243D01*
X132268039Y-105294224D01*
X132268039Y-105294225D01*
X132360151Y-105491762D01*
X132360154Y-105491767D01*
X132362477Y-105496749D01*
X132371649Y-105509848D01*
X132489585Y-105678277D01*
X132493802Y-105684300D01*
X132655700Y-105846198D01*
X132660208Y-105849355D01*
X132660211Y-105849357D01*
X132690535Y-105870590D01*
X132843251Y-105977523D01*
X132848233Y-105979846D01*
X132848238Y-105979849D01*
X133032893Y-106065954D01*
X133050757Y-106074284D01*
X133056065Y-106075706D01*
X133056067Y-106075707D01*
X133266598Y-106132119D01*
X133266600Y-106132119D01*
X133271913Y-106133543D01*
X133500000Y-106153498D01*
X133728087Y-106133543D01*
X133733400Y-106132119D01*
X133733402Y-106132119D01*
X133943933Y-106075707D01*
X133943935Y-106075706D01*
X133949243Y-106074284D01*
X133967107Y-106065954D01*
X134151762Y-105979849D01*
X134151767Y-105979846D01*
X134156749Y-105977523D01*
X134309465Y-105870590D01*
X134339789Y-105849357D01*
X134339792Y-105849355D01*
X134344300Y-105846198D01*
X134506198Y-105684300D01*
X134510416Y-105678277D01*
X134628351Y-105509848D01*
X134637523Y-105496749D01*
X134639846Y-105491767D01*
X134639849Y-105491762D01*
X134731961Y-105294225D01*
X134731961Y-105294224D01*
X134734284Y-105289243D01*
X134740970Y-105264293D01*
X134792119Y-105073402D01*
X134792119Y-105073400D01*
X134793543Y-105068087D01*
X134813498Y-104840000D01*
X134813019Y-104834522D01*
X134810056Y-104800651D01*
X134824046Y-104731047D01*
X134873446Y-104680055D01*
X134942572Y-104663865D01*
X135009477Y-104687618D01*
X135024672Y-104700576D01*
X136199483Y-105875387D01*
X136233509Y-105937699D01*
X136236388Y-105964482D01*
X136236388Y-107348134D01*
X136243143Y-107410316D01*
X136294273Y-107546705D01*
X136381627Y-107663261D01*
X136498183Y-107750615D01*
X136634572Y-107801745D01*
X136696754Y-107808500D01*
X138393022Y-107808500D01*
X138455204Y-107801745D01*
X138591593Y-107750615D01*
X138708149Y-107663261D01*
X138713530Y-107656081D01*
X138719880Y-107649731D01*
X138722120Y-107651971D01*
X138766453Y-107618829D01*
X138837272Y-107613810D01*
X138878678Y-107631949D01*
X138878869Y-107631617D01*
X138881852Y-107633339D01*
X138882685Y-107633704D01*
X138888139Y-107637523D01*
X138893121Y-107639846D01*
X138893126Y-107639849D01*
X139090663Y-107731961D01*
X139095645Y-107734284D01*
X139100953Y-107735706D01*
X139100955Y-107735707D01*
X139311486Y-107792119D01*
X139311488Y-107792119D01*
X139316801Y-107793543D01*
X139544888Y-107813498D01*
X139772975Y-107793543D01*
X139778288Y-107792119D01*
X139778290Y-107792119D01*
X139988821Y-107735707D01*
X139988823Y-107735706D01*
X139994131Y-107734284D01*
X139999113Y-107731961D01*
X140196650Y-107639849D01*
X140196655Y-107639846D01*
X140201637Y-107637523D01*
X140324957Y-107551173D01*
X140384677Y-107509357D01*
X140384680Y-107509355D01*
X140389188Y-107506198D01*
X140551086Y-107344300D01*
X140568809Y-107318990D01*
X140679254Y-107161257D01*
X140682411Y-107156749D01*
X140684734Y-107151767D01*
X140684737Y-107151762D01*
X140776849Y-106954225D01*
X140776849Y-106954224D01*
X140779172Y-106949243D01*
X140787641Y-106917639D01*
X140837007Y-106733402D01*
X140837007Y-106733400D01*
X140838431Y-106728087D01*
X140858386Y-106500000D01*
X140858141Y-106497203D01*
X140877909Y-106429880D01*
X140931565Y-106383387D01*
X141001839Y-106373283D01*
X141066419Y-106402777D01*
X141073002Y-106408906D01*
X141607085Y-106942989D01*
X141641111Y-107005301D01*
X141643990Y-107032084D01*
X141643990Y-112393723D01*
X141643463Y-112404906D01*
X141641788Y-112412399D01*
X141642037Y-112420325D01*
X141642037Y-112420326D01*
X141643928Y-112480476D01*
X141643990Y-112484435D01*
X141643990Y-112512346D01*
X141644487Y-112516280D01*
X141644487Y-112516281D01*
X141644495Y-112516346D01*
X141645428Y-112528183D01*
X141646817Y-112572379D01*
X141652468Y-112591829D01*
X141656477Y-112611190D01*
X141659016Y-112631287D01*
X141661935Y-112638658D01*
X141661935Y-112638660D01*
X141675294Y-112672402D01*
X141679139Y-112683632D01*
X141691472Y-112726083D01*
X141695505Y-112732902D01*
X141695507Y-112732907D01*
X141701783Y-112743518D01*
X141710478Y-112761266D01*
X141717938Y-112780107D01*
X141722600Y-112786523D01*
X141722600Y-112786524D01*
X141743926Y-112815877D01*
X141750442Y-112825797D01*
X141772948Y-112863852D01*
X141787269Y-112878173D01*
X141800109Y-112893206D01*
X141812018Y-112909597D01*
X141818124Y-112914648D01*
X141846095Y-112937788D01*
X141854874Y-112945778D01*
X145124778Y-116215682D01*
X145158804Y-116277994D01*
X145157100Y-116338448D01*
X145135989Y-116414570D01*
X145135441Y-116419700D01*
X145135440Y-116419704D01*
X145131933Y-116452522D01*
X145112251Y-116636695D01*
X145112548Y-116641848D01*
X145112548Y-116641851D01*
X145118011Y-116736590D01*
X145125110Y-116859715D01*
X145126247Y-116864761D01*
X145126248Y-116864767D01*
X145136351Y-116909594D01*
X145174222Y-117077639D01*
X145258266Y-117284616D01*
X145374987Y-117475088D01*
X145521250Y-117643938D01*
X145693126Y-117786632D01*
X145763595Y-117827811D01*
X145766445Y-117829476D01*
X145815169Y-117881114D01*
X145828240Y-117950897D01*
X145801509Y-118016669D01*
X145761055Y-118050027D01*
X145748607Y-118056507D01*
X145744474Y-118059610D01*
X145744471Y-118059612D01*
X145574100Y-118187530D01*
X145569965Y-118190635D01*
X145415629Y-118352138D01*
X145289743Y-118536680D01*
X145274003Y-118570590D01*
X145198019Y-118734284D01*
X145195688Y-118739305D01*
X145135989Y-118954570D01*
X145112251Y-119176695D01*
X145112548Y-119181848D01*
X145112548Y-119181851D01*
X145118011Y-119276590D01*
X145125110Y-119399715D01*
X145126247Y-119404761D01*
X145126248Y-119404767D01*
X145146119Y-119492939D01*
X145174222Y-119617639D01*
X145258266Y-119824616D01*
X145374987Y-120015088D01*
X145521250Y-120183938D01*
X145693126Y-120326632D01*
X145763595Y-120367811D01*
X145766445Y-120369476D01*
X145815169Y-120421114D01*
X145828240Y-120490897D01*
X145801509Y-120556669D01*
X145761055Y-120590027D01*
X145748607Y-120596507D01*
X145744474Y-120599610D01*
X145744471Y-120599612D01*
X145720247Y-120617800D01*
X145569965Y-120730635D01*
X145415629Y-120892138D01*
X145289743Y-121076680D01*
X145195688Y-121279305D01*
X145135989Y-121494570D01*
X145112251Y-121716695D01*
X145112548Y-121721848D01*
X145112548Y-121721851D01*
X145118011Y-121816590D01*
X145125110Y-121939715D01*
X145126247Y-121944761D01*
X145126248Y-121944767D01*
X145146119Y-122032939D01*
X145174222Y-122157639D01*
X145258266Y-122364616D01*
X145374987Y-122555088D01*
X145521250Y-122723938D01*
X145693126Y-122866632D01*
X145763595Y-122907811D01*
X145766445Y-122909476D01*
X145815169Y-122961114D01*
X145828240Y-123030897D01*
X145801509Y-123096669D01*
X145761055Y-123130027D01*
X145748607Y-123136507D01*
X145744474Y-123139610D01*
X145744471Y-123139612D01*
X145720247Y-123157800D01*
X145569965Y-123270635D01*
X145415629Y-123432138D01*
X145289743Y-123616680D01*
X145274003Y-123650590D01*
X145200567Y-123808795D01*
X145195688Y-123819305D01*
X145135989Y-124034570D01*
X145112251Y-124256695D01*
X145112548Y-124261848D01*
X145112548Y-124261851D01*
X145123764Y-124456375D01*
X145125110Y-124479715D01*
X145126247Y-124484761D01*
X145126248Y-124484767D01*
X145146119Y-124572939D01*
X145174222Y-124697639D01*
X145212461Y-124791811D01*
X145243938Y-124869329D01*
X145258266Y-124904616D01*
X145374987Y-125095088D01*
X145521250Y-125263938D01*
X145693126Y-125406632D01*
X145704142Y-125413069D01*
X145766445Y-125449476D01*
X145815169Y-125501114D01*
X145828240Y-125570897D01*
X145801509Y-125636669D01*
X145761055Y-125670027D01*
X145748607Y-125676507D01*
X145744474Y-125679610D01*
X145744471Y-125679612D01*
X145574100Y-125807530D01*
X145569965Y-125810635D01*
X145415629Y-125972138D01*
X145412715Y-125976410D01*
X145412714Y-125976411D01*
X145357104Y-126057933D01*
X145289743Y-126156680D01*
X145274003Y-126190590D01*
X145197994Y-126354338D01*
X145195688Y-126359305D01*
X145135989Y-126574570D01*
X145112251Y-126796695D01*
X145112548Y-126801848D01*
X145112548Y-126801851D01*
X145118011Y-126896590D01*
X145125110Y-127019715D01*
X145126247Y-127024761D01*
X145126248Y-127024767D01*
X145146119Y-127112939D01*
X145174222Y-127237639D01*
X145258266Y-127444616D01*
X145374987Y-127635088D01*
X145521250Y-127803938D01*
X145693126Y-127946632D01*
X145763595Y-127987811D01*
X145766445Y-127989476D01*
X145815169Y-128041114D01*
X145828240Y-128110897D01*
X145801509Y-128176669D01*
X145761055Y-128210027D01*
X145748607Y-128216507D01*
X145744474Y-128219610D01*
X145744471Y-128219612D01*
X145720247Y-128237800D01*
X145569965Y-128350635D01*
X145415629Y-128512138D01*
X145289743Y-128696680D01*
X145195688Y-128899305D01*
X145135989Y-129114570D01*
X145112251Y-129336695D01*
X145112548Y-129341848D01*
X145112548Y-129341851D01*
X145118011Y-129436590D01*
X145125110Y-129559715D01*
X145126247Y-129564761D01*
X145126248Y-129564767D01*
X145146119Y-129652939D01*
X145174222Y-129777639D01*
X145258266Y-129984616D01*
X145374987Y-130175088D01*
X145521250Y-130343938D01*
X145693126Y-130486632D01*
X145763595Y-130527811D01*
X145766445Y-130529476D01*
X145815169Y-130581114D01*
X145828240Y-130650897D01*
X145801509Y-130716669D01*
X145761055Y-130750027D01*
X145748607Y-130756507D01*
X145744474Y-130759610D01*
X145744471Y-130759612D01*
X145720247Y-130777800D01*
X145569965Y-130890635D01*
X145415629Y-131052138D01*
X145412715Y-131056410D01*
X145412714Y-131056411D01*
X145400404Y-131074457D01*
X145289743Y-131236680D01*
X145195688Y-131439305D01*
X145135989Y-131654570D01*
X145112251Y-131876695D01*
X145112548Y-131881848D01*
X145112548Y-131881851D01*
X145118011Y-131976590D01*
X145125110Y-132099715D01*
X145126247Y-132104761D01*
X145126248Y-132104767D01*
X145140449Y-132167778D01*
X145174222Y-132317639D01*
X145258266Y-132524616D01*
X145374987Y-132715088D01*
X145521250Y-132883938D01*
X145693126Y-133026632D01*
X145886000Y-133139338D01*
X146094692Y-133219030D01*
X146099760Y-133220061D01*
X146099763Y-133220062D01*
X146194862Y-133239410D01*
X146313597Y-133263567D01*
X146318772Y-133263757D01*
X146318774Y-133263757D01*
X146531673Y-133271564D01*
X146531677Y-133271564D01*
X146536837Y-133271753D01*
X146541957Y-133271097D01*
X146541959Y-133271097D01*
X146753288Y-133244025D01*
X146753289Y-133244025D01*
X146758416Y-133243368D01*
X146763366Y-133241883D01*
X146967429Y-133180661D01*
X146967434Y-133180659D01*
X146972384Y-133179174D01*
X147172994Y-133080896D01*
X147354860Y-132951173D01*
X147513096Y-132793489D01*
X147572594Y-132710689D01*
X147640435Y-132616277D01*
X147643453Y-132612077D01*
X147742430Y-132411811D01*
X147807370Y-132198069D01*
X147836529Y-131976590D01*
X147838156Y-131910000D01*
X147819852Y-131687361D01*
X147765431Y-131470702D01*
X147676354Y-131265840D01*
X147555014Y-131078277D01*
X147404670Y-130913051D01*
X147400619Y-130909852D01*
X147400615Y-130909848D01*
X147233414Y-130777800D01*
X147233410Y-130777798D01*
X147229359Y-130774598D01*
X147188053Y-130751796D01*
X147138084Y-130701364D01*
X147123312Y-130631921D01*
X147148428Y-130565516D01*
X147175780Y-130538909D01*
X147219603Y-130507650D01*
X147354860Y-130411173D01*
X147513096Y-130253489D01*
X147572594Y-130170689D01*
X147640435Y-130076277D01*
X147643453Y-130072077D01*
X147742430Y-129871811D01*
X147807370Y-129658069D01*
X147836529Y-129436590D01*
X147838156Y-129370000D01*
X147819852Y-129147361D01*
X147765431Y-128930702D01*
X147676354Y-128725840D01*
X147555014Y-128538277D01*
X147404670Y-128373051D01*
X147400619Y-128369852D01*
X147400615Y-128369848D01*
X147233414Y-128237800D01*
X147233410Y-128237798D01*
X147229359Y-128234598D01*
X147188053Y-128211796D01*
X147138084Y-128161364D01*
X147123312Y-128091921D01*
X147148428Y-128025516D01*
X147175780Y-127998909D01*
X147219603Y-127967650D01*
X147354860Y-127871173D01*
X147513096Y-127713489D01*
X147572594Y-127630689D01*
X147640435Y-127536277D01*
X147643453Y-127532077D01*
X147742430Y-127331811D01*
X147807370Y-127118069D01*
X147836529Y-126896590D01*
X147838156Y-126830000D01*
X147819852Y-126607361D01*
X147765431Y-126390702D01*
X147676354Y-126185840D01*
X147568855Y-126019672D01*
X147557822Y-126002617D01*
X147557820Y-126002614D01*
X147555014Y-125998277D01*
X147404670Y-125833051D01*
X147400619Y-125829852D01*
X147400615Y-125829848D01*
X147233414Y-125697800D01*
X147233410Y-125697798D01*
X147229359Y-125694598D01*
X147188053Y-125671796D01*
X147138084Y-125621364D01*
X147123312Y-125551921D01*
X147148428Y-125485516D01*
X147175780Y-125458909D01*
X147240045Y-125413069D01*
X147354860Y-125331173D01*
X147513096Y-125173489D01*
X147572594Y-125090689D01*
X147640435Y-124996277D01*
X147643453Y-124992077D01*
X147704000Y-124869570D01*
X147740136Y-124796453D01*
X147740137Y-124796451D01*
X147742430Y-124791811D01*
X147807370Y-124578069D01*
X147836529Y-124356590D01*
X147838156Y-124290000D01*
X147819852Y-124067361D01*
X147765431Y-123850702D01*
X147676354Y-123645840D01*
X147555014Y-123458277D01*
X147404670Y-123293051D01*
X147400619Y-123289852D01*
X147400615Y-123289848D01*
X147233414Y-123157800D01*
X147233410Y-123157798D01*
X147229359Y-123154598D01*
X147188053Y-123131796D01*
X147138084Y-123081364D01*
X147123312Y-123011921D01*
X147148428Y-122945516D01*
X147175780Y-122918909D01*
X147219603Y-122887650D01*
X147354860Y-122791173D01*
X147513096Y-122633489D01*
X147572594Y-122550689D01*
X147640435Y-122456277D01*
X147643453Y-122452077D01*
X147742430Y-122251811D01*
X147807370Y-122038069D01*
X147836529Y-121816590D01*
X147838156Y-121750000D01*
X147819852Y-121527361D01*
X147765431Y-121310702D01*
X147676354Y-121105840D01*
X147555014Y-120918277D01*
X147404670Y-120753051D01*
X147400619Y-120749852D01*
X147400615Y-120749848D01*
X147233414Y-120617800D01*
X147233410Y-120617798D01*
X147229359Y-120614598D01*
X147188053Y-120591796D01*
X147138084Y-120541364D01*
X147123312Y-120471921D01*
X147148428Y-120405516D01*
X147175780Y-120378909D01*
X147219603Y-120347650D01*
X147354860Y-120251173D01*
X147513096Y-120093489D01*
X147572594Y-120010689D01*
X147640435Y-119916277D01*
X147643453Y-119912077D01*
X147742430Y-119711811D01*
X147807370Y-119498069D01*
X147836529Y-119276590D01*
X147838156Y-119210000D01*
X147819852Y-118987361D01*
X147765431Y-118770702D01*
X147676354Y-118565840D01*
X147555014Y-118378277D01*
X147404670Y-118213051D01*
X147400619Y-118209852D01*
X147400615Y-118209848D01*
X147233414Y-118077800D01*
X147233410Y-118077798D01*
X147229359Y-118074598D01*
X147188053Y-118051796D01*
X147138084Y-118001364D01*
X147123312Y-117931921D01*
X147148428Y-117865516D01*
X147175780Y-117838909D01*
X147219603Y-117807650D01*
X147354860Y-117711173D01*
X147513096Y-117553489D01*
X147572594Y-117470689D01*
X147640435Y-117376277D01*
X147643453Y-117372077D01*
X147690249Y-117277393D01*
X147740136Y-117176453D01*
X147740137Y-117176451D01*
X147742430Y-117171811D01*
X147807370Y-116958069D01*
X147836529Y-116736590D01*
X147838156Y-116670000D01*
X147819852Y-116447361D01*
X147765431Y-116230702D01*
X147676354Y-116025840D01*
X147561432Y-115848197D01*
X147557822Y-115842617D01*
X147557820Y-115842614D01*
X147555014Y-115838277D01*
X147404670Y-115673051D01*
X147400619Y-115669852D01*
X147400615Y-115669848D01*
X147233414Y-115537800D01*
X147233410Y-115537798D01*
X147229359Y-115534598D01*
X147188053Y-115511796D01*
X147138084Y-115461364D01*
X147123312Y-115391921D01*
X147148428Y-115325516D01*
X147175780Y-115298909D01*
X147219603Y-115267650D01*
X147354860Y-115171173D01*
X147513096Y-115013489D01*
X147572594Y-114930689D01*
X147640435Y-114836277D01*
X147643453Y-114832077D01*
X147670480Y-114777393D01*
X147740136Y-114636453D01*
X147740137Y-114636451D01*
X147742430Y-114631811D01*
X147774900Y-114524940D01*
X147805865Y-114423023D01*
X147805865Y-114423021D01*
X147807370Y-114418069D01*
X147836529Y-114196590D01*
X147838156Y-114130000D01*
X147819852Y-113907361D01*
X147765431Y-113690702D01*
X147676354Y-113485840D01*
X147555014Y-113298277D01*
X147404670Y-113133051D01*
X147400619Y-113129852D01*
X147400615Y-113129848D01*
X147233414Y-112997800D01*
X147233410Y-112997798D01*
X147229359Y-112994598D01*
X147188053Y-112971796D01*
X147138084Y-112921364D01*
X147123312Y-112851921D01*
X147148428Y-112785516D01*
X147175780Y-112758909D01*
X147232469Y-112718473D01*
X147354860Y-112631173D01*
X147384787Y-112601351D01*
X147442659Y-112543680D01*
X147513096Y-112473489D01*
X147524511Y-112457604D01*
X147640435Y-112296277D01*
X147643453Y-112292077D01*
X147665737Y-112246990D01*
X147740136Y-112096453D01*
X147740137Y-112096451D01*
X147742430Y-112091811D01*
X147774900Y-111984940D01*
X147805865Y-111883023D01*
X147805865Y-111883021D01*
X147807370Y-111878069D01*
X147836529Y-111656590D01*
X147838156Y-111590000D01*
X147819852Y-111367361D01*
X147765431Y-111150702D01*
X147676354Y-110945840D01*
X147555014Y-110758277D01*
X147404670Y-110593051D01*
X147400619Y-110589852D01*
X147400615Y-110589848D01*
X147233414Y-110457800D01*
X147233410Y-110457798D01*
X147229359Y-110454598D01*
X147188053Y-110431796D01*
X147138084Y-110381364D01*
X147123312Y-110311921D01*
X147148428Y-110245516D01*
X147175780Y-110218909D01*
X147219603Y-110187650D01*
X147354860Y-110091173D01*
X147513096Y-109933489D01*
X147572594Y-109850689D01*
X147640435Y-109756277D01*
X147643453Y-109752077D01*
X147742430Y-109551811D01*
X147807370Y-109338069D01*
X147836529Y-109116590D01*
X147838156Y-109050000D01*
X147819852Y-108827361D01*
X147765431Y-108610702D01*
X147676354Y-108405840D01*
X147555014Y-108218277D01*
X147404670Y-108053051D01*
X147400619Y-108049852D01*
X147400615Y-108049848D01*
X147233414Y-107917800D01*
X147233410Y-107917798D01*
X147229359Y-107914598D01*
X147188053Y-107891796D01*
X147138084Y-107841364D01*
X147123312Y-107771921D01*
X147148428Y-107705516D01*
X147175780Y-107678909D01*
X147239667Y-107633339D01*
X147354860Y-107551173D01*
X147396823Y-107509357D01*
X147488785Y-107417715D01*
X147513096Y-107393489D01*
X147525877Y-107375703D01*
X147640435Y-107216277D01*
X147643453Y-107212077D01*
X147673263Y-107151762D01*
X147740136Y-107016453D01*
X147740137Y-107016451D01*
X147742430Y-107011811D01*
X147807370Y-106798069D01*
X147836529Y-106576590D01*
X147836611Y-106573240D01*
X147838074Y-106513365D01*
X147838074Y-106513361D01*
X147838156Y-106510000D01*
X147819852Y-106287361D01*
X147765431Y-106070702D01*
X147676354Y-105865840D01*
X147597237Y-105743544D01*
X147557822Y-105682617D01*
X147557820Y-105682614D01*
X147555014Y-105678277D01*
X147404670Y-105513051D01*
X147400619Y-105509852D01*
X147400615Y-105509848D01*
X147233414Y-105377800D01*
X147233410Y-105377798D01*
X147229359Y-105374598D01*
X147188053Y-105351796D01*
X147138084Y-105301364D01*
X147123312Y-105231921D01*
X147148428Y-105165516D01*
X147175780Y-105138909D01*
X147223300Y-105105013D01*
X147354860Y-105011173D01*
X147513096Y-104853489D01*
X147572594Y-104770689D01*
X147640435Y-104676277D01*
X147643453Y-104672077D01*
X147670480Y-104617393D01*
X147740136Y-104476453D01*
X147740137Y-104476451D01*
X147742430Y-104471811D01*
X147774900Y-104364940D01*
X147805865Y-104263023D01*
X147805865Y-104263021D01*
X147807370Y-104258069D01*
X147836529Y-104036590D01*
X147838156Y-103970000D01*
X147819852Y-103747361D01*
X147765431Y-103530702D01*
X147676354Y-103325840D01*
X147581089Y-103178583D01*
X147557822Y-103142617D01*
X147557820Y-103142614D01*
X147555014Y-103138277D01*
X147404670Y-102973051D01*
X147400619Y-102969852D01*
X147400615Y-102969848D01*
X147233414Y-102837800D01*
X147233410Y-102837798D01*
X147229359Y-102834598D01*
X147188053Y-102811796D01*
X147138084Y-102761364D01*
X147123312Y-102691921D01*
X147148428Y-102625516D01*
X147175780Y-102598909D01*
X147219603Y-102567650D01*
X147354860Y-102471173D01*
X147513096Y-102313489D01*
X147572594Y-102230689D01*
X147640435Y-102136277D01*
X147643453Y-102132077D01*
X147742430Y-101931811D01*
X147807370Y-101718069D01*
X147836529Y-101496590D01*
X147838156Y-101430000D01*
X147819852Y-101207361D01*
X147765431Y-100990702D01*
X147676354Y-100785840D01*
X147594561Y-100659407D01*
X147557822Y-100602617D01*
X147557820Y-100602614D01*
X147555014Y-100598277D01*
X147404670Y-100433051D01*
X147400619Y-100429852D01*
X147400615Y-100429848D01*
X147233414Y-100297800D01*
X147233410Y-100297798D01*
X147229359Y-100294598D01*
X147188053Y-100271796D01*
X147138084Y-100221364D01*
X147123312Y-100151921D01*
X147148428Y-100085516D01*
X147175780Y-100058909D01*
X147219603Y-100027650D01*
X147354860Y-99931173D01*
X147364719Y-99921349D01*
X147502212Y-99784335D01*
X147513096Y-99773489D01*
X147572594Y-99690689D01*
X147640435Y-99596277D01*
X147643453Y-99592077D01*
X147649246Y-99580357D01*
X147740136Y-99396453D01*
X147740137Y-99396451D01*
X147742430Y-99391811D01*
X147807370Y-99178069D01*
X147836529Y-98956590D01*
X147836611Y-98953240D01*
X147838074Y-98893365D01*
X147838074Y-98893348D01*
X147838156Y-98890000D01*
X147819852Y-98667361D01*
X147765431Y-98450702D01*
X147676354Y-98245840D01*
X147555014Y-98058277D01*
X147404670Y-97893051D01*
X147400619Y-97889852D01*
X147400615Y-97889848D01*
X147233414Y-97757800D01*
X147233410Y-97757798D01*
X147229359Y-97754598D01*
X147188053Y-97731796D01*
X147138084Y-97681364D01*
X147123312Y-97611921D01*
X147148428Y-97545516D01*
X147175780Y-97518909D01*
X147219603Y-97487650D01*
X147354860Y-97391173D01*
X147513096Y-97233489D01*
X147572594Y-97150689D01*
X147640435Y-97056277D01*
X147643453Y-97052077D01*
X147726215Y-96884621D01*
X147740136Y-96856453D01*
X147740137Y-96856451D01*
X147742430Y-96851811D01*
X147807370Y-96638069D01*
X147836529Y-96416590D01*
X147837264Y-96386507D01*
X147838074Y-96353365D01*
X147838074Y-96353361D01*
X147838156Y-96350000D01*
X147819852Y-96127361D01*
X147765431Y-95910702D01*
X147676354Y-95705840D01*
X147555014Y-95518277D01*
X147404670Y-95353051D01*
X147400619Y-95349852D01*
X147400615Y-95349848D01*
X147233414Y-95217800D01*
X147233410Y-95217798D01*
X147229359Y-95214598D01*
X147188053Y-95191796D01*
X147138084Y-95141364D01*
X147123312Y-95071921D01*
X147148428Y-95005516D01*
X147175780Y-94978909D01*
X147219603Y-94947650D01*
X147354860Y-94851173D01*
X147513096Y-94693489D01*
X147572594Y-94610689D01*
X147640435Y-94516277D01*
X147643453Y-94512077D01*
X147659508Y-94479593D01*
X147740136Y-94316453D01*
X147740137Y-94316451D01*
X147742430Y-94311811D01*
X147807370Y-94098069D01*
X147836529Y-93876590D01*
X147837264Y-93846507D01*
X147838074Y-93813365D01*
X147838074Y-93813361D01*
X147838156Y-93810000D01*
X147819852Y-93587361D01*
X147765431Y-93370702D01*
X147676354Y-93165840D01*
X147555014Y-92978277D01*
X147404670Y-92813051D01*
X147400619Y-92809852D01*
X147400615Y-92809848D01*
X147233414Y-92677800D01*
X147233410Y-92677798D01*
X147229359Y-92674598D01*
X147188053Y-92651796D01*
X147138084Y-92601364D01*
X147123312Y-92531921D01*
X147148428Y-92465516D01*
X147175780Y-92438909D01*
X147219603Y-92407650D01*
X147354860Y-92311173D01*
X147513096Y-92153489D01*
X147572594Y-92070689D01*
X147640435Y-91976277D01*
X147643453Y-91972077D01*
X147742430Y-91771811D01*
X147779432Y-91650024D01*
X147805865Y-91563023D01*
X147805865Y-91563021D01*
X147807370Y-91558069D01*
X147836529Y-91336590D01*
X147838156Y-91270000D01*
X147819852Y-91047361D01*
X147765431Y-90830702D01*
X147676354Y-90625840D01*
X147623674Y-90544409D01*
X147557822Y-90442617D01*
X147557820Y-90442614D01*
X147555014Y-90438277D01*
X147404670Y-90273051D01*
X147400619Y-90269852D01*
X147400615Y-90269848D01*
X147233414Y-90137800D01*
X147233410Y-90137798D01*
X147229359Y-90134598D01*
X147188053Y-90111796D01*
X147138084Y-90061364D01*
X147123312Y-89991921D01*
X147148428Y-89925516D01*
X147175780Y-89898909D01*
X147219603Y-89867650D01*
X147354860Y-89771173D01*
X147513096Y-89613489D01*
X147572594Y-89530689D01*
X147640435Y-89436277D01*
X147643453Y-89432077D01*
X147672698Y-89372905D01*
X147740136Y-89236453D01*
X147740137Y-89236451D01*
X147742430Y-89231811D01*
X147807370Y-89018069D01*
X147836529Y-88796590D01*
X147838156Y-88730000D01*
X147819852Y-88507361D01*
X147765431Y-88290702D01*
X147676354Y-88085840D01*
X147555014Y-87898277D01*
X147551532Y-87894450D01*
X147407798Y-87736488D01*
X147376746Y-87672642D01*
X147385141Y-87602143D01*
X147430317Y-87547375D01*
X147456761Y-87533706D01*
X147563297Y-87493767D01*
X147571705Y-87490615D01*
X147688261Y-87403261D01*
X147775615Y-87286705D01*
X147826745Y-87150316D01*
X147833500Y-87088134D01*
X147833500Y-85291866D01*
X147826745Y-85229684D01*
X147775615Y-85093295D01*
X147688261Y-84976739D01*
X147571705Y-84889385D01*
X147435316Y-84838255D01*
X147373134Y-84831500D01*
X145576866Y-84831500D01*
X145514684Y-84838255D01*
X145378295Y-84889385D01*
X145261739Y-84976739D01*
X145174385Y-85093295D01*
X145123255Y-85229684D01*
X145116500Y-85291866D01*
X145116500Y-87088134D01*
X145123255Y-87150316D01*
X145174385Y-87286705D01*
X145261739Y-87403261D01*
X145378295Y-87490615D01*
X145386704Y-87493767D01*
X145386705Y-87493768D01*
X145495451Y-87534535D01*
X145552216Y-87577176D01*
X145576916Y-87643738D01*
X145561709Y-87713087D01*
X145542316Y-87739568D01*
X145460948Y-87824715D01*
X145415629Y-87872138D01*
X145289743Y-88056680D01*
X145254477Y-88132654D01*
X145206163Y-88236739D01*
X145195688Y-88259305D01*
X145135989Y-88474570D01*
X145112251Y-88696695D01*
X145112548Y-88701848D01*
X145112548Y-88701851D01*
X145119770Y-88827099D01*
X145125110Y-88919715D01*
X145126247Y-88924761D01*
X145126248Y-88924767D01*
X145132429Y-88952193D01*
X145174222Y-89137639D01*
X145258266Y-89344616D01*
X145309019Y-89427438D01*
X145332325Y-89465469D01*
X145374987Y-89535088D01*
X145521250Y-89703938D01*
X145693126Y-89846632D01*
X145763248Y-89887608D01*
X145766445Y-89889476D01*
X145815169Y-89941114D01*
X145828240Y-90010897D01*
X145801509Y-90076669D01*
X145761055Y-90110027D01*
X145748607Y-90116507D01*
X145744474Y-90119610D01*
X145744471Y-90119612D01*
X145574100Y-90247530D01*
X145569965Y-90250635D01*
X145415629Y-90412138D01*
X145412715Y-90416410D01*
X145412714Y-90416411D01*
X145346767Y-90513086D01*
X145289743Y-90596680D01*
X145274003Y-90630590D01*
X145205395Y-90778394D01*
X145195688Y-90799305D01*
X145135989Y-91014570D01*
X145112251Y-91236695D01*
X145112548Y-91241848D01*
X145112548Y-91241851D01*
X145120964Y-91387807D01*
X145125110Y-91459715D01*
X145126247Y-91464761D01*
X145126248Y-91464767D01*
X145142855Y-91538456D01*
X145174222Y-91677639D01*
X145258266Y-91884616D01*
X145374987Y-92075088D01*
X145521250Y-92243938D01*
X145693126Y-92386632D01*
X145763595Y-92427811D01*
X145766445Y-92429476D01*
X145815169Y-92481114D01*
X145828240Y-92550897D01*
X145801509Y-92616669D01*
X145761055Y-92650027D01*
X145748607Y-92656507D01*
X145744474Y-92659610D01*
X145744471Y-92659612D01*
X145720247Y-92677800D01*
X145569965Y-92790635D01*
X145415629Y-92952138D01*
X145289743Y-93136680D01*
X145195688Y-93339305D01*
X145135989Y-93554570D01*
X145112251Y-93776695D01*
X145112548Y-93781848D01*
X145112548Y-93781851D01*
X145120035Y-93911703D01*
X145125110Y-93999715D01*
X145126247Y-94004761D01*
X145126248Y-94004767D01*
X145135888Y-94047540D01*
X145174222Y-94217639D01*
X145212461Y-94311811D01*
X145241308Y-94382852D01*
X145258266Y-94424616D01*
X145263297Y-94432826D01*
X145366662Y-94601502D01*
X145374987Y-94615088D01*
X145521250Y-94783938D01*
X145693126Y-94926632D01*
X145763595Y-94967811D01*
X145766445Y-94969476D01*
X145815169Y-95021114D01*
X145828240Y-95090897D01*
X145801509Y-95156669D01*
X145761055Y-95190027D01*
X145748607Y-95196507D01*
X145744474Y-95199610D01*
X145744471Y-95199612D01*
X145574100Y-95327530D01*
X145569965Y-95330635D01*
X145415629Y-95492138D01*
X145412715Y-95496410D01*
X145412714Y-95496411D01*
X145400404Y-95514457D01*
X145289743Y-95676680D01*
X145195688Y-95879305D01*
X145135989Y-96094570D01*
X145112251Y-96316695D01*
X145112548Y-96321848D01*
X145112548Y-96321851D01*
X145118011Y-96416590D01*
X145125110Y-96539715D01*
X145126247Y-96544761D01*
X145126248Y-96544767D01*
X145126722Y-96546870D01*
X145174222Y-96757639D01*
X145258266Y-96964616D01*
X145260965Y-96969020D01*
X145364296Y-97137641D01*
X145374987Y-97155088D01*
X145521250Y-97323938D01*
X145693126Y-97466632D01*
X145752902Y-97501562D01*
X145766445Y-97509476D01*
X145815169Y-97561114D01*
X145828240Y-97630897D01*
X145801509Y-97696669D01*
X145761055Y-97730027D01*
X145748607Y-97736507D01*
X145744474Y-97739610D01*
X145744471Y-97739612D01*
X145574100Y-97867530D01*
X145569965Y-97870635D01*
X145415629Y-98032138D01*
X145412715Y-98036410D01*
X145412714Y-98036411D01*
X145405867Y-98046448D01*
X145289743Y-98216680D01*
X145195688Y-98419305D01*
X145135989Y-98634570D01*
X145112251Y-98856695D01*
X145112548Y-98861848D01*
X145112548Y-98861851D01*
X145118011Y-98956590D01*
X145125110Y-99079715D01*
X145126247Y-99084761D01*
X145126248Y-99084767D01*
X145133155Y-99115413D01*
X145174222Y-99297639D01*
X145258266Y-99504616D01*
X145260965Y-99509020D01*
X145365946Y-99680334D01*
X145374987Y-99695088D01*
X145521250Y-99863938D01*
X145693126Y-100006632D01*
X145709103Y-100015968D01*
X145766445Y-100049476D01*
X145815169Y-100101114D01*
X145828240Y-100170897D01*
X145801509Y-100236669D01*
X145761055Y-100270027D01*
X145748607Y-100276507D01*
X145744474Y-100279610D01*
X145744471Y-100279612D01*
X145574100Y-100407530D01*
X145569965Y-100410635D01*
X145415629Y-100572138D01*
X145289743Y-100756680D01*
X145195688Y-100959305D01*
X145135989Y-101174570D01*
X145112251Y-101396695D01*
X145112548Y-101401848D01*
X145112548Y-101401851D01*
X145118011Y-101496590D01*
X145125110Y-101619715D01*
X145126247Y-101624761D01*
X145126248Y-101624767D01*
X145146119Y-101712939D01*
X145174222Y-101837639D01*
X145258266Y-102044616D01*
X145374987Y-102235088D01*
X145521250Y-102403938D01*
X145693126Y-102546632D01*
X145763595Y-102587811D01*
X145766445Y-102589476D01*
X145815169Y-102641114D01*
X145828240Y-102710897D01*
X145801509Y-102776669D01*
X145761055Y-102810027D01*
X145748607Y-102816507D01*
X145744474Y-102819610D01*
X145744471Y-102819612D01*
X145720247Y-102837800D01*
X145569965Y-102950635D01*
X145566393Y-102954373D01*
X145512576Y-103010689D01*
X145451051Y-103046119D01*
X145380139Y-103042662D01*
X145332387Y-103012733D01*
X144180405Y-101860750D01*
X144146379Y-101798438D01*
X144143500Y-101771655D01*
X144143500Y-100408767D01*
X144144027Y-100397584D01*
X144145702Y-100390091D01*
X144143562Y-100322014D01*
X144143500Y-100318055D01*
X144143500Y-100290144D01*
X144142995Y-100286144D01*
X144142062Y-100274301D01*
X144142057Y-100274118D01*
X144140673Y-100230110D01*
X144135022Y-100210658D01*
X144131014Y-100191306D01*
X144129467Y-100179063D01*
X144128474Y-100171203D01*
X144124750Y-100161797D01*
X144112200Y-100130097D01*
X144108355Y-100118870D01*
X144098664Y-100085516D01*
X144096018Y-100076407D01*
X144091984Y-100069585D01*
X144091981Y-100069579D01*
X144085706Y-100058968D01*
X144077010Y-100041218D01*
X144072472Y-100029756D01*
X144072469Y-100029751D01*
X144069552Y-100022383D01*
X144043573Y-99986625D01*
X144037057Y-99976707D01*
X144018575Y-99945457D01*
X144014542Y-99938637D01*
X144000218Y-99924313D01*
X143987376Y-99909278D01*
X143975472Y-99892893D01*
X143941406Y-99864711D01*
X143932627Y-99856722D01*
X138683652Y-94607747D01*
X138676112Y-94599461D01*
X138672000Y-94592982D01*
X138622348Y-94546356D01*
X138619507Y-94543602D01*
X138599770Y-94523865D01*
X138596573Y-94521385D01*
X138587551Y-94513680D01*
X138585844Y-94512077D01*
X138555321Y-94483414D01*
X138548375Y-94479595D01*
X138548372Y-94479593D01*
X138537566Y-94473652D01*
X138521047Y-94462801D01*
X138520583Y-94462441D01*
X138505041Y-94450386D01*
X138497772Y-94447241D01*
X138497768Y-94447238D01*
X138464463Y-94432826D01*
X138453813Y-94427609D01*
X138415060Y-94406305D01*
X138395437Y-94401267D01*
X138376738Y-94394865D01*
X138369910Y-94391910D01*
X138314155Y-94344712D01*
X138202822Y-94172617D01*
X138202820Y-94172614D01*
X138200014Y-94168277D01*
X138049670Y-94003051D01*
X138045619Y-93999852D01*
X138045615Y-93999848D01*
X137878414Y-93867800D01*
X137878410Y-93867798D01*
X137874359Y-93864598D01*
X137678789Y-93756638D01*
X137673920Y-93754914D01*
X137673916Y-93754912D01*
X137473087Y-93683795D01*
X137473083Y-93683794D01*
X137468212Y-93682069D01*
X137463119Y-93681162D01*
X137463116Y-93681161D01*
X137253373Y-93643800D01*
X137253367Y-93643799D01*
X137248284Y-93642894D01*
X137174452Y-93641992D01*
X137030081Y-93640228D01*
X137030079Y-93640228D01*
X137024911Y-93640165D01*
X136804091Y-93673955D01*
X136591756Y-93743357D01*
X136393607Y-93846507D01*
X136389474Y-93849610D01*
X136389471Y-93849612D01*
X136219100Y-93977530D01*
X136214965Y-93980635D01*
X136211393Y-93984373D01*
X136103729Y-94097037D01*
X136060629Y-94142138D01*
X135953201Y-94299621D01*
X135898293Y-94344621D01*
X135827768Y-94352792D01*
X135764021Y-94321538D01*
X135743324Y-94297054D01*
X135662822Y-94172617D01*
X135662820Y-94172614D01*
X135660014Y-94168277D01*
X135509670Y-94003051D01*
X135505619Y-93999852D01*
X135505615Y-93999848D01*
X135338414Y-93867800D01*
X135338410Y-93867798D01*
X135334359Y-93864598D01*
X135138789Y-93756638D01*
X135133920Y-93754914D01*
X135133916Y-93754912D01*
X134933087Y-93683795D01*
X134933083Y-93683794D01*
X134928212Y-93682069D01*
X134923119Y-93681162D01*
X134923116Y-93681161D01*
X134713373Y-93643800D01*
X134713367Y-93643799D01*
X134708284Y-93642894D01*
X134634452Y-93641992D01*
X134490081Y-93640228D01*
X134490079Y-93640228D01*
X134484911Y-93640165D01*
X134264091Y-93673955D01*
X134051756Y-93743357D01*
X133853607Y-93846507D01*
X133849474Y-93849610D01*
X133849471Y-93849612D01*
X133679100Y-93977530D01*
X133674965Y-93980635D01*
X133671393Y-93984373D01*
X133563729Y-94097037D01*
X133520629Y-94142138D01*
X133413201Y-94299621D01*
X133358293Y-94344621D01*
X133287768Y-94352792D01*
X133224021Y-94321538D01*
X133203324Y-94297054D01*
X133122822Y-94172617D01*
X133122820Y-94172614D01*
X133120014Y-94168277D01*
X132969670Y-94003051D01*
X132965619Y-93999852D01*
X132965615Y-93999848D01*
X132798414Y-93867800D01*
X132798410Y-93867798D01*
X132794359Y-93864598D01*
X132598789Y-93756638D01*
X132593920Y-93754914D01*
X132593916Y-93754912D01*
X132393087Y-93683795D01*
X132393083Y-93683794D01*
X132388212Y-93682069D01*
X132383119Y-93681162D01*
X132383116Y-93681161D01*
X132173373Y-93643800D01*
X132173367Y-93643799D01*
X132168284Y-93642894D01*
X132094452Y-93641992D01*
X131950081Y-93640228D01*
X131950079Y-93640228D01*
X131944911Y-93640165D01*
X131724091Y-93673955D01*
X131511756Y-93743357D01*
X131313607Y-93846507D01*
X131309474Y-93849610D01*
X131309471Y-93849612D01*
X131139100Y-93977530D01*
X131134965Y-93980635D01*
X131078537Y-94039684D01*
X131054283Y-94065064D01*
X130992759Y-94100494D01*
X130921846Y-94097037D01*
X130864060Y-94055791D01*
X130845207Y-94022243D01*
X130803767Y-93911703D01*
X130800615Y-93903295D01*
X130713261Y-93786739D01*
X130596705Y-93699385D01*
X130460316Y-93648255D01*
X130398134Y-93641500D01*
X128601866Y-93641500D01*
X128539684Y-93648255D01*
X128403295Y-93699385D01*
X128286739Y-93786739D01*
X128199385Y-93903295D01*
X128148255Y-94039684D01*
X128141500Y-94101866D01*
X128141500Y-94981405D01*
X128121498Y-95049526D01*
X128067842Y-95096019D01*
X127997568Y-95106123D01*
X127932988Y-95076629D01*
X127926405Y-95070500D01*
X123974314Y-91118409D01*
X123940288Y-91056097D01*
X123945353Y-90985282D01*
X123987900Y-90928446D01*
X124054420Y-90903635D01*
X124068026Y-90903399D01*
X124293949Y-90911683D01*
X124293953Y-90911683D01*
X124299113Y-90911872D01*
X124304233Y-90911216D01*
X124304235Y-90911216D01*
X124378166Y-90901745D01*
X124528847Y-90882442D01*
X124533795Y-90880957D01*
X124533802Y-90880956D01*
X124745747Y-90817369D01*
X124750690Y-90815886D01*
X124755324Y-90813616D01*
X124954049Y-90716262D01*
X124954052Y-90716260D01*
X124958684Y-90713991D01*
X125147243Y-90579494D01*
X125192309Y-90534585D01*
X125254681Y-90500669D01*
X125325487Y-90505857D01*
X125382249Y-90548503D01*
X125399231Y-90579607D01*
X125407392Y-90601375D01*
X125424385Y-90646705D01*
X125511739Y-90763261D01*
X125628295Y-90850615D01*
X125764684Y-90901745D01*
X125826866Y-90908500D01*
X127723134Y-90908500D01*
X127785316Y-90901745D01*
X127921705Y-90850615D01*
X128038261Y-90763261D01*
X128125615Y-90646705D01*
X128176745Y-90510316D01*
X128183500Y-90448134D01*
X128183500Y-90377890D01*
X131391500Y-90377890D01*
X131395426Y-90424156D01*
X131404796Y-90534585D01*
X131406080Y-90549720D01*
X131407418Y-90554875D01*
X131407419Y-90554881D01*
X131459641Y-90756081D01*
X131463999Y-90772872D01*
X131466191Y-90777738D01*
X131466192Y-90777741D01*
X131522436Y-90902598D01*
X131558688Y-90983075D01*
X131687441Y-91174319D01*
X131691120Y-91178176D01*
X131691122Y-91178178D01*
X131757287Y-91247536D01*
X131846576Y-91341135D01*
X132031542Y-91478754D01*
X132036293Y-91481170D01*
X132036297Y-91481172D01*
X132116477Y-91521937D01*
X132237051Y-91583240D01*
X132242145Y-91584822D01*
X132242148Y-91584823D01*
X132442020Y-91646885D01*
X132457227Y-91651607D01*
X132462516Y-91652308D01*
X132680489Y-91681198D01*
X132680494Y-91681198D01*
X132685774Y-91681898D01*
X132691103Y-91681698D01*
X132691105Y-91681698D01*
X132800966Y-91677573D01*
X132916158Y-91673249D01*
X132921468Y-91672135D01*
X133136572Y-91627002D01*
X133141791Y-91625907D01*
X133146750Y-91623949D01*
X133146752Y-91623948D01*
X133351256Y-91543185D01*
X133351258Y-91543184D01*
X133356221Y-91541224D01*
X133366477Y-91535001D01*
X133548757Y-91424390D01*
X133548756Y-91424390D01*
X133553317Y-91421623D01*
X133614809Y-91368263D01*
X133723412Y-91274023D01*
X133723414Y-91274021D01*
X133727445Y-91270523D01*
X133757006Y-91234471D01*
X133815666Y-91194476D01*
X133886636Y-91192545D01*
X133947384Y-91229290D01*
X133961584Y-91248059D01*
X134048063Y-91387807D01*
X134057099Y-91399208D01*
X134171829Y-91513739D01*
X134183240Y-91522751D01*
X134321243Y-91607816D01*
X134334424Y-91613963D01*
X134488710Y-91665138D01*
X134502086Y-91668005D01*
X134596438Y-91677672D01*
X134602854Y-91678000D01*
X134977885Y-91678000D01*
X134993124Y-91673525D01*
X134994329Y-91672135D01*
X134996000Y-91664452D01*
X134996000Y-91659884D01*
X135504000Y-91659884D01*
X135508475Y-91675123D01*
X135509865Y-91676328D01*
X135517548Y-91677999D01*
X135897095Y-91677999D01*
X135903614Y-91677662D01*
X135999206Y-91667743D01*
X136012600Y-91664851D01*
X136166784Y-91613412D01*
X136179962Y-91607239D01*
X136317807Y-91521937D01*
X136329208Y-91512901D01*
X136443739Y-91398171D01*
X136452751Y-91386760D01*
X136537816Y-91248757D01*
X136543963Y-91235576D01*
X136595138Y-91081290D01*
X136598005Y-91067914D01*
X136607672Y-90973562D01*
X136608000Y-90967146D01*
X136608000Y-90442115D01*
X136603525Y-90426876D01*
X136602135Y-90425671D01*
X136594452Y-90424000D01*
X135522115Y-90424000D01*
X135506876Y-90428475D01*
X135505671Y-90429865D01*
X135504000Y-90437548D01*
X135504000Y-91659884D01*
X134996000Y-91659884D01*
X134996000Y-89897885D01*
X135504000Y-89897885D01*
X135508475Y-89913124D01*
X135509865Y-89914329D01*
X135517548Y-89916000D01*
X136589884Y-89916000D01*
X136605123Y-89911525D01*
X136606328Y-89910135D01*
X136607999Y-89902452D01*
X136607999Y-89465469D01*
X139322095Y-89465469D01*
X139335427Y-89696697D01*
X139336564Y-89701743D01*
X139336565Y-89701749D01*
X139356517Y-89790280D01*
X139386346Y-89922642D01*
X139388288Y-89927424D01*
X139388289Y-89927428D01*
X139428574Y-90026638D01*
X139473484Y-90137237D01*
X139594501Y-90334719D01*
X139746147Y-90509784D01*
X139924349Y-90657730D01*
X140124322Y-90774584D01*
X140129147Y-90776426D01*
X140129148Y-90776427D01*
X140189059Y-90799305D01*
X140340694Y-90857209D01*
X140345760Y-90858240D01*
X140345761Y-90858240D01*
X140398846Y-90869040D01*
X140567656Y-90903385D01*
X140697089Y-90908131D01*
X140793949Y-90911683D01*
X140793953Y-90911683D01*
X140799113Y-90911872D01*
X140804233Y-90911216D01*
X140804235Y-90911216D01*
X140878166Y-90901745D01*
X141028847Y-90882442D01*
X141033795Y-90880957D01*
X141033802Y-90880956D01*
X141245747Y-90817369D01*
X141250690Y-90815886D01*
X141255324Y-90813616D01*
X141454049Y-90716262D01*
X141454052Y-90716260D01*
X141458684Y-90713991D01*
X141647243Y-90579494D01*
X141692309Y-90534585D01*
X141754681Y-90500669D01*
X141825487Y-90505857D01*
X141882249Y-90548503D01*
X141899231Y-90579607D01*
X141907392Y-90601375D01*
X141924385Y-90646705D01*
X142011739Y-90763261D01*
X142128295Y-90850615D01*
X142264684Y-90901745D01*
X142326866Y-90908500D01*
X144223134Y-90908500D01*
X144285316Y-90901745D01*
X144421705Y-90850615D01*
X144538261Y-90763261D01*
X144625615Y-90646705D01*
X144676745Y-90510316D01*
X144683500Y-90448134D01*
X144683500Y-88551866D01*
X144676745Y-88489684D01*
X144625615Y-88353295D01*
X144538261Y-88236739D01*
X144421705Y-88149385D01*
X144285316Y-88098255D01*
X144223134Y-88091500D01*
X142326866Y-88091500D01*
X142264684Y-88098255D01*
X142128295Y-88149385D01*
X142011739Y-88236739D01*
X141924385Y-88353295D01*
X141921233Y-88361703D01*
X141921232Y-88361705D01*
X141900538Y-88416906D01*
X141857897Y-88473671D01*
X141791335Y-88498371D01*
X141721986Y-88483164D01*
X141699167Y-88466666D01*
X141698887Y-88466358D01*
X141566373Y-88361705D01*
X141521177Y-88326011D01*
X141521172Y-88326008D01*
X141517123Y-88322810D01*
X141512607Y-88320317D01*
X141512604Y-88320315D01*
X141318879Y-88213373D01*
X141318875Y-88213371D01*
X141314355Y-88210876D01*
X141309486Y-88209152D01*
X141309482Y-88209150D01*
X141100903Y-88135288D01*
X141100899Y-88135287D01*
X141096028Y-88133562D01*
X141090935Y-88132655D01*
X141090932Y-88132654D01*
X140873095Y-88093851D01*
X140873089Y-88093850D01*
X140868006Y-88092945D01*
X140795096Y-88092054D01*
X140641581Y-88090179D01*
X140641579Y-88090179D01*
X140636411Y-88090116D01*
X140407464Y-88125150D01*
X140187314Y-88197106D01*
X140182726Y-88199494D01*
X140182722Y-88199496D01*
X139986461Y-88301663D01*
X139981872Y-88304052D01*
X139977739Y-88307155D01*
X139977736Y-88307157D01*
X139800790Y-88440012D01*
X139796655Y-88443117D01*
X139636639Y-88610564D01*
X139506119Y-88801899D01*
X139408602Y-89011981D01*
X139346707Y-89235169D01*
X139322095Y-89465469D01*
X136607999Y-89465469D01*
X136607999Y-89372905D01*
X136607662Y-89366386D01*
X136597743Y-89270794D01*
X136594851Y-89257400D01*
X136543412Y-89103216D01*
X136537239Y-89090038D01*
X136451937Y-88952193D01*
X136442901Y-88940792D01*
X136328171Y-88826261D01*
X136316760Y-88817249D01*
X136178757Y-88732184D01*
X136165576Y-88726037D01*
X136011290Y-88674862D01*
X135997914Y-88671995D01*
X135903562Y-88662328D01*
X135897145Y-88662000D01*
X135522115Y-88662000D01*
X135506876Y-88666475D01*
X135505671Y-88667865D01*
X135504000Y-88675548D01*
X135504000Y-89897885D01*
X134996000Y-89897885D01*
X134996000Y-88680116D01*
X134991525Y-88664877D01*
X134990135Y-88663672D01*
X134982452Y-88662001D01*
X134602905Y-88662001D01*
X134596386Y-88662338D01*
X134500794Y-88672257D01*
X134487400Y-88675149D01*
X134333216Y-88726588D01*
X134320038Y-88732761D01*
X134182193Y-88818063D01*
X134170792Y-88827099D01*
X134056261Y-88941829D01*
X134047247Y-88953243D01*
X133961277Y-89092713D01*
X133908505Y-89140207D01*
X133838434Y-89151631D01*
X133773310Y-89123357D01*
X133762847Y-89113570D01*
X133742951Y-89092713D01*
X133653424Y-88998865D01*
X133468458Y-88861246D01*
X133463707Y-88858830D01*
X133463703Y-88858828D01*
X133345588Y-88798776D01*
X133262949Y-88756760D01*
X133257855Y-88755178D01*
X133257852Y-88755177D01*
X133047871Y-88689976D01*
X133042773Y-88688393D01*
X133037484Y-88687692D01*
X132819511Y-88658802D01*
X132819506Y-88658802D01*
X132814226Y-88658102D01*
X132808897Y-88658302D01*
X132808895Y-88658302D01*
X132710368Y-88662001D01*
X132583842Y-88666751D01*
X132578623Y-88667846D01*
X132558849Y-88671995D01*
X132358209Y-88714093D01*
X132353250Y-88716051D01*
X132353248Y-88716052D01*
X132148744Y-88796815D01*
X132148742Y-88796816D01*
X132143779Y-88798776D01*
X132139220Y-88801543D01*
X132139217Y-88801544D01*
X132040832Y-88861246D01*
X131946683Y-88918377D01*
X131942653Y-88921874D01*
X131826089Y-89023023D01*
X131772555Y-89069477D01*
X131769168Y-89073608D01*
X131629760Y-89243627D01*
X131629756Y-89243633D01*
X131626376Y-89247755D01*
X131623737Y-89252391D01*
X131623735Y-89252394D01*
X131564233Y-89356925D01*
X131512325Y-89448114D01*
X131433663Y-89664825D01*
X131432714Y-89670074D01*
X131432713Y-89670077D01*
X131393377Y-89887608D01*
X131393376Y-89887615D01*
X131392639Y-89891692D01*
X131391500Y-89915844D01*
X131391500Y-90377890D01*
X128183500Y-90377890D01*
X128183500Y-88551866D01*
X128176745Y-88489684D01*
X128125615Y-88353295D01*
X128038261Y-88236739D01*
X127921705Y-88149385D01*
X127785316Y-88098255D01*
X127723134Y-88091500D01*
X125826866Y-88091500D01*
X125764684Y-88098255D01*
X125628295Y-88149385D01*
X125511739Y-88236739D01*
X125424385Y-88353295D01*
X125421233Y-88361703D01*
X125421232Y-88361705D01*
X125400538Y-88416906D01*
X125357897Y-88473671D01*
X125291335Y-88498371D01*
X125221986Y-88483164D01*
X125199167Y-88466666D01*
X125198887Y-88466358D01*
X125066373Y-88361705D01*
X125021177Y-88326011D01*
X125021172Y-88326008D01*
X125017123Y-88322810D01*
X125012607Y-88320317D01*
X125012604Y-88320315D01*
X124818879Y-88213373D01*
X124818875Y-88213371D01*
X124814355Y-88210876D01*
X124809486Y-88209152D01*
X124809482Y-88209150D01*
X124600903Y-88135288D01*
X124600899Y-88135287D01*
X124596028Y-88133562D01*
X124590935Y-88132655D01*
X124590932Y-88132654D01*
X124373095Y-88093851D01*
X124373089Y-88093850D01*
X124368006Y-88092945D01*
X124295096Y-88092054D01*
X124141581Y-88090179D01*
X124141579Y-88090179D01*
X124136411Y-88090116D01*
X123907464Y-88125150D01*
X123687314Y-88197106D01*
X123682726Y-88199494D01*
X123682722Y-88199496D01*
X123486461Y-88301663D01*
X123481872Y-88304052D01*
X123477739Y-88307155D01*
X123477736Y-88307157D01*
X123474925Y-88309268D01*
X123473590Y-88309768D01*
X123473360Y-88309913D01*
X123473330Y-88309865D01*
X123408441Y-88334174D01*
X123339045Y-88319182D01*
X123288771Y-88269052D01*
X123273272Y-88208508D01*
X123273272Y-87833540D01*
X123273799Y-87822357D01*
X123275474Y-87814864D01*
X123273334Y-87746773D01*
X123273272Y-87742816D01*
X123273272Y-87714916D01*
X123272768Y-87710925D01*
X123271835Y-87699083D01*
X123270695Y-87662808D01*
X123270446Y-87654883D01*
X123268234Y-87647269D01*
X123268233Y-87647264D01*
X123264795Y-87635431D01*
X123260784Y-87616067D01*
X123259239Y-87603836D01*
X123258246Y-87595975D01*
X123255329Y-87588608D01*
X123255328Y-87588603D01*
X123241970Y-87554864D01*
X123238126Y-87543637D01*
X123228002Y-87508794D01*
X123225790Y-87501179D01*
X123215479Y-87483744D01*
X123206784Y-87465996D01*
X123199324Y-87447155D01*
X123173336Y-87411385D01*
X123166820Y-87401465D01*
X123148352Y-87370237D01*
X123148350Y-87370234D01*
X123144314Y-87363410D01*
X123129993Y-87349089D01*
X123117152Y-87334055D01*
X123109903Y-87324078D01*
X123105244Y-87317665D01*
X123071167Y-87289474D01*
X123062388Y-87281484D01*
X122470405Y-86689501D01*
X122436379Y-86627189D01*
X122433500Y-86600406D01*
X122433500Y-85291866D01*
X122426745Y-85229684D01*
X122375615Y-85093295D01*
X122288261Y-84976739D01*
X122171705Y-84889385D01*
X122035316Y-84838255D01*
X121973134Y-84831500D01*
X120176866Y-84831500D01*
X120114684Y-84838255D01*
X119978295Y-84889385D01*
X119861739Y-84976739D01*
X119774385Y-85093295D01*
X119723255Y-85229684D01*
X119716500Y-85291866D01*
X119716500Y-87088134D01*
X119723255Y-87150316D01*
X119774385Y-87286705D01*
X119861739Y-87403261D01*
X119978295Y-87490615D01*
X119986704Y-87493767D01*
X119986705Y-87493768D01*
X120095451Y-87534535D01*
X120152216Y-87577176D01*
X120176916Y-87643738D01*
X120161709Y-87713087D01*
X120142316Y-87739568D01*
X120060948Y-87824715D01*
X120015629Y-87872138D01*
X119889743Y-88056680D01*
X119854477Y-88132654D01*
X119806163Y-88236739D01*
X119795688Y-88259305D01*
X119735989Y-88474570D01*
X119712251Y-88696695D01*
X119712548Y-88701848D01*
X119712548Y-88701851D01*
X119719770Y-88827099D01*
X119725110Y-88919715D01*
X119726247Y-88924761D01*
X119726248Y-88924767D01*
X119732429Y-88952193D01*
X119774222Y-89137639D01*
X119858266Y-89344616D01*
X119909019Y-89427438D01*
X119932325Y-89465469D01*
X119974987Y-89535088D01*
X120121250Y-89703938D01*
X120293126Y-89846632D01*
X120363248Y-89887608D01*
X120366445Y-89889476D01*
X120415169Y-89941114D01*
X120428240Y-90010897D01*
X120401509Y-90076669D01*
X120361055Y-90110027D01*
X120348607Y-90116507D01*
X120344474Y-90119610D01*
X120344471Y-90119612D01*
X120174100Y-90247530D01*
X120169965Y-90250635D01*
X120015629Y-90412138D01*
X120012715Y-90416410D01*
X120012714Y-90416411D01*
X119946767Y-90513086D01*
X119889743Y-90596680D01*
X119874003Y-90630590D01*
X119805395Y-90778394D01*
X119795688Y-90799305D01*
X119735989Y-91014570D01*
X119712251Y-91236695D01*
X119712548Y-91241848D01*
X119712548Y-91241851D01*
X119720964Y-91387807D01*
X119725110Y-91459715D01*
X119726247Y-91464761D01*
X119726248Y-91464767D01*
X119742855Y-91538456D01*
X119774222Y-91677639D01*
X119858266Y-91884616D01*
X119974987Y-92075088D01*
X120121250Y-92243938D01*
X120293126Y-92386632D01*
X120363595Y-92427811D01*
X120366445Y-92429476D01*
X120415169Y-92481114D01*
X120428240Y-92550897D01*
X120401509Y-92616669D01*
X120361055Y-92650027D01*
X120348607Y-92656507D01*
X120344474Y-92659610D01*
X120344471Y-92659612D01*
X120320247Y-92677800D01*
X120169965Y-92790635D01*
X120015629Y-92952138D01*
X119889743Y-93136680D01*
X119795688Y-93339305D01*
X119735989Y-93554570D01*
X119712251Y-93776695D01*
X119712548Y-93781848D01*
X119712548Y-93781851D01*
X119720035Y-93911703D01*
X119725110Y-93999715D01*
X119726247Y-94004761D01*
X119726248Y-94004767D01*
X119735888Y-94047540D01*
X119774222Y-94217639D01*
X119812461Y-94311811D01*
X119841308Y-94382852D01*
X119858266Y-94424616D01*
X119863297Y-94432826D01*
X119966662Y-94601502D01*
X119974987Y-94615088D01*
X120121250Y-94783938D01*
X120293126Y-94926632D01*
X120363595Y-94967811D01*
X120366445Y-94969476D01*
X120415169Y-95021114D01*
X120428240Y-95090897D01*
X120401509Y-95156669D01*
X120361055Y-95190027D01*
X120348607Y-95196507D01*
X120344474Y-95199610D01*
X120344471Y-95199612D01*
X120174100Y-95327530D01*
X120169965Y-95330635D01*
X120015629Y-95492138D01*
X120012715Y-95496410D01*
X120012714Y-95496411D01*
X120000404Y-95514457D01*
X119889743Y-95676680D01*
X119795688Y-95879305D01*
X119735989Y-96094570D01*
X119712251Y-96316695D01*
X119712548Y-96321848D01*
X119712548Y-96321851D01*
X119718011Y-96416590D01*
X119725110Y-96539715D01*
X119726247Y-96544761D01*
X119726248Y-96544767D01*
X119726722Y-96546870D01*
X119774222Y-96757639D01*
X119858266Y-96964616D01*
X119860965Y-96969020D01*
X119964296Y-97137641D01*
X119974987Y-97155088D01*
X120121250Y-97323938D01*
X120293126Y-97466632D01*
X120352902Y-97501562D01*
X120366445Y-97509476D01*
X120415169Y-97561114D01*
X120428240Y-97630897D01*
X120401509Y-97696669D01*
X120361055Y-97730027D01*
X120348607Y-97736507D01*
X120344474Y-97739610D01*
X120344471Y-97739612D01*
X120174100Y-97867530D01*
X120169965Y-97870635D01*
X120015629Y-98032138D01*
X120012715Y-98036410D01*
X120012714Y-98036411D01*
X120005867Y-98046448D01*
X119889743Y-98216680D01*
X119795688Y-98419305D01*
X119735989Y-98634570D01*
X119712251Y-98856695D01*
X119712548Y-98861848D01*
X119712548Y-98861851D01*
X119718011Y-98956590D01*
X119725110Y-99079715D01*
X119726247Y-99084761D01*
X119726248Y-99084767D01*
X119733155Y-99115413D01*
X119774222Y-99297639D01*
X119858266Y-99504616D01*
X119860965Y-99509020D01*
X119965946Y-99680334D01*
X119974987Y-99695088D01*
X120121250Y-99863938D01*
X120293126Y-100006632D01*
X120309103Y-100015968D01*
X120366445Y-100049476D01*
X120415169Y-100101114D01*
X120428240Y-100170897D01*
X120401509Y-100236669D01*
X120361055Y-100270027D01*
X120348607Y-100276507D01*
X120344474Y-100279610D01*
X120344471Y-100279612D01*
X120174100Y-100407530D01*
X120169965Y-100410635D01*
X120015629Y-100572138D01*
X119889743Y-100756680D01*
X119795688Y-100959305D01*
X119735989Y-101174570D01*
X119712251Y-101396695D01*
X119712548Y-101401848D01*
X119712548Y-101401851D01*
X119718011Y-101496590D01*
X119725110Y-101619715D01*
X119726247Y-101624761D01*
X119726248Y-101624767D01*
X119746119Y-101712939D01*
X119774222Y-101837639D01*
X119858266Y-102044616D01*
X119974987Y-102235088D01*
X120121250Y-102403938D01*
X120293126Y-102546632D01*
X120363595Y-102587811D01*
X120366445Y-102589476D01*
X120415169Y-102641114D01*
X120428240Y-102710897D01*
X120401509Y-102776669D01*
X120361055Y-102810027D01*
X120348607Y-102816507D01*
X120344474Y-102819610D01*
X120344471Y-102819612D01*
X120320247Y-102837800D01*
X120169965Y-102950635D01*
X120015629Y-103112138D01*
X119889743Y-103296680D01*
X119795688Y-103499305D01*
X119735989Y-103714570D01*
X119712251Y-103936695D01*
X119712548Y-103941848D01*
X119712548Y-103941851D01*
X119718011Y-104036590D01*
X119725110Y-104159715D01*
X119726247Y-104164761D01*
X119726248Y-104164767D01*
X119729398Y-104178743D01*
X119774222Y-104377639D01*
X119858266Y-104584616D01*
X119974987Y-104775088D01*
X120121250Y-104943938D01*
X120293126Y-105086632D01*
X120363595Y-105127811D01*
X120366445Y-105129476D01*
X120415169Y-105181114D01*
X120428240Y-105250897D01*
X120401509Y-105316669D01*
X120361055Y-105350027D01*
X120348607Y-105356507D01*
X120344474Y-105359610D01*
X120344471Y-105359612D01*
X120242367Y-105436274D01*
X120169965Y-105490635D01*
X120166393Y-105494373D01*
X120083365Y-105581257D01*
X120015629Y-105652138D01*
X120012715Y-105656410D01*
X120012714Y-105656411D01*
X119993434Y-105684675D01*
X119889743Y-105836680D01*
X119874003Y-105870590D01*
X119825832Y-105974366D01*
X119795688Y-106039305D01*
X119735989Y-106254570D01*
X119712251Y-106476695D01*
X119712548Y-106481848D01*
X119712548Y-106481851D01*
X119718011Y-106576590D01*
X119725110Y-106699715D01*
X119726247Y-106704761D01*
X119726248Y-106704767D01*
X119746119Y-106792939D01*
X119774222Y-106917639D01*
X119858266Y-107124616D01*
X119974987Y-107315088D01*
X120121250Y-107483938D01*
X120293126Y-107626632D01*
X120336489Y-107651971D01*
X120366445Y-107669476D01*
X120415169Y-107721114D01*
X120428240Y-107790897D01*
X120401509Y-107856669D01*
X120361055Y-107890027D01*
X120348607Y-107896507D01*
X120344474Y-107899610D01*
X120344471Y-107899612D01*
X120320247Y-107917800D01*
X120169965Y-108030635D01*
X120015629Y-108192138D01*
X119889743Y-108376680D01*
X119795688Y-108579305D01*
X119735989Y-108794570D01*
X119712251Y-109016695D01*
X119712548Y-109021848D01*
X119712548Y-109021851D01*
X119718011Y-109116590D01*
X119725110Y-109239715D01*
X119726247Y-109244761D01*
X119726248Y-109244767D01*
X119746119Y-109332939D01*
X119774222Y-109457639D01*
X119858266Y-109664616D01*
X119974987Y-109855088D01*
X120121250Y-110023938D01*
X120293126Y-110166632D01*
X120363595Y-110207811D01*
X120366445Y-110209476D01*
X120415169Y-110261114D01*
X120428240Y-110330897D01*
X120401509Y-110396669D01*
X120361055Y-110430027D01*
X120348607Y-110436507D01*
X120344474Y-110439610D01*
X120344471Y-110439612D01*
X120320247Y-110457800D01*
X120169965Y-110570635D01*
X120015629Y-110732138D01*
X119889743Y-110916680D01*
X119795688Y-111119305D01*
X119735989Y-111334570D01*
X119712251Y-111556695D01*
X119712548Y-111561848D01*
X119712548Y-111561851D01*
X119719187Y-111676989D01*
X119725110Y-111779715D01*
X119726247Y-111784761D01*
X119726248Y-111784767D01*
X119746119Y-111872939D01*
X119774222Y-111997639D01*
X119858266Y-112204616D01*
X119974987Y-112395088D01*
X120121250Y-112563938D01*
X120293126Y-112706632D01*
X120356249Y-112743518D01*
X120366445Y-112749476D01*
X120415169Y-112801114D01*
X120428240Y-112870897D01*
X120401509Y-112936669D01*
X120361055Y-112970027D01*
X120348607Y-112976507D01*
X120344474Y-112979610D01*
X120344471Y-112979612D01*
X120320247Y-112997800D01*
X120169965Y-113110635D01*
X120015629Y-113272138D01*
X119889743Y-113456680D01*
X119866787Y-113506135D01*
X119799531Y-113651027D01*
X119795688Y-113659305D01*
X119735989Y-113874570D01*
X119712251Y-114096695D01*
X119712548Y-114101848D01*
X119712548Y-114101851D01*
X119718011Y-114196590D01*
X119725110Y-114319715D01*
X119726247Y-114324761D01*
X119726248Y-114324767D01*
X119729398Y-114338743D01*
X119774222Y-114537639D01*
X119858266Y-114744616D01*
X119974987Y-114935088D01*
X120121250Y-115103938D01*
X120293126Y-115246632D01*
X120363595Y-115287811D01*
X120366445Y-115289476D01*
X120415169Y-115341114D01*
X120428240Y-115410897D01*
X120401509Y-115476669D01*
X120361055Y-115510027D01*
X120348607Y-115516507D01*
X120344474Y-115519610D01*
X120344471Y-115519612D01*
X120320247Y-115537800D01*
X120169965Y-115650635D01*
X120166393Y-115654373D01*
X120083365Y-115741257D01*
X120015629Y-115812138D01*
X120012715Y-115816410D01*
X120012714Y-115816411D01*
X119991031Y-115848197D01*
X119889743Y-115996680D01*
X119874003Y-116030590D01*
X119801409Y-116186981D01*
X119795688Y-116199305D01*
X119735989Y-116414570D01*
X119712251Y-116636695D01*
X119712548Y-116641848D01*
X119712548Y-116641851D01*
X119718011Y-116736590D01*
X119725110Y-116859715D01*
X119726247Y-116864761D01*
X119726248Y-116864767D01*
X119736351Y-116909594D01*
X119774222Y-117077639D01*
X119858266Y-117284616D01*
X119974987Y-117475088D01*
X120121250Y-117643938D01*
X120293126Y-117786632D01*
X120363595Y-117827811D01*
X120366445Y-117829476D01*
X120415169Y-117881114D01*
X120428240Y-117950897D01*
X120401509Y-118016669D01*
X120361055Y-118050027D01*
X120348607Y-118056507D01*
X120344474Y-118059610D01*
X120344471Y-118059612D01*
X120174100Y-118187530D01*
X120169965Y-118190635D01*
X120015629Y-118352138D01*
X119889743Y-118536680D01*
X119874003Y-118570590D01*
X119798019Y-118734284D01*
X119795688Y-118739305D01*
X119735989Y-118954570D01*
X119712251Y-119176695D01*
X119712548Y-119181848D01*
X119712548Y-119181851D01*
X119718011Y-119276590D01*
X119725110Y-119399715D01*
X119726247Y-119404761D01*
X119726248Y-119404767D01*
X119746119Y-119492939D01*
X119774222Y-119617639D01*
X119858266Y-119824616D01*
X119974987Y-120015088D01*
X120121250Y-120183938D01*
X120293126Y-120326632D01*
X120363595Y-120367811D01*
X120366445Y-120369476D01*
X120415169Y-120421114D01*
X120428240Y-120490897D01*
X120401509Y-120556669D01*
X120361055Y-120590027D01*
X120348607Y-120596507D01*
X120344474Y-120599610D01*
X120344471Y-120599612D01*
X120320247Y-120617800D01*
X120169965Y-120730635D01*
X120015629Y-120892138D01*
X119889743Y-121076680D01*
X119795688Y-121279305D01*
X119735989Y-121494570D01*
X119712251Y-121716695D01*
X119712548Y-121721848D01*
X119712548Y-121721851D01*
X119718011Y-121816590D01*
X119725110Y-121939715D01*
X119726247Y-121944761D01*
X119726248Y-121944767D01*
X119746119Y-122032939D01*
X119774222Y-122157639D01*
X119858266Y-122364616D01*
X119974987Y-122555088D01*
X120121250Y-122723938D01*
X120293126Y-122866632D01*
X120363595Y-122907811D01*
X120366445Y-122909476D01*
X120415169Y-122961114D01*
X120428240Y-123030897D01*
X120401509Y-123096669D01*
X120361055Y-123130027D01*
X120348607Y-123136507D01*
X120344474Y-123139610D01*
X120344471Y-123139612D01*
X120320247Y-123157800D01*
X120169965Y-123270635D01*
X120015629Y-123432138D01*
X119889743Y-123616680D01*
X119874003Y-123650590D01*
X119800567Y-123808795D01*
X119795688Y-123819305D01*
X119735989Y-124034570D01*
X119712251Y-124256695D01*
X119712548Y-124261848D01*
X119712548Y-124261851D01*
X119723764Y-124456375D01*
X119725110Y-124479715D01*
X119726247Y-124484761D01*
X119726248Y-124484767D01*
X119746119Y-124572939D01*
X119774222Y-124697639D01*
X119812461Y-124791811D01*
X119843938Y-124869329D01*
X119858266Y-124904616D01*
X119974987Y-125095088D01*
X120121250Y-125263938D01*
X120293126Y-125406632D01*
X120304142Y-125413069D01*
X120366445Y-125449476D01*
X120415169Y-125501114D01*
X120428240Y-125570897D01*
X120401509Y-125636669D01*
X120361055Y-125670027D01*
X120348607Y-125676507D01*
X120344474Y-125679610D01*
X120344471Y-125679612D01*
X120174100Y-125807530D01*
X120169965Y-125810635D01*
X120015629Y-125972138D01*
X120012715Y-125976410D01*
X120012714Y-125976411D01*
X119957104Y-126057933D01*
X119889743Y-126156680D01*
X119874003Y-126190590D01*
X119797994Y-126354338D01*
X119795688Y-126359305D01*
X119735989Y-126574570D01*
X119712251Y-126796695D01*
X119712548Y-126801848D01*
X119712548Y-126801851D01*
X119718011Y-126896590D01*
X119725110Y-127019715D01*
X119726247Y-127024761D01*
X119726248Y-127024767D01*
X119746119Y-127112939D01*
X119774222Y-127237639D01*
X119858266Y-127444616D01*
X119974987Y-127635088D01*
X120121250Y-127803938D01*
X120293126Y-127946632D01*
X120363595Y-127987811D01*
X120366445Y-127989476D01*
X120415169Y-128041114D01*
X120428240Y-128110897D01*
X120401509Y-128176669D01*
X120361055Y-128210027D01*
X120348607Y-128216507D01*
X120344474Y-128219610D01*
X120344471Y-128219612D01*
X120320247Y-128237800D01*
X120169965Y-128350635D01*
X120015629Y-128512138D01*
X119889743Y-128696680D01*
X119795688Y-128899305D01*
X119735989Y-129114570D01*
X119712251Y-129336695D01*
X117008500Y-129336695D01*
X117008500Y-82553250D01*
X117010246Y-82532345D01*
X117012770Y-82517344D01*
X117012770Y-82517341D01*
X117013576Y-82512552D01*
X117013729Y-82500000D01*
X117012542Y-82491709D01*
X117011748Y-82462870D01*
X117012053Y-82459393D01*
X117022603Y-82338804D01*
X117026417Y-82317178D01*
X117065443Y-82171534D01*
X117072954Y-82150896D01*
X117136678Y-82014240D01*
X117147660Y-81995220D01*
X117234147Y-81871703D01*
X117248265Y-81854878D01*
X117354878Y-81748265D01*
X117371703Y-81734147D01*
X117495220Y-81647660D01*
X117514240Y-81636678D01*
X117650896Y-81572954D01*
X117671534Y-81565443D01*
X117817178Y-81526417D01*
X117838806Y-81522603D01*
X117895341Y-81517656D01*
X117959393Y-81512053D01*
X117975871Y-81512607D01*
X117975876Y-81512200D01*
X117984853Y-81512310D01*
X117993724Y-81513691D01*
X118002626Y-81512527D01*
X118002628Y-81512527D01*
X118020023Y-81510252D01*
X118025286Y-81509564D01*
X118041621Y-81508500D01*
X149950633Y-81508500D01*
X149970018Y-81510000D01*
G37*
%TD.AperFunction*%
%TD*%
M02*
