%TF.GenerationSoftware,KiCad,Pcbnew,7.0.1*%
%TF.CreationDate,2023-04-19T22:29:49+02:00*%
%TF.ProjectId,OpenDTU_Breakout,4f70656e-4454-4555-9f42-7265616b6f75,rev?*%
%TF.SameCoordinates,Original*%
%TF.FileFunction,Legend,Bot*%
%TF.FilePolarity,Positive*%
%FSLAX46Y46*%
G04 Gerber Fmt 4.6, Leading zero omitted, Abs format (unit mm)*
G04 Created by KiCad (PCBNEW 7.0.1) date 2023-04-19 22:29:49*
%MOMM*%
%LPD*%
G01*
G04 APERTURE LIST*
%ADD10C,0.150000*%
%ADD11C,0.120000*%
G04 APERTURE END LIST*
D10*
%TO.C,D2*%
X142743094Y-87002619D02*
X142743094Y-86002619D01*
X142743094Y-86002619D02*
X142504999Y-86002619D01*
X142504999Y-86002619D02*
X142362142Y-86050238D01*
X142362142Y-86050238D02*
X142266904Y-86145476D01*
X142266904Y-86145476D02*
X142219285Y-86240714D01*
X142219285Y-86240714D02*
X142171666Y-86431190D01*
X142171666Y-86431190D02*
X142171666Y-86574047D01*
X142171666Y-86574047D02*
X142219285Y-86764523D01*
X142219285Y-86764523D02*
X142266904Y-86859761D01*
X142266904Y-86859761D02*
X142362142Y-86955000D01*
X142362142Y-86955000D02*
X142504999Y-87002619D01*
X142504999Y-87002619D02*
X142743094Y-87002619D01*
X141790713Y-86097857D02*
X141743094Y-86050238D01*
X141743094Y-86050238D02*
X141647856Y-86002619D01*
X141647856Y-86002619D02*
X141409761Y-86002619D01*
X141409761Y-86002619D02*
X141314523Y-86050238D01*
X141314523Y-86050238D02*
X141266904Y-86097857D01*
X141266904Y-86097857D02*
X141219285Y-86193095D01*
X141219285Y-86193095D02*
X141219285Y-86288333D01*
X141219285Y-86288333D02*
X141266904Y-86431190D01*
X141266904Y-86431190D02*
X141838332Y-87002619D01*
X141838332Y-87002619D02*
X141219285Y-87002619D01*
%TO.C,U2*%
X133761904Y-99712619D02*
X133761904Y-100522142D01*
X133761904Y-100522142D02*
X133714285Y-100617380D01*
X133714285Y-100617380D02*
X133666666Y-100665000D01*
X133666666Y-100665000D02*
X133571428Y-100712619D01*
X133571428Y-100712619D02*
X133380952Y-100712619D01*
X133380952Y-100712619D02*
X133285714Y-100665000D01*
X133285714Y-100665000D02*
X133238095Y-100617380D01*
X133238095Y-100617380D02*
X133190476Y-100522142D01*
X133190476Y-100522142D02*
X133190476Y-99712619D01*
X132761904Y-99807857D02*
X132714285Y-99760238D01*
X132714285Y-99760238D02*
X132619047Y-99712619D01*
X132619047Y-99712619D02*
X132380952Y-99712619D01*
X132380952Y-99712619D02*
X132285714Y-99760238D01*
X132285714Y-99760238D02*
X132238095Y-99807857D01*
X132238095Y-99807857D02*
X132190476Y-99903095D01*
X132190476Y-99903095D02*
X132190476Y-99998333D01*
X132190476Y-99998333D02*
X132238095Y-100141190D01*
X132238095Y-100141190D02*
X132809523Y-100712619D01*
X132809523Y-100712619D02*
X132190476Y-100712619D01*
%TO.C,J1*%
X138833333Y-127212619D02*
X138833333Y-127926904D01*
X138833333Y-127926904D02*
X138880952Y-128069761D01*
X138880952Y-128069761D02*
X138976190Y-128165000D01*
X138976190Y-128165000D02*
X139119047Y-128212619D01*
X139119047Y-128212619D02*
X139214285Y-128212619D01*
X137833333Y-128212619D02*
X138404761Y-128212619D01*
X138119047Y-128212619D02*
X138119047Y-127212619D01*
X138119047Y-127212619D02*
X138214285Y-127355476D01*
X138214285Y-127355476D02*
X138309523Y-127450714D01*
X138309523Y-127450714D02*
X138404761Y-127498333D01*
%TO.C,J2*%
X134333333Y-82100119D02*
X134333333Y-82814404D01*
X134333333Y-82814404D02*
X134380952Y-82957261D01*
X134380952Y-82957261D02*
X134476190Y-83052500D01*
X134476190Y-83052500D02*
X134619047Y-83100119D01*
X134619047Y-83100119D02*
X134714285Y-83100119D01*
X133904761Y-82195357D02*
X133857142Y-82147738D01*
X133857142Y-82147738D02*
X133761904Y-82100119D01*
X133761904Y-82100119D02*
X133523809Y-82100119D01*
X133523809Y-82100119D02*
X133428571Y-82147738D01*
X133428571Y-82147738D02*
X133380952Y-82195357D01*
X133380952Y-82195357D02*
X133333333Y-82290595D01*
X133333333Y-82290595D02*
X133333333Y-82385833D01*
X133333333Y-82385833D02*
X133380952Y-82528690D01*
X133380952Y-82528690D02*
X133952380Y-83100119D01*
X133952380Y-83100119D02*
X133333333Y-83100119D01*
%TO.C,J3*%
X128333333Y-127212619D02*
X128333333Y-127926904D01*
X128333333Y-127926904D02*
X128380952Y-128069761D01*
X128380952Y-128069761D02*
X128476190Y-128165000D01*
X128476190Y-128165000D02*
X128619047Y-128212619D01*
X128619047Y-128212619D02*
X128714285Y-128212619D01*
X127952380Y-127212619D02*
X127333333Y-127212619D01*
X127333333Y-127212619D02*
X127666666Y-127593571D01*
X127666666Y-127593571D02*
X127523809Y-127593571D01*
X127523809Y-127593571D02*
X127428571Y-127641190D01*
X127428571Y-127641190D02*
X127380952Y-127688809D01*
X127380952Y-127688809D02*
X127333333Y-127784047D01*
X127333333Y-127784047D02*
X127333333Y-128022142D01*
X127333333Y-128022142D02*
X127380952Y-128117380D01*
X127380952Y-128117380D02*
X127428571Y-128165000D01*
X127428571Y-128165000D02*
X127523809Y-128212619D01*
X127523809Y-128212619D02*
X127809523Y-128212619D01*
X127809523Y-128212619D02*
X127904761Y-128165000D01*
X127904761Y-128165000D02*
X127952380Y-128117380D01*
%TO.C,D1*%
X126243094Y-87002619D02*
X126243094Y-86002619D01*
X126243094Y-86002619D02*
X126004999Y-86002619D01*
X126004999Y-86002619D02*
X125862142Y-86050238D01*
X125862142Y-86050238D02*
X125766904Y-86145476D01*
X125766904Y-86145476D02*
X125719285Y-86240714D01*
X125719285Y-86240714D02*
X125671666Y-86431190D01*
X125671666Y-86431190D02*
X125671666Y-86574047D01*
X125671666Y-86574047D02*
X125719285Y-86764523D01*
X125719285Y-86764523D02*
X125766904Y-86859761D01*
X125766904Y-86859761D02*
X125862142Y-86955000D01*
X125862142Y-86955000D02*
X126004999Y-87002619D01*
X126004999Y-87002619D02*
X126243094Y-87002619D01*
X124719285Y-87002619D02*
X125290713Y-87002619D01*
X125004999Y-87002619D02*
X125004999Y-86002619D01*
X125004999Y-86002619D02*
X125100237Y-86145476D01*
X125100237Y-86145476D02*
X125195475Y-86240714D01*
X125195475Y-86240714D02*
X125290713Y-86288333D01*
D11*
%TO.C,D2*%
X143565000Y-90580000D02*
X143565000Y-90736000D01*
X143565000Y-88264000D02*
X143565000Y-88420000D01*
X140332666Y-90578608D02*
G75*
G03*
X143564999Y-90735515I1672334J1078608D01*
G01*
X140963871Y-90579836D02*
G75*
G03*
X143045960Y-90579999I1041129J1079836D01*
G01*
X143045960Y-88420001D02*
G75*
G03*
X140963871Y-88420164I-1040960J-1079999D01*
G01*
X143564999Y-88264485D02*
G75*
G03*
X140332666Y-88421392I-1559999J-1235515D01*
G01*
%TO.C,U2*%
X138644000Y-93730000D02*
X138644000Y-93730000D01*
X138644000Y-93730000D02*
X127976000Y-93730000D01*
X127976000Y-93730000D02*
X127976000Y-93730000D01*
X127976000Y-93730000D02*
X127976000Y-99064000D01*
X130770000Y-93984000D02*
X130770000Y-93984000D01*
X130770000Y-96270000D02*
X130770000Y-93984000D01*
X128484000Y-96270000D02*
X130770000Y-96270000D01*
X138644000Y-99064000D02*
X138644000Y-93730000D01*
X127976000Y-99064000D02*
X138644000Y-99064000D01*
X125900000Y-93222000D02*
X141200000Y-93222000D01*
X141200000Y-93222000D02*
X141200000Y-134022000D01*
X141200000Y-134022000D02*
X125900000Y-134022000D01*
X125900000Y-134022000D02*
X125900000Y-93222000D01*
%TO.C,J1*%
X142300000Y-126395000D02*
X143570000Y-126395000D01*
X143570000Y-126395000D02*
X143570000Y-125125000D01*
X134300000Y-124082071D02*
X134300000Y-123685000D01*
X135060000Y-124082071D02*
X135060000Y-123685000D01*
X136840000Y-124082071D02*
X136840000Y-123685000D01*
X137600000Y-124082071D02*
X137600000Y-123685000D01*
X139380000Y-124082071D02*
X139380000Y-123685000D01*
X140140000Y-124082071D02*
X140140000Y-123685000D01*
X141920000Y-124015000D02*
X141920000Y-123685000D01*
X142680000Y-124015000D02*
X142680000Y-123685000D01*
X133350000Y-123685000D02*
X133350000Y-121025000D01*
X135950000Y-123685000D02*
X135950000Y-121025000D01*
X138490000Y-123685000D02*
X138490000Y-121025000D01*
X141030000Y-123685000D02*
X141030000Y-121025000D01*
X143630000Y-123685000D02*
X133350000Y-123685000D01*
X133350000Y-121025000D02*
X143630000Y-121025000D01*
X135060000Y-121025000D02*
X135060000Y-115025000D01*
X137600000Y-121025000D02*
X137600000Y-115025000D01*
X140140000Y-121025000D02*
X140140000Y-115025000D01*
X142020000Y-121025000D02*
X142020000Y-115025000D01*
X142140000Y-121025000D02*
X142140000Y-115025000D01*
X142260000Y-121025000D02*
X142260000Y-115025000D01*
X142380000Y-121025000D02*
X142380000Y-115025000D01*
X142500000Y-121025000D02*
X142500000Y-115025000D01*
X142620000Y-121025000D02*
X142620000Y-115025000D01*
X142680000Y-121025000D02*
X142680000Y-115025000D01*
X143630000Y-121025000D02*
X143630000Y-123685000D01*
X134300000Y-115025000D02*
X134300000Y-121025000D01*
X135060000Y-115025000D02*
X134300000Y-115025000D01*
X136840000Y-115025000D02*
X136840000Y-121025000D01*
X137600000Y-115025000D02*
X136840000Y-115025000D01*
X139380000Y-115025000D02*
X139380000Y-121025000D01*
X140140000Y-115025000D02*
X139380000Y-115025000D01*
X141920000Y-115025000D02*
X141920000Y-121025000D01*
X142680000Y-115025000D02*
X141920000Y-115025000D01*
%TO.C,J2*%
X137860000Y-91780000D02*
X137860000Y-83360000D01*
X137860000Y-84580000D02*
X136640000Y-84580000D01*
X137860000Y-83360000D02*
X130140000Y-83360000D01*
X136640000Y-91780000D02*
X137860000Y-91780000D01*
X136640000Y-89580000D02*
X137860000Y-89580000D01*
X136640000Y-89580000D02*
X136640000Y-91780000D01*
X136640000Y-88580000D02*
X131360000Y-88580000D01*
X136640000Y-84580000D02*
X136640000Y-89580000D01*
X135570000Y-88580000D02*
X135570000Y-85160000D01*
X135570000Y-85160000D02*
X135250000Y-85080000D01*
X135550000Y-92270000D02*
X134950000Y-92270000D01*
X135250000Y-91670000D02*
X135550000Y-92270000D01*
X135250000Y-88580000D02*
X135570000Y-88580000D01*
X135250000Y-85080000D02*
X134930000Y-85160000D01*
X134950000Y-92270000D02*
X135250000Y-91670000D01*
X134930000Y-88580000D02*
X135250000Y-88580000D01*
X134930000Y-85160000D02*
X134930000Y-88580000D01*
X134080000Y-89580000D02*
X133920000Y-89580000D01*
X133070000Y-88580000D02*
X133070000Y-85160000D01*
X133070000Y-85160000D02*
X132750000Y-85080000D01*
X132750000Y-88580000D02*
X133070000Y-88580000D01*
X132750000Y-85080000D02*
X132430000Y-85160000D01*
X132430000Y-88580000D02*
X132750000Y-88580000D01*
X132430000Y-85160000D02*
X132430000Y-88580000D01*
X131360000Y-91780000D02*
X131360000Y-89580000D01*
X131360000Y-89580000D02*
X130140000Y-89580000D01*
X131360000Y-84580000D02*
X131360000Y-89580000D01*
X130140000Y-91780000D02*
X131360000Y-91780000D01*
X130140000Y-84580000D02*
X131360000Y-84580000D01*
X130140000Y-83360000D02*
X130140000Y-91780000D01*
%TO.C,J3*%
X130525000Y-126395000D02*
X131795000Y-126395000D01*
X131795000Y-126395000D02*
X131795000Y-125125000D01*
X125065000Y-124082071D02*
X125065000Y-123685000D01*
X125825000Y-124082071D02*
X125825000Y-123685000D01*
X127605000Y-124082071D02*
X127605000Y-123685000D01*
X128365000Y-124082071D02*
X128365000Y-123685000D01*
X130145000Y-124015000D02*
X130145000Y-123685000D01*
X130905000Y-124015000D02*
X130905000Y-123685000D01*
X124115000Y-123685000D02*
X124115000Y-121025000D01*
X126715000Y-123685000D02*
X126715000Y-121025000D01*
X129255000Y-123685000D02*
X129255000Y-121025000D01*
X131855000Y-123685000D02*
X124115000Y-123685000D01*
X124115000Y-121025000D02*
X131855000Y-121025000D01*
X125825000Y-121025000D02*
X125825000Y-115025000D01*
X128365000Y-121025000D02*
X128365000Y-115025000D01*
X130245000Y-121025000D02*
X130245000Y-115025000D01*
X130365000Y-121025000D02*
X130365000Y-115025000D01*
X130485000Y-121025000D02*
X130485000Y-115025000D01*
X130605000Y-121025000D02*
X130605000Y-115025000D01*
X130725000Y-121025000D02*
X130725000Y-115025000D01*
X130845000Y-121025000D02*
X130845000Y-115025000D01*
X130905000Y-121025000D02*
X130905000Y-115025000D01*
X131855000Y-121025000D02*
X131855000Y-123685000D01*
X125065000Y-115025000D02*
X125065000Y-121025000D01*
X125825000Y-115025000D02*
X125065000Y-115025000D01*
X127605000Y-115025000D02*
X127605000Y-121025000D01*
X128365000Y-115025000D02*
X127605000Y-115025000D01*
X130145000Y-115025000D02*
X130145000Y-121025000D01*
X130905000Y-115025000D02*
X130145000Y-115025000D01*
%TO.C,D1*%
X127065000Y-90580000D02*
X127065000Y-90736000D01*
X127065000Y-88264000D02*
X127065000Y-88420000D01*
X123832666Y-90578608D02*
G75*
G03*
X127064999Y-90735515I1672334J1078608D01*
G01*
X124463871Y-90579836D02*
G75*
G03*
X126545960Y-90579999I1041129J1079836D01*
G01*
X126545960Y-88420001D02*
G75*
G03*
X124463871Y-88420164I-1040960J-1079999D01*
G01*
X127064999Y-88264485D02*
G75*
G03*
X123832666Y-88421392I-1559999J-1235515D01*
G01*
%TD*%
M02*
