%TF.GenerationSoftware,KiCad,Pcbnew,(6.0.11)*%
%TF.CreationDate,2023-02-26T16:40:05+01:00*%
%TF.ProjectId,OpenDTU_Breakout,4f70656e-4454-4555-9f42-7265616b6f75,rev?*%
%TF.SameCoordinates,Original*%
%TF.FileFunction,Legend,Top*%
%TF.FilePolarity,Positive*%
%FSLAX46Y46*%
G04 Gerber Fmt 4.6, Leading zero omitted, Abs format (unit mm)*
G04 Created by KiCad (PCBNEW (6.0.11)) date 2023-02-26 16:40:05*
%MOMM*%
%LPD*%
G01*
G04 APERTURE LIST*
%ADD10C,0.150000*%
%ADD11C,0.120000*%
G04 APERTURE END LIST*
D10*
%TO.C,R3*%
X129952380Y-110166666D02*
X129476190Y-110500000D01*
X129952380Y-110738095D02*
X128952380Y-110738095D01*
X128952380Y-110357142D01*
X129000000Y-110261904D01*
X129047619Y-110214285D01*
X129142857Y-110166666D01*
X129285714Y-110166666D01*
X129380952Y-110214285D01*
X129428571Y-110261904D01*
X129476190Y-110357142D01*
X129476190Y-110738095D01*
X128952380Y-109833333D02*
X128952380Y-109214285D01*
X129333333Y-109547619D01*
X129333333Y-109404761D01*
X129380952Y-109309523D01*
X129428571Y-109261904D01*
X129523809Y-109214285D01*
X129761904Y-109214285D01*
X129857142Y-109261904D01*
X129904761Y-109309523D01*
X129952380Y-109404761D01*
X129952380Y-109690476D01*
X129904761Y-109785714D01*
X129857142Y-109833333D01*
%TO.C,R2*%
X133952380Y-110086666D02*
X133476190Y-110420000D01*
X133952380Y-110658095D02*
X132952380Y-110658095D01*
X132952380Y-110277142D01*
X133000000Y-110181904D01*
X133047619Y-110134285D01*
X133142857Y-110086666D01*
X133285714Y-110086666D01*
X133380952Y-110134285D01*
X133428571Y-110181904D01*
X133476190Y-110277142D01*
X133476190Y-110658095D01*
X133047619Y-109705714D02*
X133000000Y-109658095D01*
X132952380Y-109562857D01*
X132952380Y-109324761D01*
X133000000Y-109229523D01*
X133047619Y-109181904D01*
X133142857Y-109134285D01*
X133238095Y-109134285D01*
X133380952Y-109181904D01*
X133952380Y-109753333D01*
X133952380Y-109134285D01*
%TO.C,R1*%
X125702380Y-110166666D02*
X125226190Y-110500000D01*
X125702380Y-110738095D02*
X124702380Y-110738095D01*
X124702380Y-110357142D01*
X124750000Y-110261904D01*
X124797619Y-110214285D01*
X124892857Y-110166666D01*
X125035714Y-110166666D01*
X125130952Y-110214285D01*
X125178571Y-110261904D01*
X125226190Y-110357142D01*
X125226190Y-110738095D01*
X125702380Y-109214285D02*
X125702380Y-109785714D01*
X125702380Y-109500000D02*
X124702380Y-109500000D01*
X124845238Y-109595238D01*
X124940476Y-109690476D01*
X124988095Y-109785714D01*
%TO.C,C1*%
X138378221Y-110607142D02*
X138330602Y-110654761D01*
X138187745Y-110702380D01*
X138092507Y-110702380D01*
X137949649Y-110654761D01*
X137854411Y-110559523D01*
X137806792Y-110464285D01*
X137759173Y-110273809D01*
X137759173Y-110130952D01*
X137806792Y-109940476D01*
X137854411Y-109845238D01*
X137949649Y-109750000D01*
X138092507Y-109702380D01*
X138187745Y-109702380D01*
X138330602Y-109750000D01*
X138378221Y-109797619D01*
X139330602Y-110702380D02*
X138759173Y-110702380D01*
X139044888Y-110702380D02*
X139044888Y-109702380D01*
X138949649Y-109845238D01*
X138854411Y-109940476D01*
X138759173Y-109988095D01*
%TO.C,J1*%
X138166666Y-121952380D02*
X138166666Y-122666666D01*
X138119047Y-122809523D01*
X138023809Y-122904761D01*
X137880952Y-122952380D01*
X137785714Y-122952380D01*
X139166666Y-122952380D02*
X138595238Y-122952380D01*
X138880952Y-122952380D02*
X138880952Y-121952380D01*
X138785714Y-122095238D01*
X138690476Y-122190476D01*
X138595238Y-122238095D01*
%TO.C,J3*%
X127666666Y-121952380D02*
X127666666Y-122666666D01*
X127619047Y-122809523D01*
X127523809Y-122904761D01*
X127380952Y-122952380D01*
X127285714Y-122952380D01*
X128047619Y-121952380D02*
X128666666Y-121952380D01*
X128333333Y-122333333D01*
X128476190Y-122333333D01*
X128571428Y-122380952D01*
X128619047Y-122428571D01*
X128666666Y-122523809D01*
X128666666Y-122761904D01*
X128619047Y-122857142D01*
X128571428Y-122904761D01*
X128476190Y-122952380D01*
X128190476Y-122952380D01*
X128095238Y-122904761D01*
X128047619Y-122857142D01*
%TO.C,C2*%
X138333333Y-117857142D02*
X138285714Y-117904761D01*
X138142857Y-117952380D01*
X138047619Y-117952380D01*
X137904761Y-117904761D01*
X137809523Y-117809523D01*
X137761904Y-117714285D01*
X137714285Y-117523809D01*
X137714285Y-117380952D01*
X137761904Y-117190476D01*
X137809523Y-117095238D01*
X137904761Y-117000000D01*
X138047619Y-116952380D01*
X138142857Y-116952380D01*
X138285714Y-117000000D01*
X138333333Y-117047619D01*
X138714285Y-117047619D02*
X138761904Y-117000000D01*
X138857142Y-116952380D01*
X139095238Y-116952380D01*
X139190476Y-117000000D01*
X139238095Y-117047619D01*
X139285714Y-117142857D01*
X139285714Y-117238095D01*
X139238095Y-117380952D01*
X138666666Y-117952380D01*
X139285714Y-117952380D01*
D11*
%TO.C,R3*%
X129500000Y-105960000D02*
X129500000Y-106730000D01*
X130870000Y-106730000D02*
X128130000Y-106730000D01*
X128130000Y-113270000D02*
X130870000Y-113270000D01*
X128130000Y-106730000D02*
X128130000Y-113270000D01*
X130870000Y-113270000D02*
X130870000Y-106730000D01*
X129500000Y-114040000D02*
X129500000Y-113270000D01*
%TO.C,R2*%
X134870000Y-113190000D02*
X134870000Y-106650000D01*
X134870000Y-106650000D02*
X132130000Y-106650000D01*
X132130000Y-106650000D02*
X132130000Y-113190000D01*
X133500000Y-105880000D02*
X133500000Y-106650000D01*
X132130000Y-113190000D02*
X134870000Y-113190000D01*
X133500000Y-113960000D02*
X133500000Y-113190000D01*
%TO.C,R1*%
X123880000Y-106730000D02*
X123880000Y-113270000D01*
X125250000Y-114040000D02*
X125250000Y-113270000D01*
X125250000Y-105960000D02*
X125250000Y-106730000D01*
X126620000Y-106730000D02*
X123880000Y-106730000D01*
X126620000Y-113270000D02*
X126620000Y-106730000D01*
X123880000Y-113270000D02*
X126620000Y-113270000D01*
%TO.C,C1*%
X139104888Y-103980000D02*
X139104888Y-105460000D01*
X140145888Y-104465000D02*
X140145888Y-105460000D01*
X138824888Y-107540000D02*
X138824888Y-109065000D01*
X138624888Y-107540000D02*
X138624888Y-109079000D01*
X139985888Y-104351000D02*
X139985888Y-105460000D01*
X139265888Y-107540000D02*
X139265888Y-108980000D01*
X138544888Y-103920000D02*
X138544888Y-105460000D01*
X139745888Y-104210000D02*
X139745888Y-105460000D01*
X139505888Y-104102000D02*
X139505888Y-105460000D01*
X139545888Y-104118000D02*
X139545888Y-105460000D01*
X140785888Y-105181000D02*
X140785888Y-107819000D01*
X139945888Y-107540000D02*
X139945888Y-108675000D01*
X140705888Y-105057000D02*
X140705888Y-107943000D01*
X139425888Y-104072000D02*
X139425888Y-105460000D01*
X140985888Y-105585000D02*
X140985888Y-107415000D01*
X139064888Y-107540000D02*
X139064888Y-109028000D01*
X139785888Y-107540000D02*
X139785888Y-108768000D01*
X139465888Y-104086000D02*
X139465888Y-105460000D01*
X139345888Y-104045000D02*
X139345888Y-105460000D01*
X138784888Y-107540000D02*
X138784888Y-109069000D01*
X138944888Y-107540000D02*
X138944888Y-109050000D01*
X140465888Y-107540000D02*
X140465888Y-108243000D01*
X140225888Y-104529000D02*
X140225888Y-105460000D01*
X140225888Y-107540000D02*
X140225888Y-108471000D01*
X138624888Y-103921000D02*
X138624888Y-105460000D01*
X138744888Y-107540000D02*
X138744888Y-109073000D01*
X140505888Y-104801000D02*
X140505888Y-105460000D01*
X140905888Y-105402000D02*
X140905888Y-107598000D01*
X140425888Y-104715000D02*
X140425888Y-105460000D01*
X140505888Y-107540000D02*
X140505888Y-108199000D01*
X138864888Y-103939000D02*
X138864888Y-105460000D01*
X138904888Y-103944000D02*
X138904888Y-105460000D01*
X138904888Y-107540000D02*
X138904888Y-109056000D01*
X140145888Y-107540000D02*
X140145888Y-108535000D01*
X139184888Y-103999000D02*
X139184888Y-105460000D01*
X140265888Y-107540000D02*
X140265888Y-108437000D01*
X139665888Y-104171000D02*
X139665888Y-105460000D01*
X140025888Y-107540000D02*
X140025888Y-108622000D01*
X140305888Y-104599000D02*
X140305888Y-105460000D01*
X139505888Y-107540000D02*
X139505888Y-108898000D01*
X139705888Y-104190000D02*
X139705888Y-105460000D01*
X139425888Y-107540000D02*
X139425888Y-108928000D01*
X141105888Y-105982000D02*
X141105888Y-107018000D01*
X140185888Y-104496000D02*
X140185888Y-105460000D01*
X138984888Y-107540000D02*
X138984888Y-109043000D01*
X139224888Y-104009000D02*
X139224888Y-105460000D01*
X138584888Y-103920000D02*
X138584888Y-105460000D01*
X141065888Y-105823000D02*
X141065888Y-107177000D01*
X140065888Y-104405000D02*
X140065888Y-105460000D01*
X138664888Y-107540000D02*
X138664888Y-109078000D01*
X139024888Y-103964000D02*
X139024888Y-105460000D01*
X139385888Y-107540000D02*
X139385888Y-108942000D01*
X139224888Y-107540000D02*
X139224888Y-108991000D01*
X138864888Y-107540000D02*
X138864888Y-109061000D01*
X140825888Y-105249000D02*
X140825888Y-107751000D01*
X139345888Y-107540000D02*
X139345888Y-108955000D01*
X140345888Y-107540000D02*
X140345888Y-108364000D01*
X138984888Y-103957000D02*
X138984888Y-105460000D01*
X139144888Y-107540000D02*
X139144888Y-109011000D01*
X139465888Y-107540000D02*
X139465888Y-108914000D01*
X139625888Y-104152000D02*
X139625888Y-105460000D01*
X138544888Y-107540000D02*
X138544888Y-109080000D01*
X140665888Y-105000000D02*
X140665888Y-108000000D01*
X140585888Y-104895000D02*
X140585888Y-108105000D01*
X138704888Y-107540000D02*
X138704888Y-109076000D01*
X139144888Y-103989000D02*
X139144888Y-105460000D01*
X140025888Y-104378000D02*
X140025888Y-105460000D01*
X139305888Y-107540000D02*
X139305888Y-108968000D01*
X139865888Y-104276000D02*
X139865888Y-105460000D01*
X140625888Y-104946000D02*
X140625888Y-108054000D01*
X139905888Y-104300000D02*
X139905888Y-105460000D01*
X139625888Y-107540000D02*
X139625888Y-108848000D01*
X139865888Y-107540000D02*
X139865888Y-108724000D01*
X139184888Y-107540000D02*
X139184888Y-109001000D01*
X135990113Y-104775000D02*
X135990113Y-105275000D01*
X140545888Y-104847000D02*
X140545888Y-105460000D01*
X139545888Y-107540000D02*
X139545888Y-108882000D01*
X140305888Y-107540000D02*
X140305888Y-108401000D01*
X139745888Y-107540000D02*
X139745888Y-108790000D01*
X141145888Y-106216000D02*
X141145888Y-106784000D01*
X139985888Y-107540000D02*
X139985888Y-108649000D01*
X139705888Y-107540000D02*
X139705888Y-108810000D01*
X139825888Y-107540000D02*
X139825888Y-108747000D01*
X138744888Y-103927000D02*
X138744888Y-105460000D01*
X140265888Y-104563000D02*
X140265888Y-105460000D01*
X139265888Y-104020000D02*
X139265888Y-105460000D01*
X138584888Y-107540000D02*
X138584888Y-109080000D01*
X139104888Y-107540000D02*
X139104888Y-109020000D01*
X140105888Y-104435000D02*
X140105888Y-105460000D01*
X138944888Y-103950000D02*
X138944888Y-105460000D01*
X140385888Y-107540000D02*
X140385888Y-108326000D01*
X140385888Y-104674000D02*
X140385888Y-105460000D01*
X139585888Y-104135000D02*
X139585888Y-105460000D01*
X141025888Y-105695000D02*
X141025888Y-107305000D01*
X140105888Y-107540000D02*
X140105888Y-108565000D01*
X140465888Y-104757000D02*
X140465888Y-105460000D01*
X140425888Y-107540000D02*
X140425888Y-108285000D01*
X138664888Y-103922000D02*
X138664888Y-105460000D01*
X140545888Y-107540000D02*
X140545888Y-108153000D01*
X140945888Y-105489000D02*
X140945888Y-107511000D01*
X140185888Y-107540000D02*
X140185888Y-108504000D01*
X139945888Y-104325000D02*
X139945888Y-105460000D01*
X139825888Y-104253000D02*
X139825888Y-105460000D01*
X135740113Y-105025000D02*
X136240113Y-105025000D01*
X139385888Y-104058000D02*
X139385888Y-105460000D01*
X139665888Y-107540000D02*
X139665888Y-108829000D01*
X139785888Y-104232000D02*
X139785888Y-105460000D01*
X138824888Y-103935000D02*
X138824888Y-105460000D01*
X140745888Y-105117000D02*
X140745888Y-107883000D01*
X139064888Y-103972000D02*
X139064888Y-105460000D01*
X139905888Y-107540000D02*
X139905888Y-108700000D01*
X138784888Y-103931000D02*
X138784888Y-105460000D01*
X139585888Y-107540000D02*
X139585888Y-108865000D01*
X140345888Y-104636000D02*
X140345888Y-105460000D01*
X140065888Y-107540000D02*
X140065888Y-108595000D01*
X139024888Y-107540000D02*
X139024888Y-109036000D01*
X140865888Y-105322000D02*
X140865888Y-107678000D01*
X139305888Y-104032000D02*
X139305888Y-105460000D01*
X138704888Y-103924000D02*
X138704888Y-105460000D01*
X141164888Y-106500000D02*
G75*
G03*
X141164888Y-106500000I-2620000J0D01*
G01*
%TO.C,J1*%
X142300000Y-123855000D02*
X143570000Y-123855000D01*
X134300000Y-135225000D02*
X134300000Y-129225000D01*
X133350000Y-129225000D02*
X143630000Y-129225000D01*
X140140000Y-135225000D02*
X139380000Y-135225000D01*
X137600000Y-129225000D02*
X137600000Y-135225000D01*
X139380000Y-126167929D02*
X139380000Y-126565000D01*
X140140000Y-129225000D02*
X140140000Y-135225000D01*
X142620000Y-129225000D02*
X142620000Y-135225000D01*
X140140000Y-126167929D02*
X140140000Y-126565000D01*
X135060000Y-135225000D02*
X134300000Y-135225000D01*
X142680000Y-135225000D02*
X141920000Y-135225000D01*
X142380000Y-129225000D02*
X142380000Y-135225000D01*
X135060000Y-129225000D02*
X135060000Y-135225000D01*
X136840000Y-135225000D02*
X136840000Y-129225000D01*
X135950000Y-126565000D02*
X135950000Y-129225000D01*
X143570000Y-123855000D02*
X143570000Y-125125000D01*
X136840000Y-126167929D02*
X136840000Y-126565000D01*
X143630000Y-129225000D02*
X143630000Y-126565000D01*
X142680000Y-126235000D02*
X142680000Y-126565000D01*
X141030000Y-126565000D02*
X141030000Y-129225000D01*
X142500000Y-129225000D02*
X142500000Y-135225000D01*
X142140000Y-129225000D02*
X142140000Y-135225000D01*
X134300000Y-126167929D02*
X134300000Y-126565000D01*
X137600000Y-135225000D02*
X136840000Y-135225000D01*
X139380000Y-135225000D02*
X139380000Y-129225000D01*
X143630000Y-126565000D02*
X133350000Y-126565000D01*
X142680000Y-129225000D02*
X142680000Y-135225000D01*
X137600000Y-126167929D02*
X137600000Y-126565000D01*
X141920000Y-126235000D02*
X141920000Y-126565000D01*
X133350000Y-126565000D02*
X133350000Y-129225000D01*
X142260000Y-129225000D02*
X142260000Y-135225000D01*
X141920000Y-135225000D02*
X141920000Y-129225000D01*
X138490000Y-126565000D02*
X138490000Y-129225000D01*
X135060000Y-126167929D02*
X135060000Y-126565000D01*
X142020000Y-129225000D02*
X142020000Y-135225000D01*
%TO.C,J3*%
X130845000Y-129225000D02*
X130845000Y-135225000D01*
X129255000Y-126565000D02*
X129255000Y-129225000D01*
X131795000Y-123855000D02*
X131795000Y-125125000D01*
X130145000Y-135225000D02*
X130145000Y-129225000D01*
X128365000Y-126167929D02*
X128365000Y-126565000D01*
X130525000Y-123855000D02*
X131795000Y-123855000D01*
X130905000Y-126235000D02*
X130905000Y-126565000D01*
X128365000Y-129225000D02*
X128365000Y-135225000D01*
X130905000Y-135225000D02*
X130145000Y-135225000D01*
X125065000Y-135225000D02*
X125065000Y-129225000D01*
X125825000Y-126167929D02*
X125825000Y-126565000D01*
X131855000Y-126565000D02*
X124115000Y-126565000D01*
X130365000Y-129225000D02*
X130365000Y-135225000D01*
X130245000Y-129225000D02*
X130245000Y-135225000D01*
X130485000Y-129225000D02*
X130485000Y-135225000D01*
X130145000Y-126235000D02*
X130145000Y-126565000D01*
X125065000Y-126167929D02*
X125065000Y-126565000D01*
X128365000Y-135225000D02*
X127605000Y-135225000D01*
X124115000Y-129225000D02*
X131855000Y-129225000D01*
X130725000Y-129225000D02*
X130725000Y-135225000D01*
X130905000Y-129225000D02*
X130905000Y-135225000D01*
X127605000Y-126167929D02*
X127605000Y-126565000D01*
X127605000Y-135225000D02*
X127605000Y-129225000D01*
X125825000Y-135225000D02*
X125065000Y-135225000D01*
X126715000Y-126565000D02*
X126715000Y-129225000D01*
X131855000Y-129225000D02*
X131855000Y-126565000D01*
X125825000Y-129225000D02*
X125825000Y-135225000D01*
X130605000Y-129225000D02*
X130605000Y-135225000D01*
X124115000Y-126565000D02*
X124115000Y-129225000D01*
%TO.C,C2*%
X136230000Y-116430000D02*
X140770000Y-116430000D01*
X140770000Y-118555000D02*
X140770000Y-118570000D01*
X136230000Y-118570000D02*
X140770000Y-118570000D01*
X140770000Y-116430000D02*
X140770000Y-116445000D01*
X136230000Y-116430000D02*
X136230000Y-116445000D01*
X136230000Y-118555000D02*
X136230000Y-118570000D01*
%TO.C,U1*%
X119745000Y-87460000D02*
X119745000Y-133240000D01*
X145145000Y-87460000D02*
X147805000Y-87460000D01*
X122405000Y-87460000D02*
X122405000Y-133240000D01*
X145145000Y-133240000D02*
X147805000Y-133240000D01*
X122405000Y-84860000D02*
X122405000Y-86190000D01*
X121075000Y-84860000D02*
X122405000Y-84860000D01*
X119745000Y-133240000D02*
X122405000Y-133240000D01*
X147805000Y-87460000D02*
X147805000Y-133240000D01*
X146475000Y-84860000D02*
X147805000Y-84860000D01*
X147805000Y-84860000D02*
X147805000Y-86190000D01*
X119745000Y-87460000D02*
X122405000Y-87460000D01*
X145145000Y-87460000D02*
X145145000Y-133240000D01*
%TD*%
M02*
